<?xml version="1.0" encoding="UTF-8" standalone="no"?>
<svg
   xmlns:dc="http://purl.org/dc/elements/1.1/"
   xmlns:cc="http://creativecommons.org/ns#"
   xmlns:rdf="http://www.w3.org/1999/02/22-rdf-syntax-ns#"
   xmlns:svg="http://www.w3.org/2000/svg"
   xmlns="http://www.w3.org/2000/svg"
   xmlns:sodipodi="http://sodipodi.sourceforge.net/DTD/sodipodi-0.dtd"
   xmlns:inkscape="http://www.inkscape.org/namespaces/inkscape"
   viewBox="0 0 500 372.56"
   version="1.1"
   id="svg371"
   sodipodi:docname="adopteme-2.svg"
   width="500"
   height="372.56"
   inkscape:version="1.0.2 (e86c870879, 2021-01-15, custom)">
  <metadata
     id="metadata377">
    <rdf:RDF>
      <cc:Work
         rdf:about="">
        <dc:format>image/svg+xml</dc:format>
        <dc:type
           rdf:resource="http://purl.org/dc/dcmitype/StillImage" />
        <dc:title></dc:title>
      </cc:Work>
    </rdf:RDF>
  </metadata>
  <defs
     id="defs375" />
  <sodipodi:namedview
     pagecolor="#ffffff"
     bordercolor="#666666"
     borderopacity="1"
     objecttolerance="10"
     gridtolerance="10"
     guidetolerance="10"
     inkscape:pageopacity="0"
     inkscape:pageshadow="2"
     inkscape:window-width="1920"
     inkscape:window-height="1001"
     id="namedview373"
     showgrid="false"
     fit-margin-top="0"
     fit-margin-left="0"
     fit-margin-right="0"
     fit-margin-bottom="0"
     inkscape:zoom="1.66"
     inkscape:cx="250"
     inkscape:cy="195"
     inkscape:window-x="-9"
     inkscape:window-y="-9"
     inkscape:window-maximized="1"
     inkscape:current-layer="svg371" />
  <g
     id="freepik--background-complete--inject-34"
     transform="translate(0,-55)">
    <rect
       y="382.39999"
       width="500"
       height="0.25"
       style="fill:#ebebeb"
       id="rect2"
       x="0" />
    <rect
       x="328.88"
       y="390.34"
       width="33.119999"
       height="0.25"
       style="fill:#ebebeb"
       id="rect4" />
    <rect
       x="399.78"
       y="390.47"
       width="41.139999"
       height="0.25"
       style="fill:#ebebeb"
       id="rect6" />
    <rect
       x="356.76001"
       y="397"
       width="19.190001"
       height="0.25"
       style="fill:#ebebeb"
       id="rect8" />
    <rect
       x="174"
       y="395.10999"
       width="51.669998"
       height="0.25"
       style="fill:#ebebeb"
       id="rect10" />
    <rect
       x="130.71001"
       y="395.10999"
       width="34.389999"
       height="0.25"
       style="fill:#ebebeb"
       id="rect12" />
    <rect
       x="63.290001"
       y="390.89001"
       width="46.84"
       height="0.25"
       style="fill:#ebebeb"
       id="rect14" />
    <path
       d="M 237,337.8 H 43.91 a 5.71,5.71 0 0 1 -5.7,-5.71 V 60.66 A 5.71,5.71 0 0 1 43.91,55 H 237 a 5.71,5.71 0 0 1 5.71,5.71 V 332.09 A 5.71,5.71 0 0 1 237,337.8 Z M 43.91,55.2 a 5.46,5.46 0 0 0 -5.45,5.46 v 271.43 a 5.46,5.46 0 0 0 5.45,5.46 H 237 a 5.47,5.47 0 0 0 5.46,-5.46 V 60.66 A 5.47,5.47 0 0 0 237,55.2 Z"
       style="fill:#ebebeb"
       id="path16" />
    <path
       d="m 453.31,337.8 h -193.1 a 5.72,5.72 0 0 1 -5.71,-5.71 V 60.66 A 5.72,5.72 0 0 1 260.21,55 h 193.1 a 5.71,5.71 0 0 1 5.69,5.66 v 271.43 a 5.71,5.71 0 0 1 -5.69,5.71 z M 260.21,55.2 a 5.47,5.47 0 0 0 -5.46,5.46 v 271.43 a 5.47,5.47 0 0 0 5.46,5.46 h 193.1 a 5.47,5.47 0 0 0 5.46,-5.46 V 60.66 a 5.47,5.47 0 0 0 -5.46,-5.46 z"
       style="fill:#ebebeb"
       id="path18" />
    <path
       d="m 377.77,221.78 c 0,6.77 -4.71,9.43 -10.51,9.43 -5.8,0 -10.5,-2.66 -10.5,-9.43 0,-6.77 4.7,-12.25 10.5,-12.25 5.8,0 10.51,5.47 10.51,12.25 z"
       style="fill:#e0e0e0"
       id="path20" />
    <path
       d="m 356.79,207.61 c 0,0 -0.48,6.07 2.7,9.15 l 6.11,-4.35 c -1.32,-2.9 -8.81,-4.8 -8.81,-4.8 z"
       style="fill:#e0e0e0"
       id="path22" />
    <path
       d="m 380.34,208.43 c 0,0 -6.91,0.13 -10.07,3.6 l 5.53,5.65 c 3.2,-1.61 4.54,-9.25 4.54,-9.25 z"
       style="fill:#e0e0e0"
       id="path24" />
    <path
       d="m 360.18,226.44 c -0.41,9.34 1.36,36.23 3.78,40.06 -2.92,-0.83 -4.67,1.33 -3.38,3.54 h 44.3 c 0,0 5.33,-28.37 -22,-30.71 -5.16,-5.55 -7.43,-14.94 -7.43,-14.94 z"
       style="fill:#e0e0e0"
       id="path26" />
    <path
       d="m 402.55,262.83 a 5.67,5.67 0 0 0 4,0.55 11.83,11.83 0 0 0 4.27,-1.64 13,13 0 0 0 5.61,-7.2 14.4,14.4 0 0 0 -0.61,-9.21 24.66,24.66 0 0 0 -2.2,-4.31 c -0.41,-0.71 -0.94,-1.35 -1.39,-2 -0.45,-0.65 -1.06,-1.43 -1.55,-2.18 a 27.69,27.69 0 0 1 -2.58,-4.81 16.63,16.63 0 0 1 -1.23,-5.59 10.65,10.65 0 0 1 1.47,-5.9 10.84,10.84 0 0 1 4.58,-4.15 17.06,17.06 0 0 1 11.56,-0.76 24,24 0 0 1 5.33,2.07 31.94,31.94 0 0 1 4.73,3.16 2.7713038,2.7713038 0 0 1 -3.46,4.33 2.09,2.09 0 0 1 -0.22,-0.2 v 0 a 20.28,20.28 0 0 0 -7.67,-4.87 12.59,12.59 0 0 0 -8.58,-0.06 6.7,6.7 0 0 0 -3.1,2.46 7,7 0 0 0 -1.11,3.9 13.29,13.29 0 0 0 0.8,4.45 24.93,24.93 0 0 0 2.1,4.32 c 0.42,0.71 0.89,1.37 1.35,2.07 0.46,0.7 1,1.46 1.48,2.25 a 26.52,26.52 0 0 1 2.37,4.88 17.4,17.4 0 0 1 0.5,11 15.65,15.65 0 0 1 -6.73,8.72 14.92,14.92 0 0 1 -5.22,2.14 10,10 0 0 1 -3,0.15 7.47,7.47 0 0 1 -3.06,-0.93 1.503338,1.503338 0 0 1 1.51,-2.6 h 0.05 z"
       style="fill:#e0e0e0"
       id="path28" />
    <path
       d="m 226.06,140.56 c 3,-11.78 1.44,-18.36 1.44,-18.36 0,0 -2.23,-2.76 -0.95,-5.42 a 40.86,40.86 0 0 1 5.39,3.22 c 1.12,-1.28 10,-0.56 12.78,0.33 -1.22,-1.72 -0.28,-4.11 -0.28,-4.11 a 12.91,12.91 0 0 1 5.95,6 c 2.17,4.41 1.75,14.3 1.75,14.3 0,0 33.19,-10.33 35.92,24.17 h -60 c 0,0 -4.43,-10.63 -2,-20.13 z"
       style="fill:#e0e0e0"
       id="path30" />
    <path
       d="m 78.73,307.9 c 2,-1 6.53,-1.85 10.47,-5.82 0.36,-4.92 6.89,-10.84 17.63,-10.2 11,0.66 15.93,28.73 6.76,20.34 2.14,6.92 2.78,22.68 21.87,37.47 13.71,10.62 13.78,31.2 3,31.2 H 86.25 c -4.78,0 0,-8.95 5.48,-8.23 5,-3.58 4.06,-25.54 4.06,-25.54 0,0 -7.5,-22 -2.47,-29.56 -5.82,2.96 -19.06,0.3 -14.59,-9.66 z"
       style="fill:#e0e0e0"
       id="path32" />
    <path
       d="m 158.54,346.53 c 3.81,11.28 -1.08,25.15 -15.76,22.16 l 1.08,3 c 16.31,9.5 31.81,-11.69 14.68,-25.16 z"
       style="fill:#e0e0e0"
       id="path34" />
    <path
       d="M 176.16,273.6 V 380.46 H 54.93 V 273.6 h 121.23 m 1.94,-1.93 H 53 V 382.4 h 125.1 z"
       style="fill:#f0f0f0"
       id="path36" />
    <rect
       x="58.040001"
       y="271.67001"
       width="1.9299999"
       height="110.73"
       style="fill:#f0f0f0"
       id="rect38" />
    <rect
       x="80.650002"
       y="271.67001"
       width="1.9299999"
       height="110.73"
       style="fill:#f0f0f0"
       id="rect40" />
    <rect
       x="103.27"
       y="271.67001"
       width="1.9299999"
       height="110.73"
       style="fill:#f0f0f0"
       id="rect42" />
    <rect
       x="125.89"
       y="271.67001"
       width="1.9299999"
       height="110.73"
       style="fill:#f0f0f0"
       id="rect44" />
    <rect
       x="148.50999"
       y="271.67001"
       width="1.9299999"
       height="110.73"
       style="fill:#f0f0f0"
       id="rect46" />
    <rect
       x="171.12"
       y="271.67001"
       width="1.9299999"
       height="110.73"
       style="fill:#f0f0f0"
       id="rect48" />
    <rect
       x="53.619999"
       y="327.03"
       width="18.709999"
       height="18.17"
       style="fill:#f0f0f0"
       id="rect50" />
    <path
       d="M 310.62,273.6 V 380.46 H 189.38 V 273.6 h 121.24 m 1.93,-1.93 H 187.45 V 382.4 h 125.1 z"
       style="fill:#f0f0f0"
       id="path52" />
    <rect
       x="192.49001"
       y="271.67001"
       width="1.9299999"
       height="110.73"
       style="fill:#f0f0f0"
       id="rect54" />
    <rect
       x="215.10001"
       y="271.67001"
       width="1.9299999"
       height="110.73"
       style="fill:#f0f0f0"
       id="rect56" />
    <rect
       x="237.72"
       y="271.67001"
       width="1.9299999"
       height="110.73"
       style="fill:#f0f0f0"
       id="rect58" />
    <rect
       x="260.34"
       y="271.67001"
       width="1.9299999"
       height="110.73"
       style="fill:#f0f0f0"
       id="rect60" />
    <rect
       x="282.95999"
       y="271.67001"
       width="1.9299999"
       height="110.73"
       style="fill:#f0f0f0"
       id="rect62" />
    <rect
       x="305.57999"
       y="271.67001"
       width="1.9299999"
       height="110.73"
       style="fill:#f0f0f0"
       id="rect64" />
    <rect
       x="188.07001"
       y="327.03"
       width="18.709999"
       height="18.17"
       style="fill:#f0f0f0"
       id="rect66" />
    <path
       d="M 445.07,273.6 V 380.46 H 323.84 V 273.6 H 445.07 M 447,271.67 H 321.9 V 382.4 H 447 Z"
       style="fill:#f0f0f0"
       id="path68" />
    <rect
       x="326.94"
       y="271.67001"
       width="1.9299999"
       height="110.73"
       style="fill:#f0f0f0"
       id="rect70" />
    <rect
       x="349.54999"
       y="271.67001"
       width="1.9299999"
       height="110.73"
       style="fill:#f0f0f0"
       id="rect72" />
    <rect
       x="372.17001"
       y="271.67001"
       width="1.9299999"
       height="110.73"
       style="fill:#f0f0f0"
       id="rect74" />
    <rect
       x="394.79001"
       y="271.67001"
       width="1.9299999"
       height="110.73"
       style="fill:#f0f0f0"
       id="rect76" />
    <rect
       x="417.41"
       y="271.67001"
       width="1.9299999"
       height="110.73"
       style="fill:#f0f0f0"
       id="rect78" />
    <rect
       x="440.03"
       y="271.67001"
       width="1.9299999"
       height="110.73"
       style="fill:#f0f0f0"
       id="rect80" />
    <rect
       x="322.51999"
       y="327.03"
       width="18.709999"
       height="18.17"
       style="fill:#f0f0f0"
       id="rect82" />
    <path
       d="M 176.16,162.87 V 269.73 H 54.93 V 162.87 h 121.23 m 1.94,-1.94 H 53 v 110.73 h 125.1 z"
       style="fill:#f0f0f0"
       id="path84" />
    <rect
       x="58.040001"
       y="160.92999"
       width="1.9299999"
       height="110.73"
       style="fill:#f0f0f0"
       id="rect86" />
    <rect
       x="80.650002"
       y="160.92999"
       width="1.9299999"
       height="110.73"
       style="fill:#f0f0f0"
       id="rect88" />
    <rect
       x="103.27"
       y="160.92999"
       width="1.9299999"
       height="110.73"
       style="fill:#f0f0f0"
       id="rect90" />
    <rect
       x="125.89"
       y="160.92999"
       width="1.9299999"
       height="110.73"
       style="fill:#f0f0f0"
       id="rect92" />
    <rect
       x="148.50999"
       y="160.92999"
       width="1.9299999"
       height="110.73"
       style="fill:#f0f0f0"
       id="rect94" />
    <rect
       x="171.12"
       y="160.92999"
       width="1.9299999"
       height="110.73"
       style="fill:#f0f0f0"
       id="rect96" />
    <rect
       x="53.619999"
       y="216.3"
       width="18.709999"
       height="18.17"
       style="fill:#f0f0f0"
       id="rect98" />
    <path
       d="M 310.62,162.87 V 269.73 H 189.38 V 162.87 h 121.24 m 1.93,-1.94 h -125.1 v 110.73 h 125.1 z"
       style="fill:#f0f0f0"
       id="path100" />
    <rect
       x="192.49001"
       y="160.92999"
       width="1.9299999"
       height="110.73"
       style="fill:#f0f0f0"
       id="rect102" />
    <rect
       x="215.10001"
       y="160.92999"
       width="1.9299999"
       height="110.73"
       style="fill:#f0f0f0"
       id="rect104" />
    <rect
       x="237.72"
       y="160.92999"
       width="1.9299999"
       height="110.73"
       style="fill:#f0f0f0"
       id="rect106" />
    <rect
       x="260.34"
       y="160.92999"
       width="1.9299999"
       height="110.73"
       style="fill:#f0f0f0"
       id="rect108" />
    <rect
       x="282.95999"
       y="160.92999"
       width="1.9299999"
       height="110.73"
       style="fill:#f0f0f0"
       id="rect110" />
    <rect
       x="305.57999"
       y="160.92999"
       width="1.9299999"
       height="110.73"
       style="fill:#f0f0f0"
       id="rect112" />
    <rect
       x="188.07001"
       y="216.3"
       width="18.709999"
       height="18.17"
       style="fill:#f0f0f0"
       id="rect114" />
    <path
       d="M 445.07,162.87 V 269.73 H 323.84 V 162.87 H 445.07 M 447,160.93 H 321.9 V 271.66 H 447 Z"
       style="fill:#f0f0f0"
       id="path116" />
    <rect
       x="326.94"
       y="160.92999"
       width="1.9299999"
       height="110.73"
       style="fill:#f0f0f0"
       id="rect118" />
    <rect
       x="349.54999"
       y="160.92999"
       width="1.9299999"
       height="110.73"
       style="fill:#f0f0f0"
       id="rect120" />
    <rect
       x="372.17001"
       y="160.92999"
       width="1.9299999"
       height="110.73"
       style="fill:#f0f0f0"
       id="rect122" />
    <rect
       x="394.79001"
       y="160.92999"
       width="1.9299999"
       height="110.73"
       style="fill:#f0f0f0"
       id="rect124" />
    <rect
       x="417.41"
       y="160.92999"
       width="1.9299999"
       height="110.73"
       style="fill:#f0f0f0"
       id="rect126" />
    <rect
       x="440.03"
       y="160.92999"
       width="1.9299999"
       height="110.73"
       style="fill:#f0f0f0"
       id="rect128" />
    <rect
       x="322.51999"
       y="216.3"
       width="18.709999"
       height="18.17"
       style="fill:#f0f0f0"
       id="rect130" />
    <path
       d="M 176.16,85.38 V 159 H 54.93 V 85.38 h 121.23 m 1.94,-1.94 H 53 V 161 h 125.1 z"
       style="fill:#f0f0f0"
       id="path132" />
    <rect
       x="58.040001"
       y="83.449997"
       width="1.9299999"
       height="77.510002"
       style="fill:#f0f0f0"
       id="rect134" />
    <rect
       x="80.650002"
       y="83.449997"
       width="1.9299999"
       height="77.510002"
       style="fill:#f0f0f0"
       id="rect136" />
    <rect
       x="103.27"
       y="83.449997"
       width="1.9299999"
       height="77.510002"
       style="fill:#f0f0f0"
       id="rect138" />
    <rect
       x="125.89"
       y="83.449997"
       width="1.9299999"
       height="77.510002"
       style="fill:#f0f0f0"
       id="rect140" />
    <rect
       x="148.50999"
       y="83.449997"
       width="1.9299999"
       height="77.510002"
       style="fill:#f0f0f0"
       id="rect142" />
    <rect
       x="171.12"
       y="83.449997"
       width="1.9299999"
       height="77.510002"
       style="fill:#f0f0f0"
       id="rect144" />
    <rect
       x="53.619999"
       y="105.6"
       width="18.709999"
       height="18.17"
       style="fill:#f0f0f0"
       id="rect146" />
    <path
       d="M 310.62,85.38 V 159 H 189.38 V 85.38 h 121.24 m 1.93,-1.94 H 187.45 V 161 h 125.1 z"
       style="fill:#f0f0f0"
       id="path148" />
    <rect
       x="192.49001"
       y="83.449997"
       width="1.9299999"
       height="77.510002"
       style="fill:#f0f0f0"
       id="rect150" />
    <rect
       x="215.10001"
       y="83.449997"
       width="1.9299999"
       height="77.510002"
       style="fill:#f0f0f0"
       id="rect152" />
    <rect
       x="237.72"
       y="83.449997"
       width="1.9299999"
       height="77.510002"
       style="fill:#f0f0f0"
       id="rect154" />
    <rect
       x="260.34"
       y="83.449997"
       width="1.9299999"
       height="77.510002"
       style="fill:#f0f0f0"
       id="rect156" />
    <rect
       x="282.95999"
       y="83.449997"
       width="1.9299999"
       height="77.510002"
       style="fill:#f0f0f0"
       id="rect158" />
    <rect
       x="305.57999"
       y="83.449997"
       width="1.9299999"
       height="77.510002"
       style="fill:#f0f0f0"
       id="rect160" />
    <rect
       x="188.07001"
       y="105.6"
       width="18.709999"
       height="18.17"
       style="fill:#f0f0f0"
       id="rect162" />
    <path
       d="M 445.07,85.38 V 159 H 323.84 V 85.38 H 445.07 M 447,83.44 H 321.9 V 161 H 447 Z"
       style="fill:#f0f0f0"
       id="path164" />
    <rect
       x="326.94"
       y="83.449997"
       width="1.9299999"
       height="77.510002"
       style="fill:#f0f0f0"
       id="rect166" />
    <rect
       x="349.54999"
       y="83.449997"
       width="1.9299999"
       height="77.510002"
       style="fill:#f0f0f0"
       id="rect168" />
    <rect
       x="372.17001"
       y="83.449997"
       width="1.9299999"
       height="77.510002"
       style="fill:#f0f0f0"
       id="rect170" />
    <rect
       x="394.79001"
       y="83.449997"
       width="1.9299999"
       height="77.510002"
       style="fill:#f0f0f0"
       id="rect172" />
    <rect
       x="417.41"
       y="83.449997"
       width="1.9299999"
       height="77.510002"
       style="fill:#f0f0f0"
       id="rect174" />
    <rect
       x="440.03"
       y="83.449997"
       width="1.9299999"
       height="77.510002"
       style="fill:#f0f0f0"
       id="rect176" />
    <rect
       x="322.51999"
       y="105.6"
       width="18.709999"
       height="18.17"
       style="fill:#f0f0f0"
       id="rect178" />
  </g>
  <g
     id="freepik--Shadow--inject-34"
     transform="translate(0,-55)">
    <ellipse
       id="freepik--path--inject-34"
       cx="250"
       cy="416.23999"
       rx="193.89"
       ry="11.32"
       style="fill:#f5f5f5" />
  </g>
  <g
     id="freepik--character-1--inject-34"
     transform="translate(0,-55)">
    <path
       d="m 133.45,108.66 c -9.62,6.88 6.48,21.29 -7.87,24.53 -14.35,3.24 -4,28.35 9.75,29.83 13.75,1.48 39.59,5.43 42.92,-15.1 3,-18.74 -6.55,-18.51 -5.37,-26.27 1.44,-9.47 -1.29,-15.45 -10,-20.49 -11.88,-6.94 -32.43,-7.96 -29.43,7.5 z"
       style="fill:#263238"
       id="path183" />
    <path
       d="m 179.37,411.69 c -8.51,-0.65 -12.9,-6.47 -12.59,-12.64 0.16,-3.4 -10.72,-3.7 -10.72,-3.7 2.23,10.54 0.14,12 -0.44,14.77 -0.58,2.77 -0.26,5.73 2,5.79 2.7,0.06 3.93,-0.45 7.28,-0.32 3.92,0.15 6.56,0.31 13.51,0.32 2.77,0 4.74,-3.91 0.96,-4.22 z"
       style="fill:#00d1b2"
       id="path185" />
    <path
       d="m 177.82,213.17 c 0,0 0.84,49.39 -4.57,86.6 -0.2,31.49 -5.73,100.72 -5.73,100.72 a 23.54,23.54 0 0 1 -11.28,-0.11 c 0,0 -16,-50.56 -10.91,-101.14 -8,-53 -7.74,-86.07 -7.74,-86.07 z"
       style="fill:#263238"
       id="path187" />
    <path
       d="m 138.54,237.74 c 1,14.83 2.9,35.82 6.79,61.49 -0.38,3.8 -0.65,7.61 -0.8,11.39 16.96,-30.49 19.02,-78.62 -5.99,-72.88 z"
       style="opacity:0.2"
       id="path189" />
    <path
       d="m 111.67,410.82 a 46.54,46.54 0 0 1 1,-13.23 c 0,0 -9.39,-2 -9.69,1.28 -0.53,6 -3.87,11.58 -11.27,12.55 -4.23,0.55 -2.65,4.49 0.37,4.49 7.56,0 5,-0.12 9.29,-0.27 3.67,-0.12 4.41,0.33 7.36,0.27 2.41,-0.05 2.96,-2.4 2.94,-5.09 z"
       style="fill:#00d1b2"
       id="path191" />
    <path
       d="m 163.17,213.17 c 0,0 -14.38,68.64 -23.85,98 -9.93,30.79 -25.88,86.95 -26,89.26 -4.35,0.82 -8.44,1.12 -11.84,0 0,0 -5.54,-63.14 7.18,-96.57 3.2,-69.78 22,-90.64 22,-90.64 z"
       style="fill:#263238"
       id="path193" />
    <path
       d="m 165.85,149.62 a 0.27,0.27 0 0 1 -0.23,-0.12 c -0.11,-0.16 -0.24,-0.32 -0.36,-0.48 -0.83,-1.07 -1.85,-2.4 -0.84,-3.94 1.18,-1.79 3.62,-1.18 5.41,-0.73 l 0.74,0.18 a 6.16,6.16 0 0 0 4.08,-0.17 c 1.62,-0.8 2.52,-2.48 3.39,-4.12 a 14.59,14.59 0 0 1 1.93,-3 c 0.21,-0.24 0.43,-0.47 0.66,-0.7 a 7.64,7.64 0 0 0 2,-2.87 0.26,0.26 0 0 1 0.34,-0.18 0.28,0.28 0 0 1 0.19,0.35 8,8 0 0 1 -2.16,3.09 l -0.64,0.68 a 14,14 0 0 0 -1.85,2.9 c -0.91,1.71 -1.85,3.48 -3.64,4.36 a 6.68,6.68 0 0 1 -4.44,0.21 l -0.76,-0.18 c -1.71,-0.43 -3.84,-1 -4.81,0.5 -0.79,1.2 0,2.22 0.82,3.29 0.12,0.17 0.25,0.33 0.37,0.49 a 0.28,0.28 0 0 1 -0.06,0.39 0.27,0.27 0 0 1 -0.14,0.05 z"
       style="fill:#ffffff"
       id="path195" />
    <path
       d="m 189.45,142.14 -2,-3.58 a 8.51,8.51 0 0 0 -3,-3.16 l -2.4,-1.46 a 3.85,3.85 0 0 0 -4.88,0.73 l -1.86,2.09 a 3.84,3.84 0 0 0 0.35,5.47 l 1.79,1.56 c 0,0 4.46,4.94 9.66,5.91 l 0.92,-1.17 a 7.28,7.28 0 0 0 1.42,-6.39 z"
       style="fill:#ffc3bd"
       id="path197" />
    <path
       d="m 175.94,155.28 0.93,1.18 c 0.36,0.45 0.74,0.91 1.13,1.36 0.79,0.9 1.58,1.8 2.42,2.64 a 40.46,40.46 0 0 0 5.19,4.55 25.21,25.21 0 0 0 5.44,3.09 21,21 0 0 0 2.74,0.85 10.59,10.59 0 0 0 1.37,0.23 h 0.17 0.09 c 0,0 0.09,0 0,0 h -0.22 -0.46 l -0.51,0.09 a 5.33,5.33 0 0 0 -1.19,0.39 6,6 0 0 0 -1.23,0.7 6.29,6.29 0 0 0 -1,0.9 6.48,6.48 0 0 0 -0.66,0.89 7.21,7.21 0 0 0 -0.37,0.74 5.23,5.23 0 0 0 -0.19,0.55 2.7,2.7 0 0 0 -0.08,0.39 1.57,1.57 0 0 0 0,0.37 c 0,0.17 0,0.09 0.06,0 a 5.79,5.79 0 0 0 0,-1.16 29.71,29.71 0 0 0 -0.62,-3.46 c -0.54,-2.5 -1.29,-5.13 -2.06,-7.78 l -4.92,-16.12 v -0.05 a 4.24,4.24 0 0 1 7.53,-3.66 129.29,129.29 0 0 1 9.06,15.15 88.5,88.5 0 0 1 3.77,8.33 43.45,43.45 0 0 1 1.55,4.82 21,21 0 0 1 0.55,3.08 13.37,13.37 0 0 1 0,2.15 10.09,10.09 0 0 1 -0.78,3.39 9.81,9.81 0 0 1 -0.61,1.21 9,9 0 0 1 -2.37,2.58 8.78,8.78 0 0 1 -1.69,1 8.34,8.34 0 0 1 -1.7,0.54 7.42,7.42 0 0 1 -0.78,0.13 q -0.36,0 -0.72,0.06 h -0.51 -0.54 c -1,0 -1.94,0 -2.9,-0.1 a 30.68,30.68 0 0 1 -5.61,-1 37.07,37.07 0 0 1 -9.86,-4.48 48.2,48.2 0 0 1 -8,-6.38 c -1.18,-1.18 -2.32,-2.39 -3.38,-3.67 -0.53,-0.64 -1.05,-1.29 -1.56,-2 l -0.75,-1.05 -0.39,-0.55 -0.45,-0.68 a 8.44,8.44 0 0 1 13.62,-9.93 z"
       style="fill:#ffc3bd"
       id="path199" />
    <path
       d="m 179.74,165.08 c -0.17,4 6.17,13.31 -1.66,18.69 1.46,3.27 2.7,25.44 -0.26,29.4 -4.32,3.18 -27.71,2.56 -47.1,0 -0.82,-8 3.59,-24.62 -1.81,-50.51 A 10.31,10.31 0 0 1 138,150.28 c 1.63,-0.17 3.35,-0.3 5.12,-0.39 a 130.36,130.36 0 0 1 18.55,0 c 2,0.18 4.07,0.44 6,0.72 a 14,14 0 0 1 12.07,14.47 z"
       style="fill:#00d1b2"
       id="path201" />
    <path
       d="m 142.53,129 c 1.48,6 2.92,15.71 0.57,20.89 0,0 7.89,0.39 19.15,9.38 5.3,-7.79 0.09,-9.31 0.09,-9.31 -4.68,-1.1 -5.43,-6.79 -5.42,-11.23 z"
       style="fill:#ffc3bd"
       id="path203" />
    <path
       d="m 156.92,138.73 -8.18,-5.53 a 7.31,7.31 0 0 0 0.73,3.63 15.52,15.52 0 0 0 7.92,7.1 25,25 0 0 1 -0.47,-5.2 z"
       style="opacity:0.2"
       id="path205" />
    <path
       d="m 138.64,118.06 c 2.33,9.7 3.11,13.86 8.87,18 8.65,6.28 19.82,1.32 20.38,-8.88 0.51,-9.18 -3.38,-23.51 -13.49,-25.75 -10.11,-2.24 -18.08,6.92 -15.76,16.63 z"
       style="fill:#ffc3bd"
       id="path207" />
    <path
       d="m 153.19,122.11 c 0.14,0.8 0.68,1.37 1.2,1.28 0.52,-0.09 0.83,-0.82 0.69,-1.61 -0.14,-0.79 -0.68,-1.38 -1.2,-1.28 -0.52,0.1 -0.83,0.81 -0.69,1.61 z"
       style="fill:#263238"
       id="path209" />
    <path
       d="m 163,120.51 c 0.14,0.8 0.68,1.37 1.2,1.28 0.52,-0.09 0.83,-0.82 0.69,-1.61 -0.14,-0.79 -0.68,-1.38 -1.2,-1.28 -0.52,0.1 -0.79,0.81 -0.69,1.61 z"
       style="fill:#263238"
       id="path211" />
    <path
       d="m 163.5,119 1.82,-0.89 c 0,0 -0.71,1.65 -1.82,0.89 z"
       style="fill:#263238"
       id="path213" />
    <path
       d="m 160.65,121.16 a 22,22 0 0 0 3.75,4.6 3.47,3.47 0 0 1 -2.75,1 z"
       style="fill:#ed847e"
       id="path215" />
    <path
       d="m 157.58,130.56 a 8.26,8.26 0 0 0 1.36,-0.12 0.24,0.24 0 0 0 0.19,-0.28 0.23,0.23 0 0 0 -0.27,-0.19 6.43,6.43 0 0 1 -5.6,-1.56 0.24,0.24 0 0 0 -0.34,0 0.24,0.24 0 0 0 0,0.33 6.63,6.63 0 0 0 4.66,1.82 z"
       style="fill:#263238"
       id="path217" />
    <path
       d="m 137.93,127.1 a 6.44,6.44 0 0 0 3.94,3.51 c 2.21,0.61 3.31,-1.82 2.68,-4.28 -0.57,-2.22 -2.4,-5.21 -4.62,-4.73 -2.22,0.48 -3.02,3.32 -2,5.5 z"
       style="fill:#ffc3bd"
       id="path219" />
    <path
       d="m 150.4,117.11 a 0.47,0.47 0 0 0 0.28,-0.24 3.83,3.83 0 0 1 2.7,-2.14 0.47320714,0.47320714 0 1 0 -0.11,-0.94 4.71,4.71 0 0 0 -3.44,2.65 0.48,0.48 0 0 0 0.21,0.64 0.5,0.5 0 0 0 0.36,0.03 z"
       style="fill:#263238"
       id="path221" />
    <path
       d="m 166.67,114.52 a 0.5,0.5 0 0 0 0.31,-0.18 0.48,0.48 0 0 0 -0.09,-0.67 4.76,4.76 0 0 0 -4.27,-0.85 0.48,0.48 0 1 0 0.32,0.9 3.77,3.77 0 0 1 3.37,0.71 0.48,0.48 0 0 0 0.36,0.09 z"
       style="fill:#263238"
       id="path223" />
    <path
       d="m 153.65,120.58 1.83,-0.89 c 0,0 -0.72,1.67 -1.83,0.89 z"
       style="fill:#263238"
       id="path225" />
    <path
       d="m 166.51,225.12 c 0,0 5.57,-17.64 -8.21,-22 -8.42,-2.64 -11.4,0.72 -11.4,0.72 l 2,16.8 c 5.64,6.61 15.59,9.86 22.78,11 5.23,0.88 -5.17,-6.52 -5.17,-6.52 z"
       style="fill:#e0e0e0"
       id="path227" />
    <path
       d="m 151.37,178.57 c -0.51,6.35 12.57,9.23 16.81,8.41 0,0 4.54,5.19 7.73,3.38 1.39,-0.78 -2.42,-3.25 -4.15,-5.83 -1.73,-2.58 -8.47,-3.73 -9.9,-6.91 -2.52,-5.62 -9.86,-6.42 -10.49,0.95 z"
       style="fill:#ffffff"
       id="path229" />
    <path
       d="m 141.73,179.84 c -5.59,17.2 -9.3,35.12 -3.08,41.95 6.22,6.83 13.49,13.21 21.16,14.21 5.55,0.71 -5.58,-9 -5.58,-9 0,0 21,-8.87 5.05,-21.23 3.94,-5.69 0.9,-20.73 2.11,-26.68 1.21,-5.95 -14.47,-15.27 -19.66,0.75 z"
       style="fill:#ffffff"
       id="path231" />
    <path
       d="m 156.69,158.63 c -0.44,-1.56 4,-2 6.59,-4.86 1.56,2.7 -2.28,8.67 -2.28,8.67 0,0 -3.52,-0.99 -4.31,-3.81 z"
       style="fill:#263238"
       id="path233" />
    <path
       d="m 145.86,173.06 c -0.13,-3.08 -2.86,-6.33 -0.92,-11.21 a 10.75,10.75 0 0 1 11.29,-6.56 9.64,9.64 0 0 1 8.38,9.06 c 0.34,4.32 -5.68,8.43 -4.89,12.56 0.79,4.13 -13.86,-3.85 -13.86,-3.85 z"
       style="fill:#ffffff"
       id="path235" />
    <path
       d="m 157.57,155.58 c -1.33,1.42 3.16,3.8 5.37,3.84 a 9.4,9.4 0 0 0 -5.37,-3.84 z"
       style="fill:#e0e0e0"
       id="path237" />
    <path
       d="M 139.14,261.75 H 139 c -2.64,-0.05 -4.9,-1.75 -6.22,-4.65 a 1.3748091,1.3748091 0 0 1 2.52,-1.1 c 0.88,1.93 2.22,3 3.78,3 a 5.16,5.16 0 0 0 4.4,-3.15 c 1.89,-3.78 0.65,-9.06 -3.32,-14.13 -7.21,-9.22 -7.19,-16 -5.9,-20 1.21,-3.8 3.89,-6.17 5.86,-6.75 a 1.3620297,1.3620297 0 0 1 0.78,2.61 c -1.05,0.32 -3.08,1.94 -4,5 -1.09,3.41 -1,9.22 5.45,17.5 4.63,5.91 6,12.28 3.61,17 a 7.81,7.81 0 0 1 -6.82,4.67 z"
       style="fill:#ffffff"
       id="path239" />
    <path
       d="m 139.13,261.75 c -2.61,0 -5,-1.68 -6.32,-4.65 a 1.37,1.37 0 0 1 2.49,-1.1 c 1.09,2.41 2.95,3.48 4.95,2.87 a 1.3601471,1.3601471 0 0 1 0.8,2.6 6.51,6.51 0 0 1 -1.92,0.28 z"
       style="fill:#e0e0e0"
       id="path241" />
    <path
       d="m 129.85,167.68 a 125.81,125.81 0 0 1 1.71,16.64 c 4.46,-6.18 9.53,-17.41 9.25,-22.65 z"
       style="opacity:0.2"
       id="path243" />
    <path
       d="m 157.45,184.59 4,-5.41 7.4,8.22 c 0,0 -4.93,4.44 -10.09,4.88 L 158,191 a 7.29,7.29 0 0 1 -0.55,-6.41 z"
       style="fill:#ffc3bd"
       id="path245" />
    <path
       d="m 168.89,178.79 2.19,3.18 a 3.2,3.2 0 0 1 -0.79,4.44 l -1.41,1 -7.4,-8.22 3.51,-1.51 a 3.2,3.2 0 0 1 3.9,1.11 z"
       style="fill:#ffc3bd"
       id="path247" />
    <path
       d="m 144.2,163.37 -0.64,1.89 -0.67,2 c -0.43,1.36 -0.87,2.73 -1.25,4.1 -0.81,2.74 -1.48,5.48 -2.06,8.18 a 56.63,56.63 0 0 0 -1.06,7.79 20,20 0 0 0 0.51,6.15 l -1.59,-2.38 a 3.62,3.62 0 0 0 -1.69,-0.93 c -0.33,0 -0.35,0 -0.22,0.07 a 5.39,5.39 0 0 0 2,0 37.74,37.74 0 0 0 6.14,-1.39 c 2.19,-0.63 4.43,-1.4 6.69,-2.19 l 6.79,-2.45 0.14,-0.05 a 4.25,4.25 0 0 1 4.3,7.15 66.49,66.49 0 0 1 -6.16,4.93 70.12,70.12 0 0 1 -6.73,4.29 41.72,41.72 0 0 1 -7.93,3.49 20.82,20.82 0 0 1 -5.4,1 13,13 0 0 1 -3.89,-0.43 11.16,11.16 0 0 1 -4.89,-2.76 6.83,6.83 0 0 1 -1.46,-2.08 l -0.13,-0.3 a 31.32,31.32 0 0 1 -2.59,-12.07 c 0,-1.88 0,-3.7 0.1,-5.48 0.1,-1.78 0.35,-3.51 0.6,-5.22 a 86.31,86.31 0 0 1 2.14,-9.94 c 0.45,-1.61 0.92,-3.21 1.46,-4.79 0.27,-0.79 0.54,-1.58 0.83,-2.37 0.29,-0.79 0.59,-1.53 1,-2.47 a 8.45,8.45 0 0 1 15.83,5.9 z"
       style="fill:#ffc3bd"
       id="path249" />
    <path
       d="m 145,176.43 c -3.58,5.26 5.15,14.48 8.55,17.13 0,0 -0.89,6.83 2.57,8 1.5,0.53 0.84,-4 1.64,-7 0.8,-3 -2.39,-9.69 -2.32,-13.17 0.09,-6.08 -6.3,-11.07 -10.44,-4.96 z"
       style="fill:#263238"
       id="path251" />
    <path
       d="m 149.47,158.32 c 0.43,-1.56 -4,-2 -6.59,-4.86 -1.57,2.7 2.27,8.67 2.27,8.67 0,0 3.53,-0.99 4.32,-3.81 z"
       style="fill:#263238"
       id="path253" />
    <path
       d="m 149.14,159.57 c -0.5,0 -2.58,0.88 -5.74,-4 -0.74,2.22 2.6,6.63 2.6,6.63 0,0 2.7,-0.15 3.14,-2.63 z"
       style="opacity:0.6;fill:#ffffff"
       id="path255" />
    <path
       d="m 157.61,157.92 a 3.56,3.56 0 0 1 3.19,0.16 c 0.56,0.38 -0.39,1.26 -1,1.23 -0.61,-0.03 -3.05,-0.98 -2.19,-1.39 z"
       style="fill:#263238"
       id="path257" />
    <path
       d="m 158.38,161.41 a 6.55,6.55 0 0 1 -2.84,-0.82 0.17,0.17 0 1 1 0.16,-0.3 c 2.15,1.09 3.44,0.88 3.94,0.33 a 1.29,1.29 0 0 0 0,-1.57 0.18,0.18 0 0 1 0,-0.24 0.16,0.16 0 0 1 0.23,0.05 1.6,1.6 0 0 1 0,2 1.94,1.94 0 0 1 -1.49,0.55 z"
       style="fill:#263238"
       id="path259" />
    <path
       d="m 162.21,161.53 a 5.37,5.37 0 0 1 -2.3,-1.11 0.17102631,0.17102631 0 1 1 0.21,-0.27 c 0.73,0.54 1.91,1.21 2.26,1 0.14,-0.08 0.13,-0.35 0.09,-0.56 a 0.16,0.16 0 0 1 0.14,-0.19 0.15,0.15 0 0 1 0.19,0.14 q 0.12,0.68 -0.24,0.9 a 0.68,0.68 0 0 1 -0.35,0.09 z"
       style="fill:#263238"
       id="path261" />
    <path
       d="m 154.67,156.23 c -0.71,-0.57 -2.45,-0.07 -2.51,0.74 -0.06,0.81 3.78,0.27 2.51,-0.74 z"
       style="fill:#263238"
       id="path263" />
    <path
       d="m 159.7,156.52 c 0.7,-0.29 2,0.53 1.85,1.19 -0.15,0.66 -3.11,-0.71 -1.85,-1.19 z"
       style="fill:#263238"
       id="path265" />
    <path
       d="m 157.89,159.24 a 0.13,0.13 0 0 1 -0.13,0.18 0.31,0.31 0 0 1 -0.26,-0.18 0.12,0.12 0 0 1 0.12,-0.18 0.31,0.31 0 0 1 0.27,0.18 z"
       style="fill:#263238"
       id="path267" />
    <path
       d="m 156.57,158.77 a 0.13,0.13 0 0 1 -0.13,0.18 0.32,0.32 0 0 1 -0.26,-0.17 0.12,0.12 0 0 1 0.12,-0.18 0.32,0.32 0 0 1 0.27,0.17 z"
       style="fill:#263238"
       id="path269" />
    <path
       d="m 157.1,159.74 a 0.12,0.12 0 0 1 -0.12,0.18 0.3,0.3 0 0 1 -0.26,-0.18 0.12,0.12 0 0 1 0.12,-0.18 0.3,0.3 0 0 1 0.26,0.18 z"
       style="fill:#263238"
       id="path271" />
    <path
       d="m 162.2,159.2 a 0.12,0.12 0 0 1 -0.13,0.17 0.32,0.32 0 0 1 -0.26,-0.17 0.12,0.12 0 0 1 0.12,-0.18 0.31,0.31 0 0 1 0.27,0.18 z"
       style="fill:#263238"
       id="path273" />
    <path
       d="m 161.41,159.7 c 0,0.09 0,0.17 -0.12,0.17 a 0.3,0.3 0 0 1 -0.26,-0.17 0.12,0.12 0 0 1 0.12,-0.18 0.31,0.31 0 0 1 0.26,0.18 z"
       style="fill:#263238"
       id="path275" />
    <circle
       cx="165.39"
       cy="150.17"
       r="2.6900001"
       style="fill:#263238"
       id="circle277" />
    <path
       d="m 165.39,153.41 a 3.24,3.24 0 1 1 3.24,-3.24 3.25,3.25 0 0 1 -3.24,3.24 z m 0,-5.37 a 2.13,2.13 0 1 0 2.13,2.13 2.14,2.14 0 0 0 -2.13,-2.17 z"
       style="fill:#ffffff"
       id="path279" />
    <path
       d="m 143.45,125 c 5.26,-5.84 2,-11.45 2,-11.45 0,0 17.84,-1 19.9,-4.41 -2.07,-7 -9.47,-12.59 -21.93,-7.72 -12.46,4.87 -6.85,23.14 -6.85,23.14 z"
       style="fill:#263238"
       id="path281" />
  </g>
  <g
     id="freepik--character-2--inject-34"
     transform="translate(0,-55)">
    <path
       d="m 332.78,409.42 -3.5,-8.3 a 0.8,0.8 0 0 1 0.07,-1.06 l 6.12,-5.8 a 5,5 0 0 1 7,1.3 c 1.72,2.54 2.6,5.21 5.45,7.57 4.53,3.77 3,2.26 9.66,4.06 4,1.08 3.66,5.37 1.83,5.28 -8.32,-0.43 -15.84,-0.65 -24.19,-2 a 5.14,5.14 0 0 1 -2.44,-1.05 z"
       style="fill:#263238"
       id="path284" />
    <path
       d="m 315.22,391.85 c 10.2,-3.22 53.87,-4.76 48.48,-37 l -39.36,-2.7 c 0,0 -54.5,20 -60.53,44.92 -7.73,31.94 69.13,15.16 69.13,15.16 3.87,-0.9 6.69,-5.93 6.16,-11.7 0,-0.02 -3.63,-8.87 -23.88,-8.68 z"
       style="fill:#00d1b2"
       id="path286" />
    <path
       d="m 315.22,391.85 c 10.2,-3.22 53.87,-4.76 48.48,-37 l -39.36,-2.7 c 0,0 -54.5,20 -60.53,44.92 -7.73,31.94 69.13,15.16 69.13,15.16 3.87,-0.9 6.69,-5.93 6.16,-11.7 0,-0.02 -3.63,-8.87 -23.88,-8.68 z"
       style="opacity:0.2"
       id="path288" />
    <path
       d="m 375.36,410.53 -3.82,-8.16 a 0.79,0.79 0 0 1 0,-1.06 l 5.89,-6 a 5,5 0 0 1 7.06,1 c 1.82,2.48 2.81,5.11 5.74,7.36 4.68,3.6 3.07,2.15 9.81,3.68 4.08,0.93 3.86,5.24 2,5.21 -8.33,-0.11 -15.86,0 -24.25,-1.11 a 5.12,5.12 0 0 1 -2.43,-0.92 z"
       style="fill:#263238"
       id="path290" />
    <path
       d="m 360.37,393.57 c 10.06,-3.6 33.27,-10.24 20.48,-43.23 l -41.93,4.32 c 0,0 -36.8,20.66 -41.88,45.81 -6.5,32.22 78.58,12.85 78.58,12.85 3.83,-1.05 6.46,-6.18 5.71,-11.93 0,0 -0.74,-8.78 -20.96,-7.82 z"
       style="fill:#00d1b2"
       id="path292" />
    <path
       d="m 327.38,289.09 a 47.53,47.53 0 0 1 -5.74,9.49 75.7,75.7 0 0 1 -6.82,7.69 c -2.32,2.34 -4.67,4.48 -6.91,6.53 -2.24,2.05 -4.36,4 -6.18,5.89 l -0.66,0.69 a 6.52,6.52 0 0 1 -2.69,1.69 42,42 0 0 1 -11.61,1.93 75.54,75.54 0 0 1 -10.61,-0.4 c -3.44,-0.38 -6.81,-0.92 -10.13,-1.62 a 93,93 0 0 1 -9.87,-2.63 4.51,4.51 0 0 1 1.39,-8.78 h 0.2 c 3.06,0 6.29,0 9.41,-0.08 3.12,-0.08 6.24,-0.19 9.28,-0.44 a 82.62,82.62 0 0 0 8.81,-1.06 31.43,31.43 0 0 0 7.35,-2.12 l -3.34,2.38 c 2.15,-2.82 4.35,-5.29 6.49,-7.61 2.14,-2.32 4.2,-4.51 6.13,-6.65 1.93,-2.14 3.7,-4.25 5.25,-6.35 a 48.13,48.13 0 0 0 4,-6.26 l 0.08,-0.14 a 9.000868,9.000868 0 0 1 16.2,7.85 z"
       style="fill:#ffb573"
       id="path294" />
    <path
       d="m 329.25,279.59 c -2.33,-7.3 -9.64,-17.18 -26.78,9.86 4,9.92 19.74,19.63 19.74,19.63 0,0 12.58,-12.14 7.04,-29.49 z"
       style="fill:#263238"
       id="path296" />
    <path
       d="m 262.2,312.57 -6.5,-8 -7.06,10.18 c 0,0 6.77,6.55 10.83,3.52 z"
       style="fill:#ffb573"
       id="path298" />
    <path
       d="m 245,303.34 -1.87,4 a 3.59,3.59 0 0 0 1.21,4.47 l 4.26,2.93 7.06,-10.18 -5.83,-2.89 a 3.58,3.58 0 0 0 -4.83,1.67 z"
       style="fill:#ffb573"
       id="path300" />
    <path
       d="m 321.44,270.93 c 14.34,-3.48 20.51,-3.89 31,-4.18 a 21.76,21.76 0 0 1 22.46,22.14 c -0.32,33.92 5.4,53.62 6,61.45 -22.4,14.66 -54.9,14.5 -60.9,8.49 -12.55,-25.65 -11.34,-56.95 -11.35,-70.09 0,-7.11 5.35,-16.01 12.79,-17.81 z"
       style="fill:#263238"
       id="path302" />
    <path
       d="m 344.78,247.41 c -0.23,11.47 2.67,14.68 5,21.57 -1,4.48 -12.35,9.94 -21.6,12.35 -5.83,-3 -6.09,-8 -4.41,-9.23 5.88,-3.61 7.66,-4.23 5,-10.47 z"
       style="fill:#ffb573"
       id="path304" />
    <path
       d="m 338.08,255 -3.74,1.7 -5.58,4.95 a 16.16,16.16 0 0 1 1,2.95 c 3.09,-0.66 6.39,-2.61 7.34,-5.16 a 12.36,12.36 0 0 0 0.98,-4.44 z"
       style="opacity:0.2"
       id="path306" />
    <path
       d="m 315.94,222.78 c -8.61,3.39 -7.28,13.95 0.33,22 6.6,-10.19 -0.33,-22 -0.33,-22 z"
       style="fill:#263238"
       id="path308" />
    <path
       d="m 345.57,232.69 c 0.32,11.38 1.08,18 -4.13,24.3 -7.83,9.44 -22.31,5.39 -26,-5.7 -3.35,-10 -3.31,-26.91 7.39,-32.32 a 15.7,15.7 0 0 1 22.74,13.72 z"
       style="fill:#ffb573"
       id="path310" />
    <path
       d="m 345.17,245.62 c -6.11,0.58 -8.36,-9.46 -7.09,-13.07 1.27,-3.61 2.38,-7.07 -2.92,-5.47 -5.3,1.6 -15.47,7.26 -20.86,3.92 -5.67,-3.52 -9.29,-13.76 -2,-18 7.29,-4.24 11.85,0.36 11.85,0.36 0,0 7,-8.9 19.84,-5.17 7.79,2.27 4.78,7.84 4.78,7.84 0,0 9.93,2.73 6.49,13.42 -2.95,9.11 -7.42,9.24 -10.09,16.17 z"
       style="fill:#263238"
       id="path312" />
    <path
       d="m 351.09,243.06 a 10.71,10.71 0 0 1 -4.73,6.75 c -3.23,2 -5.93,-0.62 -5.94,-4.21 0,-3.22 1.64,-8.16 5.31,-8.71 3.67,-0.55 6.08,2.75 5.36,6.17 z"
       style="fill:#ffb573"
       id="path314" />
    <path
       d="m 329.59,241.16 c 0.15,0.91 -0.21,1.73 -0.81,1.82 -0.6,0.09 -1.21,-0.57 -1.36,-1.48 -0.15,-0.91 0.22,-1.73 0.81,-1.83 0.59,-0.1 1.21,0.58 1.36,1.49 z"
       style="fill:#263238"
       id="path316" />
    <path
       d="m 317.65,242.57 c 0.15,0.92 -0.21,1.73 -0.81,1.83 -0.6,0.1 -1.21,-0.57 -1.36,-1.49 -0.15,-0.92 0.21,-1.73 0.81,-1.82 0.6,-0.09 1.21,0.57 1.36,1.48 z"
       style="fill:#263238"
       id="path318" />
    <path
       d="m 321.43,241.07 c 0,0 -1.21,5.6 -3.08,8.5 1.87,1.25 4.51,0.14 4.51,0.14 z"
       style="fill:#ed893e"
       id="path320" />
    <path
       d="m 327.24,252.05 a 7.5,7.5 0 0 0 4.68,-3.8 0.27313001,0.27313001 0 0 0 -0.5,-0.22 7.29,7.29 0 0 1 -5.45,3.75 0.26,0.26 0 0 0 -0.22,0.31 0.27,0.27 0 0 0 0.31,0.23 9.74,9.74 0 0 0 1.18,-0.27 z"
       style="fill:#263238"
       id="path322" />
    <path
       d="m 331.94,236.06 a 0.58,0.58 0 0 0 0.24,-0.14 0.54,0.54 0 0 0 0,-0.77 5.42,5.42 0 0 0 -4.75,-1.53 0.53,0.53 0 0 0 -0.4,0.65 0.55,0.55 0 0 0 0.65,0.41 v 0 a 4.34,4.34 0 0 1 3.75,1.25 0.55,0.55 0 0 0 0.51,0.13 z"
       style="fill:#263238"
       id="path324" />
    <path
       d="m 312.89,237.9 a 0.53,0.53 0 0 0 0.42,-0.29 4.3,4.3 0 0 1 3.14,-2.34 0.54,0.54 0 0 0 0.49,-0.59 0.55,0.55 0 0 0 -0.6,-0.49 5.35,5.35 0 0 0 -4,2.91 0.55,0.55 0 0 0 0.23,0.74 0.56,0.56 0 0 0 0.32,0.06 z"
       style="fill:#263238"
       id="path326" />
    <path
       d="m 370.71,280.34 a 35.55,35.55 0 0 1 0.65,7.83 52.53,52.53 0 0 1 -0.67,7 75.94,75.94 0 0 1 -3.3,12.84 90.08,90.08 0 0 1 -5.1,11.93 c -1,1.94 -2.06,3.87 -3.29,5.78 a 49.94,49.94 0 0 1 -4.28,5.8 l -0.3,0.34 a 6,6 0 0 1 -0.73,0.7 22.43,22.43 0 0 1 -8.05,4 38.78,38.78 0 0 1 -7.23,1.2 67.62,67.62 0 0 1 -13.06,-0.44 115.13,115.13 0 0 1 -24,-5.76 4.49,4.49 0 0 1 1.89,-8.7 h 0.16 c 3.72,0.3 7.62,0.6 11.4,0.76 3.78,0.16 7.57,0.26 11.25,0.15 a 65,65 0 0 0 10.49,-1 22.92,22.92 0 0 0 4.29,-1.21 6.55,6.55 0 0 0 2.34,-1.43 l -1,1 a 37.58,37.58 0 0 0 2.38,-4 c 0.76,-1.5 1.54,-3.07 2.23,-4.69 a 93,93 0 0 0 3.64,-10 72,72 0 0 0 2.32,-10.12 31.13,31.13 0 0 0 0.29,-8.68 v -0.3 a 9.00441,9.00441 0 0 1 17.74,-3.1 z"
       style="fill:#ffb573"
       id="path328" />
    <path
       d="m 228,414.43 c -18.68,1.22 -34.71,-11.87 -32.5,-34.58 10.22,19.88 25.99,32.41 32.5,34.58 z"
       style="fill:#263238"
       id="path330" />
    <path
       d="m 228,414.43 c -18.4,-3.45 -30.69,-20.11 -22.92,-41.56 4.98,21.79 17.15,37.84 22.92,41.56 z"
       style="opacity:0.1;fill:#263238"
       id="path332" />
    <path
       d="m 228,414.43 c -17.68,6.18 -36.63,-2.14 -40.58,-24.6 15.17,16.42 33.73,24.26 40.58,24.6 z"
       style="opacity:0.1;fill:#263238"
       id="path334" />
    <path
       d="m 281.06,330.71 c 0,0 9.2,46.8 1.26,81 5.25,0 6,5.52 2.86,8.64 h -64.11 a 8.52,8.52 0 0 1 -8.51,-8.91 c 0.58,-13.07 5.93,-31.23 21.23,-38.31 3.87,-11.87 12.83,-35.94 8.87,-49.82 C 238.7,309.43 256.9,296.28 271,306 c 9.2,-3.26 25.59,-15.69 30.29,-1.62 4.7,14.07 -20.23,26.33 -20.23,26.33 z"
       style="fill:#263238"
       id="path336" />
    <path
       d="m 288.88,326 c 6.87,-2.42 18.15,-3.44 11.46,-13.83 -11.61,0.91 -11.46,13.83 -11.46,13.83 z"
       style="fill:#263238"
       id="path338" />
    <path
       d="m 257.17,416.45 h -0.13 a 0.45,0.45 0 0 1 -0.3,-0.56 4.2,4.2 0 0 0 -1,-3.8 c -2,-2.51 -6.14,-4.06 -10,-3.76 a 0.44,0.44 0 0 1 -0.39,-0.18 0.47,0.47 0 0 1 -0.06,-0.43 c 6.61,-17.89 -4.36,-28.91 -4.47,-29 a 0.45,0.45 0 0 1 0.63,-0.64 c 0.12,0.11 11.24,11.25 4.91,29.33 4,-0.1 8,1.51 10.1,4.13 a 5,5 0 0 1 1.18,4.62 0.44,0.44 0 0 1 -0.47,0.29 z"
       style="opacity:0.2;fill:#ffffff"
       id="path340" />
    <path
       d="m 294.14,298.43 c -4.53,-0.59 -8.17,2.83 -4.17,4.67 4,1.84 0.62,-1.94 2.64,-0.61 2.02,1.33 4.29,1.86 4.73,0.61 0.44,-1.25 -0.42,-1.58 -0.89,-2.34 -0.47,-0.76 2.24,0.63 1.68,-0.26 a 6.19,6.19 0 0 0 -3.99,-2.07 z"
       style="fill:#ffffff"
       id="path342" />
    <path
       d="m 295.49,310.77 c 4.68,3.5 3,8.27 7.54,7 2.19,-0.63 2.65,-6.9 -1.27,-10 -1.36,0.9 -3.05,-1.32 -3.05,-1.32 0,0 -0.81,3.32 -3.22,4.32 z"
       style="fill:#ed847e"
       id="path344" />
    <path
       d="m 290,312.62 c -0.51,0 -0.84,0 -0.89,0 a 0.45,0.45 0 0 1 -0.4,-0.5 0.46,0.46 0 0 1 0.49,-0.4 c 0.06,0 5.75,0.55 8.38,-3.53 a 2.44,2.44 0 0 0 0.39,-1.93 5.52,5.52 0 0 0 -2.34,-2.78 0.45,0.45 0 0 1 -0.16,-0.61 0.45,0.45 0 0 1 0.62,-0.16 6.29,6.29 0 0 1 2.75,3.34 3.33,3.33 0 0 1 -0.5,2.63 c -2.29,3.52 -6.49,3.94 -8.34,3.94 z"
       style="fill:#ffffff"
       id="path346" />
    <path
       d="m 301,308.44 c -1.5,0 -2.89,-2 -3,-2.23 a 0.45,0.45 0 1 1 0.74,-0.5 c 0.33,0.47 1.44,1.82 2.29,1.82 v 0 c 0.11,0 0.47,0 0.84,-0.67 a 0.45024993,0.45024993 0 1 1 0.78,0.45 1.89,1.89 0 0 1 -1.59,1.12 z"
       style="fill:#ffffff"
       id="path348" />
    <path
       d="m 264.43,306.18 c -3.85,-3.42 -10.81,0.38 -10,5.62 0.81,5.24 16.84,0.45 10,-5.62 z"
       style="fill:#ffffff"
       id="path350" />
    <path
       d="m 263.21,306.79 c -0.77,-1.17 -2.66,-0.15 -2.72,1.52 -0.06,1.67 4.09,0.55 2.72,-1.52 z"
       style="fill:#263238"
       id="path352" />
    <path
       d="m 266.94,304.94 c -0.31,1.36 1.73,2 3,0.93 1.27,-1.07 -2.44,-3.35 -3,-0.93 z"
       style="fill:#263238"
       id="path354" />
    <path
       d="m 248.77,311.6 c -1.11,-9.43 -17.21,9.77 -16.11,21.88 1.1,12.11 11.71,10.82 14.71,9.91 3,-0.91 2.41,-23.39 1.4,-31.79 z"
       style="fill:#263238"
       id="path356" />
    <path
       d="m 248.77,311.6 c -1.11,-9.43 -17.21,9.77 -16.11,21.88 1.1,12.11 11.71,10.82 14.71,9.91 3,-0.91 2.41,-23.39 1.4,-31.79 z"
       style="opacity:0.8;fill:#ffffff"
       id="path358" />
    <path
       d="m 278.13,420.37 h -15.74 c -1.48,-3.71 -9.34,-23.94 -8.39,-32.73 a 8.1,8.1 0 0 0 -2.12,3 6.59,6.59 0 0 1 2,-6.23 c -0.76,-0.47 -2.35,0.35 -2.35,0.35 a 5.42,5.42 0 0 1 2.47,-3.46 5.46,5.46 0 0 1 -1,-1.47 c -4.68,-8.86 -1.67,-19.74 6.49,-25.57 4.95,-3.55 10.71,-3.41 12,7.29 1.29,10.7 -4.39,40.43 1.28,53.77 3.69,-0.54 5,3.51 5.36,5.05 z"
       style="fill:#ffffff"
       id="path360" />
    <path
       d="m 266.32,333.9 c -4.35,0 -8.68,-1.3 -10.58,-3.71 a 0.45,0.45 0 0 1 0.08,-0.63 0.46,0.46 0 0 1 0.63,0.07 c 3,3.84 13.23,4.56 18.2,1.28 a 0.45069391,0.45069391 0 1 1 0.5,0.75 16.49,16.49 0 0 1 -8.83,2.24 z"
       style="opacity:0.2;fill:#ffffff"
       id="path362" />
    <path
       d="M 305.91,323.12 296,320.2 v 12.38 c 0,0 9.29,1.56 10.92,-3.24 z"
       style="fill:#ffb573"
       id="path364" />
    <path
       d="m 286.54,325.25 0.72,4.34 a 3.57,3.57 0 0 0 3.53,3 H 296 v -12.38 l -6.44,0.92 a 3.59,3.59 0 0 0 -3.02,4.12 z"
       style="fill:#ffb573"
       id="path366" />
    <path
       d="m 367.12,272.93 c -6.18,-4.52 -17.36,-0.88 -19.35,24.91 9.34,5.2 25.49,0 25.49,0 0,0 4.84,-16.91 -6.14,-24.91 z"
       style="fill:#263238"
       id="path368" />
  </g>
</svg>
