<?xml version="1.0" encoding="UTF-8" standalone="no"?>
<svg
   xmlns:dc="http://purl.org/dc/elements/1.1/"
   xmlns:cc="http://creativecommons.org/ns#"
   xmlns:rdf="http://www.w3.org/1999/02/22-rdf-syntax-ns#"
   xmlns:svg="http://www.w3.org/2000/svg"
   xmlns="http://www.w3.org/2000/svg"
   xmlns:sodipodi="http://sodipodi.sourceforge.net/DTD/sodipodi-0.dtd"
   xmlns:inkscape="http://www.inkscape.org/namespaces/inkscape"
   viewBox="0 0 448.04376 388.86136"
   version="1.1"
   id="svg408"
   sodipodi:docname="adopteme-1.svg"
   width="448.04376"
   height="388.86136"
   inkscape:version="1.0.2 (e86c870879, 2021-01-15, custom)">
  <metadata
     id="metadata414">
    <rdf:RDF>
      <cc:Work
         rdf:about="">
        <dc:format>image/svg+xml</dc:format>
        <dc:type
           rdf:resource="http://purl.org/dc/dcmitype/StillImage" />
        <dc:title></dc:title>
      </cc:Work>
    </rdf:RDF>
  </metadata>
  <defs
     id="defs412" />
  <sodipodi:namedview
     pagecolor="#ffffff"
     bordercolor="#666666"
     borderopacity="1"
     objecttolerance="10"
     gridtolerance="10"
     guidetolerance="10"
     inkscape:pageopacity="0"
     inkscape:pageshadow="2"
     inkscape:window-width="1920"
     inkscape:window-height="1001"
     id="namedview410"
     showgrid="false"
     fit-margin-top="0"
     fit-margin-left="0"
     fit-margin-right="0"
     fit-margin-bottom="0"
     inkscape:zoom="1.66"
     inkscape:cx="223.96"
     inkscape:cy="184.46385"
     inkscape:window-x="-9"
     inkscape:window-y="-9"
     inkscape:window-maximized="1"
     inkscape:current-layer="svg408" />
  <g
     id="freepik--Floor--inject-31"
     transform="translate(-26.04,-65.536152)">
    <path
       id="freepik--floor--inject-31"
       d="M 91.65,416.53 C 4.17,366 4.17,284.13 91.65,233.62 c 87.48,-50.51 229.33,-50.51 316.82,0 87.49,50.51 87.48,132.4 0,182.91 -87.48,50.51 -229.33,50.47 -316.82,0 z"
       style="fill:#f5f5f5" />
  </g>
  <g
     id="freepik--Shadows--inject-31"
     transform="translate(-26.04,-65.536152)">
    <ellipse
       id="freepik--Shadow--inject-31"
       cx="137.14999"
       cy="305.51999"
       rx="94.129997"
       ry="54.349998"
       style="fill:#e0e0e0" />
    <ellipse
       id="freepik--shadow--inject-31"
       cx="357.39001"
       cy="310.85999"
       rx="105.04"
       ry="60.639999"
       style="fill:#e0e0e0" />
    <path
       id="path6"
       d="m 230.6,331.7 -89.42,51.63 c -2.2,1.27 -2.2,3.33 0,4.6 l 89.42,51.62 a 8.75,8.75 0 0 0 8,0 L 328,387.93 c 2.2,-1.27 2.2,-3.33 0,-4.6 L 238.57,331.7 a 8.81,8.81 0 0 0 -7.97,0 z"
       style="fill:#e0e0e0" />
  </g>
  <g
     id="freepik--Plants--inject-31"
     transform="translate(-26.04,-65.536152)">
    <g
       id="freepik--plants--inject-31">
      <path
         d="m 420.51,302.84 -7.85,-6.42 c 0,0 -1.67,-22.27 3.52,-41.23 7.31,-26.65 22.31,-36.6 31.5,-32.06 6.52,3.21 8.82,13.21 -5,27.54 -8.22,8.45 -19.59,26.97 -22.17,52.17 z"
         style="fill:#00d1b2"
         id="path9" />
      <path
         d="m 420.51,302.84 -7.85,-6.42 c 0,0 -1.67,-22.27 3.52,-41.23 7.31,-26.65 22.31,-36.6 31.5,-32.06 6.52,3.21 8.82,13.21 -5,27.54 -8.22,8.45 -19.59,26.97 -22.17,52.17 z"
         style="opacity:0.3"
         id="path11" />
      <path
         d="m 417.54,288.43 h 0.08 a 0.61,0.61 0 0 0 0.6,-0.62 c -0.68,-25.79 13.72,-49.18 26.45,-59.11 a 0.62,0.62 0 0 0 0.1,-0.86 0.6,0.6 0 0 0 -0.85,-0.1 c -13,10.12 -27.61,33.93 -26.92,60.1 a 0.61,0.61 0 0 0 0.54,0.59 z"
         style="fill:#ffffff"
         id="path13" />
      <path
         d="m 436.39,323.45 c 5.4,-1.76 6.63,-4.86 7.56,-8.71 a 28.93,28.93 0 0 0 0.57,-3.92 l 0.39,-3.88 a 9.36,9.36 0 0 1 0.88,-3.71 c 1.25,-2.26 4,-3.09 6.52,-3.76 2.75,-0.74 5.8,-2 6.92,-4.83 a 10.84,10.84 0 0 0 -0.14,-7 c -0.68,-2.28 -1.69,-4.46 -2.2,-6.78 a 7.51,7.51 0 0 1 0.33,-5 7.94,7.94 0 0 1 2.07,-2.4 c 2.12,-1.76 4.62,-3.12 6.12,-5.52 a 6,6 0 0 0 1,-2.95 c 0.13,-3.16 -2.42,-4.6 -4.87,-5.39 a 12.23,12.23 0 0 0 -5.22,-0.21 c -5.55,0.72 -10.29,5.07 -15.88,5.1 -2.16,0 -4.27,-0.64 -6.41,-0.89 -2.14,-0.25 -4.52,-0.06 -6.13,1.38 -3.18,2.83 -1.62,8.5 -4.36,11.76 -2,2.39 -5.16,2.74 -7.69,4.32 a 14.49,14.49 0 0 0 -6.33,7.61 21.59,21.59 0 0 0 -1.27,11.22 c 1.24,7.89 6.9,12.52 12.34,17.65 2.3,2.19 10.41,7.68 15.8,5.91 z"
         style="fill:#00d1b2"
         id="path15" />
      <path
         d="m 436.39,323.45 c 5.4,-1.76 6.63,-4.86 7.56,-8.71 a 28.93,28.93 0 0 0 0.57,-3.92 l 0.39,-3.88 a 9.36,9.36 0 0 1 0.88,-3.71 c 1.25,-2.26 4,-3.09 6.52,-3.76 2.75,-0.74 5.8,-2 6.92,-4.83 a 10.84,10.84 0 0 0 -0.14,-7 c -0.68,-2.28 -1.69,-4.46 -2.2,-6.78 a 7.51,7.51 0 0 1 0.33,-5 7.94,7.94 0 0 1 2.07,-2.4 c 2.12,-1.76 4.62,-3.12 6.12,-5.52 a 6,6 0 0 0 1,-2.95 c 0.13,-3.16 -2.42,-4.6 -4.87,-5.39 a 12.23,12.23 0 0 0 -5.22,-0.21 c -5.55,0.72 -10.29,5.07 -15.88,5.1 -2.16,0 -4.27,-0.64 -6.41,-0.89 -2.14,-0.25 -4.52,-0.06 -6.13,1.38 -3.18,2.83 -1.62,8.5 -4.36,11.76 -2,2.39 -5.16,2.74 -7.69,4.32 a 14.49,14.49 0 0 0 -6.33,7.61 21.59,21.59 0 0 0 -1.27,11.22 c 1.24,7.89 6.9,12.52 12.34,17.65 2.3,2.19 10.41,7.68 15.8,5.91 z"
         style="opacity:0.1"
         id="path17" />
      <path
         d="m 458.44,263.75 a 0.61,0.61 0 0 0 -0.79,-0.35 c -6.36,2.5 -16.23,10.82 -24.91,22 a 0.55,0.55 0 0 0 -0.28,0.35 95.09,95.09 0 0 0 -14.54,26 0.61,0.61 0 0 0 0.35,0.77 v 0 a 0.62,0.62 0 0 0 0.78,-0.37 94.39,94.39 0 0 1 14.28,-25.6 83,83 0 0 1 17,3.83 0.61,0.61 0 0 0 0.78,-0.38 0.59,0.59 0 0 0 -0.38,-0.77 84.8,84.8 0 0 0 -16.5,-3.81 c 8.39,-10.61 17.77,-18.47 23.86,-20.86 a 0.62,0.62 0 0 0 0.35,-0.81 z"
         style="fill:#ffffff"
         id="path19" />
    </g>
    <g
       id="g34">
      <path
         d="m 96.81,296.69 c 0.65,-14 2.16,-27.14 -4.29,-47.32 C 87.1,232.45 71,215.24 60.59,215.61 c -9.67,0.35 -15.43,11 -3.87,23 2.45,2.54 26.17,23 27.27,46.24 l 2.54,13.43 a 2.49,2.49 0 0 0 3.55,1.72 z"
         style="fill:#00d1b2"
         id="path22" />
      <path
         d="m 96.81,296.69 c 0.65,-14 2.16,-27.14 -4.29,-47.32 C 87.1,232.45 71,215.24 60.59,215.61 c -9.67,0.35 -15.43,11 -3.87,23 2.45,2.54 26.17,23 27.27,46.24 l 2.54,13.43 a 2.49,2.49 0 0 0 3.55,1.72 z"
         style="opacity:0.3"
         id="path24" />
      <path
         d="m 93,295.74 a 0.63,0.63 0 0 1 -0.46,-0.59 C 92.08,259.56 79.31,234.63 60.15,223.25 a 0.62,0.62 0 1 1 0.63,-1.06 c 19.41,11.52 32.53,36.91 33,72.94 a 0.61,0.61 0 0 1 -0.61,0.63 0.5,0.5 0 0 1 -0.17,-0.02 z"
         style="fill:#ffffff"
         id="path26" />
      <path
         d="M 88.52,300.76 A 4.51,4.51 0 0 1 82.23,298.33 51.77,51.77 0 0 0 70.85,281.42 C 62,272.37 49.68,266.61 47.76,260.54 c -2.3,-7.3 4.2,-10.94 14.67,-8.33 C 75,255.34 88.58,270.31 90,300 Z"
         style="fill:#00d1b2"
         id="path28" />
      <path
         d="M 88.52,300.76 A 4.51,4.51 0 0 1 82.23,298.33 51.77,51.77 0 0 0 70.85,281.42 C 62,272.37 49.68,266.61 47.76,260.54 c -2.3,-7.3 4.2,-10.94 14.67,-8.33 C 75,255.34 88.58,270.31 90,300 Z"
         style="opacity:0.1"
         id="path30" />
      <path
         d="m 86.5,298.86 a 0.64,0.64 0 0 1 -0.45,-0.51 c -4,-26.05 -20.91,-38.2 -29.3,-41 a 0.62,0.62 0 0 1 -0.39,-0.78 0.61,0.61 0 0 1 0.78,-0.4 c 9.28,3.09 26.07,15.4 30.14,42 a 0.62,0.62 0 0 1 -0.52,0.71 0.75,0.75 0 0 1 -0.26,-0.02 z"
         style="fill:#ffffff"
         id="path32" />
    </g>
  </g>
  <g
     id="freepik--character-2--inject-31"
     transform="translate(-26.04,-65.536152)">
    <g
       id="freepik--Character--inject-31">
      <g
         id="freepik--Bottom--inject-31">
        <path
           d="m 417.85,265.31 c 4.39,13.11 8.16,30 14.1,55.54 5.56,23.9 5.59,40.78 -2.13,46.57 -7.52,5.63 -29.9,2.26 -43.92,-27.6 -4.39,-9.33 -22.12,-39.79 -22.12,-39.79 a 54.3,54.3 0 0 1 -12.85,-4.54 l -48.38,2.38 c -19.8,-4.05 -53.09,-8.77 -50.58,-16 2.66,-7.72 13.56,-13.84 24.44,-17.65 23.79,-8.32 40.88,-10.23 65.13,-11.79 z"
           style="fill:#37474f"
           id="path37" />
        <path
           d="m 349.68,287 c -6.48,-10.27 -6.59,-16.24 -6.59,-16.24 0,0 -1.36,12.74 4.87,21.59 l -42.57,5.35 45.54,-2.24 a 54.31,54.31 0 0 0 12.84,4.54 c 0,0 -7.6,-2.7 -14.09,-13 z"
           style="fill:#263238"
           id="path39" />
        <path
           d="m 338.57,323.1 c 3.33,2.51 7.41,4.81 11.11,5.31 a 9.18,9.18 0 0 0 4,-0.34 c 4.48,-1.35 11.79,-2 15.15,6.89 3.81,10.07 15.78,14 19.49,20.75 1.85,3.41 3.55,13.57 2.6,20 -0.79,5.27 -11.11,2.31 -15.36,-3.65 -4.25,-5.96 -12.95,-13.56 -18.56,-17.89 -8.93,-4 -19,-10.23 -23.28,-12.7 z"
           style="fill:#874c4c"
           id="path41" />
        <path
           d="m 272.87,270.4 c -26,4.06 -25,19.43 -17.56,29.35 8.05,10.69 35.22,23.69 49.86,30.48 13.46,6.25 37.82,16.68 37.82,16.68 a 27.26,27.26 0 0 1 6.69,-18.5 c -15.38,-8.83 -31.53,-36.59 -56.05,-38.46 z"
           style="fill:#37474f"
           id="path43" />
        <path
           d="m 387.22,379.22 a 6,6 0 0 0 4.21,-1.38 c 1.1,-0.93 3,-8.45 0.1,-17.11 a 38,38 0 0 0 -11.22,-16.54 c -3.12,-2.77 -4.47,-6.16 -5.88,-10.46 -1.41,-4.3 -5.11,-9.46 -7.41,-9.87 -2.3,-0.41 -5.52,1.62 -5.52,1.62 z"
           style="fill:#263238"
           id="path45" />
        <path
           d="m 349.93,351 c 0.8,2.75 3.17,3.26 5.75,4 3.5,1.05 7,4.26 10.44,7.9 2.31,2.46 4.27,5 6.39,7.59 2.12,2.59 4.08,6.47 6.31,8.42 3.26,2.84 9.24,1.73 10.5,-2.83 1.09,-3.93 0.88,-13.45 -4.28,-22.13 -2.81,-4.73 -9.78,-9 -12.09,-15.53 -1.55,-4.4 -3.59,-9.63 -7.21,-12.75 -2.14,-1.85 -3.9,-1.2 -6.3,-0.29 a 81.25,81.25 0 0 1 -9.76,3 15.21,15.21 0 0 0 3.12,7.64 6.81,6.81 0 0 1 1.48,2.41 5.44,5.44 0 0 1 0,1.93 c -0.11,0.88 -0.34,1.94 -1.18,2.25 a 7.33,7.33 0 0 1 -1.06,0.18 c -1.33,0.3 -1.84,1.89 -2.07,3.24 a 12.35,12.35 0 0 0 -0.16,4.41 4.76,4.76 0 0 0 0.12,0.56 z"
           style="fill:#00d1b2"
           id="path47" />
        <path
           d="m 349.93,351 c 0.8,2.75 3.17,3.26 5.75,4 3.5,1.05 7,4.26 10.44,7.9 2.31,2.46 4.27,5 6.39,7.59 2.12,2.59 4.08,6.47 6.31,8.42 3.26,2.84 9.24,1.73 10.5,-2.83 1.09,-3.93 0.88,-13.45 -4.28,-22.13 -2.81,-4.73 -9.78,-9 -12.09,-15.53 -1.55,-4.4 -3.59,-9.63 -7.21,-12.75 -2.14,-1.85 -3.9,-1.2 -6.3,-0.29 a 81.25,81.25 0 0 1 -9.76,3 15.21,15.21 0 0 0 3.12,7.64 6.81,6.81 0 0 1 1.48,2.41 5.44,5.44 0 0 1 0,1.93 c -0.11,0.88 -0.34,1.94 -1.18,2.25 a 7.33,7.33 0 0 1 -1.06,0.18 c -1.33,0.3 -1.84,1.89 -2.07,3.24 a 12.35,12.35 0 0 0 -0.16,4.41 4.76,4.76 0 0 0 0.12,0.56 z"
           style="opacity:0.4"
           id="path49" />
        <path
           d="m 362.74,359.6 a 4.11,4.11 0 0 1 -2.95,-2.59 c -0.88,-1.85 -0.36,-5.66 0.83,-8.26 a 1.65,1.65 0 0 1 2.69,-0.47 v 0 a 1.64,1.64 0 0 1 0.28,1.87 12.62,12.62 0 0 0 -0.85,9.45 z"
           style="fill:#f5f5f5"
           id="path51" />
        <path
           d="m 367.71,364.72 a 4.71,4.71 0 0 1 -2.92,-3.22 c 0,0 -1.2,-5.11 0.89,-9 a 1.61,1.61 0 0 1 2.6,-0.46 v 0 a 1.55,1.55 0 0 1 0.26,1.8 12.67,12.67 0 0 0 -0.83,10.88 z"
           style="fill:#f5f5f5"
           id="path53" />
        <path
           d="m 372.51,370.56 a 5.29,5.29 0 0 1 -2.76,-3.42 c 0,0 -1.08,-4.77 1,-8.69 a 1.61,1.61 0 0 1 2.6,-0.46 v 0 a 1.59,1.59 0 0 1 0.26,1.81 12,12 0 0 0 -1.1,10.76 z"
           style="fill:#f5f5f5"
           id="path55" />
        <path
           d="m 340.75,317.66 c -4.66,-1.18 -11.5,-2.85 -14.33,-6.58 -2.83,-3.73 -8.69,-7.33 -16.62,-2.11 -5,3.3 -11,4.39 -16.93,4.78 -2.56,0.17 -5.44,-0.15 -7.94,0.37 -3,0.63 -6.19,2.47 -8.78,4.07 a 14.44,14.44 0 0 0 -4.37,3.77 9,9 0 0 0 -0.16,9.79 4.66,4.66 0 0 0 3.32,2.23 c 2.74,0.6 5,-0.26 7.62,-1 2.14,-0.59 4.33,-1.05 6.53,-1.45 a 109.68,109.68 0 0 1 15,-1.75 c 2.15,-0.09 6.6,-0.42 8.75,-0.27 9,0.62 21.66,5.66 21.66,5.66 z"
           style="fill:#9e6767"
           id="path57" />
        <path
           d="m 434,360.62 c -1.48,9.06 -11.65,13.43 -33.46,9.07 -21.81,-4.36 -73.71,-37 -73.71,-37 0,0 2,-12.53 14,-15.9 0,0 10.85,2 28.56,5.82 a 234.58,234.58 0 0 1 23.61,6.5 c 12,16.07 24.42,9.58 28.91,15.23 7.46,9.44 12.09,16.28 12.09,16.28 z"
           style="fill:#37474f"
           id="path59" />
        <path
           d="m 269.36,332.25 a 6,6 0 0 1 -2.59,-3.6 c -0.34,-1.4 2.53,-8.62 10,-13.87 a 38,38 0 0 1 18.83,-6.73 c 4.15,-0.4 7.24,-2.34 10.92,-5 3.68,-2.66 9.71,-4.61 11.81,-3.59 2.1,1.02 3.5,4.57 3.5,4.57 z"
           style="fill:#263238"
           id="path61" />
        <path
           d="m 316.09,331.5 c -2.27,1.75 -4.49,0.77 -7,-0.13 -3.45,-1.23 -8.19,-0.71 -13.09,0.21 -3.32,0.63 -6.38,1.5 -9.64,2.35 -3.26,0.85 -7.12,2.83 -10.07,3.08 -4.3,0.37 -8.47,-4.05 -6.8,-8.48 1.44,-3.82 7.23,-11.38 16.52,-15.34 5.06,-2.16 13.18,-1.46 18.92,-5.4 3.85,-2.64 8.58,-5.65 13.35,-6 2.82,-0.23 3.86,1.33 5.26,3.48 a 79.59,79.59 0 0 0 6.13,8.15 15.31,15.31 0 0 1 -7,4.33 6.73,6.73 0 0 0 -2.62,1.07 5.52,5.52 0 0 0 -1.13,1.56 c -0.43,0.78 -0.87,1.76 -0.38,2.51 a 7.88,7.88 0 0 0 0.76,0.77 c 0.9,1 0.36,2.62 -0.24,3.84 a 12.76,12.76 0 0 1 -2.47,3.66 c -0.2,0.1 -0.35,0.23 -0.5,0.34 z"
           style="fill:#00d1b2"
           id="path63" />
        <path
           d="m 316.09,331.5 c -2.27,1.75 -4.49,0.77 -7,-0.13 -3.45,-1.23 -8.19,-0.71 -13.09,0.21 -3.32,0.63 -6.38,1.5 -9.64,2.35 -3.26,0.85 -7.12,2.83 -10.07,3.08 -4.3,0.37 -8.47,-4.05 -6.8,-8.48 1.44,-3.82 7.23,-11.38 16.52,-15.34 5.06,-2.16 13.18,-1.46 18.92,-5.4 3.85,-2.64 8.58,-5.65 13.35,-6 2.82,-0.23 3.86,1.33 5.26,3.48 a 79.59,79.59 0 0 0 6.13,8.15 15.31,15.31 0 0 1 -7,4.33 6.73,6.73 0 0 0 -2.62,1.07 5.52,5.52 0 0 0 -1.13,1.56 c -0.43,0.78 -0.87,1.76 -0.38,2.51 a 7.88,7.88 0 0 0 0.76,0.77 c 0.9,1 0.36,2.62 -0.24,3.84 a 12.76,12.76 0 0 1 -2.47,3.66 c -0.2,0.1 -0.35,0.23 -0.5,0.34 z"
           style="opacity:0.4"
           id="path65" />
        <path
           d="m 300.7,330.86 a 4.1,4.1 0 0 0 3.91,-0.35 c 1.8,-1 3.63,-4.36 4.2,-7.16 a 1.65,1.65 0 0 0 -1.89,-2 v 0 a 1.65,1.65 0 0 0 -1.34,1.35 12.6,12.6 0 0 1 -4.88,8.16 z"
           style="fill:#f5f5f5"
           id="path67" />
        <path
           d="m 293.66,332.06 a 4.73,4.73 0 0 0 4.26,-0.88 c 0,0 4,-3.42 4.61,-7.81 a 1.61,1.61 0 0 0 -1.82,-1.91 v 0 a 1.57,1.57 0 0 0 -1.28,1.3 12.65,12.65 0 0 1 -5.77,9.3 z"
           style="fill:#f5f5f5"
           id="path69" />
        <path
           d="m 286.34,333.93 a 5.28,5.28 0 0 0 4.25,-1.12 c 0,0 3.69,-3.21 4.31,-7.61 a 1.61,1.61 0 0 0 -1.82,-1.91 v 0 a 1.57,1.57 0 0 0 -1.28,1.3 12.07,12.07 0 0 1 -5.46,9.34 z"
           style="fill:#f5f5f5"
           id="path71" />
        <path
           d="m 377.9,324.63 c 0,0 14.65,2.86 25.51,10.18 0,0 -11.16,-13.07 -28.41,-15.42 z"
           style="fill:#263238"
           id="path73" />
        <path
           d="m 293.63,290 c 9.68,0.66 17,5.59 18.93,6.77 l 1,0.61 5.85,-0.29 a 33.52,33.52 0 0 0 -9.3,-5.64 26.82,26.82 0 0 0 -16.48,-1.45 z"
           style="fill:#263238"
           id="path75" />
      </g>
      <g
         id="freepik--Top--inject-31">
        <path
           d="m 311.93,243.64 c 11.22,2.16 17.72,2.14 23.07,-9.91 7,-15.83 18,-41.38 18,-41.38 l 5.54,-43.29 c -11.22,-1.59 -21.24,4.62 -27.75,20 -6.68,15.78 -19.52,48.17 -19.52,48.17 -8.13,-0.67 -16.32,-0.56 -24.46,-1.14 -3.76,-0.27 -7.2,-0.61 -10.33,-2.94 a 65.51,65.51 0 0 0 -6.21,-4.6 27.94,27.94 0 0 0 -4.55,-2.26 16.5,16.5 0 0 1 -3.87,-2.37 2.29,2.29 0 0 0 -1.22,-0.54 c -0.84,0 -1.43,0.87 -1.6,1.7 a 5.58,5.58 0 0 0 0.46,3.43 9.71,9.71 0 0 0 2.06,2.83 c 0.28,0.28 0.59,0.72 0.34,1 a 0.77,0.77 0 0 1 -0.77,0.13 74.63,74.63 0 0 1 -8.61,-2.24 5.62,5.62 0 0 0 -4,0.14 c -2.15,1 -2.59,3.91 -2.27,6.27 2.09,15.69 19.64,17.15 31.89,19.81 8.91,1.94 17.82,3.88 26.75,5.74 2.32,0.51 4.68,1 7.05,1.45 z"
           style="fill:#874c4c"
           id="path78" />
        <path
           d="m 361,148.27 c -8,0.2 -16.84,-0.94 -24.92,10 -8.08,10.94 -19.27,45 -19.27,45 0,0 20.8,1.91 25.54,13.28 l 18.4,-35.41 z"
           style="fill:#00d1b2"
           id="path80" />
        <path
           d="m 389.18,148.52 c 15.85,2.93 26.42,6.35 29.41,9.25 6.74,13.8 -2,60.1 -2,60.1 l 0.29,26.75 1,20.69 c -17.13,14.47 -72.44,8.23 -81.79,-12.05 0,0 -2.39,-51.56 0,-71.25 2.54,-20.92 12,-33.12 29.92,-34.17 z"
           style="fill:#e0e0e0"
           id="path82" />
        <circle
           cx="350.14001"
           cy="99.970001"
           r="21.559999"
           style="fill:#263238"
           id="circle84" />
        <path
           d="m 392.84,110.27 c 0,0 -1.74,17.65 -2.9,20.65 a 7.9,7.9 0 0 1 -4.11,4.14 l -1.09,-12.16 z"
           style="fill:#263238"
           id="path86" />
        <path
           d="m 385.48,86.09 a 8.54,8.54 0 0 1 7.31,1.69 c 3.37,2.75 2.76,12.6 0,22.49 l -6.79,1.57 z"
           style="fill:#263238"
           id="path88" />
        <path
           d="m 384,112.07 c 1.47,0.68 3.15,-2.21 4.66,-4.19 1.51,-1.98 6.82,-5 10.26,0.51 3.44,5.51 -1.06,13.85 -5.15,16 a 5.44,5.44 0 0 1 -7.53,-2 l 2.6,27.9 c -6.33,15.23 -35.92,17.61 -26.43,0.68 l -0.77,-7.07 A 49.74,49.74 0 0 1 351,145.31 c -3.62,-0.05 -8.28,-3 -11.59,-9.74 C 335,126.5 333,117.5 333.19,98.21 333.38,77.06 358.35,75.13 372.38,81.92 386.41,88.71 384,112.07 384,112.07 Z"
           style="fill:#9e6767"
           id="path90" />
        <path
           d="M 383.07,74.81 A 66.87,66.87 0 0 0 368.28,72.1 c -10.84,-1.12 -21.86,-2 -32.07,-5.84 a 6.81,6.81 0 0 0 -3.91,-0.67 c -2.51,0.62 -3.28,3.83 -3.1,6.41 a 21.17,21.17 0 0 0 1.71,7 c -1.55,-1.48 -4.33,-0.94 -5.68,0.72 a 7.08,7.08 0 0 0 -1,6.13 c 3.14,12.67 15.58,13.89 25.57,12.71 3.46,-0.41 10.72,-1.87 13.84,-5.69 a 14.35,14.35 0 0 0 13.16,8.66 46,46 0 0 0 1.92,10.06 c 0.47,1.5 1.23,3.18 2.75,3.58 a 3.34,3.34 0 0 0 3.23,-1.24 c 1.49,-1.71 2.25,-4 3.75,-5.79 1.91,-2.27 2.35,-17.86 2.41,-20.74 a 1.34,1.34 0 0 1 0.23,-0.63 c 2,-3.64 -1.43,-9 -4.61,-10.53 a 29.8,29.8 0 0 0 -3.41,-1.43 z"
           style="fill:#263238"
           id="path92" />
        <path
           d="m 389.79,87.11 a 5.08,5.08 0 1 0 6.95,-7.4 z"
           style="fill:#263238"
           id="path94" />
        <path
           d="m 361.59,144 c 0,0 10.55,-3.2 14.64,-6 2.73,-1.87 4.78,-7.15 5.29,-8.95 a 18.33,18.33 0 0 1 -2.73,10.29 c -2.83,4.35 -16.69,9.26 -16.69,9.26 z"
           style="fill:#874c4c"
           id="path96" />
        <path
           d="m 359.7,112.73 a 2.8,2.8 0 0 0 3.05,2.54 2.87,2.87 0 1 0 -3.05,-2.54 z"
           style="fill:#263238"
           id="path98" />
        <path
           d="m 367.46,104.57 -5.61,-2.44 a 3.22,3.22 0 0 0 1.64,4.13 3,3 0 0 0 3.97,-1.69 z"
           style="fill:#263238"
           id="path100" />
        <path
           d="m 365.08,127 -8.72,4.43 a 4.8,4.8 0 0 0 6.52,2.32 5.1,5.1 0 0 0 2.2,-6.75 z"
           style="fill:#874c4c"
           id="path102" />
        <path
           d="m 365.19,129 a 4.47,4.47 0 0 0 -4.46,4.47 4.15,4.15 0 0 0 0.08,0.79 4.68,4.68 0 0 0 2.07,-0.51 5,5 0 0 0 2.7,-4.71 c -0.13,0.02 -0.25,-0.04 -0.39,-0.04 z"
           style="fill:#f28f8f"
           id="path104" />
        <path
           d="m 340.76,103.28 -5.07,3.52 a 3,3 0 0 0 4.22,0.86 3.24,3.24 0 0 0 0.85,-4.38 z"
           style="fill:#263238"
           id="path106" />
        <path
           d="m 339.59,114.31 a 2.76,2.76 0 1 0 2.43,-3.16 2.81,2.81 0 0 0 -2.43,3.16 z"
           style="fill:#263238"
           id="path108" />
        <polygon
           points="344.84,126.29 352.1,113.02 352.95,128.08 "
           style="fill:#874c4c"
           id="polygon110" />
        <path
           d="m 418.59,157.77 c 9.55,6.15 13.15,17.29 8.54,33.69 -5.06,18 -14.55,40.47 -24.84,55.91 -4.15,6.22 -6.4,8 -25.09,5 -9.46,-1.53 -18.89,-3.56 -28.25,-5.61 -11.21,-2.46 -24.31,-5.72 -33.28,-10 a 26,26 0 0 1 -8,-5.78 8.17,8.17 0 0 1 0.53,-11.8 c 9.32,-8.88 11.88,-1.07 18.66,1.17 0,0 4,0 5.91,0.26 1.73,0.21 1.85,-0.08 3.3,0.86 2.93,1.89 4.82,3.45 6.6,3.71 11.89,1.75 39.45,3.53 39.45,3.53 l 17.52,-42.39 c 0,0 9.83,-30.15 18.95,-28.55 z"
           style="fill:#9e6767"
           id="path112" />
        <path
           d="m 339.08,223.49 c -0.32,-0.11 -1.8,-3.17 -2.24,-3.79 a 33,33 0 0 0 -3.32,-4.13 13.15,13.15 0 0 0 -4.06,-2.94 c -2.23,-0.89 -4.73,-1.36 -7,-2 a 1.57,1.57 0 0 0 -1,-0.06 1,1 0 0 0 -0.59,0.93 2.51,2.51 0 0 0 0.28,1.12 9.06,9.06 0 0 0 2.65,3.37 c 0.87,0.7 3.52,3.57 4.26,4.42 -0.06,-0.03 11.02,3.84 11.02,3.08 z"
           style="fill:#9e6767"
           id="path114" />
        <path
           d="m 413.68,155 c 7.26,1.8 13.53,4.12 15.87,14.11 2.34,9.99 1.45,15.2 -7.48,38.25 -5.43,14 -9.76,22.44 -9.76,22.44 0,0 -5.2,-13.2 -25.1,-14.66 l 12.91,-38.76 c 0,0 7.5,-16.92 13.56,-21.38 z"
           style="fill:#00d1b2"
           id="path116" />
      </g>
    </g>
  </g>
  <g
     id="freepik--character-1--inject-31"
     transform="translate(-26.04,-65.536152)">
    <g
       id="freepik--character--inject-31">
      <g
         id="freepik--top--inject-31">
        <path
           d="m 145.38,325.37 c 0,0 -32.73,-12 -36.77,-15.26 -3.38,-2.74 -1.35,-9.3 -6,-10.42 -5.39,-1.29 -9.24,1.6 -12.7,4.78 -3.28,3 -7.56,4.37 -15.63,1.58 -8.07,-2.79 -15.86,-6.76 -19.13,-5.18 -3.27,1.58 -1.15,4.13 13,10.63 8.11,3.74 18.44,8.1 25.06,10.71 a 54.88,54.88 0 0 1 13.39,7.23 c 8.63,6 10.22,7.33 20.43,13.45 20.41,12.23 32.42,15.45 48.66,12.37 z"
           style="fill:#ffa8a7"
           id="path121" />
        <path
           d="m 114.74,313.3 c -6.51,3.75 -9.65,7.88 -10,15.09 0,0 4.39,3.4 11.34,8.21 8.32,5.76 28.46,18.87 41.91,20.24 20.86,2.12 27.47,-4.16 27.47,-4.16 z"
           style="fill:#455a64"
           id="path123" />
        <path
           d="m 108.7,317.94 c 10.68,18 36.77,29.17 45,30 -2.89,-2.37 -7.14,-10.44 -11.17,-19.19 L 114.74,313.3 a 24.51,24.51 0 0 0 -6.04,4.64 z"
           style="fill:#37474f"
           id="path125" />
        <path
           d="m 47.48,299.37 a 4.38,4.38 0 0 1 0.77,-3.73 c 2.88,-3.41 6.56,-5.21 9.07,-6.48 a 20,20 0 0 1 9.75,-1.82 c 6.4,0.38 11.9,5.15 18.3,5.52 4.77,0.28 9.11,-2.15 13.76,-3.28 a 15,15 0 0 1 4.48,-0.39 c 1.28,0.08 3.3,1 3.76,2.05 a 5.6,5.6 0 0 1 0.35,4.11 c -0.29,0.86 -2.06,2.5 -3.34,3.4 -1.74,1.24 -3.92,1.59 -6.52,2.36 -6.56,1.89 -35.92,2.62 -50.38,-1.74 z"
           style="fill:#37474f"
           id="path127" />
        <path
           d="m 108.76,308.32 c 0,0.58 0.1,1.14 0.16,1.73 0.09,0.79 -0.34,1 -1,1.49 -2.69,1.85 -6.09,1.67 -9.16,1.14 -2.39,-0.42 -4.82,-1.09 -7.21,-0.63 -2.84,0.56 -5.11,2.64 -7.23,4.62 a 5.75,5.75 0 0 0 -1.15,1.51 c 0,0 -16.51,-7.05 -24,-11 -3.8,-2 -8.19,-3.88 -11.18,-7.06 -0.17,-0.17 0.73,-1.29 0.82,-1.4 a 7.08,7.08 0 0 1 3.79,-2.12 19.57,19.57 0 0 1 7.26,-0.49 c 3.69,0.55 7.28,1.52 10.94,2.24 a 93,93 0 0 0 9.93,1.4 76.54,76.54 0 0 0 10.92,0.18 27.35,27.35 0 0 0 9.93,-2.11 14.4,14.4 0 0 0 3.41,-2.09 10.53,10.53 0 0 0 1.56,-2 c 0.51,-0.73 0.82,-2 1.34,-0.92 1.26,2.48 1.52,6.3 1.34,9.08 -0.12,1.91 -0.37,3.81 -0.44,5.73 -0.04,0.23 -0.04,0.46 -0.03,0.7 z"
           style="fill:#00d1b2"
           id="path129" />
        <path
           d="m 108.76,308.32 c 0,0.58 0.1,1.14 0.16,1.73 0.09,0.79 -0.34,1 -1,1.49 -2.69,1.85 -6.09,1.67 -9.16,1.14 -2.39,-0.42 -4.82,-1.09 -7.21,-0.63 -2.84,0.56 -5.11,2.64 -7.23,4.62 a 5.75,5.75 0 0 0 -1.15,1.51 c 0,0 -16.51,-7.05 -24,-11 -3.8,-2 -8.19,-3.88 -11.18,-7.06 -0.17,-0.17 0.73,-1.29 0.82,-1.4 a 7.08,7.08 0 0 1 3.79,-2.12 19.57,19.57 0 0 1 7.26,-0.49 c 3.69,0.55 7.28,1.52 10.94,2.24 a 93,93 0 0 0 9.93,1.4 76.54,76.54 0 0 0 10.92,0.18 27.35,27.35 0 0 0 9.93,-2.11 14.4,14.4 0 0 0 3.41,-2.09 10.53,10.53 0 0 0 1.56,-2 c 0.51,-0.73 0.82,-2 1.34,-0.92 1.26,2.48 1.52,6.3 1.34,9.08 -0.12,1.91 -0.37,3.81 -0.44,5.73 -0.04,0.23 -0.04,0.46 -0.03,0.7 z"
           style="opacity:0.2"
           id="path131" />
        <path
           d="m 65.76,297.17 c -3.08,4.23 -3.06,11.72 -3.06,11.72 0,0 -5.3,-2.22 -10.51,-5.13 -5,-2.79 -4.71,-4.39 -4.71,-4.39 a 4.42,4.42 0 0 1 1.46,-2.2 9.29,9.29 0 0 1 6.72,-2 43.06,43.06 0 0 1 10.1,2 z"
           style="fill:#fafafa"
           id="path133" />
        <path
           d="m 65.54,306.38 a 8.51,8.51 0 0 0 -0.32,3.72 4.24,4.24 0 0 0 1.64,0.77 15.24,15.24 0 0 1 0.4,-3.82 c 0.34,-1.05 -1.35,-1.7 -1.72,-0.67 z"
           style="fill:#fafafa"
           id="path135" />
        <path
           d="m 70.56,308.69 a 8.41,8.41 0 0 0 -0.35,3.72 4.57,4.57 0 0 0 1.67,0.75 12.94,12.94 0 0 1 0.4,-3.8 c 0.34,-1.1 -1.35,-1.71 -1.72,-0.67 z"
           style="fill:#fafafa"
           id="path137" />
        <path
           d="m 75.58,311 a 8.29,8.29 0 0 0 -0.32,3.68 4.13,4.13 0 0 0 1.64,0.8 15.13,15.13 0 0 1 0.4,-3.81 C 77.64,310.56 76,310 75.58,311 Z"
           style="fill:#fafafa"
           id="path139" />
        <path
           d="m 107.86,292.79 a 3.12,3.12 0 0 0 -0.49,-1.55 c 0,0 -1.65,3.39 -7.55,5.35 -5.6,1.86 -13.6,2.76 -25.14,0.1 -11.54,-2.66 -18.21,-5.14 -23.43,-3.07 -5.22,2.07 -3.77,5.75 -3.77,5.75 0,0 2.49,-4.59 9.81,-3.73 7.06,0.83 17.44,4.57 27.1,4.92 10.09,0.38 20.28,-0.91 23.47,-7.77 z"
           style="fill:#e0e0e0"
           id="path141" />
        <path
           d="m 225.19,314.68 c -5,-15.74 -18.59,-24.91 -30.68,-35.05 -12.09,-10.14 -31.38,-27.13 -31.38,-27.13 v 0 l -68,-13.72 c -4.24,8.68 -8.5,25.27 -8.52,37.89 0,11.77 3.57,27.54 24.17,42.83 12.49,9.27 22.46,16.55 31.41,22.24 9.46,6 30.34,16.59 42.65,12.43 a 15.42,15.42 0 0 0 10.28,-18.71 v 0 c 1.45,0.13 2.89,0.21 4.23,0.22 1.56,0.05 3,0 4.11,0 a 34.3,34.3 0 0 0 12,-1.82 c 8.54,-3.12 12.62,-10.05 9.73,-19.18 z"
           style="fill:#455a64"
           id="path143" />
        <path
           d="m 198.06,335 c -1.33,0 -2.78,-0.09 -4.22,-0.23 -7.6,-16.21 -49.33,-49.38 -49.33,-49.38 3.37,-1.64 11.18,-5.82 13.8,-10.52 -1.07,6 -4.51,9 -7.84,11.46 5.12,4.59 26.64,22.73 32.39,28.18 6.03,5.71 12.29,12.35 15.2,20.49 z"
           style="fill:#37474f"
           id="path145" />
      </g>
      <g
         id="freepik--bottom--inject-31">
        <path
           d="m 148.9,152.7 c 8.88,0.7 13.11,3.17 21.88,12.86 8.77,9.69 25,27.23 27.92,31.78 2.92,4.55 11.41,14.39 -1.37,21.76 -12.78,7.37 -40.11,9.84 -40.11,9.84 z"
           style="fill:#f28f8f"
           id="path148" />
        <path
           d="m 164.5,207.05 c 11.87,-9.76 8,-22.49 3.63,-31.06 -8.67,-17.14 -17.69,-23.88 -21.45,-23.82 l -24,-3.11 a 85.78,85.78 0 0 0 -27.6,9.32 c -9.38,5.42 -6.88,11.6 -5.63,17.22 3.38,15.29 7.65,24 8.92,28.63 1.27,4.63 3.61,11.85 1.71,19.35 -0.74,2.9 -2.7,5.72 -5.67,13.72 a 116.33,116.33 0 0 0 -6,20.31 c 0,0 19.08,17.48 52.74,12.67 24.78,-3.54 27.93,-12.59 27.93,-12.59 l -5.81,-30.48 c 0.59,-10.11 0.73,-13.78 1.23,-20.16 z"
           style="fill:#00d1b2"
           id="path150" />
        <g
           style="opacity:0.5"
           id="g154">
          <path
             d="m 164.5,207.05 c 11.87,-9.76 8,-22.49 3.63,-31.06 -8.67,-17.14 -17.69,-23.88 -21.45,-23.82 l -24,-3.11 a 85.78,85.78 0 0 0 -27.6,9.32 c -9.38,5.42 -6.88,11.6 -5.63,17.22 3.38,15.29 7.65,24 8.92,28.63 1.27,4.63 3.61,11.85 1.71,19.35 -0.74,2.9 -2.7,5.72 -5.67,13.72 a 116.33,116.33 0 0 0 -6,20.31 c 0,0 19.08,17.48 52.74,12.67 24.78,-3.54 27.93,-12.59 27.93,-12.59 l -5.81,-30.48 c 0.59,-10.11 0.73,-13.78 1.23,-20.16 z"
             style="fill:#ffffff"
             id="path152" />
        </g>
        <path
           d="m 157,75.69 c -12.73,-6.87 -29.12,-4.16 -35.56,6.13 0,0 -6.49,-1.21 -13,4.47 -7.35,6.46 -7.28,16.2 -7.38,25.15 -0.12,10.43 -4,13.56 -5.42,21.58 -1.42,8.02 4,13.31 9.93,14 0,0 -2,-7.34 0.11,-10.74 0,0 -0.64,10.51 9.36,12.29 8.05,1.44 14.1,-4 14.1,-4 0,0 -10.06,-1.75 -11.79,-7.88 l 1.09,-10.23 18.22,19.64 c 10.49,9.1 25.23,3.39 25.66,-0.79 0,0 -11.88,-12.27 4.15,-27.61 16.03,-15.34 3.25,-35.15 -9.47,-42.01 z"
           style="fill:#37474f"
           id="path156" />
        <path
           d="m 166.13,122 c -2.29,18.31 -8.71,22.24 -11.82,23.24 -3.11,1 -8.81,-0.38 -14.3,-1.87 l -0.89,8.73 c 0,0 8.57,8.45 6.36,10.47 -4.12,3.76 -15,2 -20.26,-0.91 a 22.56,22.56 0 0 1 -8.92,-8.22 3.45,3.45 0 0 1 -0.43,-2.49 l 2.6,-24.5 c 0,0 -2.93,1.73 -7.34,-1.24 -4,-2.67 -4.85,-11 -1.14,-14.59 2.65,-2.54 7.56,-2.47 10,2.14 1.29,3.34 0.52,6.37 2.77,6.27 2.25,-0.1 3.21,-2.2 3.57,-3.94 0.36,-1.74 0.57,-3 1,-5.27 5.56,-0.52 11.73,-8 13,-13.38 3.67,2.14 7.58,3.87 11.47,4.07 6.12,0.3 9.4,-0.54 12.9,-4.56 a 12.48,12.48 0 0 1 1.3,3.45 41.35,41.35 0 0 1 1,7.42 92.91,92.91 0 0 1 -0.87,15.18 z"
           style="fill:#ffa8a7"
           id="path158" />
        <path
           d="m 140,143.35 c -5.83,-1.37 -17.62,-6.09 -19,-11.09 0,0 0.32,3.08 3.64,6.56 3.32,3.48 15,8.21 15,8.21 z"
           style="fill:#f28f8f"
           id="path160" />
        <path
           d="m 146.2,115.78 a 2.56,2.56 0 1 1 -2.42,-2.78 2.6,2.6 0 0 1 2.42,2.78 z"
           style="fill:#263238"
           id="path162" />
        <path
           d="M 163.45,116.73 A 2.36,2.36 0 0 1 161,119 a 2.21,2.21 0 0 1 -2.19,-2.53 2.35,2.35 0 0 1 2.44,-2.28 2.38,2.38 0 0 1 2.2,2.54 z"
           style="fill:#263238"
           id="path164" />
        <polygon
           points="159.63,127.06 152.48,111.44 151.26,128.79 "
           style="fill:#f28f8f"
           id="polygon166" />
        <path
           d="m 137.47,108 5.09,-3.79 a 3.33,3.33 0 0 1 -0.68,4.55 3.1,3.1 0 0 1 -4.41,-0.76 z"
           style="fill:#263238"
           id="path168" />
        <path
           d="m 141.81,128.72 7.81,3.61 a 4.52,4.52 0 0 1 -5.87,2.13 4.19,4.19 0 0 1 -1.94,-5.74 z"
           style="fill:#874c4c"
           id="path170" />
        <path
           d="m 143.75,134.46 a 4.11,4.11 0 0 1 -2.39,-3.79 4,4 0 0 1 1.43,-0.1 4,4 0 0 1 3.47,4.23 4.21,4.21 0 0 1 -2.51,-0.34 z"
           style="fill:#f28f8f"
           id="path172" />
        <path
           d="m 161.89,105.13 4.61,4.43 a 3.07,3.07 0 0 1 -4.45,0.18 3.35,3.35 0 0 1 -0.16,-4.61 z"
           style="fill:#263238"
           id="path174" />
      </g>
      <g
         id="freepik--Dog--inject-31">
        <path
           d="m 173.3,171.22 a 32.11,32.11 0 0 1 -3.48,-0.73 18.36,18.36 0 0 0 -6.54,-0.78 c -2.28,0.2 -5.33,1.15 -6.94,2.76 -0.67,0.66 -0.92,2.23 0.19,2.62 a 1.4,1.4 0 0 0 0.59,1.37 2.43,2.43 0 0 0 1.78,0.37 c 0,0.62 1,1 2,0.91 a 14.41,14.41 0 0 1 4.29,-0.48 c 3.05,0.09 3.57,1.25 3.57,1.25"
           style="fill:#455a64"
           id="path177" />
        <path
           d="m 161.29,174.83 a 2.72,2.72 0 0 0 -3.12,2 5.92,5.92 0 0 0 0.73,0 2.37,2.37 0 0 1 2.39,-2 z"
           style="fill:#37474f"
           id="path179" />
        <path
           d="m 159,172.94 a 3.14,3.14 0 0 0 -3,1.78 1.1,1.1 0 0 0 0.49,0.37 3.11,3.11 0 0 1 2.51,-2.15 z"
           style="fill:#37474f"
           id="path181" />
        <path
           d="m 200.12,163.67 -5,1.39 -10,2.78 -0.89,0.22 -2.32,0.39 a 33,33 0 0 0 -4.85,0.82 h -0.35 a 7.57,7.57 0 0 0 -1.88,0.32 13.54,13.54 0 0 0 -1.16,1 l -1.06,1 c -0.12,0.13 -0.24,0.26 -0.36,0.41 l -3.12,5.45 a 5.48,5.48 0 0 1 -2.65,1.82 7.21,7.21 0 0 0 -4.14,2.56 1.23,1.23 0 0 0 -1,-0.55 1.71,1.71 0 0 0 -1,-1.31 2.8,2.8 0 0 0 -2,-0.05 c 0,-0.51 -0.87,-1.17 -2.61,-0.78 -3.44,0.77 -5.47,2.14 -9.05,4.4 -4.46,2.82 -5.9,5.39 -5.83,7.5 a 3.76,3.76 0 0 0 1.89,3.36 c 0,0 -13.87,13.26 5.14,24.52 18.46,10.93 42.6,-0.75 50.14,-18.25 a 48,48 0 0 0 3.65,-14.6 c 1.03,-9.63 -0.88,-17.07 -1.55,-22.4 z"
           style="fill:#455a64"
           id="path183" />
        <path
           d="m 161.93,185.15 c 0,0 3,-1.34 4.38,0.3 a 2.31,2.31 0 0 1 2.21,0.13 1.52,1.52 0 0 1 0.63,1.68 1.19,1.19 0 0 1 1,0.71 2.47,2.47 0 0 1 -0.38,2.2 8.65,8.65 0 0 1 -5.2,4.24 7.81,7.81 0 0 1 3.87,6 c 0.69,4.84 -0.86,7.35 -0.86,7.35 a 28.58,28.58 0 0 0 16,-10.46 c 8.46,-10.86 5.4,-30 5.4,-30 l -14.16,2.39 a 11,11 0 0 0 -5.7,7.86 16.87,16.87 0 0 0 -8.13,3 2.69,2.69 0 0 1 0.33,0.8 1.45,1.45 0 0 1 1,0.55 2.38,2.38 0 0 1 -0.39,3.25 z"
           style="fill:#00d1b2"
           id="path185" />
        <path
           d="m 161.93,185.15 c 0,0 3,-1.34 4.38,0.3 a 2.31,2.31 0 0 1 2.21,0.13 1.52,1.52 0 0 1 0.63,1.68 1.19,1.19 0 0 1 1,0.71 2.47,2.47 0 0 1 -0.38,2.2 8.65,8.65 0 0 1 -5.2,4.24 7.81,7.81 0 0 1 3.87,6 c 0.69,4.84 -0.86,7.35 -0.86,7.35 a 28.58,28.58 0 0 0 16,-10.46 c 8.46,-10.86 5.4,-30 5.4,-30 l -14.16,2.39 a 11,11 0 0 0 -5.7,7.86 16.87,16.87 0 0 0 -8.13,3 2.69,2.69 0 0 1 0.33,0.8 1.45,1.45 0 0 1 1,0.55 2.38,2.38 0 0 1 -0.39,3.25 z"
           style="opacity:0.3"
           id="path187" />
        <path
           d="m 182.89,180 c -2.32,-0.09 -5.51,0.48 -7.34,1.89 -0.76,0.58 -1.2,2.12 -0.14,2.66 a 1.43,1.43 0 0 0 0.41,1.45 2.45,2.45 0 0 0 1.75,0.6 c -0.06,0.63 0.86,1.19 1.88,1.17 1.4,0 1.79,-0.47 4.38,0.07 a 7.4,7.4 0 0 1 3.62,2 40.25,40.25 0 0 0 1.73,-8.14 16.71,16.71 0 0 0 -6.29,-1.7 z"
           style="opacity:0.1"
           id="path189" />
        <path
           d="m 189.53,180.15 a 17,17 0 0 0 -6.64,-1.84 c -2.32,-0.1 -5.51,0.48 -7.34,1.89 -0.76,0.58 -1.2,2.12 -0.14,2.66 a 1.43,1.43 0 0 0 0.41,1.45 2.49,2.49 0 0 0 1.75,0.6 c -0.06,0.63 0.86,1.19 1.88,1.17 1.4,0 1.79,-0.47 4.38,0.07 a 7.48,7.48 0 0 1 4.07,2.46 l 4.67,-7.2 a 16.39,16.39 0 0 1 -3.04,-1.26 z"
           style="fill:#455a64"
           id="path191" />
        <path
           d="m 179.94,183.26 a 2.22,2.22 0 0 0 -2.26,0.2 1.84,1.84 0 0 0 -0.81,1.36 4.76,4.76 0 0 0 0.7,0.09 c 0.05,-1.07 1.24,-1.69 2.37,-1.65 z"
           style="fill:#37474f"
           id="path193" />
        <path
           d="m 174.89,182.31 a 1.06,1.06 0 0 0 0.52,0.55 2.33,2.33 0 0 1 1.83,-1.35 2.54,2.54 0 0 0 -2.35,0.8 z"
           style="fill:#37474f"
           id="path195" />
        <path
           d="m 201.85,176.59 c -0.36,-5.2 -1.3,-9.5 -1.73,-12.92 l -5,1.39 -10,2.78 -0.89,0.22 -2.32,0.39 a 33,33 0 0 0 -4.85,0.82 h -0.35 a 7.14,7.14 0 0 0 -1.88,0.32 v 0 a 7.9,7.9 0 0 0 -0.92,0.53 c 0.66,0.82 3.15,3.46 8.64,4.66 6.54,1.44 13.48,-0.75 13.48,-0.75 a 5.36,5.36 0 0 0 5.82,2.56 z"
           style="opacity:0.1"
           id="path197" />
        <path
           d="m 190.38,143.69 c -0.48,-1.79 -2.72,-2.57 -6.3,-2.64 -2.83,-0.06 -5.53,0.8 -9.7,-1.07 -4.17,-1.87 -7.62,-1 -8.75,3.2 -1.13,4.2 -0.17,9.36 4.41,11.15 4.24,1.66 11.13,0.81 15,-1.84 3.87,-2.65 5.34,-8.8 5.34,-8.8 z"
           style="fill:#37474f"
           id="path199" />
        <path
           d="m 178,141.91 a 4.81,4.81 0 0 0 0.21,-0.83 13.18,13.18 0 0 1 -3.84,-1.1 c -4.18,-1.88 -7.62,-1 -8.74,3.2 a 12.33,12.33 0 0 0 -0.37,4.4 6.83,6.83 0 0 0 2.7,0.94 2.41,2.41 0 0 0 2.13,-0.62 c 0.61,-0.74 0.39,-2 1,-2.67 0.61,-0.67 2,-0.52 3.09,-0.57 a 4.41,4.41 0 0 0 3.82,-2.75 z"
           style="fill:#00d1b2"
           id="path201" />
        <path
           d="m 178,141.91 a 4.81,4.81 0 0 0 0.21,-0.83 13.18,13.18 0 0 1 -3.84,-1.1 c -4.18,-1.88 -7.62,-1 -8.74,3.2 a 12.33,12.33 0 0 0 -0.37,4.4 6.83,6.83 0 0 0 2.7,0.94 2.41,2.41 0 0 0 2.13,-0.62 c 0.61,-0.74 0.39,-2 1,-2.67 0.61,-0.67 2,-0.52 3.09,-0.57 a 4.41,4.41 0 0 0 3.82,-2.75 z"
           style="opacity:0.4"
           id="path203" />
        <path
           d="m 201.7,151.68 c -2,-4.31 -3.13,-5.27 -8.69,-7.23 -5.56,-1.96 -9,-1.74 -13.87,1.27 -3.08,1.9 -4.32,6.94 -4.32,6.94 a 7.49,7.49 0 0 0 -5,2.9 c -2.15,3.3 -0.51,9.18 0.88,11.16 a 15.34,15.34 0 0 0 9.47,6.13 c 7.15,1.46 12.92,1 16.51,-2.65 4.5,-4.55 6.48,-15.38 5.02,-18.52 z"
           style="fill:#455a64"
           id="path205" />
        <path
           d="m 200.65,158.67 a 7.39,7.39 0 0 0 0.14,-1.55 c 0,-1.64 -0.37,-3.83 -1.48,-5.08 a 7.24,7.24 0 0 0 -8.06,-2.9 7.32,7.32 0 0 0 -4.44,2.86 c -1,1.51 -1.32,3.24 0.08,4.58 a 15.33,15.33 0 0 1 1.5,1.4 c 0.64,0.81 0.91,1.87 1.51,2.71 a 5,5 0 0 0 2.76,1.87 8.1,8.1 0 0 0 3.36,0.15 5.26,5.26 0 0 0 3.71,-1.87 5.66,5.66 0 0 0 0.92,-2.17 z"
           style="fill:#00d1b2"
           id="path207" />
        <path
           d="m 200.65,158.67 a 7.39,7.39 0 0 0 0.14,-1.55 c 0,-1.64 -0.37,-3.83 -1.48,-5.08 a 7.24,7.24 0 0 0 -8.06,-2.9 7.32,7.32 0 0 0 -4.44,2.86 c -1,1.51 -1.32,3.24 0.08,4.58 a 15.33,15.33 0 0 1 1.5,1.4 c 0.64,0.81 0.91,1.87 1.51,2.71 a 5,5 0 0 0 2.76,1.87 8.1,8.1 0 0 0 3.36,0.15 5.26,5.26 0 0 0 3.71,-1.87 5.66,5.66 0 0 0 0.92,-2.17 z"
           style="opacity:0.3"
           id="path209" />
        <path
           d="m 191.7,154.75 a 1.65,1.65 0 1 1 -1.64,-1.64 1.65,1.65 0 0 1 1.64,1.64 z"
           style="fill:#263238"
           id="path211" />
        <path
           d="m 180.08,151.68 a 1.64,1.64 0 1 1 -1.64,-1.64 1.64,1.64 0 0 1 1.64,1.64 z"
           style="fill:#263238"
           id="path213" />
        <path
           d="M 176.11,165.19 H 176 a 0.39,0.39 0 0 1 -0.31,-0.46 l 0.73,-3.79 a 0.39223717,0.39223717 0 0 1 0.77,0.15 l -0.73,3.79 a 0.4,0.4 0 0 1 -0.35,0.31 z"
           style="fill:#263238"
           id="path215" />
        <path
           d="m 178.46,156.51 c -2,-0.61 -3.55,-0.51 -3.93,0.24 -0.61,1.26 0.3,3.1 0.93,3.83 a 3.38,3.38 0 0 0 2.6,0.83 c 1.13,-0.12 2.94,-0.85 3.28,-2 0.34,-1.15 -0.73,-2.24 -2.88,-2.9 z"
           style="fill:#263238"
           id="path217" />
        <path
           d="m 175.3,156.66 a 1.26,1.26 0 0 0 -0.5,1.6 c 0.23,0.41 0.63,-1.12 1.72,-1.12 a 8.3,8.3 0 0 1 3.5,1.19 c 0.68,0.44 0.7,-0.36 -0.65,-1 -1.65,-0.88 -3.21,-1.12 -4.07,-0.67 z"
           style="fill:#37474f"
           id="path219" />
        <path
           d="m 178.52,165.56 c -0.24,0 -0.47,0 -0.71,0 a 5.38,5.38 0 0 1 -3.79,-1.63 0.39204592,0.39204592 0 0 1 0.62,-0.48 4.76,4.76 0 0 0 3.23,1.32 5.82,5.82 0 0 0 4.41,-1.22 0.39258757,0.39258757 0 0 1 0.54,0.57 6.3,6.3 0 0 1 -4.3,1.44 z"
           style="fill:#263238"
           id="path221" />
        <path
           d="m 198.48,147 c 2.2,0.25 6.58,1.29 7.93,3.38 1.35,2.09 5.63,9.07 4.46,15.62 a 9.9,9.9 0 0 1 -10.18,8.38 c -3.58,-0.36 -5.78,-2 -4,-7.16 1.78,-5.16 3.13,-12.42 1.82,-15.88 -1.18,-3.16 -2.51,-4.6 -0.03,-4.34 z"
           style="fill:#37474f"
           id="path223" />
        <path
           d="m 209.18,155.58 a 9.48,9.48 0 0 1 -3.59,3.12 8.87,8.87 0 0 0 -1.94,1.05 1.89,1.89 0 0 0 -0.72,1.95 c 0.3,0.87 1.34,1.18 2.22,1.43 0.88,0.25 1.91,0.77 1.92,1.69 0,0.66 -0.53,1.22 -0.58,1.88 a 1.73,1.73 0 0 0 1.94,1.63 3.56,3.56 0 0 0 2.23,-1.38 c 0.08,-0.3 0.15,-0.6 0.21,-0.92 0.65,-3.66 -0.4,-7.45 -1.69,-10.45 z"
           style="fill:#00d1b2"
           id="path225" />
        <path
           d="m 209.18,155.58 a 9.48,9.48 0 0 1 -3.59,3.12 8.87,8.87 0 0 0 -1.94,1.05 1.89,1.89 0 0 0 -0.72,1.95 c 0.3,0.87 1.34,1.18 2.22,1.43 0.88,0.25 1.91,0.77 1.92,1.69 0,0.66 -0.53,1.22 -0.58,1.88 a 1.73,1.73 0 0 0 1.94,1.63 3.56,3.56 0 0 0 2.23,-1.38 c 0.08,-0.3 0.15,-0.6 0.21,-0.92 0.65,-3.66 -0.4,-7.45 -1.69,-10.45 z"
           style="opacity:0.4"
           id="path227" />
        <path
           d="m 161.93,185.15 c -5.89,2.58 -11.51,5.45 -12.58,8.83 -1.07,3.38 1.8,4.16 1.8,4.16 0,0 -2.94,-0.14 -2.94,-2.83 0,-2.69 2.44,-6.86 13.72,-10.16 z"
           style="fill:#37474f"
           id="path229" />
        <path
           d="m 166.24,188 c 0.66,-0.09 1.87,-0.54 2,-1.34 0.07,-0.55 -0.41,-0.66 -0.87,-0.65 a 3,3 0 0 0 -1.76,0.64 c -0.79,0.67 -0.32,1.48 0.63,1.35 z"
           style="fill:#37474f"
           id="path231" />
        <path
           d="m 167.29,190 c 0.67,0 1.94,-0.19 2.18,-1 0.16,-0.53 -0.28,-0.72 -0.74,-0.8 a 2.93,2.93 0 0 0 -1.84,0.31 c -0.89,0.55 -0.55,1.43 0.4,1.49 z"
           style="fill:#37474f"
           id="path233" />
        <path
           d="m 163.25,187 c 0.62,0 1.77,-0.33 1.93,-1.05 0.12,-0.5 -0.31,-0.65 -0.73,-0.68 a 2.69,2.69 0 0 0 -1.68,0.43 c -0.77,0.53 -0.4,1.3 0.48,1.3 z"
           style="fill:#37474f"
           id="path235" />
        <path
           d="m 163.82,188.39 c -0.7,-0.66 -1.72,-1.25 -4.8,-0.37 -3.08,0.88 -4.15,2.3 -3.41,2.95 1.09,0.94 2.88,-0.53 2.47,1.66 -0.23,1.24 1.41,2.16 4.2,0 2.79,-2.16 2.31,-3.52 1.54,-4.24 z"
           style="fill:#37474f"
           id="path237" />
        <path
           d="m 158,182.62 c 0.66,-0.08 1.87,-0.53 2,-1.34 0.07,-0.54 -0.41,-0.65 -0.87,-0.65 a 3,3 0 0 0 -1.76,0.64 c -0.76,0.67 -0.29,1.47 0.63,1.35 z"
           style="fill:#37474f"
           id="path239" />
        <path
           d="m 159.08,184.6 c 0.67,0 1.93,-0.19 2.18,-1 0.16,-0.52 -0.28,-0.72 -0.74,-0.79 a 3,3 0 0 0 -1.85,0.31 c -0.87,0.55 -0.54,1.43 0.41,1.48 z"
           style="fill:#37474f"
           id="path241" />
        <path
           d="m 155,181.6 c 0.62,0 1.77,-0.32 1.93,-1 0.12,-0.5 -0.31,-0.64 -0.73,-0.68 a 2.75,2.75 0 0 0 -1.68,0.43 c -0.72,0.49 -0.36,1.27 0.48,1.25 z"
           style="fill:#37474f"
           id="path243" />
        <path
           d="m 155.61,183 c -0.7,-0.65 -1.72,-1.25 -4.8,-0.37 -3.08,0.88 -4.15,2.31 -3.41,3 1.09,0.94 2.88,-0.53 2.47,1.66 -0.23,1.25 1.41,2.16 4.2,0 2.79,-2.16 2.3,-3.57 1.54,-4.29 z"
           style="fill:#37474f"
           id="path245" />
        <path
           d="m 142.74,210.29 a 1,1 0 0 1 -0.94,0.5 c -6.53,-0.51 -15.28,-6 -18.8,-13.6 -3.61,-7.84 -0.7,-17 0.59,-17.12 1.29,-0.12 -1.31,5.14 0.17,11.75 1.36,6.08 7,13.63 18.22,15.48 a 1,1 0 0 1 0.8,0.66 3.09,3.09 0 0 1 -0.04,2.33 z"
           style="fill:#37474f"
           id="path247" />
        <path
           d="m 200.18,194.51 c -1,-0.19 -1.55,0.3 -2.61,1.11 -1.06,0.81 -2.34,1.79 -3.25,2.54 a 21.64,21.64 0 0 1 -11.14,4.84 24.16,24.16 0 0 1 -5.37,0.25 2.62,2.62 0 0 1 -2.07,-1 2.76,2.76 0 0 1 0.09,-2.31 29.29,29.29 0 0 0 1.38,-4.54 c 0.22,-1.33 0.35,-4.11 -0.87,-5.06 a 1.42,1.42 0 0 0 -1.65,0.1 9.09,9.09 0 0 0 -1.52,1.85 52.55,52.55 0 0 0 -4,5.82 8.1,8.1 0 0 0 -2.75,-3.64 c 3.67,-2.7 3.44,-4.34 3.44,-4.34 -2,2.92 -6.66,4.28 -6.66,4.28 a 7.86,7.86 0 0 1 4.4,6.73 19.21,19.21 0 0 1 -2.31,3.88 14.71,14.71 0 0 1 -6.72,4.38 c -1.83,0.62 -10.73,1.47 -18.77,2.14 1.51,2.45 4.07,5 8.16,7.39 18.46,10.93 42.6,-0.75 50.14,-18.25 a 43.25,43.25 0 0 0 2.15,-6.2 z"
           style="opacity:0.1"
           id="path249" />
      </g>
      <path
         id="freepik--Arm--inject-31"
         d="m 131.24,236.32 c 5.26,-0.8 10.49,-1.86 15.67,-3.1 12.45,-3 25.21,-6.93 36.6,-12.85 a 66.42,66.42 0 0 0 10.13,-6.43 18,18 0 0 0 4.12,-3.95 31.52,31.52 0 0 0 2.92,-5.19 15.68,15.68 0 0 0 1.33,-7.38 c -0.07,-0.77 -0.36,-1.69 -1.12,-1.83 -1,-0.18 -1.62,1.14 -2.19,1.75 a 27.76,27.76 0 0 1 -2.5,2.47 21.86,21.86 0 0 1 -11.14,4.84 24.16,24.16 0 0 1 -5.37,0.25 2.63,2.63 0 0 1 -2.07,-1 2.76,2.76 0 0 1 0.09,-2.31 29,29 0 0 0 1.38,-4.54 c 0.22,-1.32 0.35,-4.11 -0.87,-5.05 a 1.42,1.42 0 0 0 -1.65,0.1 8.53,8.53 0 0 0 -1.52,1.85 48.65,48.65 0 0 0 -4.35,6.33 c -1.17,2.15 -2,4.5 -3.57,6.4 a 14.61,14.61 0 0 1 -6.72,4.37 c -3,1 -25.35,2.68 -31.24,3.11 L 115,184 c 0,0 -7.49,-23.32 -19.86,-25.57 -6.46,3.66 -8.35,6.84 -9.3,14 -0.95,7.16 1.82,13.23 5,22.9 3.18,9.67 18.24,32.81 22.49,37.42 4.25,4.61 6.5,4.61 13.7,4.13 1.41,-0.15 2.81,-0.35 4.21,-0.56 z"
         style="fill:#ffa8a7" />
    </g>
  </g>
  <g
     id="freepik--Box--inject-31"
     transform="translate(-26.04,-65.536152)">
    <g
       id="freepik--box--inject-31">
      <polygon
         points="152.31,316.54 234.58,364.04 316.85,316.54 234.58,269.04 "
         style="fill:#00d1b2"
         id="polygon255" />
      <polygon
         points="152.31,316.54 234.58,364.04 316.85,316.54 234.58,269.04 "
         style="opacity:0.4;fill:#ffffff"
         id="polygon257" />
      <polygon
         points="152.31,316.54 234.58,364.04 316.85,316.54 234.58,269.04 "
         style="opacity:0.1"
         id="polygon259" />
      <polygon
         points="152.31,316.54 152.31,385.63 234.58,338.13 234.58,269.04 "
         style="opacity:0.1"
         id="polygon261" />
      <polygon
         points="234.58,433.13 316.85,385.63 234.58,338.13 152.31,385.63 "
         style="opacity:0.2"
         id="polygon263" />
      <g
         id="freepik--dog--inject-31">
        <g
           id="freepik--Body--inject-31">
          <path
             d="m 276.42,180.83 c -3.73,-1.15 -5.73,-0.49 -9,2.28 -3.27,2.77 -4.12,3.47 -4.42,6.89 -0.3,3.42 0.71,10.68 4.41,9.54 3.7,-1.14 9.01,-18.71 9.01,-18.71 z"
             style="fill:#37474f"
             id="path265" />
          <path
             d="m 233,287.34 c -0.69,7.78 5.07,25.07 4.51,29.38 -0.56,4.31 -3.79,11.72 -6.07,15.31 -2,3.18 -2.57,4.65 0,11.13 2.57,6.48 7.45,16 8.55,17.94 1.1,1.94 4.56,0.81 8,-0.54 3.44,-1.35 8,-4.15 5.24,-7.41 -1.28,-1.52 -8.77,1 -8.77,1 0,0 -3.73,-11 -3.1,-14.71 0.63,-3.71 10.32,-11.83 15.4,-19.53 5.08,-7.7 -1.74,-30.24 -1.74,-30.24 z"
             style="fill:#00d1b2"
             id="path267" />
          <path
             d="m 233,287.34 c -0.69,7.78 5.07,25.07 4.51,29.38 -0.56,4.31 -3.79,11.72 -6.07,15.31 -2,3.18 -2.57,4.65 0,11.13 2.57,6.48 7.45,16 8.55,17.94 1.1,1.94 4.56,0.81 8,-0.54 3.44,-1.35 8,-4.15 5.24,-7.41 -1.28,-1.52 -8.77,1 -8.77,1 0,0 -3.73,-11 -3.1,-14.71 0.63,-3.71 10.32,-11.83 15.4,-19.53 5.08,-7.7 -1.74,-30.24 -1.74,-30.24 z"
             style="opacity:0.55"
             id="path269" />
          <path
             d="m 292.79,232.06 c -0.17,-0.71 -0.36,-1.39 -0.56,-2 1.2,4.42 -3.27,16.63 -11.59,26 -8.32,9.37 -4.69,16.6 -2.51,26.63 -1.31,-6.89 -0.9,-9.13 1.07,-14.78 3.96,-11.32 16.87,-11.85 13.59,-35.85 z"
             style="fill:#00d1b2"
             id="path271" />
          <path
             d="m 321.73,214.45 c -5.45,-3.14 -9,-1.19 -13.5,3.5 a 53.89,53.89 0 0 1 -11.11,9.37 c -0.62,-4.15 -1.46,-8.1 -1.59,-10.06 -0.26,-3.76 -0.09,-7.72 2.41,-10.63 2.5,-2.91 3.56,-4.62 6.56,-6.84 a 21.15,21.15 0 0 0 3.07,-2.67 c 0.89,-1 2.58,-3.35 1.77,-4.73 a 8.28,8.28 0 0 1 -5.49,1.78 4.57,4.57 0 0 1 -2.23,-0.88 0.36,0.36 0 0 1 -0.19,-0.29 c 0,-0.15 0.17,-0.23 0.31,-0.28 a 11.45,11.45 0 0 1 1.52,-0.33 9.94,9.94 0 0 0 4.3,-1.79 5.55,5.55 0 0 0 1.88,-2.75 c 0.25,-0.88 0.05,-1 0,-1.88 a 7.21,7.21 0 0 0 -0.48,-2.05 c -0.74,-1.77 -2.28,-2.24 -3.93,-3 -3.75,-1.83 -5.05,0.2 -10.41,0.76 -4,0.42 -13.29,-4.15 -20.47,0.38 -7.82,4.93 -8.33,13 -9.82,20.94 a 33.29,33.29 0 0 1 -1.41,5.18 c -2.33,5.21 -4.93,6.25 -8.25,17 -4.91,15.76 -3.74,24.36 -12.33,36.3 -7.73,10.77 -9.79,19 -9.81,24.87 0,10 1.76,12.68 9.9,19.7 5.88,5.06 8.68,5.92 14.42,13.95 1.86,2.59 2,12.83 0.62,17.44 -1.38,4.61 -2.61,6.91 -1.23,10.53 1.38,3.62 7.89,18.72 10.26,22.4 2.37,3.68 5,2.74 12.88,0.37 7.74,-2.31 4.06,-7.18 1.29,-6.87 a 63.22,63.22 0 0 0 -7,1.41 c 0,0 -5.66,-13.31 -5.65,-16.58 0.01,-3.27 6.73,-16.87 12.06,-24.05 5.33,-7.18 3.28,-18.6 0,-33.12 -3.28,-14.52 -3.44,-16 -0.81,-23.52 2.5,-7.14 8.56,-10 11.87,-17.14 4.11,-1.8 8,-3.55 9.53,-5.68 3.12,-4.32 9.58,-15.1 12.27,-18.74 3.63,-4.92 6.14,-7.77 10,-6.39 3.53,1.27 4,0.4 4,0.4 0.4,-1.99 -2.03,-4.17 -5.21,-6.01 z"
             style="fill:#00d1b2"
             id="path273" />
          <path
             d="m 321.73,214.45 c -5.45,-3.14 -9,-1.19 -13.5,3.5 a 53.89,53.89 0 0 1 -11.11,9.37 c -0.62,-4.15 -1.46,-8.1 -1.59,-10.06 -0.26,-3.76 -0.09,-7.72 2.41,-10.63 2.5,-2.91 3.56,-4.62 6.56,-6.84 a 21.15,21.15 0 0 0 3.07,-2.67 c 0.89,-1 2.58,-3.35 1.77,-4.73 a 8.28,8.28 0 0 1 -5.49,1.78 4.57,4.57 0 0 1 -2.23,-0.88 0.36,0.36 0 0 1 -0.19,-0.29 c 0,-0.15 0.17,-0.23 0.31,-0.28 a 11.45,11.45 0 0 1 1.52,-0.33 9.94,9.94 0 0 0 4.3,-1.79 5.55,5.55 0 0 0 1.88,-2.75 c 0.25,-0.88 0.05,-1 0,-1.88 a 7.21,7.21 0 0 0 -0.48,-2.05 c -0.74,-1.77 -2.28,-2.24 -3.93,-3 -3.75,-1.83 -5.05,0.2 -10.41,0.76 -4,0.42 -13.29,-4.15 -20.47,0.38 -7.82,4.93 -8.33,13 -9.82,20.94 a 33.29,33.29 0 0 1 -1.41,5.18 c -2.33,5.21 -4.93,6.25 -8.25,17 -4.91,15.76 -3.74,24.36 -12.33,36.3 -7.73,10.77 -9.79,19 -9.81,24.87 0,10 1.76,12.68 9.9,19.7 5.88,5.06 8.68,5.92 14.42,13.95 1.86,2.59 2,12.83 0.62,17.44 -1.38,4.61 -2.61,6.91 -1.23,10.53 1.38,3.62 7.89,18.72 10.26,22.4 2.37,3.68 5,2.74 12.88,0.37 7.74,-2.31 4.06,-7.18 1.29,-6.87 a 63.22,63.22 0 0 0 -7,1.41 c 0,0 -5.66,-13.31 -5.65,-16.58 0.01,-3.27 6.73,-16.87 12.06,-24.05 5.33,-7.18 3.28,-18.6 0,-33.12 -3.28,-14.52 -3.44,-16 -0.81,-23.52 2.5,-7.14 8.56,-10 11.87,-17.14 4.11,-1.8 8,-3.55 9.53,-5.68 3.12,-4.32 9.58,-15.1 12.27,-18.74 3.63,-4.92 6.14,-7.77 10,-6.39 3.53,1.27 4,0.4 4,0.4 0.4,-1.99 -2.03,-4.17 -5.21,-6.01 z"
             style="opacity:0.4"
             id="path275" />
          <path
             d="m 279.2,267.91 c -2,5.65 -2.38,7.89 -1.07,14.78 C 276,273 272.53,266 279.88,257 c 2.42,-2.43 6.93,-4.33 11.19,-6.19 -3.31,7.11 -9.37,9.97 -11.87,17.1 z"
             style="fill:#fafafa"
             id="path277" />
          <path
             d="m 236.42,287.29 c -2.72,3.23 -6.41,3.72 -16.31,9.85 -9,5.59 -11.27,16.75 -7.31,23.81 3.39,6.06 7.2,10.69 7.81,14.9 1,6.86 -2.35,9.75 -2.35,9.75 0,0 6.59,-2.29 7.78,-7.11 0,0 1.29,5.88 -4.16,11.92 0,0 12.63,2.89 15.22,-10.47 2,-10.27 -1.06,-16.24 -7.38,-21.86 -4.86,-4.32 -7,-11.65 0.28,-17.34 8.64,-6.72 9.57,-10.22 9.57,-10.22 0,0 0.6,-3.18 -3.15,-3.23 z"
             style="fill:#263238"
             id="path279" />
        </g>
        <g
           id="freepik--Head--inject-31">
          <path
             d="m 308.24,190 a 6.41,6.41 0 0 1 4.26,1.71 c 0.8,0.78 3.36,5.48 1.85,7.1 -1.51,1.62 -5.35,0.52 -6.1,-3 0,0 -5.74,0.69 -7.65,-1.59 -1.91,-2.28 0.8,-3.28 3.36,-3.61 z"
             style="fill:#f28f8f"
             id="path282" />
          <path
             d="m 309.34,192.39 c 0,0 -2.23,1.9 -1.74,3.37 0.4,0 0.65,0 0.65,0 a 4.88,4.88 0 0 0 1.36,2.53 3.82,3.82 0 0 0 2.63,0.89 c 2,-0.17 1,-1.79 0.44,-3.66 -0.56,-1.87 -2.29,-3.52 -3.34,-3.13 z"
             style="fill:#874c4c"
             id="path284" />
          <path
             d="m 309.34,192.39 c 0.81,1.38 -0.89,3.78 -1.76,4.73 a 21.84,21.84 0 0 1 -3.08,2.68 c -3,2.2 -4.09,4 -6.56,6.84 -2.47,2.84 -2.66,6.86 -2.41,10.62 0.13,2 1,5.91 1.6,10.06 -0.32,0.19 -0.65,0.38 -1,0.55 a 77.68,77.68 0 0 0 -5.29,-12.62 c -2,-3.8 -3.78,-7.31 -1.38,-13.41 1.66,-4.23 1.22,-7 8.32,-9.51 6.35,-2.22 3.3,-6.21 1.38,-7.35 -1.92,-1.14 -3.3,-2.76 -2.43,-3.69 3.07,-1 5.42,-1.85 8,-0.57 1.65,0.81 3.39,1.43 4.13,3.19 a 7.35,7.35 0 0 1 0.48,2.06 c 0.09,0.89 0.29,1 0.05,1.88 a 5.68,5.68 0 0 1 -1.89,2.75 9.81,9.81 0 0 1 -4.3,1.78 c -0.51,0.11 -1,0.18 -1.52,0.34 -0.14,0.05 -0.29,0.13 -0.3,0.28 -0.01,0.15 0.09,0.22 0.18,0.3 a 4.11,4.11 0 0 0 2.25,0.65 8.2,8.2 0 0 0 5.53,-1.56 z"
             style="fill:#fafafa"
             id="path286" />
          <path
             d="m 304.06,182.08 h -0.05 a 4.73,4.73 0 0 0 -0.66,-0.61 5.68,5.68 0 0 0 -1.09,-0.31 c -0.27,-0.09 -0.61,-0.36 -0.54,-0.7 0,-0.19 0.2,-0.28 0.37,-0.37 a 4.52,4.52 0 0 1 1.79,-0.73 4.69,4.69 0 0 1 2.26,0.49 c 2,0.9 2.89,1.45 3.32,2.13 0.43,0.68 -0.28,3 -0.28,3 a 2,2 0 0 0 -0.28,-1 c -0.52,-1.2 -2.14,-1.17 -3.22,-1.28 a 3.11,3.11 0 0 1 -1.62,-0.62 z"
             style="fill:#263238"
             id="path288" />
          <path
             d="m 295.53,217.26 c -0.26,-3.76 -0.09,-7.72 2.41,-10.63 2.5,-2.91 3.56,-4.62 6.56,-6.84 0.4,-0.29 0.79,-0.6 1.17,-0.91 -5.2,3.62 -9.38,1.77 -12.21,4.2 -2.83,2.43 -0.91,8.47 1,11.4 a 19.47,19.47 0 0 1 1.07,2.78 z"
             style="opacity:0.1"
             id="path290" />
          <path
             d="m 282.76,192.54 c 1.19,-1.66 6.52,-5.56 8.9,-6.51 2.38,-0.95 6.64,4.62 6.63,9.18 -0.01,4.56 -3.17,13.38 -6.68,13.14 -3.51,-0.24 -7.06,-13.29 -8.7,-11.75 -1.64,1.54 -2.32,-1.05 -0.15,-4.06 z"
             style="fill:#37474f"
             id="path292" />
        </g>
      </g>
      <polygon
         points="316.85,316.54 234.58,364.04 234.58,433.13 316.85,385.63 "
         style="fill:#00d1b2"
         id="polygon296" />
      <polygon
         points="316.85,316.54 234.58,364.04 234.58,433.13 316.85,385.63 "
         style="opacity:0.6;fill:#ffffff"
         id="polygon298" />
      <polygon
         points="316.85,355.4 316.85,316.54 234.58,364.04 249.48,394.21 "
         style="opacity:0.1"
         id="polygon300" />
      <polygon
         points="152.31,316.54 234.58,364.04 234.58,433.13 152.31,385.63 "
         style="fill:#00d1b2"
         id="polygon302" />
      <polygon
         points="152.31,316.54 234.58,364.04 234.58,433.13 152.31,385.63 "
         style="opacity:0.4;fill:#ffffff"
         id="polygon304" />
      <polygon
         points="152.31,355.4 152.31,316.54 234.58,364.04 219.69,394.21 "
         style="opacity:0.1"
         id="polygon306" />
      <path
         d="m 157.92,370.4 v 8.06 a 8.82,8.82 0 0 0 4,6.91 l 18.2,10.51 c 2.21,1.27 4,0.24 4,-2.3 v -8.07 a 8.81,8.81 0 0 0 -4,-6.9 l -18.2,-10.51 c -2.21,-1.27 -4,-0.24 -4,2.3 z"
         style="opacity:0.1"
         id="path308" />
      <polygon
         points="215.95,387.74 234.58,364.04 152.31,316.54 133.62,340.29 "
         style="fill:#00d1b2"
         id="polygon310" />
      <polygon
         points="215.95,387.74 234.58,364.04 152.31,316.54 133.62,340.29 "
         style="opacity:0.6;fill:#ffffff"
         id="polygon312" />
      <polygon
         points="253.22,387.74 234.58,364.04 316.85,316.54 335.55,340.29 "
         style="fill:#00d1b2"
         id="polygon314" />
      <polygon
         points="253.22,387.74 234.58,364.04 316.85,316.54 335.55,340.29 "
         style="opacity:0.4;fill:#ffffff"
         id="polygon316" />
      <g
         id="freepik--Kittena--inject-31">
        <path
           d="m 195.12,320.7 c 1.72,5 9.88,7.27 15.39,16.93 a 20.8,20.8 0 0 1 2.29,13.83 l -48.09,-27.77 -3.29,-7.45 z"
           style="fill:#f0f0f0"
           id="path318" />
        <g
           id="freepik--Paw--inject-31">
          <path
             d="m 146.55,332.38 c 0.09,-2.29 1.47,-5.36 3.26,-7.89 a 22.66,22.66 0 0 1 11.61,-8.25 l 11.15,7 c -11.91,-0.4 -16,5.87 -17.11,9.37 -0.76,2.41 -1.4,4.28 -2.81,4.28 a 1.44,1.44 0 0 1 -1.53,-1.21 1.42,1.42 0 0 1 -2.49,-0.81 1.25,1.25 0 0 1 -1.5,-0.27 2.82,2.82 0 0 1 -0.58,-2.22 z"
             style="fill:#f0f0f0"
             id="path320" />
          <path
             d="m 147.13,334.56 v 0 a 0.88,0.88 0 0 0 1.14,-0.62 6.62,6.62 0 0 1 0.7,-1.54 7.61,7.61 0 0 0 -0.32,2.45 1.25,1.25 0 0 1 -1.52,-0.29 z"
             style="fill:#e0e0e0"
             id="path322" />
          <path
             d="m 149.48,336 a 1.38,1.38 0 0 0 1.22,-1.12 3.16,3.16 0 0 1 0.66,-1.46 6.6,6.6 0 0 0 -0.24,2.21 1.56,1.56 0 0 1 -1.64,0.37 z"
             style="fill:#e0e0e0"
             id="path324" />
        </g>
        <g
           id="freepik--paw--inject-31">
          <path
             d="m 168,342.18 a 18.87,18.87 0 0 1 3.36,-8.28 26.55,26.55 0 0 1 9.56,-8.59 v -3 c 0,0 13.93,2.85 14.19,12.09 -12.13,-1.12 -16.69,5 -18,8.55 -0.92,2.42 -1.69,4.28 -3.13,4.2 a 1.47,1.47 0 0 1 -1.49,-1.32 1.46,1.46 0 0 1 -2.49,-1 1.3,1.3 0 0 1 -1.52,-0.36 2.89,2.89 0 0 1 -0.48,-2.29 z"
             style="fill:#f0f0f0"
             id="path327" />
          <path
             d="m 168.47,344.45 v 0 a 0.91,0.91 0 0 0 1.21,-0.56 6.87,6.87 0 0 1 0.8,-1.54 7.58,7.58 0 0 0 -0.47,2.49 1.3,1.3 0 0 1 -1.54,-0.39 z"
             style="fill:#e0e0e0"
             id="path329" />
          <path
             d="m 170.79,346.06 a 1.39,1.39 0 0 0 1.3,-1.06 3.25,3.25 0 0 1 0.77,-1.46 6.78,6.78 0 0 0 -0.38,2.25 1.57,1.57 0 0 1 -1.69,0.27 z"
             style="fill:#e0e0e0"
             id="path331" />
        </g>
        <path
           d="m 161.44,316.24 v 0 c -0.72,0.24 -1.45,0.52 -2.17,0.83 a 35.34,35.34 0 0 0 13.7,8.51 c 5.24,1.76 13.06,2.79 20,0.28 a 10.08,10.08 0 0 0 3.85,-2.52 8.44,8.44 0 0 1 -1.49,-2.23"
           style="fill:#e0e0e0"
           id="path334" />
        <path
           d="m 177.09,292.23 c -1.75,-4.33 -8.31,-9.45 -13.34,-7.42 -2.83,1.14 -0.83,11.76 -0.83,11.76 0,0 9.48,-0.01 14.17,-4.34 z"
           style="fill:#e0e0e0"
           id="path336" />
        <path
           d="m 172.87,294.74 a 31.36,31.36 0 0 1 -10,1.83 c 0,0 -2,-10.62 0.83,-11.76 1.91,-0.43 6.7,2.09 9.17,9.93 z"
           style="fill:#ffa8a7"
           id="path338" />
        <path
           d="m 166.47,291.27 a 3.89,3.89 0 0 0 -0.62,-2.69 c 1.73,-0.14 4.14,1.47 4.57,4.34 0,0 -2.58,4.81 -6.39,2.83 a 7.15,7.15 0 0 0 -1.52,-1.91 c -0.09,-0.74 -0.17,-1.57 -0.22,-2.42 a 10.4,10.4 0 0 1 4.18,-0.15 z"
           style="fill:#f28f8f"
           id="path340" />
        <path
           d="m 190,296.05 c 3.87,-2.6 12.17,-3.15 15.2,1.36 1.7,2.53 -7.18,11.15 -7.18,11.15 0,0 -6.59,-6.3 -8.02,-12.51 z"
           style="fill:#e0e0e0"
           id="path342" />
        <path
           d="m 192.06,300.5 c 2.81,4.11 5.95,8.06 5.95,8.06 0,0 8.88,-8.62 7.18,-11.15 -1.3,-1.41 -6.67,-2.01 -13.13,3.09 z"
           style="fill:#ffa8a7"
           id="path344" />
        <path
           d="m 197.65,306.47 a 4.89,4.89 0 0 1 1.48,-0.79 c 0.53,-0.56 1.13,-1.23 1.74,-1.94 a 10.39,10.39 0 0 0 -3.37,-2.48 3.9,3.9 0 0 1 2,-1.88 c -1.37,-1.09 -4.47,-0.83 -6,1.32 a 8.14,8.14 0 0 0 0.67,3.2 c 0.67,0.79 1.29,1.48 1.81,2 a 4.17,4.17 0 0 0 1.67,0.57 z"
           style="fill:#f28f8f"
           id="path346" />
        <path
           d="m 173.55,323.72 c 4.67,1.57 11.64,2.49 17.82,0.25 7.36,-2.67 7.77,-13.33 6,-18.16 -1.77,-4.83 -5.46,-9.71 -13.87,-12.53 -8.41,-2.82 -14.26,-1.15 -18.57,1.64 -4.31,2.79 -10.33,11.56 -6,18.14 3.55,5.53 9.94,9.1 14.62,10.66 z"
           style="fill:#f5f5f5"
           id="path348" />
        <path
           d="m 173.59,322.61 c -9.33,-3.13 -8.83,-8.91 -6.47,-11.29 2.36,-2.38 6.26,-3 10.72,-1.54 4.46,1.46 7.19,4.38 7.66,7.71 0.47,3.33 -2.59,8.25 -11.91,5.12 z"
           style="fill:#e0e0e0"
           id="path350" />
        <path
           d="m 176.2,314.74 2.19,-0.33 a 0.34,0.34 0 0 0 0.27,-0.37 0.29,0.29 0 0 0 -0.34,-0.26 l -1.91,0.29 -1.41,-1.37 a 0.29,0.29 0 0 0 -0.43,0 0.34,0.34 0 0 0 0,0.45 z"
           style="fill:#455a64"
           id="path352" />
        <path
           d="m 177.78,319.46 a 2.43,2.43 0 0 0 1.07,-0.3 2.68,2.68 0 0 0 1.27,-1.53 0.32,0.32 0 0 0 -0.18,-0.4 0.32,0.32 0 0 0 -0.39,0.21 2.08,2.08 0 0 1 -1,1.16 1.79,1.79 0 0 1 -1.43,0.13 1.77,1.77 0 0 1 -1.07,-1 2,2 0 0 1 -0.08,-1.51 l 0.58,-1.75 a 0.31,0.31 0 0 0 -0.18,-0.4 0.32,0.32 0 0 0 -0.39,0.21 l -0.58,1.75 a 2.73,2.73 0 0 0 0.1,2 2.42,2.42 0 0 0 1.41,1.29 2.35,2.35 0 0 0 0.87,0.14 z"
           style="fill:#455a64"
           id="path354" />
        <path
           d="m 173.67,318.08 a 2.3,2.3 0 0 0 1.07,-0.3 2.65,2.65 0 0 0 1.27,-1.53 l 0.58,-1.75 a 0.31,0.31 0 0 0 -0.18,-0.4 0.32,0.32 0 0 0 -0.39,0.21 l -0.58,1.75 a 2.08,2.08 0 0 1 -1,1.16 1.79,1.79 0 0 1 -1.43,0.13 1.94,1.94 0 0 1 -1.15,-2.48 0.3,0.3 0 0 0 -0.18,-0.4 0.32,0.32 0 0 0 -0.39,0.21 2.58,2.58 0 0 0 1.52,3.28 2.27,2.27 0 0 0 0.86,0.12 z"
           style="fill:#455a64"
           id="path356" />
        <path
           d="m 167.17,305 a 2.17,2.17 0 1 0 2.77,-1.5 2.22,2.22 0 0 0 -2.77,1.5 z"
           style="fill:#455a64"
           id="path358" />
        <path
           d="m 189.21,312.43 a 2.17,2.17 0 1 1 -1.33,-2.88 2.23,2.23 0 0 1 1.33,2.88 z"
           style="fill:#455a64"
           id="path360" />
        <path
           d="m 195.17,315.79 a 0.47,0.47 0 0 0 0.32,-0.16 7.59,7.59 0 0 1 8.38,-2.47 0.46,0.46 0 0 0 0.57,-0.32 0.45,0.45 0 0 0 -0.27,-0.59 c -4.36,-1.45 -7.48,0.69 -9.32,2.74 a 0.48,0.48 0 0 0 0,0.67 0.45,0.45 0 0 0 0.32,0.13 z"
           style="fill:#455a64"
           id="path362" />
        <path
           d="m 196.17,316.94 a 0.49,0.49 0 0 0 0.24,-0.08 7,7 0 0 1 5.67,-0.53 0.45,0.45 0 0 0 0.59,-0.27 0.47,0.47 0 0 0 -0.23,-0.62 7.91,7.91 0 0 0 -6.5,0.62 0.5,0.5 0 0 0 -0.15,0.66 0.42,0.42 0 0 0 0.38,0.22 z"
           style="fill:#455a64"
           id="path364" />
        <path
           d="m 203.17,320.7 a 0.44,0.44 0 0 0 0.35,-0.18 0.49,0.49 0 0 0 -0.05,-0.67 9.16,9.16 0 0 0 -8.26,-1.94 0.51,0.51 0 0 0 -0.32,0.6 0.45,0.45 0 0 0 0.56,0.32 8.19,8.19 0 0 1 7.43,1.77 0.41,0.41 0 0 0 0.29,0.1 z"
           style="fill:#455a64"
           id="path366" />
        <path
           d="m 161.3,304.55 v 0 a 0.5,0.5 0 0 0 0.4,-0.54 c -0.25,-2.75 -1.47,-6.34 -5.82,-7.82 a 0.48,0.48 0 0 0 -0.3,0.91 7.66,7.66 0 0 1 5.22,7 0.44,0.44 0 0 0 0.5,0.45 z"
           style="fill:#455a64"
           id="path368" />
        <path
           d="m 159.81,304.87 h 0.15 a 0.5,0.5 0 0 0 0.28,-0.62 8,8 0 0 0 -4.83,-4.42 0.48023432,0.48023432 0 0 0 -0.24,0.93 7.06,7.06 0 0 1 4.22,3.84 0.43,0.43 0 0 0 0.42,0.27 z"
           style="fill:#455a64"
           id="path370" />
        <path
           d="m 159.35,306.9 a 0.39,0.39 0 0 0 0.26,-0.1 0.49,0.49 0 0 0 0.1,-0.67 9.16,9.16 0 0 0 -7.75,-3.44 0.49,0.49 0 0 0 -0.44,0.51 0.44,0.44 0 0 0 0.45,0.45 v 0 a 8.24,8.24 0 0 1 7,3.07 0.43,0.43 0 0 0 0.38,0.18 z"
           style="fill:#455a64"
           id="path372" />
        <path
           d="m 170.81,292.57 c -0.41,-1.88 -2.19,-4.19 -3.93,-4.19 a 3.91,3.91 0 0 1 0.41,2.73 c 0,0 -4.44,-1.17 -6,0.9 a 4.84,4.84 0 0 1 3.18,3.39 c 3.59,2.26 6.34,-2.83 6.34,-2.83 z"
           style="fill:#f5f5f5"
           id="path374" />
        <path
           d="m 194,300.69 c 1.5,-1.22 4,-1.52 5.38,-0.43 a 3.9,3.9 0 0 0 -2,1.88 c 0,0 4.2,1.86 4.17,4.48 a 4.08,4.08 0 0 0 -4.11,0.79 C 193.16,306.9 194,300.69 194,300.69 Z"
           style="fill:#f5f5f5"
           id="path376" />
        <path
           d="m 249.24,335.85 a 1.3824344,1.3824344 0 1 1 -2.74,-0.37 c 0.52,-3.93 -0.94,-6.89 -4,-8.1 a 8.21,8.21 0 0 0 -9.51,3.05 c -1.71,2.37 -1.56,5.12 -1.39,8.31 0.22,4 0.46,8.52 -3.18,12.92 a 14.25,14.25 0 0 1 -7.7,4.37 l -3.82,-2.2 c 3.49,-0.23 7.36,-1.47 9.39,-3.93 3,-3.57 2.76,-7.19 2.55,-11 -0.18,-3.4 -0.37,-6.91 1.9,-10.07 a 11,11 0 0 1 12.78,-4 c 3.3,1.29 6.53,4.88 5.72,11.02 z"
           style="fill:#f0f0f0"
           id="path378" />
      </g>
      <path
         d="m 248.56,406.67 a 6.16,6.16 0 0 1 1.52,-1.46 3,3 0 0 1 1.13,-0.49 0.55,0.55 0 0 1 0.66,0.35 c 0.18,0.48 0.37,1 0.58,1.69 0.21,0.69 0.41,1.31 0.62,2 0.21,0.69 0.42,1.38 0.62,2.06 0.2,0.68 0.37,1.29 0.52,1.81 a 2.48,2.48 0 0 1 -0.44,0.67 3.62,3.62 0 0 1 -0.72,0.61 2,2 0 0 1 -0.51,0.26 0.55,0.55 0 0 1 -0.35,0 0.43,0.43 0 0 1 -0.19,-0.17 2.18,2.18 0 0 1 -0.17,-0.4 l -0.27,-1 -2.3,1.49 c -0.06,0.37 -0.11,0.76 -0.16,1.15 -0.05,0.39 -0.11,0.79 -0.17,1.16 a 4.4,4.4 0 0 1 -0.37,0.38 2.65,2.65 0 0 1 -0.47,0.37 1.37,1.37 0 0 1 -1,0.33 c -0.22,-0.06 -0.33,-0.26 -0.34,-0.6 a 2.16,2.16 0 0 1 0,-0.5 c 0,-0.18 0.06,-0.38 0.09,-0.62 0.03,-0.24 0.12,-0.76 0.21,-1.27 0.09,-0.51 0.18,-1.06 0.29,-1.66 l 0.34,-1.84 c 0.13,-0.63 0.24,-1.23 0.35,-1.79 0.11,-0.56 0.21,-1.07 0.3,-1.51 0.09,-0.44 0.18,-0.79 0.23,-1.02 z m 1.61,1.15 c -0.1,0.54 -0.21,1.14 -0.34,1.81 -0.13,0.67 -0.23,1.32 -0.33,2 l 1.57,-1 c -0.14,-0.52 -0.28,-1 -0.43,-1.52 -0.15,-0.52 -0.28,-0.92 -0.39,-1.31 z"
         style="fill:#455a64"
         id="path381" />
      <path
         d="m 258.2,410.7 -0.5,0.3 a 5.28,5.28 0 0 1 -0.58,0.3 6.46,6.46 0 0 1 -0.6,0.27 2.76,2.76 0 0 1 -0.56,0.15 c -0.47,0.07 -0.72,-0.19 -0.74,-0.76 l -0.31,-7.73 a 1.19,1.19 0 0 1 0.13,-0.63 2.69,2.69 0 0 1 0.38,-0.57 8.73,8.73 0 0 1 1.15,-1 12.24,12.24 0 0 1 1.09,-0.78 6.18,6.18 0 0 1 1.81,-0.85 2.05,2.05 0 0 1 1.42,0.08 2,2 0 0 1 1,1.07 5.83,5.83 0 0 1 0.41,2.14 10.26,10.26 0 0 1 -0.21,2.51 9.27,9.27 0 0 1 -0.81,2.21 8.9,8.9 0 0 1 -1.31,1.88 9.3,9.3 0 0 1 -1.77,1.41 z m -0.81,-2 0.35,-0.17 a 3.44,3.44 0 0 0 0.38,-0.22 3.86,3.86 0 0 0 1.39,-1.59 4.34,4.34 0 0 0 0.37,-1.17 5.89,5.89 0 0 0 0.09,-1.42 c 0,-1 -0.24,-1.63 -0.62,-1.9 -0.38,-0.27 -0.86,-0.22 -1.45,0.16 l -0.36,0.25 c -0.12,0.09 -0.25,0.19 -0.37,0.3 z"
         style="fill:#455a64"
         id="path383" />
      <path
         d="m 269.79,398.81 a 7.73,7.73 0 0 1 -0.17,2 8,8 0 0 1 -0.62,1.78 6.9,6.9 0 0 1 -1,1.51 6.79,6.79 0 0 1 -1.35,1.16 3.65,3.65 0 0 1 -1.37,0.58 1.62,1.62 0 0 1 -1.08,-0.18 1.85,1.85 0 0 1 -0.73,-0.91 4.59,4.59 0 0 1 -0.31,-1.63 7.35,7.35 0 0 1 0.17,-1.93 7.76,7.76 0 0 1 0.63,-1.79 7.12,7.12 0 0 1 1,-1.53 6.24,6.24 0 0 1 1.35,-1.17 3.24,3.24 0 0 1 1.37,-0.57 1.62,1.62 0 0 1 1.08,0.18 1.8,1.8 0 0 1 0.73,0.91 4.5,4.5 0 0 1 0.3,1.59 z m -4.44,2.87 a 2.13,2.13 0 0 0 0.36,1.36 c 0.21,0.23 0.49,0.23 0.85,0 a 2.06,2.06 0 0 0 0.8,-1.08 4.55,4.55 0 0 0 0.22,-1.72 2.19,2.19 0 0 0 -0.35,-1.35 c -0.21,-0.23 -0.49,-0.23 -0.85,0 a 2.13,2.13 0 0 0 -0.8,1.07 4.38,4.38 0 0 0 -0.23,1.72 z"
         style="fill:#455a64"
         id="path385" />
      <path
         d="m 273.39,400.54 c -0.09,0.1 -0.24,0.22 -0.43,0.39 -0.19,0.17 -0.4,0.3 -0.59,0.43 a 3.76,3.76 0 0 1 -0.52,0.27 0.59,0.59 0 0 1 -0.38,0 0.45,0.45 0 0 1 -0.25,-0.27 2.26,2.26 0 0 1 -0.1,-0.65 l -0.31,-7.79 a 1.23,1.23 0 0 1 0.13,-0.64 2.64,2.64 0 0 1 0.38,-0.56 8.75,8.75 0 0 1 1,-0.93 11.47,11.47 0 0 1 1.1,-0.81 c 1.17,-0.75 2.08,-1 2.72,-0.75 0.64,0.25 1,0.93 1,2.05 a 6,6 0 0 1 -0.13,1.59 7,7 0 0 1 -0.54,1.51 6.81,6.81 0 0 1 -1,1.36 7.27,7.27 0 0 1 -1.36,1.14 l -0.9,0.58 z m 0.45,-5.74 a 2.27,2.27 0 0 0 0.81,-0.85 2.24,2.24 0 0 0 0.24,-1.17 q 0,-0.63 -0.33,-0.78 c -0.21,-0.09 -0.5,0 -0.89,0.23 l -0.33,0.22 -0.27,0.22 0.1,2.57 z"
         style="fill:#455a64"
         id="path387" />
      <path
         d="m 280.43,393.23 c 0,0.28 0.09,0.44 0.24,0.47 a 0.84,0.84 0 0 0 0.59,-0.2 4.41,4.41 0 0 0 0.4,-0.29 c 0.13,-0.12 0.25,-0.23 0.35,-0.34 a 1,1 0 0 1 0.21,0.28 1,1 0 0 1 0.1,0.48 2.37,2.37 0 0 1 -0.32,1.26 3.62,3.62 0 0 1 -1.26,1.23 c -0.74,0.48 -1.33,0.63 -1.74,0.45 -0.41,-0.18 -0.65,-0.77 -0.69,-1.77 l -0.28,-7.08 a 5,5 0 0 1 0.39,-0.37 5.23,5.23 0 0 1 0.55,-0.41 1.38,1.38 0 0 1 0.88,-0.31 c 0.22,0 0.34,0.33 0.36,0.88 v 1.06 l 1.66,-1.07 a 2,2 0 0 1 0.17,0.36 2.11,2.11 0 0 1 0.09,0.56 2,2 0 0 1 -0.16,1 1.46,1.46 0 0 1 -0.52,0.6 l -1.16,0.75 z"
         style="fill:#455a64"
         id="path389" />
      <path
         d="m 291.39,386.45 a 2.82,2.82 0 0 1 -1,1.06 2,2 0 0 1 -0.76,0.34 0.35,0.35 0 0 1 -0.41,-0.26 c -0.27,-0.82 -0.5,-1.48 -0.68,-2 -0.18,-0.52 -0.31,-0.95 -0.41,-1.35 h -0.07 c 0,0.67 0,1.27 0,1.82 0,0.55 0,1.07 0,1.58 0,0.51 0,1 0,1.55 0,0.55 0,1.12 0,1.76 a 3.46,3.46 0 0 1 -0.43,0.42 4.61,4.61 0 0 1 -0.53,0.4 1.55,1.55 0 0 1 -0.88,0.33 c -0.21,0 -0.33,-0.23 -0.34,-0.64 v -8.68 a 3.08,3.08 0 0 1 0.43,-0.75 3.23,3.23 0 0 1 0.95,-0.87 2,2 0 0 1 1.07,-0.41 0.7,0.7 0 0 1 0.59,0.52 c 0.09,0.22 0.18,0.47 0.29,0.75 0.11,0.28 0.2,0.58 0.3,0.89 0.1,0.31 0.21,0.61 0.31,0.92 0.1,0.31 0.18,0.58 0.26,0.82 h 0.07 c 0.16,-1.06 0.33,-2.09 0.5,-3.09 0.17,-1 0.33,-1.84 0.47,-2.54 a 5.5,5.5 0 0 1 0.48,-0.54 5.17,5.17 0 0 1 0.67,-0.52 2.22,2.22 0 0 1 1,-0.41 0.44,0.44 0 0 1 0.49,0.39 c 0,0.2 0.09,0.51 0.15,1 0.06,0.49 0.11,0.92 0.18,1.47 0.07,0.55 0.13,1.12 0.2,1.74 0.07,0.62 0.13,1.2 0.19,1.77 0.06,0.57 0.11,1.08 0.16,1.56 0.05,0.48 0.08,0.84 0.09,1.1 a 3.35,3.35 0 0 1 -0.44,0.53 3.59,3.59 0 0 1 -0.6,0.46 1.56,1.56 0 0 1 -0.82,0.31 c -0.23,0 -0.35,-0.2 -0.39,-0.61 -0.1,-1.17 -0.17,-2.23 -0.22,-3.19 -0.05,-0.96 -0.1,-1.74 -0.15,-2.38 h -0.07 c -0.06,0.49 -0.17,1.11 -0.3,1.87 -0.13,0.76 -0.16,1.72 -0.35,2.88 z"
         style="fill:#455a64"
         id="path391" />
      <path
         d="m 299.35,384.11 a 4.14,4.14 0 0 1 -1.4,0.63 1.76,1.76 0 0 1 -1.15,-0.1 1.78,1.78 0 0 1 -0.81,-0.89 4.71,4.71 0 0 1 -0.35,-1.76 7.56,7.56 0 0 1 0.2,-2.05 8.15,8.15 0 0 1 0.67,-1.76 6.52,6.52 0 0 1 1,-1.4 5.89,5.89 0 0 1 1.16,-1 3.3,3.3 0 0 1 1.23,-0.52 1.65,1.65 0 0 1 1,0.11 1.5,1.5 0 0 1 0.67,0.71 3.17,3.17 0 0 1 0.28,1.26 2.12,2.12 0 0 1 -0.21,1 2.51,2.51 0 0 1 -0.66,0.81 l -3.11,2.64 a 0.58,0.58 0 0 0 0.6,0.45 1.88,1.88 0 0 0 1,-0.36 5.78,5.78 0 0 0 1,-0.81 6.71,6.71 0 0 0 0.74,-0.9 0.59,0.59 0 0 1 0.36,0.25 0.93,0.93 0 0 1 0.17,0.53 2.32,2.32 0 0 1 -0.49,1.46 6,6 0 0 1 -0.9,1 8.33,8.33 0 0 1 -1,0.7 z m -0.61,-6.27 a 2,2 0 0 0 -0.52,0.47 2.31,2.31 0 0 0 -0.35,0.57 3.52,3.52 0 0 0 -0.2,0.6 4.08,4.08 0 0 0 -0.06,0.58 l 2.16,-1.87 a 0.74,0.74 0 0 0 -0.31,-0.48 c -0.17,-0.12 -0.41,-0.07 -0.72,0.13 z"
         style="fill:#455a64"
         id="path393" />
      <path
         d="m 305.07,373.44 a 3,3 0 0 1 0.29,-1.37 2.41,2.41 0 0 1 0.88,-1.05 c 0.38,-0.25 0.69,-0.29 0.92,-0.12 a 1.14,1.14 0 0 1 0.38,1 2.92,2.92 0 0 1 -0.29,1.37 2.32,2.32 0 0 1 -0.88,1 c -0.38,0.25 -0.69,0.29 -0.92,0.12 a 1.15,1.15 0 0 1 -0.38,-0.95 z m 0.21,5.2 a 3.08,3.08 0 0 1 0.28,-1.38 2.4,2.4 0 0 1 0.89,-1 c 0.38,-0.25 0.69,-0.29 0.92,-0.12 a 1.13,1.13 0 0 1 0.37,0.94 2.92,2.92 0 0 1 -0.28,1.38 2.38,2.38 0 0 1 -0.88,1 c -0.39,0.25 -0.69,0.29 -0.92,0.12 a 1.14,1.14 0 0 1 -0.38,-0.94 z"
         style="fill:#455a64"
         id="path395" />
      <path
         d="m 311.88,372 a 19.41,19.41 0 0 1 -0.11,3.2 16.67,16.67 0 0 1 -0.52,2.59 7.26,7.26 0 0 1 -0.55,1.37 2.57,2.57 0 0 1 -0.85,1 0.76,0.76 0 0 1 -0.62,0.14 0.81,0.81 0 0 1 -0.43,-0.26 c 0.19,-0.53 0.35,-1.06 0.49,-1.59 0.14,-0.53 0.25,-1.06 0.34,-1.6 a 14.9,14.9 0 0 0 0.18,-1.68 18.17,18.17 0 0 0 0,-1.82 15.81,15.81 0 0 0 -0.16,-1.72 8.19,8.19 0 0 0 -0.3,-1.37 5.4,5.4 0 0 0 -0.45,-1.09 5.05,5.05 0 0 0 -0.58,-0.89 3.76,3.76 0 0 1 0.38,-0.79 2,2 0 0 1 0.6,-0.64 0.85,0.85 0 0 1 0.89,-0.15 1.74,1.74 0 0 1 0.63,0.61 6.46,6.46 0 0 1 0.69,1.81 14.44,14.44 0 0 1 0.37,2.88 z"
         style="fill:#455a64"
         id="path397" />
    </g>
  </g>
  <g
     id="freepik--Hearts--inject-31"
     transform="translate(-26.04,-65.536152)">
    <path
       id="freepik--Heart--inject-31"
       d="m 81.72,113.89 a 5.68,5.68 0 0 0 -2.66,-3 v 0 0 a 5.7,5.7 0 0 0 -4.64,-0.28 c -2.71,1 -3.84,4.82 -3.19,7.56 -1.33,-2.49 -4.68,-4.62 -7.38,-3.6 a 5.68,5.68 0 0 0 -3.31,3.27 v 0 0 a 5.65,5.65 0 0 0 0,4 c 1.58,4.21 6.35,5.07 10.66,6.61 l 4.53,1.6 2.27,-4.18 c 2.27,-3.98 5.3,-7.77 3.72,-11.98 z"
       style="fill:#00d1b2" />
    <path
       id="freepik--heart--inject-31"
       d="m 315.31,145.12 a 5.72,5.72 0 0 0 -2.66,-3 v 0 a 5.66,5.66 0 0 0 -4.64,-0.29 c -2.71,1 -3.84,4.82 -3.19,7.56 -1.32,-2.49 -4.68,-4.62 -7.38,-3.6 A 5.68,5.68 0 0 0 294.1,149 v 0 0 a 5.73,5.73 0 0 0 0,4 c 1.58,4.2 6.36,5.07 10.66,6.6 l 4.53,1.6 2.37,-4.18 c 2.2,-3.9 5.23,-7.69 3.65,-11.9 z"
       style="fill:#00d1b2" />
    <path
       id="path403"
       d="m 204.18,119.67 a 5.66,5.66 0 0 0 0.33,-4 v 0 0 a 5.61,5.61 0 0 0 -3,-3.5 c -2.58,-1.23 -6.06,0.57 -7.57,2.91 0.87,-2.65 0.09,-6.49 -2.49,-7.72 a 5.58,5.58 0 0 0 -4.59,-0.11 v 0 A 5.62,5.62 0 0 0 184,110 c -1.92,4 0.74,8 2.59,12.11 l 2,4.32 4.59,-1.19 c 4.31,-1.13 9.08,-1.56 11,-5.57 z"
       style="fill:#00d1b2" />
    <path
       id="path405"
       d="m 440.6,122.45 a 5.55,5.55 0 0 0 0.33,-4 v 0 0 a 5.6,5.6 0 0 0 -3,-3.5 c -2.57,-1.23 -6.05,0.57 -7.57,2.91 0.87,-2.64 0.09,-6.49 -2.49,-7.72 a 5.62,5.62 0 0 0 -4.59,-0.11 v 0 a 5.64,5.64 0 0 0 -2.89,2.75 c -1.91,4 0.75,8 2.6,12.11 l 2,4.32 4.6,-1.19 c 4.33,-1.13 9.1,-1.56 11.01,-5.57 z"
       style="fill:#00d1b2" />
  </g>
</svg>
