<svg xmlns="http://www.w3.org/2000/svg" viewBox="0 0 750 500"><g id="freepik--background-complete--inject-2"><path d="M406.3,198.56c15.49-5.34,28.81-15.78,44.26-21.24,25.84-9.14,55.09-3.23,79.29,9.65,16.84,9,31.69,21,45.83,33.91C552.38,195.52,523,175,492.17,170.22c-61.54-9.54-90.25,48.06-142.37,24.45A73.52,73.52,0,0,0,406.3,198.56Z" style="fill:none"></path><path d="M209.88,147.61c1.13-.62,2.28-1.23,3.44-1.82-20.19,6.88-38,22.24-52.25,42.6A165.54,165.54,0,0,1,209.88,147.61Z" style="fill:none"></path><path d="M622.43,300.37c-.33-1.25-.7-2.52-1.09-3.81.14.87.29,1.73.44,2.59A3.15,3.15,0,0,1,622.43,300.37Z" style="fill:none"></path><path d="M165.5,409.75h0c4.53,4.67,13.48,9,25.8,12.87A156.55,156.55,0,0,1,165.5,409.75Z" style="fill:none"></path><path d="M127.25,320.6l.18,1.88.21,0C127.5,321.84,127.37,321.22,127.25,320.6Z" style="fill:none"></path><path d="M161,327.07l-8-9.71,10.45,5.88q-3-6.6-6-13.2l15,7.47-8.74-13.4,16.81,9.44q2-6.23,4-12.46l7.52,6.67a19,19,0,0,1,4.21-12.32l7.9,11.37c.59-3.21,1.17-6.42,1.76-9.64a12.51,12.51,0,0,1,.87-4.78l-.87,4.78c.09,7.57,6.78,14.93,14.44,17.26,9.28,2.83,19.23.57,28.78-1.19,34.24-6.31,69.31-5.9,104.12-5.47l120.76,1.49a38.14,38.14,0,0,1-1.39-21.16q7.36,8.65,14.74,17.29-1.19-7.38-2.35-14.76l11.5,12.51-.45-13.2,13.43,16.42-3-15.9c6.38,8.5,16.88,13.14,27.39,14.68s21.23.32,31.79-.91q-2.69-12-5.36-24.05l15.12,22.95q-1.77-11-3.52-22l15.34,20.57q-1-9.63-2.06-19.26a51.43,51.43,0,0,0,9.26,20.27q1.62-9.48,3.23-19L599,304.33q3.75-11.35,7.51-22.72-.62,10.42-1.22,20.84c5.18-.63,13.73-6.38,16.47-3.3-.15-.86-.3-1.72-.44-2.59-7.05-23.38-23.61-51.69-45.66-75.68-14.14-12.9-29-24.95-45.83-33.91-24.2-12.88-53.45-18.79-79.29-9.65-15.45,5.46-28.77,15.9-44.26,21.24a73.52,73.52,0,0,1-56.5-3.89c-52.11-23.61-56.79-76-136.48-48.88h0c-1.16.59-2.31,1.2-3.44,1.82a165.54,165.54,0,0,0-48.81,40.78c-24.5,35.13-38.08,85.14-33.82,132.21.12.62.25,1.24.39,1.84C136.58,320.75,152,324.94,161,327.07Z" style="fill:#f5f5f5"></path><path d="M624.32,309.21c-3.42.36-470.65,48.37-490,27.58-3.17-3.39-5.3-8.38-6.65-14.35l-.21,0c3.29,32.62,15.2,63.7,38.07,87.27a156.55,156.55,0,0,0,25.8,12.87C296.39,455.51,648.22,452.82,624.32,309.21Z" style="fill:#e0e0e0"></path><path d="M624.28,309c-.48-2.82-1.09-5.68-1.85-8.6a3.15,3.15,0,0,0-.65-1.22A64.83,64.83,0,0,0,624.28,309Z" style="fill:#e0e0e0"></path><path d="M205.84,297.17l.87-4.78A12.51,12.51,0,0,0,205.84,297.17Z" style="fill:#e0e0e0"></path><path d="M605.31,302.45q.6-10.41,1.22-20.84Q602.78,293,599,304.33l-1.41-20.57q-1.62,9.5-3.23,19a51.43,51.43,0,0,1-9.26-20.27q1,9.63,2.06,19.26l-15.34-20.57q1.75,11,3.52,22l-15.12-22.95q2.68,12,5.36,24.05c-10.56,1.23-21.27,2.45-31.79.91s-21-6.18-27.39-14.68l3,15.9L496,289.94l.45,13.2-11.5-12.51q1.17,7.38,2.35,14.76-7.38-8.64-14.74-17.29a38.14,38.14,0,0,0,1.39,21.16l-120.76-1.49c-34.81-.43-69.88-.84-104.12,5.47-9.55,1.76-19.5,4-28.78,1.19-7.66-2.33-14.35-9.69-14.44-17.26-.59,3.22-1.17,6.43-1.76,9.64l-7.9-11.37A19,19,0,0,0,192,307.76l-7.52-6.67q-2,6.23-4,12.46l-16.81-9.44,8.74,13.4-15-7.47q3,6.6,6,13.2l-10.45-5.88,8,9.71c-9-2.13-24.37-6.32-33.31-4.63,1.35,6,3.48,11,6.65,14.35,19.38,20.79,486.61-27.22,490-27.58a2,2,0,0,1,0-.24,64.83,64.83,0,0,1-2.5-9.82C619,296.07,610.49,301.82,605.31,302.45Z" style="fill:#e0e0e0"></path><path d="M567.46,160.33s-7.22-3-12.07,13.84-6.1,26.25-6.1,26.25-1.44,3.62-4,1.94-6.79-7-10.33-5.24-4.11,6.45-2.14,12.68,5.8,20,6.14,21.3,0,3.21-2,2.35-14.07-10-18.08-4,4.35,22.47,5.23,24.28.66,2.71-.15,3.36-4.6-2.82-8.15-5.28-8.1-4.71-10.13-1.05-.33,16.9,16.22,35.73l8.25,8.23,11.34-2.86c23.89-7.58,32.17-18.05,32.33-22.23s-4.9-4.61-9.21-4.33-9.34,1.3-9.71.32-.09-1.85,1.6-3,17.35-10.89,17-18.1-15.44-5.61-17.56-5.89-1.41-2.16-.49-3,11.35-10.75,16.26-15.07,6.89-8.48,4.71-12-8.45-.92-11.55-.84-2.48-3.75-2.48-3.75,3.79-8.71,8.33-25.63-3.4-18.08-3.4-18.08" style="fill:#ebebeb"></path><path d="M563.1,175.41a2.56,2.56,0,0,1-.07.36c-.06.26-.15.61-.25,1-.25,1-.59,2.29-1,4-.9,3.49-2.24,8.52-3.92,14.73-3.37,12.42-8.17,29.53-13.55,48.41s-10.2,36-13.71,48.38c-1.73,6.17-3.12,11.18-4.1,14.68-.48,1.7-.86,3-1.13,4-.12.44-.22.78-.3,1s-.12.35-.12.35A1.63,1.63,0,0,1,525,312c.07-.26.15-.61.26-1q.36-1.44,1-4c.9-3.48,2.24-8.51,3.92-14.72,3.37-12.43,8.18-29.54,13.56-48.43l13.71-48.37c1.72-6.17,3.11-11.18,4.09-14.68.48-1.7.86-3,1.13-4,.13-.43.23-.78.3-1A1.61,1.61,0,0,1,563.1,175.41Z" style="fill:#e0e0e0"></path><path d="M540.45,204.87a16.57,16.57,0,0,1,1.56,2.72c.89,1.72,2,4.13,3.25,6.82l3.06,6.9a22.63,22.63,0,0,1,1.2,2.9,14.61,14.61,0,0,1-1.56-2.73c-.87-1.73-2-4.15-3.21-6.84s-2.23-5-3.1-6.88A18.35,18.35,0,0,1,540.45,204.87Z" style="fill:#e0e0e0"></path><path d="M550.6,224.21c-.07-.14,4.79-2.76,10.85-5.84s11-5.48,11.11-5.34-4.79,2.75-10.85,5.84S550.67,224.34,550.6,224.21Z" style="fill:#e0e0e0"></path><path d="M541,252.83a20.41,20.41,0,0,1,3.12-.7c1.94-.39,4.6-.93,7.53-1.61s5.56-1.37,7.46-1.88a22.24,22.24,0,0,1,3.11-.75,15.76,15.76,0,0,1-3,1.13c-1.88.6-4.51,1.36-7.45,2s-5.63,1.16-7.59,1.45A15.91,15.91,0,0,1,541,252.83Z" style="fill:#e0e0e0"></path><path d="M528,237.36a16,16,0,0,1,2.09,2.1c1.23,1.35,2.9,3.24,4.72,5.34s3.44,4,4.6,5.44a16,16,0,0,1,1.78,2.37,15.46,15.46,0,0,1-2.08-2.11c-1.23-1.34-2.91-3.23-4.73-5.33s-3.44-4-4.59-5.45A16.26,16.26,0,0,1,528,237.36Z" style="fill:#e0e0e0"></path><path d="M516.33,261.56a25.62,25.62,0,0,1,2.66,2.71c1.58,1.72,3.74,4.12,6.1,6.79s4.47,5.12,6,6.91a24.75,24.75,0,0,1,2.36,3,25.07,25.07,0,0,1-2.65-2.71c-1.59-1.72-3.75-4.12-6.1-6.8s-4.47-5.11-6-6.9A27.23,27.23,0,0,1,516.33,261.56Z" style="fill:#e0e0e0"></path><path d="M533.14,280.36a31.35,31.35,0,0,1,3.93-1c2.43-.58,5.79-1.37,9.48-2.34s7-1.91,9.42-2.61l2.85-.81a4.16,4.16,0,0,1,1.07-.23,4,4,0,0,1-1,.44c-.65.25-1.61.59-2.8,1-2.38.79-5.69,1.81-9.39,2.77s-7.09,1.71-9.55,2.19c-1.23.23-2.23.41-2.92.51A3.87,3.87,0,0,1,533.14,280.36Z" style="fill:#e0e0e0"></path><path d="M470.76,272.11c18-12.56,22-35.86,21.33-56.8-.12-3.5.27-7.18-1.39-10.25s-5.55-5.16-8.68-3.69c-2.59,1.22-3.73,4.24-5.18,6.74a20.46,20.46,0,0,1-8.2,7.83c-2.22,1.16-5,1.86-7.18.65-3-1.66-3.37-5.83-3.35-9.31q.08-9.72.13-19.44c0-3.47,0-7-1.05-10.32s-3.47-6.37-6.78-7.3-7.4,1-8.1,4.39a32.79,32.79,0,0,0-.1,4.33c-.09,1.44-.77,3-2.14,3.44s-2.78-.58-3.82-1.6c-3.58-3.51-6-8-8.3-12.53s-4.48-9.1-7.74-12.93-7.76-6.86-12.74-7.14-10.28,2.79-11.54,7.68,1.6,9.87,4.71,13.84a77.62,77.62,0,0,0,16.16,15.4,6.37,6.37,0,0,1,2.7,2.91c.76,2.32-1.44,4.62-3.73,5.38-2.59.87-5.4.6-8.11.92s-5.65,1.51-6.68,4.07c-1.42,3.56,1.55,7.28,4.48,9.72a66.27,66.27,0,0,0,19.67,11.36c2.56.94,5.25,1.76,7.32,3.55s3.3,4.93,2.06,7.38-4.45,3.23-7.13,2.73-5.07-2-7.63-2.91c-4.78-1.8-10.95-1.47-14,2.66-2,2.71-2.19,6.49-1.17,9.73a25.47,25.47,0,0,0,5.27,8.59c7.66,9,17.46,16.22,28.55,20.06s21.35,4.88,32.37.86" style="fill:#ebebeb"></path><path d="M401,151.09a2.4,2.4,0,0,0,.34.33l1,.92c.91.8,2.26,2,3.94,3.57a130.35,130.35,0,0,1,13.28,14.33c2.59,3.22,5.28,6.87,8.1,10.84s5.78,8.25,8.74,12.85A157.12,157.12,0,0,1,445,208.79c1.34,2.66,2.53,5.44,3.75,8.27s2.44,5.72,3.69,8.63a318.17,318.17,0,0,1,12.39,33.46,156.24,156.24,0,0,1,5.8,28.53,113.76,113.76,0,0,1,.32,19.64c-.18,2.31-.36,4.11-.52,5.32-.07.58-.12,1-.16,1.38a4,4,0,0,0,0,.48s-2.26,21,.1-.47c.06-.34.13-.79.23-1.37.2-1.21.42-3,.64-5.32a109.91,109.91,0,0,0-.12-19.71A152.3,152.3,0,0,0,465.35,259,312,312,0,0,0,453,225.43q-1.87-4.37-3.7-8.62c-1.22-2.83-2.42-5.64-3.78-8.31a156.83,156.83,0,0,0-8.64-14.9c-3-4.6-6-8.87-8.8-12.83s-5.56-7.6-8.18-10.82a122.76,122.76,0,0,0-13.46-14.23c-1.72-1.55-3.09-2.71-4-3.48l-1.08-.87A1.73,1.73,0,0,0,401,151.09Z" style="fill:#e0e0e0"></path><path d="M445.33,208.48a7.59,7.59,0,0,0,.34-1.49c.18-1,.4-2.35.65-4.09.49-3.46,1-8.26,1.55-13.56s1.13-10.09,1.68-13.53c.26-1.72.49-3.12.66-4.08a7.18,7.18,0,0,0,.2-1.51,7,7,0,0,0-.44,1.46c-.25.95-.54,2.33-.87,4-.66,3.44-1.31,8.23-1.86,13.54s-1,10-1.37,13.58q-.27,2.44-.45,4.11A7.22,7.22,0,0,0,445.33,208.48Z" style="fill:#e0e0e0"></path><path d="M400.63,200.12a9.05,9.05,0,0,0,1.78.22c1.15.1,2.81.24,4.85.48,4.1.44,9.73,1.25,15.91,2.41s11.72,2.48,15.71,3.53c2,.52,3.6,1,4.71,1.29a9.62,9.62,0,0,0,1.74.43,8.5,8.5,0,0,0-1.67-.67c-1.09-.39-2.68-.91-4.66-1.49-4-1.17-9.52-2.55-15.71-3.73a160.78,160.78,0,0,0-16-2.23c-2.06-.18-3.73-.25-4.89-.27A10.38,10.38,0,0,0,400.63,200.12Z" style="fill:#e0e0e0"></path><path d="M464.8,258.15a2,2,0,0,0,.31-.54l.77-1.62c.65-1.41,1.55-3.47,2.63-6,2.15-5.12,4.91-12.29,7.85-20.24S482,214.59,484,209.43c1-2.51,1.82-4.57,2.44-6.11.26-.66.48-1.21.65-1.66a2,2,0,0,0,.19-.6,2.4,2.4,0,0,0-.3.55l-.77,1.61c-.66,1.41-1.56,3.47-2.63,6-2.16,5.12-4.92,12.29-7.85,20.24s-5.62,15.14-7.67,20.3l-2.44,6.1c-.26.67-.48,1.22-.66,1.67A2.7,2.7,0,0,0,464.8,258.15Z" style="fill:#e0e0e0"></path><path d="M405.4,239a2.61,2.61,0,0,0,.59.24l1.73.58,6.36,2.06c5.37,1.74,12.76,4.23,20.92,7s15.59,5.19,21,6.82c2.7.82,4.89,1.45,6.42,1.86l1.76.47a2.08,2.08,0,0,0,.62.11,2.35,2.35,0,0,0-.59-.24l-1.72-.58-6.36-2.06c-5.37-1.74-12.76-4.23-20.93-7s-15.58-5.19-21-6.82c-2.7-.81-4.9-1.45-6.42-1.86l-1.76-.46A2.45,2.45,0,0,0,405.4,239Z" style="fill:#e0e0e0"></path><path d="M442.49,100.53H590.18S577.12,76.76,539.1,80.22c-36.3,3.3-38.15-11.69-56.61-13.54S448.64,79,442.49,100.53Z" style="fill:#f5f5f5"></path><path d="M188.53,72.79h85.13s-7.53-13.7-29.44-11.71c-20.93,1.91-22-6.74-32.64-7.8S192.07,60.37,188.53,72.79Z" style="fill:#f5f5f5"></path><circle cx="361.81" cy="101.26" r="17.74" transform="translate(34.37 285.5) rotate(-45)" style="fill:#ebebeb"></circle><path d="M361.62,145.16c-.25,0-.46-6-.46-13.35s.21-13.36.46-13.36.47,6,.47,13.36S361.88,145.16,361.62,145.16Z" style="fill:#ebebeb"></path><path d="M405.29,100.26c0,.26-6.22.47-13.9.47s-13.9-.21-13.9-.47,6.23-.46,13.9-.46S405.29,100,405.29,100.26Z" style="fill:#ebebeb"></path><path d="M361.81,61.3c.26,0,.47,5.48.47,12.24s-.21,12.23-.47,12.23-.46-5.48-.46-12.23S361.56,61.3,361.81,61.3Z" style="fill:#ebebeb"></path><path d="M349.52,101.93c0,.25-6.61.46-14.76.46s-14.76-.21-14.76-.46,6.61-.47,14.76-.47S349.52,101.67,349.52,101.93Z" style="fill:#ebebeb"></path><path d="M351.36,92.9c-.18.18-3.89-3.24-8.28-7.63s-7.82-8.11-7.64-8.29,3.89,3.24,8.29,7.63S351.54,92.72,351.36,92.9Z" style="fill:#ebebeb"></path><path d="M386.31,77.24c.18.18-2.44,3.14-5.86,6.61s-6.34,6.14-6.52,6,2.44-3.14,5.86-6.61S386.12,77.06,386.31,77.24Z" style="fill:#ebebeb"></path><path d="M388,126.63c-.18.18-3.79-3.13-8.05-7.39s-7.58-7.87-7.39-8,3.78,3.13,8,7.39S388.13,126.45,388,126.63Z" style="fill:#ebebeb"></path><path d="M356.78,109.48c.18.18-4.24,4.91-9.87,10.56s-10.35,10.08-10.54,9.9,4.24-4.91,9.88-10.56S356.6,109.3,356.78,109.48Z" style="fill:#ebebeb"></path></g><g id="freepik--Dog--inject-2"><path d="M245.44,361.85,229.9,311.57s48.59-19.77,48-18.93-1.13,18.37-13,31.36-11.3,24.29-6.22,27.4c0,0,7.4-2.64,12.21-.95s14.64,11.4,14.64,11.4Z" style="fill:#FF725E"></path><path d="M245.44,361.85,229.9,311.57s48.59-19.77,48-18.93-1.13,18.37-13,31.36-11.3,24.29-6.22,27.4c0,0,7.4-2.64,12.21-.95s14.64,11.4,14.64,11.4Z" style="opacity:0.30000000000000004"></path><path d="M486.57,331.62l-2.43-22.74-7.89-7.9-39.11-10.83a8.36,8.36,0,0,0-5.14.21l-16.63,6.11-8.17-1.4s-9.74-2.49-14.47-5.15a22.53,22.53,0,0,0-5.88-2.24c-43.6-10.44-75.8-36.64-75.8-36.64-4.45-4.45-19.75-29.19-28.33-32.77s-26.7-2-26.7-2l-3.91,1.26,1.8-.86a35.75,35.75,0,0,0-66.34,3.43c-2.19,6.46-2.51,13.43-3.78,20.13a22.35,22.35,0,0,1-10.87,12.57c-6.32,3.33-13.81,3.92-20.88,2.94a24.78,24.78,0,0,0,17.42,7.93c-6.59,5.09-14.7,8.66-22.72,11.07a27.22,27.22,0,0,0,30.06.43l-8.11,7.07c8.44,1.29,16.58-4.58,21-11.88s6.08-15.87,8.46-24.06,5.89-16.59,12.75-21.65c5.9-4.35,14.85-5.1,20.49-.91-5.67,1.35-17.34,5.52-21.91,17.62-3.32,8.83-1.21,15.93-8.81,41.33-5.19,17.36-32.95,30.08-32.95,30.08s7.53,5.47,11.45,16.85c6,17.45,9.81,43.94,13.72,48.1,0,0,33.5,5.11,39.57,1.87,0,0-14.45-13.71-26.3-13.71l-3.94-11.39c-.47-3.54-3.45-23.16-.52-23.59,1.16-.17,9,.16,14.94-1.28,9.75-2.34,30.2-16.36,32.46-19.12,0,0,21.39,2.07,32.79,25.25,7.38,15,40.59,38.82,67.2,37.06l3-.21a2.89,2.89,0,0,1,3.07,3.11l-.59,7.67c15.12-.86,24,12.46,24,12.46,31.84.91,46.4,3.44,78.24,4.35,0,0,0-3.76-5.06-8.1-8.6-7.39-31.23-6.82-31.23-6.82-3.74-.28-7.69-.64-10.72-2.84-3.71-2.69-6.79-7.72-8.26-12.13l73.5.33.2.42,27.15-1.41c14.28-9.29,15-30.63,15-30.63Z" style="fill:#FF725E"></path><g style="opacity:0.30000000000000004"><path d="M415.37,296.47c-7,10.57-11.94,24.26-11.63,36.91s3,24.55,5.65,36.93l-5,0c-3.38-12.79-6.85-25.35-6.84-37.08A69.39,69.39,0,0,1,409,295.38"></path></g><path d="M222.84,382.08c-.08.06-.81-.9-2.24-2.19a20.79,20.79,0,0,0-13.68-5.31c-1.92,0-3.11.21-3.13.11a2.52,2.52,0,0,1,.82-.23,12.62,12.62,0,0,1,2.31-.27,17.65,17.65,0,0,1,3.44.18,21.48,21.48,0,0,1,4.09,1.09,20.94,20.94,0,0,1,3.75,2,17.19,17.19,0,0,1,2.67,2.18,12.83,12.83,0,0,1,1.52,1.75C222.71,381.8,222.87,382.06,222.84,382.08Z" style="fill:#263238"></path><path d="M165.5,311.76c0-.19,4.08.69,9.11.27a58.66,58.66,0,0,0,8.95-1.73,10,10,0,0,1-2.5,1,29.46,29.46,0,0,1-12.93,1A9.84,9.84,0,0,1,165.5,311.76Z" style="fill:#263238"></path><path d="M165.55,314.06a38.65,38.65,0,0,0,9.23,1.22c5.19-.07,9.14-1.75,9.19-1.56a9.82,9.82,0,0,1-2.56,1.07,24.26,24.26,0,0,1-13.27.25A9.16,9.16,0,0,1,165.55,314.06Z" style="fill:#263238"></path><path d="M168.61,316.13c0-.16,3.06.63,6.83,1.29s6.86.95,6.85,1.11a26.35,26.35,0,0,1-6.95-.56A26.31,26.31,0,0,1,168.61,316.13Z" style="fill:#263238"></path><path d="M261.22,278.29a8.79,8.79,0,0,1,.17,1.64,18.91,18.91,0,0,1,.05,1.94c0,.75,0,1.62-.11,2.56a28.84,28.84,0,0,1-.36,3.09c-.14,1.11-.43,2.28-.71,3.5a43.84,43.84,0,0,1-2.77,7.7,45.24,45.24,0,0,1-4.24,7c-.78,1-1.5,1.94-2.28,2.75a29.09,29.09,0,0,1-2.17,2.23,24,24,0,0,1-1.93,1.69,15.65,15.65,0,0,1-1.53,1.18,9.35,9.35,0,0,1-1.38.91c-.07-.1,1.88-1.42,4.56-4.06.67-.67,1.4-1.4,2.1-2.25s1.46-1.77,2.22-2.76a47.73,47.73,0,0,0,4.15-6.93,46.64,46.64,0,0,0,2.77-7.59c.29-1.21.59-2.35.75-3.45s.33-2.11.43-3C261.31,280.65,261.1,278.3,261.22,278.29Z" style="fill:#263238"></path><g style="opacity:0.30000000000000004"><path d="M298,235c-6.88,6.55-10.47,17.86-8.49,27.16a28.47,28.47,0,0,0,18,20.51c6.85,2.44,15,2.37,20.31,7.28,3.08,2.83,4.7,6.87,7.1,10.29a27.1,27.1,0,0,0,28.42,10.38c10.38-2.76,18.53-13.27,19.51-24A167.27,167.27,0,0,1,364.88,281a237.58,237.58,0,0,1-22.54-10.22c-5.29-2.83-24.19-14.45-27.42-16.82C310,250.35,298,235,298,235Z"></path></g><path d="M214.67,252.24a8.78,8.78,0,0,1,.6-2.35,29.58,29.58,0,0,1,2.46-5.29,29.07,29.07,0,0,1,3.48-4.7,7.94,7.94,0,0,1,1.78-1.64,78,78,0,0,0-4.77,6.63C215.9,248.75,214.84,252.3,214.67,252.24Z" style="fill:#263238"></path><path d="M218.34,254.84a8.07,8.07,0,0,1,.49-2.38,25.13,25.13,0,0,1,5.9-10.06,8,8,0,0,1,1.84-1.59c.13.13-2.62,2.64-4.9,6.55S218.52,254.89,218.34,254.84Z" style="fill:#263238"></path><path d="M354.19,385c-.1,0,.36-1.43.58-3.77a21.43,21.43,0,0,0-5.71-16.77c-1.61-1.71-2.82-2.55-2.76-2.63a3.83,3.83,0,0,1,.89.53,17.46,17.46,0,0,1,2.15,1.83,20.13,20.13,0,0,1,5.82,17.08,16.68,16.68,0,0,1-.59,2.76A3.55,3.55,0,0,1,354.19,385Z" style="fill:#263238"></path><path d="M357.33,381.22a34.06,34.06,0,0,1,.57-4,38.08,38.08,0,0,1,.46-4,13.63,13.63,0,0,1-1,8Z" style="fill:#263238"></path><path d="M359.42,380.84c-.14-.1.86-1.47,1.39-3.43s.42-3.64.59-3.66a5.78,5.78,0,0,1,0,3.81A5.84,5.84,0,0,1,359.42,380.84Z" style="fill:#263238"></path><path d="M441.57,399.71c-.09,0-.29-.79-1-1.88a10,10,0,0,0-3.82-3.3,19.08,19.08,0,0,0-4.91-1.56,11,11,0,0,1-2.12-.48,7,7,0,0,1,2.19.08A15.82,15.82,0,0,1,437,394a9.27,9.27,0,0,1,3.91,3.59A3.94,3.94,0,0,1,441.57,399.71Z" style="fill:#263238"></path><path d="M455.6,400.2c-.09.06-.75-1.17-2.17-2.88a22.1,22.1,0,0,0-2.74-2.76,22.71,22.71,0,0,0-8.33-4.5,22.37,22.37,0,0,0-3.81-.79c-2.21-.25-3.6-.13-3.6-.24a3.17,3.17,0,0,1,1-.15,6.65,6.65,0,0,1,1.15-.05,11.65,11.65,0,0,1,1.52.05,19.46,19.46,0,0,1,3.92.68,23.49,23.49,0,0,1,4.52,1.82,23.9,23.9,0,0,1,4,2.79,20.73,20.73,0,0,1,2.71,2.9,14,14,0,0,1,.88,1.25,8.82,8.82,0,0,1,.58,1A3.22,3.22,0,0,1,455.6,400.2Z" style="fill:#263238"></path><path d="M390,332.84a20.37,20.37,0,0,1,.45,2.11c.27,1.36.69,3.32,1.29,5.73a135.77,135.77,0,0,0,6.05,18.38c1.44,3.51,2.59,6.94,3.8,10a49.93,49.93,0,0,0,3.74,7.82,21.69,21.69,0,0,0,3.61,4.57c1,.95,1.64,1.39,1.6,1.44a2.69,2.69,0,0,1-.47-.3,9.77,9.77,0,0,1-1.28-1,20.47,20.47,0,0,1-3.8-4.51,47.43,47.43,0,0,1-3.88-7.85c-1.24-3.05-2.4-6.47-3.84-10a121,121,0,0,1-5.92-18.5c-.55-2.42-.91-4.4-1.11-5.78-.12-.69-.17-1.23-.21-1.59A2,2,0,0,1,390,332.84Z" style="fill:#263238"></path><g style="opacity:0.4"><path d="M255.3,222.72c-.08-.34,1.84-1.21,5.19-1.73a31.56,31.56,0,0,1,5.92-.32,38.09,38.09,0,0,1,7.22,1,39,39,0,0,1,6.86,2.46,31.05,31.05,0,0,1,5.1,3c2.72,2,4,3.68,3.78,3.95s-2-.78-4.83-2.27a56,56,0,0,0-5.09-2.36,56.94,56.94,0,0,0-6.49-2.1,55.64,55.64,0,0,0-6.73-1.16c-2.09-.2-4-.29-5.6-.28C257.43,223,255.39,223.13,255.3,222.72Z" style="fill:#fff"></path></g><g style="opacity:0.4"><path d="M188.32,234.52c-.18,0-.46-.86-.64-2.49a25.52,25.52,0,0,1,.35-7,30.83,30.83,0,0,1,3.58-9.77,30.15,30.15,0,0,1,20.16-14.82,30.76,30.76,0,0,1,10.39-.49,24.82,24.82,0,0,1,6.74,1.74c1.51.66,2.26,1.19,2.19,1.35-.16.45-3.51-.9-9.09-1.12a33.53,33.53,0,0,0-9.63,1,30,30,0,0,0-18.54,13.62,33.11,33.11,0,0,0-3.86,8.89C188.51,230.9,188.79,234.5,188.32,234.52Z" style="fill:#fff"></path></g><path d="M447.89,326.92a1.46,1.46,0,0,1-.11.32c-.09.23-.21.53-.37.91l-1.48,3.47c-1.33,3-3.24,7.34-6.12,12.46A57.2,57.2,0,0,1,427,360.13a15.6,15.6,0,0,1-5.12,3.14,7.22,7.22,0,0,1-3.14.39,4.73,4.73,0,0,1-2.9-1.49,6.72,6.72,0,0,1-1.44-3A21,21,0,0,1,414,356q-.22-3.25-.47-6.6c-.63-8.92-1.23-17.41-1.77-25.14-.26-3.85-.25-7.68,1.09-11a17.59,17.59,0,0,1,6-7.46,26.94,26.94,0,0,1,7-3.64,49.56,49.56,0,0,1,5.76-1.62c1.6-.36,2.85-.6,3.7-.75l1-.17.33,0a1.93,1.93,0,0,1-.32.1l-1,.22-3.67.85a52.24,52.24,0,0,0-5.7,1.7,27.08,27.08,0,0,0-6.91,3.67,17.14,17.14,0,0,0-5.81,7.31c-1.29,3.17-1.29,6.91-1,10.75.56,7.73,1.17,16.22,1.82,25.13.16,2.23.31,4.43.47,6.6s.37,4.37,1.72,5.88a4.24,4.24,0,0,0,2.55,1.33,6.88,6.88,0,0,0,2.91-.37,15,15,0,0,0,5-3,57.55,57.55,0,0,0,12.8-15.85c2.92-5.07,4.88-9.39,6.27-12.35l1.58-3.43c.17-.36.31-.66.42-.88A2,2,0,0,1,447.89,326.92Z" style="fill:#263238"></path><path d="M476.82,338.81c-.76-.14-1.05-2-.64-4.17s1.34-3.8,2.1-3.66,1.06,2,.65,4.17S477.59,339,476.82,338.81Z" style="fill:#263238"></path><path d="M480.38,318.58c-.35.21-1-.23-1.92-.45a6.73,6.73,0,0,0-3.69.14,22.64,22.64,0,0,0-3.79,2c-1.05.59-1.83.89-2.1.6s0-1.05.78-2.09a9.05,9.05,0,0,1,4.21-3.11,6,6,0,0,1,5.55.77,3,3,0,0,1,1.05,1.42C480.6,318.22,480.53,318.48,480.38,318.58Z" style="fill:#263238"></path><path d="M479.92,307.49s.32,0,.48.47a1.21,1.21,0,0,1,0,.83,1.22,1.22,0,0,1-.87.74,4.52,4.52,0,0,1-2.93-.65,9.87,9.87,0,0,1-3.08-2.41l-1.4-1.64,1.71,1.32a3.8,3.8,0,0,1,1.84,2.37,1.74,1.74,0,0,1-.58,1.64,2.2,2.2,0,0,1-1.77.27,9.21,9.21,0,0,1-5.8-4,9,9,0,0,1-.67-1.2L466,303.5l1.29,1.43a10.93,10.93,0,0,1,2.21,3.76,3.17,3.17,0,0,1,.23,1.1,1.15,1.15,0,0,1-.68,1,2.42,2.42,0,0,1-2.08-.4,15.24,15.24,0,0,1-4.73-4.81,15,15,0,0,1-1.78-4.16,11.25,11.25,0,0,1-.23-1.2,1.18,1.18,0,0,1,0-.43,18.93,18.93,0,0,0,2.37,5.58,15.29,15.29,0,0,0,4.67,4.6,2,2,0,0,0,1.6.34c.47-.19.41-.84.15-1.47a10.47,10.47,0,0,0-2.12-3.57l.46-.3a9.13,9.13,0,0,0,.63,1.13,8.81,8.81,0,0,0,5.43,3.78,1.69,1.69,0,0,0,1.35-.17,1.24,1.24,0,0,0,.41-1.16,3.48,3.48,0,0,0-1.62-2.07l.31-.33a9.7,9.7,0,0,0,2.9,2.38,4.36,4.36,0,0,0,2.69.72,1.08,1.08,0,0,0,.85-1.29C480.18,307.59,479.89,307.52,479.92,307.49Z" style="fill:#263238"></path><g style="opacity:0.30000000000000004"><path d="M419.29,363.93c4.8.32,9.79.61,14.24-1.2,6-2.44,10-8.4,11.72-14.65s1.65-11.88,1.41-18.35c-6.12,15.38-12.73,27.37-27.37,34.2"></path></g><path d="M514,354.55a2.53,2.53,0,0,1-.18.49c-.14.31-.35.76-.63,1.34a18.11,18.11,0,0,1-3,4.58c-.81.84-1.79,1.64-2.79,2.53a10.6,10.6,0,0,1-3.63,2.45,3.25,3.25,0,0,1-2.46-.15,4.22,4.22,0,0,1-1.79-1.83,9.11,9.11,0,0,1-.47-5.17,49.44,49.44,0,0,1,2-9.69,27.7,27.7,0,0,1,3.37-7.36,11.37,11.37,0,0,1,4-3.73,6.38,6.38,0,0,1,1.38-.56,2.2,2.2,0,0,1,.5-.12c0,.06-.68.23-1.77.87a11.72,11.72,0,0,0-3.76,3.76,28.25,28.25,0,0,0-3.2,7.3,50.27,50.27,0,0,0-2,9.59,8.67,8.67,0,0,0,.4,4.86,3.67,3.67,0,0,0,1.54,1.6,2.71,2.71,0,0,0,2.07.14,10.54,10.54,0,0,0,3.48-2.31c1-.88,2-1.66,2.81-2.46a19.66,19.66,0,0,0,3.06-4.4A15,15,0,0,1,514,354.55Z" style="fill:#263238"></path><path d="M511.7,346c.76.1,1.35.44,1.31.77s-.7.49-1.47.39-1.35-.44-1.31-.77S510.93,345.93,511.7,346Z" style="fill:#263238"></path><path d="M507,348.5c.75-.19,1.42-.09,1.51.23s-.46.74-1.2.94-1.43.1-1.51-.23S506.24,348.7,507,348.5Z" style="fill:#263238"></path><path d="M511.46,349.68c.72-.29,1.38-.35,1.46-.14s-.43.63-1.15.91-1.37.35-1.45.14S510.75,350,511.46,349.68Z" style="fill:#263238"></path><path d="M507.42,355.34a1.06,1.06,0,1,1,.46-1.67A1.27,1.27,0,0,1,507.42,355.34Z" style="fill:#263238"></path><g style="opacity:0.30000000000000004"><path d="M517.65,338.57c-2.54-.73-5.94-1.42-7.08-1.65s-2,.82-2.84,1.33c-2.29,1.4-3.78,3.78-5,6.19-2.52,5.17-3.18,11-3.36,16.71-.06,1.78.69,3.68,2.42,4.13a3.21,3.21,0,0,0,2.64-.29,22.62,22.62,0,0,0,9.73-10.86,44.4,44.4,0,0,0,3.44-15.56"></path></g><path d="M515.1,338c-.19-.21-.54-.06-.76.12a8.06,8.06,0,0,0-2.11,3.51,4.11,4.11,0,0,0-.35,1.31,1.39,1.39,0,0,0,.53,1.19,1.55,1.55,0,0,0,1.53,0c.47-.24.88-.6,1.36-.83.17-.08.41-.13.52,0s0,.35-.09.5a4.93,4.93,0,0,0-.68,2.18,1.94,1.94,0,0,0,.16,1.07.93.93,0,0,0,.89.53s2.71-7.63.95-8.8S515.1,338,515.1,338Z" style="fill:#263238"></path><g style="opacity:0.30000000000000004"><path d="M459.15,298.57A45.07,45.07,0,0,0,468,312.12c1.28-2.75-.23-5.94-1.72-8.6a21.92,21.92,0,0,0,6.91,6.37,2.14,2.14,0,0,0,1.47.4,1.53,1.53,0,0,0,.85-2,4.8,4.8,0,0,0-1.55-1.87,3.73,3.73,0,0,1-1.38-2,19.78,19.78,0,0,0,5.18,3.95,3,3,0,0,0,2.24.45,2.18,2.18,0,0,0,1.08-2.8,5.53,5.53,0,0,0-2.21-2.44,32.54,32.54,0,0,0-18.6-6"></path></g><g style="opacity:0.4"><path d="M416.24,347.94c-.37,0-1-2.79-1.6-7.44a66,66,0,0,1,.11-18.43,42,42,0,0,1,1.2-5.2,29.72,29.72,0,0,1,1.77-4.69,15.68,15.68,0,0,1,5.59-6.64,9.85,9.85,0,0,1,5.63-1.61c1.4.08,2.09.49,2.05.65s-.77.19-2,.44a10.86,10.86,0,0,0-4.58,2.15,15,15,0,0,0-4.37,6.08,33,33,0,0,0-1.48,4.38,44.73,44.73,0,0,0-1.07,4.91c-1.13,6.81-.92,13.2-.9,17.83S416.64,347.9,416.24,347.94Z" style="fill:#fff"></path></g><path d="M144,250.14a6.21,6.21,0,0,1,.74-2.18,15.6,15.6,0,0,1,8-7.52,6.28,6.28,0,0,1,2.22-.61c.08.17-3.41,1.09-6.5,4S144.17,250.22,144,250.14Z" style="fill:#263238"></path><path d="M140,238.51c-.06,0,.11-.57.61-1.31a8,8,0,0,1,5.95-3.34A2.77,2.77,0,0,1,148,234a13.6,13.6,0,0,0-4.52,1.32C141.17,236.61,140.15,238.61,140,238.51Z" style="fill:#263238"></path></g><g id="freepik--Food--inject-2"><path d="M575.76,376.93a11.65,11.65,0,0,0,3.45,1,4,4,0,0,0,3.29-1.14c.47-.52.74-1.21,1.22-1.73a4.05,4.05,0,0,1,4.19-.71,6.63,6.63,0,0,1,4.25,4.37,6.08,6.08,0,0,1-1.52,5.86,5.6,5.6,0,0,1-5.88,1.19s7,2.54,5.08,7.69-8.5,5.8-10.83,1.39c0,0-1-3.23-2-3.61s-4.45-1.88-4.45-1.88l-5.94-2.41a12,12,0,0,0-3.45-1,4,4,0,0,0-3.29,1.14c-.47.53-.74,1.21-1.22,1.73a4,4,0,0,1-4.19.72,6.62,6.62,0,0,1-4.25-4.38,6.06,6.06,0,0,1,1.52-5.85,5.57,5.57,0,0,1,5.87-1.19s-7-2.55-5.08-7.7,8.51-5.79,10.84-1.39c0,0,1,3.24,2,3.62s4.44,1.88,4.44,1.88Z" style="fill:#263238"></path><path d="M574.31,375.49a11.8,11.8,0,0,0,3.46,1,4,4,0,0,0,3.29-1.14c.47-.53.74-1.21,1.22-1.73a4.05,4.05,0,0,1,4.19-.71,6.59,6.59,0,0,1,4.24,4.37,6,6,0,0,1-1.51,5.86,5.62,5.62,0,0,1-5.88,1.19s7,2.54,5.08,7.69-8.5,5.79-10.83,1.39c0,0-1-3.23-2-3.61s-4.45-1.89-4.45-1.89l-5.94-2.4a11.82,11.82,0,0,0-3.45-1,4,4,0,0,0-3.3,1.14c-.46.53-.73,1.21-1.21,1.73a4,4,0,0,1-4.2.71,6.59,6.59,0,0,1-4.24-4.37,6,6,0,0,1,1.52-5.85,5.59,5.59,0,0,1,5.87-1.2s-7-2.54-5.08-7.69,8.5-5.79,10.83-1.39c0,0,1,3.23,2,3.61s4.44,1.89,4.44,1.89Z" style="fill:#455a64"></path><path d="M579.65,344.07a8.35,8.35,0,0,0,2.48-.55,2.82,2.82,0,0,0,1.68-1.81c.11-.49.05-1,.18-1.49a2.85,2.85,0,0,1,2.37-1.85,4.68,4.68,0,0,1,4.12,1.31,4.28,4.28,0,0,1,1,4.16,3.93,3.93,0,0,1-3.26,2.71s5.23-.76,5.75,3.1-3.37,6.47-6.3,4.5c0,0-1.68-1.7-2.43-1.6s-3.4.32-3.4.32l-4.52.49a8.33,8.33,0,0,0-2.48.54,2.87,2.87,0,0,0-1.68,1.81c-.11.49,0,1-.18,1.49a2.87,2.87,0,0,1-2.37,1.86,4.71,4.71,0,0,1-4.12-1.31,4.31,4.31,0,0,1-1-4.16,4,4,0,0,1,3.27-2.72s-5.23.77-5.75-3.1,3.36-6.46,6.29-4.5c0,0,1.69,1.7,2.43,1.6s3.41-.31,3.41-.31Z" style="fill:#263238"></path><path d="M578.26,343.65a8.72,8.72,0,0,0,2.49-.54,2.82,2.82,0,0,0,1.67-1.82c.12-.48.06-1,.18-1.48A2.88,2.88,0,0,1,585,338a4.68,4.68,0,0,1,4.12,1.31,4.28,4.28,0,0,1,1,4.16,4,4,0,0,1-3.27,2.72s5.24-.77,5.76,3.1-3.37,6.46-6.3,4.5c0,0-1.68-1.7-2.43-1.6s-3.41.31-3.41.31l-4.51.49a8.72,8.72,0,0,0-2.49.54,2.85,2.85,0,0,0-1.67,1.82c-.11.49,0,1-.18,1.49a2.87,2.87,0,0,1-2.38,1.85,4.67,4.67,0,0,1-4.11-1.31,4.28,4.28,0,0,1-1-4.16,4,4,0,0,1,3.27-2.71s-5.23.76-5.75-3.1,3.36-6.47,6.29-4.5c0,0,1.68,1.69,2.43,1.6s3.41-.32,3.41-.32Z" style="fill:#455a64"></path></g></svg>