<svg xmlns="http://www.w3.org/2000/svg" viewBox="0 0 500 500"><g id="freepik--background-complete--inject-9"><path d="M72.59,282.92l-13.12.28-6.66.11c-2.23,0-4.47,0-6.7.05h-.44v-.45l-.06-11.19v-.5h.5l13.24.06c4.42,0,8.83.11,13.24.16h.28v.27c0,1.9-.09,3.78-.13,5.65Zm0,0-.14-5.66c0-1.86-.11-3.7-.13-5.53l.27.27c-4.41.05-8.82.16-13.24.16l-13.24.07.5-.5,0,11.19-.45-.45c2.18,0,4.36,0,6.55.06l6.58.11Z" style="fill:#ebebeb"></path><path d="M57.82,297l-13.12.28-6.66.11c-2.23,0-4.47,0-6.7.05H30.9V297l-.06-11.19v-.51h.5l13.24.06c4.41,0,8.83.11,13.24.16h.28v.27c0,1.9-.08,3.78-.13,5.65Zm0,0-.14-5.66c0-1.86-.11-3.7-.13-5.53l.27.27c-4.41.05-8.83.16-13.24.16l-13.24.07.5-.5L31.79,297l-.45-.45c2.18,0,4.36,0,6.55.06l6.58.11Z" style="fill:#ebebeb"></path><path d="M293.17,134.74l-13.12.28-6.66.11c-2.23.05-4.47,0-6.7.06h-.44v-.45l-.06-11.19v-.5h.5l13.24.07c4.42,0,8.83.11,13.24.16h.28v.27c0,1.9-.09,3.79-.14,5.66Zm0,0-.14-5.65c0-1.86-.11-3.71-.13-5.54l.27.28c-4.41,0-8.82.15-13.24.16l-13.24.06.5-.5-.05,11.19-.45-.44c2.18,0,4.36,0,6.55,0l6.58.11Z" style="fill:#ebebeb"></path><path d="M278.4,148.85l-13.12.28-6.66.11c-2.23,0-4.47,0-6.7.06h-.44v-.45l-.06-11.19v-.5h.5l13.24.07c4.41,0,8.83.11,13.24.16h.28v.27c0,1.9-.08,3.79-.13,5.66Zm0,0-.14-5.65c-.05-1.86-.11-3.71-.13-5.54l.27.28c-4.41.05-8.83.15-13.24.16l-13.24.06.5-.5,0,11.19-.45-.44c2.18,0,4.36,0,6.55.05l6.58.11Z" style="fill:#ebebeb"></path><path d="M263.69,134.74l-13.13.28-6.66.11c-2.22.05-4.46,0-6.69.06h-.45v-.45l0-11.19v-.5h.5l13.24.07c4.41,0,8.82.11,13.24.16H264v.27c0,1.9-.09,3.79-.13,5.66Zm0,0-.14-5.65c-.05-1.86-.12-3.71-.14-5.54l.28.28c-4.42,0-8.83.15-13.24.16l-13.24.06.5-.5-.06,11.19-.44-.44c2.18,0,4.35,0,6.54,0l6.58.11Z" style="fill:#ebebeb"></path><path d="M468.66,297l-13.13.28-6.66.11c-2.22,0-4.46,0-6.69.05h-.45V297l-.05-11.19v-.51h.5l13.24.06c4.41,0,8.83.11,13.24.16h.27v.27c0,1.9-.08,3.78-.13,5.65Zm0,0-.14-5.66c0-1.86-.12-3.7-.13-5.53l.27.27c-4.41.05-8.83.16-13.24.16l-13.24.07.5-.5L442.62,297l-.44-.45c2.18,0,4.36,0,6.54.06l6.58.11Z" style="fill:#ebebeb"></path><path d="M453.89,43.92l-13.13.27-6.66.12c-2.22,0-4.46,0-6.69,0H427v-.44l0-11.19v-.51h.51l13.24.06c4.41,0,8.82.11,13.24.16h.27v.27c0,1.89-.09,3.78-.13,5.65Zm0,0-.14-5.66c-.05-1.86-.12-3.7-.14-5.53l.28.27c-4.42,0-8.83.16-13.24.16l-13.24.07.5-.5-.06,11.19-.44-.45c2.18,0,4.35,0,6.54.05l6.58.12Z" style="fill:#ebebeb"></path><path d="M468.66,58l-13.13.27-6.66.12c-2.22,0-4.46,0-6.69,0h-.45V58l-.05-11.19v-.51h.5l13.24.06c4.41,0,8.83.11,13.24.16h.27v.27c0,1.89-.08,3.78-.13,5.65Zm0,0-.14-5.66c0-1.86-.12-3.7-.13-5.53l.27.27c-4.41,0-8.83.16-13.24.16l-13.24.06.5-.49L442.62,58l-.44-.45c2.18,0,4.36,0,6.54.05l6.58.12Z" style="fill:#ebebeb"></path><path d="M72.59,43.92l-13.12.27-6.66.12c-2.23,0-4.47,0-6.7,0h-.44v-.44l-.06-11.19v-.51h.5l13.24.06c4.42,0,8.83.11,13.24.16h.28v.27c0,1.89-.09,3.78-.13,5.65Zm0,0-.14-5.66c0-1.86-.11-3.7-.13-5.53l.27.27c-4.41,0-8.82.16-13.24.16l-13.24.07.5-.5,0,11.19-.45-.45c2.18,0,4.36,0,6.55.05l6.58.12Z" style="fill:#ebebeb"></path><polygon points="316.75 290.45 454.24 290.45 458.66 203.21 312.33 203.21 316.75 290.45" style="fill:#ebebeb"></polygon><path d="M444.16,243.15H323.08l-1.67-30.29H446.1Zm-120.07-1.08H443.15L445,213.93H322.54Z" style="fill:#dbdbdb"></path><path d="M442.52,278h-116l-1.36-27.34h119Zm-114.94-1.07H441.51l1.57-25.2H326.33Z" style="fill:#dbdbdb"></path><path d="M397.54,231.29H371.88l-.95-7.31h27.56Zm-24.72-1.07H396.6l.67-5.16H372.15Z" style="fill:#dbdbdb"></path><path d="M397.54,268H371.88l-.95-7.3h27.56Zm-24.72-1.07H396.6l.67-5.16H372.15Z" style="fill:#dbdbdb"></path><polygon points="335.82 290.45 334.48 299.95 331.8 319.05 326.55 319.05 326.55 290.45 335.82 290.45" style="fill:#ebebeb"></polygon><polygon points="335.82 290.45 334.48 299.95 326.55 299.95 326.55 290.45 335.82 290.45" style="fill:#dbdbdb"></polygon><polygon points="435.17 290.45 436.5 299.95 439.19 319.05 444.44 319.05 444.44 290.45 435.17 290.45" style="fill:#ebebeb"></polygon><polygon points="435.17 290.45 436.5 299.95 444.44 299.95 444.44 290.45 435.17 290.45" style="fill:#dbdbdb"></polygon><rect x="365.18" y="52.71" width="52.98" height="64.27" style="fill:#ebebeb"></rect><rect x="371.23" y="58.57" width="40.87" height="52.53" style="fill:#fff"></rect><rect x="371.23" y="58.57" width="1.59" height="52.53" style="fill:#dbdbdb"></rect><rect x="418.16" y="52.71" width="1.59" height="64.27" style="fill:#dbdbdb"></rect><rect x="384.93" y="65.82" width="9.64" height="28.71" style="fill:#dbdbdb"></rect><rect x="380.72" y="85.37" width="25.7" height="14.07" style="fill:none;stroke:#ebebeb;stroke-miterlimit:10"></rect><rect x="295.52" y="99.44" width="52.98" height="64.27" style="fill:#ebebeb"></rect><rect x="301.58" y="105.3" width="40.87" height="52.53" style="fill:#fff"></rect><rect x="301.58" y="105.3" width="1.59" height="52.53" style="fill:#dbdbdb"></rect><rect x="348.5" y="99.44" width="1.59" height="64.27" style="fill:#dbdbdb"></rect><rect x="318.05" y="118.88" width="8.26" height="20.88" style="fill:#ebebeb"></rect><rect x="312.82" y="131.57" width="22.18" height="14.39" style="fill:none;stroke:#dbdbdb;stroke-miterlimit:10"></rect></g><g id="freepik--Shadow--inject-9"><ellipse cx="250" cy="418.99" rx="170.31" ry="17.79" style="fill:#ebebeb"></ellipse></g><g id="freepik--Yarn--inject-9"><path d="M410.6,384.41a3.27,3.27,0,0,0-1.66-3.18,2.94,2.94,0,0,0,1.32-3.22c-.6-2-3.07-1.78-3.07-1.78a2.64,2.64,0,0,0,.56-3.38c-.86-1.76-3.5-.83-3.5-.83a3.23,3.23,0,0,0,.34-4c-.57-1-2.39-.85-2.51-1C398,361.65,389.32,350.8,368,356.07c-16.24,4-21.33,19.67-20.65,33.31,0,.21-1.11.32-1.11,1.79a1.85,1.85,0,0,0,.95,1.79,2,2,0,0,0-.44,2.44,2.11,2.11,0,0,0,2.35,1.16c-.29.54-1.67,1.41-.9,3.39a2.65,2.65,0,0,0,2.89,1.61,2.62,2.62,0,0,0-.09,2.93c.26.43,2.08.55,2.38.74-17.52,9-44.85,8.8-50.39,11-18.12,7.16,3.2,24.65,18.85,19.21,1-.35-.62-2.22-1.67-2.12-17.62,1.61-25.86-11.2-15.27-14.17,6.87-1.92,33.76-1.59,49.89-10.76,1.32-.75,2.16,1.11,2.51,1.46,8.33,8.38,25.84,10.82,36.92,4.64,14.16-7.89,15.43-20.52,15.07-27.45A2.84,2.84,0,0,0,410.6,384.41Z" style="fill:#455a64"></path><path d="M401.6,376.62c-4.1,8-12.76,13-21,15.88a54.3,54.3,0,0,1-27.19,2.36c-.68-.11-1,.94-.29,1.05a55.5,55.5,0,0,0,28.63-2.68c8.15-3.06,16.64-8.07,20.73-16.06C402.85,376.55,401.91,376,401.6,376.62Z" style="fill:#263238"></path><path d="M404.39,386.08A56.14,56.14,0,0,1,357,404.37c-.7-.07-.69,1,0,1.09a57.19,57.19,0,0,0,48.15-18.62C405.62,386.33,404.86,385.56,404.39,386.08Z" style="fill:#263238"></path><path d="M402.28,366.94c-5.07-8.7-15.17-11.57-24.73-11.68a.49.49,0,0,0-.46.28,7.88,7.88,0,0,0-1.55-.73c-.66-.22-1,.82-.29,1.05a6.3,6.3,0,0,1,4.27,7.09s0,.06,0,.09a20.79,20.79,0,0,0-2.37-.33.3.3,0,0,0,0-.13,8.07,8.07,0,0,0-5.24-7.25.44.44,0,0,0-.63.37l-.13,0,0,0a.55.55,0,0,0-.5-.17c-10.78,1.82-16.52,10.21-19.53,19.95l-.1-.18a.54.54,0,0,0-.94.55c.23.41.48.82.73,1.22l0,.06a51.38,51.38,0,0,0,9.58,11.59.6.6,0,0,0,.26.24c.79.7,1.6,1.39,2.44,2.05-1,0-2,0-3,0a.53.53,0,0,0-.25-.43,30.31,30.31,0,0,1-10.59-12.5c-.29-.63-1.23-.08-.94.55A31.25,31.25,0,0,0,358.49,391a42.66,42.66,0,0,1-8.31-1.52.54.54,0,0,0-.29,1.05c19.74,5.66,39.83-3.26,51.57-19.54.41-.56-.54-1.11-.94-.54l-.15.19a21.06,21.06,0,0,0-20.69-12.91.49.49,0,0,0-.25.07,7.34,7.34,0,0,0-1.22-1.4c9.18.23,18.77,3.08,23.44,11.66a.61.61,0,0,0,.14.17c-.05.32-.11.63-.17.95-.13.68.92,1,1.05.29l.33-1.84A.58.58,0,0,0,402.28,366.94Zm-50.41,9.87c2.64-9.18,7.56-17.21,17-19.72-7.81,4.94-15,13.36-15,22.8C353.17,378.89,352.51,377.86,351.87,376.81ZM355,381.4c-.74-9.54,6.26-18.08,14-23.13a33.49,33.49,0,0,0-11.84,25.79C356.45,383.2,355.73,382.31,355,381.4Zm5.24,5.82c-.69-.65-1.36-1.33-2-2a.53.53,0,0,0,.06-.26,32.38,32.38,0,0,1,14.36-28.06l.25.14A38.15,38.15,0,0,0,360.26,387.22Zm5.87,3.68c0-.51,0-1-.05-1.54,0-.69-1.11-.7-1.09,0l.06,1.62-.62,0a.59.59,0,0,0-.23-.45c-1-.74-1.89-1.52-2.79-2.32a37.11,37.11,0,0,1,12.39-30.57,7.25,7.25,0,0,1,1.09,1.26.53.53,0,0,0-.12.1A41.92,41.92,0,0,0,365,387.4c0,.7,1.11.7,1.08,0a40.82,40.82,0,0,1,9.37-27.47,6.7,6.7,0,0,1,.56,1.83.49.49,0,0,0-.33.24,47.19,47.19,0,0,0-7.55,28.67C367.47,390.76,366.8,390.84,366.13,390.9ZM384.54,366a19,19,0,0,1,2,1.27,28,28,0,0,1-7.56,9.57.42.42,0,0,0-.34.27,27.64,27.64,0,0,1-9.09,4.72c.07-.55.15-1.11.24-1.66h0A31.43,31.43,0,0,0,384.54,366Zm-2.88,2.7a8.26,8.26,0,0,0-1.66-4.45,18.32,18.32,0,0,1,3.58,1.25A31.87,31.87,0,0,1,381.66,368.68Zm6.66.4a11,11,0,0,1-.74,10.55,7.94,7.94,0,0,1-1.64-1.28,7.52,7.52,0,0,0,.81-8.72.47.47,0,0,0-.16-.18c.28-.49.54-1,.79-1.5.32.27.61.55.9.83A.52.52,0,0,0,388.32,369.08Zm-3.09,8.43a8.18,8.18,0,0,1-1.44-3.52.48.48,0,0,0-.15-.28,29.75,29.75,0,0,0,2.33-3.23A6.37,6.37,0,0,1,385.23,377.51ZM373,376.93a.78.78,0,0,0,.1.15,33.84,33.84,0,0,1-3,1.76c.21-1.09.48-2.15.77-3.22A2.09,2.09,0,0,1,373,376.93Zm-1.87-2.4q.69-2.26,1.6-4.47A5.44,5.44,0,0,1,377,374a.43.43,0,0,0,0,.07,28.17,28.17,0,0,1-3.09,2.45A3.17,3.17,0,0,0,371.08,374.53Zm6.8-1.31a6.5,6.5,0,0,0-4.77-4.18c.29-.66.61-1.32.93-2l0,0a6.19,6.19,0,0,1,4.84,5Q378.42,372.7,377.88,373.22Zm-8.67,17.27c-.09-1.48-.09-2.95,0-4.41a8.09,8.09,0,0,0,4.28,3.46A40.6,40.6,0,0,1,369.21,390.49Zm5.68-1.37a.48.48,0,0,0-.37-.39,7.09,7.09,0,0,1-4.91-4.16.43.43,0,0,0-.33-.27c0-.47.07-.95.12-1.42a.46.46,0,0,0,.31,0,28.39,28.39,0,0,0,4.88-1.95,8.13,8.13,0,0,0,4,6.86C377.38,388.29,376.15,388.73,374.89,389.12Zm5-1.85a.52.52,0,0,0-.17-.12,7.05,7.05,0,0,1-4-6.8,28.21,28.21,0,0,0,3.06-2,8.27,8.27,0,0,0,6,6.43A49.17,49.17,0,0,1,379.85,387.27Zm6.12-3.22a.46.46,0,0,0-.28-.17,7.26,7.26,0,0,1-6-6.28c.44-.35.86-.72,1.27-1.1,1.33,3,3.11,6,6.49,6.56C387,383.4,386.48,383.73,386,384.05Zm2.53-1.7a.53.53,0,0,0-.44-.29c-3.4-.28-5-3.56-6.25-6.35.34-.34.68-.7,1-1.06a8.88,8.88,0,0,0,6.73,6.93Zm3.41-7.66a7.61,7.61,0,0,1-1.54,5.95,8.31,8.31,0,0,1-1.82-.52,12,12,0,0,0,1.52-9.23,23.29,23.29,0,0,1,2,3.35A.57.57,0,0,0,391.91,374.69Zm.49,4.6a8.44,8.44,0,0,0,.65-2.75c.22.53.43,1.06.64,1.61C393.27,378.54,392.84,378.91,392.4,379.29Zm2.13-2c-1.62-4.18-3.54-8-7.21-10.83a18.68,18.68,0,0,0-6.76-3.23s0,0,0,0a7.91,7.91,0,0,0,0-2.75,20.11,20.11,0,0,1,16.1,14.19.6.6,0,0,0,.19.27C396.08,375.77,395.32,376.57,394.53,377.34Zm5-5.85s0,.06.06.09c-.66.86-1.33,1.71-2,2.52a21.17,21.17,0,0,0-17.24-14.75.25.25,0,0,0-.12,0,6.32,6.32,0,0,0-.25-.6A20,20,0,0,1,399.57,371.49Zm-19-1.3h0c-.25.32-.49.63-.75.93a7.22,7.22,0,0,0-5.25-5c.42-.8.87-1.6,1.35-2.38a18.62,18.62,0,0,1,2.36.19A7.3,7.3,0,0,1,380.54,370.19Z" style="fill:#263238"></path><path d="M404.31,392.21a.5.5,0,0,0-.1-.14c.26-.5-.42-1.12-.85-.64a49,49,0,0,1-42.15,16.15c-.7-.08-.69,1,0,1.08.38,0,.77.08,1.16.11a9.67,9.67,0,0,0,3.2,6.6c.52.47,1.29-.29.77-.76a8.52,8.52,0,0,1-2.87-5.76c.95.06,1.91.1,2.86.1a17.35,17.35,0,0,0,4.12,8.14c.46.52,1.23-.25.76-.77a16.13,16.13,0,0,1-3.76-7.36c.61,0,1.23,0,1.84-.06a14.93,14.93,0,0,0,4.62,8.62c.51.48,1.28-.29.77-.77a13.88,13.88,0,0,1-4.3-7.92l1-.08a21.58,21.58,0,0,0,5.19,9.17c.48.51,1.25-.26.77-.77a20.31,20.31,0,0,1-4.86-8.52c.71-.08,1.42-.17,2.12-.28a.55.55,0,0,0,0,.3,19.86,19.86,0,0,0,8,9.12c.6.36,1.14-.58.55-.94a18.94,18.94,0,0,1-7.52-8.65c.65-.11,1.3-.24,1.94-.39a.49.49,0,0,0,.14.31,19.34,19.34,0,0,0,14.52,6.21.54.54,0,0,0,0-1.08,18.25,18.25,0,0,1-13.56-5.7c1-.23,1.91-.5,2.85-.79a22.84,22.84,0,0,0,12.9,5.54.57.57,0,0,0,1,.29,15.27,15.27,0,0,0,1.84-13.35.5.5,0,0,0-.4-.35c.63-.48,1.25-1,1.86-1.48a12.23,12.23,0,0,1-.58,13.63c-.4.58.54,1.12.94.55a13.3,13.3,0,0,0,.47-14.9c.67-.58,1.32-1.18,2-1.79a14.43,14.43,0,0,1,1.3,11.19.54.54,0,0,0,1,.29,15.51,15.51,0,0,0-1.54-12.27c.38-.38.75-.77,1.12-1.16a17.58,17.58,0,0,1,1.81,9.49c0,.7,1,.69,1.09,0A18.73,18.73,0,0,0,404.31,392.21Zm-15.92,17.5a21.65,21.65,0,0,1-5.65-3.36,50.69,50.69,0,0,0,6.55-2.75,10.62,10.62,0,0,1-.9,6.11Zm1,.38a11.89,11.89,0,0,0,.93-6.91l0-.09c.83-.44,1.65-.92,2.45-1.41a16.53,16.53,0,0,1-.89,9.1A24.6,24.6,0,0,1,389.4,410.09Zm5.48,1.34a.53.53,0,0,0-.4-.23c-.52-.05-1-.13-1.56-.21a17.52,17.52,0,0,0,.86-9.64.53.53,0,0,0-.11-.24c.86-.55,1.72-1.14,2.55-1.75a.39.39,0,0,0,0,.15A14.12,14.12,0,0,1,394.88,411.43Z" style="fill:#263238"></path><path d="M381.09,398.15c-9.28,4.32-19.58,3.52-29.49,2.63-.7-.06-.69,1,0,1.08,10.15.92,20.56,1.65,30-2.78C382.27,398.79,381.72,397.85,381.09,398.15Z" style="fill:#263238"></path><path d="M351.39,392.48l-4.12-.46c-.7-.07-.69,1,0,1.09l4.12.46C352.08,393.65,352.08,392.56,351.39,392.48Z" style="fill:#263238"></path><path d="M407.09,376.22a35.52,35.52,0,0,1-19.33,18.61c-.64.26-.36,1.31.29,1.05a36.59,36.59,0,0,0,20-19.11C408.31,376.13,407.37,375.58,407.09,376.22Z" style="fill:#263238"></path><path d="M403.65,371.18a65.08,65.08,0,0,1-24.59,19.58c-.63.29-.08,1.22.55.93a66,66,0,0,0,25-20C405,371.17,404.07,370.63,403.65,371.18Z" style="fill:#263238"></path><path d="M377.24,391.43a.55.55,0,0,0,0,1.09A.55.55,0,0,0,377.24,391.43Z" style="fill:#263238"></path><path d="M378.27,395.71a52.38,52.38,0,0,1-28.94,1.11.54.54,0,0,0-.29,1.05,53.51,53.51,0,0,0,29.52-1.11C379.22,396.54,378.94,395.5,378.27,395.71Z" style="fill:#263238"></path><path d="M383.75,397.09a.54.54,0,0,0,0,1.08A.54.54,0,0,0,383.75,397.09Z" style="fill:#263238"></path><path d="M408.35,387.7a8.41,8.41,0,0,0,.5-1.1c.24-.66-.81-.94-1.05-.29a7.75,7.75,0,0,1-2.86,3.72c-.57.4,0,1.34.55.94l.33-.25A13.53,13.53,0,0,1,407,397.8c-.07.69,1,.68,1.09,0a14.53,14.53,0,0,0-1.38-7.82,8.12,8.12,0,0,0,1-1.14,11.25,11.25,0,0,1,.54,2.7c.06.69,1.14.7,1.09,0A12.39,12.39,0,0,0,408.35,387.7Z" style="fill:#263238"></path><path d="M359.23,407.34l-2.79-.41a.55.55,0,0,0-.49.17,3.62,3.62,0,0,0-2.27-2.23c-.67-.22-.95.83-.29,1.05a2.51,2.51,0,0,1,1.69,2.11c.07.69,1.15.69,1.09,0a.09.09,0,0,1,0,0l2.79.41C359.63,408.49,359.92,407.45,359.23,407.34Z" style="fill:#263238"></path></g><g id="freepik--Sofa--inject-9"><polygon points="123.47 228.75 86.65 228.75 65.57 123.69 99.28 108.2 123.47 228.75" style="fill:#37474f"></polygon><polygon points="228.85 228.75 123.47 228.75 99.28 108.2 204.67 108.2 228.85 228.75" style="fill:#455a64"></polygon><rect x="48.13" y="172.39" width="56.43" height="115.78" style="fill:#37474f"></rect><polygon points="255.93 288.17 240.52 288.17 217.54 172.38 255.93 172.38 255.93 288.17" style="fill:#37474f"></polygon><rect x="104.56" y="172.39" width="31.01" height="115.78" style="fill:#455a64"></rect><rect x="255.93" y="172.39" width="31.01" height="115.78" style="fill:#455a64"></rect><rect x="135.57" y="228.75" width="120.37" height="59.42" style="fill:#455a64"></rect><rect x="135.57" y="203.07" width="120.37" height="25.93" style="fill:#455a64"></rect><path d="M112.16,172.39l11.7-.21,11.71-.15h.35v.36l.13,13.55,0,13.55c0,9,.07,18.06,0,27.09s0,18.07-.15,27.1-.2,18.07-.39,27.1q-.28-13.54-.4-27.1c-.11-9-.12-18.06-.15-27.1s0-18.06,0-27.09l.05-13.55.13-13.55.36.35-11.71-.15Z" style="fill:#263238"></path><path d="M255.93,172.39c.24,9.06.36,18.13.45,27.2l.14,27.2-.14,27.2-.16,13.6-.29,13.6-.28-13.6-.17-13.6-.13-27.2.14-27.2C255.58,190.52,255.69,181.45,255.93,172.39Z" style="fill:#263238"></path><path d="M255.93,228.75c-10,.24-20.06.36-30.09.45l-30.09.14-30.09-.14-15-.16-15-.29,15-.28,15-.17,30.09-.13,30.09.14C235.87,228.4,245.9,228.51,255.93,228.75Z" style="fill:#263238"></path><path d="M255.93,203.07c-10,.24-20.06.35-30.09.44l-30.09.14-30.09-.13-15-.17-15-.28,15-.29,15-.16,30.09-.14,30.09.14C235.87,202.71,245.9,202.83,255.93,203.07Z" style="fill:#263238"></path><polygon points="69.58 288.17 68.81 297.55 67.03 319.22 58.86 319.22 57.08 297.55 56.32 288.17 69.58 288.17" style="fill:#c7c7c7"></polygon><polygon points="56.32 288.17 69.58 288.17 68.81 297.55 57.08 297.55 56.32 288.17" style="fill:#a6a6a6"></polygon><polygon points="126.69 288.17 125.93 297.55 124.15 319.22 115.98 319.22 114.2 297.55 113.43 288.17 126.69 288.17" style="fill:#c7c7c7"></polygon><polygon points="113.43 288.17 126.69 288.17 125.93 297.55 114.2 297.55 113.43 288.17" style="fill:#a6a6a6"></polygon><polygon points="221.43 288.17 220.67 297.55 218.89 319.22 210.72 319.22 208.94 297.55 208.17 288.17 221.43 288.17" style="fill:#c7c7c7"></polygon><polygon points="208.17 288.17 221.43 288.17 220.67 297.55 208.94 297.55 208.17 288.17" style="fill:#a6a6a6"></polygon><polygon points="278.56 288.17 277.8 297.55 276.02 319.22 267.85 319.22 266.07 297.55 265.3 288.17 278.56 288.17" style="fill:#c7c7c7"></polygon><polygon points="278.56 288.17 277.8 297.55 266.07 297.55 265.3 288.17 278.56 288.17" style="fill:#a6a6a6"></polygon></g><g id="freepik--Floor--inject-9"><polygon points="30.62 319.22 85.47 318.98 140.31 318.89 250 318.72 359.69 318.89 414.53 318.98 469.38 319.22 414.53 319.47 359.69 319.55 250 319.72 140.31 319.55 85.47 319.46 30.62 319.22" style="fill:#263238"></polygon></g><g id="freepik--Plant--inject-9"><path d="M458.54,221.84c-13.32,18-27.21,39-30.59,61.59,0,.35.51.46.59.12a133,133,0,0,1,5.89-18.11c8.75-2.41,17.35-4.39,21.95-13.08,4.69-8.94,4.09-20.59,3.2-30.32C459.52,221.52,458.81,221.49,458.54,221.84Z" style="fill:#FFC727"></path><path d="M434.56,265.27c6-13.43,13.67-26.91,23.43-37.95.06-.08.17,0,.11.11-6.4,7.86-11.25,16.42-16,25.14,4.41-4.48,9.25-8.49,13.42-13.24.08-.09.21,0,.14.14-4.15,5-8.68,10.38-14.08,14.07q-2.19,4-4.4,8l1.11-.57c.07,0,.13.07.06.1-.41.21-.82.43-1.25.61-.7,1.27-1.39,2.54-2.11,3.81C434.83,265.8,434.43,265.55,434.56,265.27Z" style="fill:#263238"></path><path d="M439,260.58a78.43,78.43,0,0,0,10.23-6.82c.08-.07.21.05.12.12a54,54,0,0,1-10.2,6.95A.15.15,0,0,1,439,260.58Z" style="fill:#263238"></path><path d="M426.41,280.07a.25.25,0,0,0,.49,0c.07-7.45,0-14.93.12-22.42,1.9-3.85,6-6,8.85-9.07a39.7,39.7,0,0,0,5.31-7.39,53.33,53.33,0,0,0,6.17-20.55c.78-8-2.24-34.27-5.6-33.35-1.74.47-7.38,13.49-8.87,17.8a123.91,123.91,0,0,0-5.31,21.83C424.85,244.43,425.08,262.43,426.41,280.07Z" style="fill:#FFC727"></path><path d="M426.36,247.94l0,0c.41-9.43,2.53-18.95,4.52-28.09,2.14-9.85,4.64-19.12,9.71-27.91a.15.15,0,0,1,.25.15,104.34,104.34,0,0,0-7.8,21.42c.34-.53.75-1,1.11-1.53.14-.2.46,0,.32.19a13.42,13.42,0,0,1-1.58,2.23.09.09,0,0,1-.07,0c-1.74,7-3,14.24-4.06,21.43l.23-.28a.07.07,0,0,1,.11.08c-.13.24-.28.48-.42.72-.54,3.64-1,7.28-1.55,10.89,6.5-5.55,12-12.09,15.17-20.15,0,0,.07,0,.06,0-3.07,8.36-7.9,15.79-15.33,20.86-.14,1-.27,1.94-.41,2.91,0,.2-.35.14-.35,0,0-.86.05-1.72.08-2.58C426.29,248.17,426.24,248,426.36,247.94Z" style="fill:#263238"></path><path d="M429.41,234.28c5-7.4,9.6-14.59,13.23-22.78,0-.09.2,0,.16.07-3.06,8.13-7.34,16.37-13.14,22.9C429.55,234.6,429.31,234.43,429.41,234.28Z" style="fill:#263238"></path><path d="M436,209.67c2.05-3.63,4.22-7.17,6.15-10.88.06-.1.2,0,.16.09a57,57,0,0,1-6,11A.18.18,0,0,1,436,209.67Z" style="fill:#263238"></path><path d="M435.2,211.25a0,0,0,1,1,0,.07S435.16,211.25,435.2,211.25Z" style="fill:#263238"></path><path d="M421.37,258.53a76.25,76.25,0,0,1-1.74,14.68c.07.53.15,1.06.23,1.6a70,70,0,0,0,2.62-16.36.49.49,0,0,0,0-.5v0a108.54,108.54,0,0,0-1.65-22.17c-2.31-13.69-7.35-26.82-16.89-37.09a.69.69,0,0,0-1.06.22c-3.85,9.8-2.51,21.49.77,31.26A57.22,57.22,0,0,0,411.26,245C414.53,249.6,418.71,253.5,421.37,258.53Z" style="fill:#FFC727"></path><path d="M405.1,203.26c9,14.68,15.34,32.1,16.11,49.44,0,.31-.5.39-.55.08-.21-1.56-.45-3.1-.7-4.64h0c-3.75-3.58-7.59-7.37-10.27-11.85-.05-.08.07-.17.13-.1a123.47,123.47,0,0,0,10,10.86c-.65-3.84-1.41-7.61-2.32-11.33-.25-.28-.48-.56-.72-.84s.1-.46.27-.27l.22.24a130.88,130.88,0,0,0-4.74-15c-2.3-2.75-4.87-5.12-6.55-8.43a.07.07,0,0,1,.12-.07c1.35,1.89,2.65,3.79,4.18,5.55.61.7,1.28,1.35,1.91,2a115.41,115.41,0,0,0-7.4-15.45A.2.2,0,0,1,405.1,203.26Z" style="fill:#263238"></path><path d="M406.92,221.38c2.93,3.93,6.26,7.69,9,11.76.08.11-.09.23-.19.14-3.49-3.28-6.45-7.75-9-11.79C406.65,221.36,406.84,221.26,406.92,221.38Z" style="fill:#263238"></path><path d="M416.31,234.05l.13.12a.1.1,0,0,1-.14.14l-.12-.13A.09.09,0,1,1,416.31,234.05Z" style="fill:#263238"></path><path d="M390.92,231.49c.73,7.56,4.7,16.58,9.55,22.4a23.66,23.66,0,0,0,7.74,6.05c3.35,1.66,6.87,3.57,10.33,4.93a66.87,66.87,0,0,1,3.66,13c.12-.38.23-.78.34-1.16-2.23-19.13-14.61-35.48-30.44-46A.77.77,0,0,0,390.92,231.49Z" style="fill:#FFC727"></path><path d="M396.39,237.14c-.11-.1,0-.3.16-.21a64.87,64.87,0,0,1,20.18,24.87c.11.26-.25.49-.4.23q-1.09-1.93-2.25-3.78h0c-3.61-.68-7-3.22-9.72-5.63a.08.08,0,0,1,.11-.11,22.39,22.39,0,0,0,4.57,3.21c1.48.75,3.06,1.22,4.6,1.82-1.34-2.13-2.74-4.16-4.2-6.14a42.38,42.38,0,0,1-10.86-6.11c-.1-.07,0-.24.1-.17a107.71,107.71,0,0,0,10.1,5.39,90,90,0,0,0-7.13-8.31c-1.23-.64-2.47-1.3-3.66-2a.1.1,0,0,1,.07-.19,13.42,13.42,0,0,1,2.82,1.39C399.44,240,398,238.53,396.39,237.14Z" style="fill:#263238"></path><path d="M396.73,243.75a5,5,0,0,1,.6.43c.06,0,0,.13-.07.1a4.53,4.53,0,0,1-.64-.36A.1.1,0,0,1,396.73,243.75Z" style="fill:#263238"></path><polygon points="447.25 319.29 403.86 319.29 407.36 279.78 408.13 271.07 442.98 271.07 443.75 279.78 447.25 319.29" style="fill:#455a64"></polygon><polygon points="443.75 279.78 407.36 279.78 408.13 271.07 442.98 271.07 443.75 279.78" style="fill:#263238"></polygon><rect x="406.06" y="264.97" width="39" height="8.62" style="fill:#455a64"></rect></g><g id="freepik--Dog--inject-9"><path d="M268.39,358.33c3.7,5.31,12.29,35.36,14.79,36.87s12.55,5.52,14.3,7.77,3.51,5.77,1.76,6.77-31.1.26-36.12,0-26.8-14.79-29.34-18.56-33.86-33.1-31.1-40.63S253.34,336.76,268.39,358.33Z" style="fill:#FFC727"></path><path d="M268.39,358.33c3.7,5.31,12.29,35.36,14.79,36.87s12.55,5.52,14.3,7.77,3.51,5.77,1.76,6.77-31.1.26-36.12,0-26.8-14.79-29.34-18.56-33.86-33.1-31.1-40.63S253.34,336.76,268.39,358.33Z" style="opacity:0.1"></path><path d="M277.06,380.56c-7.09,3.42-14.41,7-14.41,7l-15.34,14.08c-6.32-4.12-12.27-8.6-13.53-10.46-2.54-3.77-33.87-33.11-31.1-40.64s50.66-13.79,65.7,7.78C270.42,361.24,273.91,371.57,277.06,380.56Z" style="opacity:0.1"></path><path d="M293,405.72a10,10,0,0,0-2.24-1.42,19.51,19.51,0,0,0-2.6-.91.09.09,0,1,0,0,.17,11.49,11.49,0,0,1,4.22,2.86,15.48,15.48,0,0,1,3,3.76c.08.15.3,0,.27-.1A8.1,8.1,0,0,0,293,405.72Z" style="fill:#263238"></path><path d="M297.38,404.19a10.33,10.33,0,0,0-2.24-1.41,19.51,19.51,0,0,0-2.6-.91.09.09,0,1,0-.05.17,11.39,11.39,0,0,1,4.21,2.85,15.39,15.39,0,0,1,3,3.77c.08.15.3,0,.27-.11A8.1,8.1,0,0,0,297.38,404.19Z" style="fill:#263238"></path><path d="M219.77,374.82c-5.14-5.2-11-9.64-16.29-14.65a49.93,49.93,0,0,1-8.23-9.31c-.07-.11-.24,0-.17.1a75.11,75.11,0,0,0,6.27,8.69A93,93,0,0,0,209,367.5c5.23,4.88,10.86,9.4,15.52,14.86a45.43,45.43,0,0,1,6.74,9.86c0,.11.23,0,.19-.08C229,385.46,224.75,379.85,219.77,374.82Z" style="fill:#263238"></path><path d="M244.47,399.57c-3.56-1.85-6.08-4.85-8.68-7.82-1.26-1.45-2.48-2.95-3.79-4.35-1.67-1.77-3.39-3.46-4.91-5.36-.08-.1-.24,0-.16.11,2.8,3.5,4.93,7.47,7.95,10.81a25.86,25.86,0,0,0,9.5,6.78A.1.1,0,0,0,244.47,399.57Z" style="fill:#263238"></path><path d="M187.19,310.31c4.51,10.93-12,41.12-17.81,46.39S145.31,375,144.05,377.52s.58,18.66,2.09,20.41,7.43,3.08,9.06,4.62c1.41,1.34,3.81,4.41,1.93,6.28s-25.86,1-28.12,0-15.81-33.57-15.81-39.59-5.42-59.45,13.55-67.73S180.67,294.51,187.19,310.31Z" style="fill:#FFC727"></path><path d="M187.19,310.31c4.51,10.93-12,41.12-17.81,46.39S145.31,375,144.05,377.52s.58,18.66,2.09,20.41,7.43,3.08,9.06,4.62c1.41,1.34,3.81,4.41,1.93,6.28s-25.86,1-28.12,0-15.81-33.57-15.81-39.59-5.42-59.45,13.55-67.73S180.67,294.51,187.19,310.31Z" style="opacity:0.1"></path><path d="M180.46,338.34a78.41,78.41,0,0,1-4,7.33c-.71,1.15-1.44,2.27-2.2,3.39s-1.7,2.22-2.59,3.32a63.75,63.75,0,0,1-6.08,6.11c-1.11,1.06-2.25,2.09-3.33,3.17s-2.29,2.41-3.54,3.47c-.1.08.05.21.14.13,1.32-1.12,2.83-2.07,4.23-3.08s2.59-1.94,3.87-2.93a37.06,37.06,0,0,0,6.37-5.88c3.52-4.43,5.27-9.79,7.26-15C180.66,338.32,180.51,338.26,180.46,338.34Z" style="fill:#263238"></path><path d="M198.07,308.19c-7.54,9.42-12.85,20.47-16.54,31.91-.51,1.6-1,3.21-1.48,4.83s-.8,3.46-1.39,5.13c0,.12.15.17.19.05.5-1.49,1.22-2.89,1.83-4.33s1.13-2.76,1.69-4.14q1.71-4.15,3.4-8.32c2.24-5.54,4.58-11.06,7.3-16.39a87.2,87.2,0,0,1,5.17-8.61C198.31,308.22,198.14,308.09,198.07,308.19Z" style="fill:#263238"></path><path d="M150.79,405.72a10,10,0,0,0-2.24-1.42,19.51,19.51,0,0,0-2.6-.91.09.09,0,1,0,0,.17,11.49,11.49,0,0,1,4.22,2.86,15.77,15.77,0,0,1,3,3.76c.07.15.3,0,.26-.1A8,8,0,0,0,150.79,405.72Z" style="fill:#263238"></path><path d="M155.18,404.19a10.33,10.33,0,0,0-2.24-1.41,19.51,19.51,0,0,0-2.6-.91c-.12,0-.16.13-.05.17a11.43,11.43,0,0,1,4.22,2.85,15.58,15.58,0,0,1,3,3.77c.08.15.3,0,.27-.11A8.1,8.1,0,0,0,155.18,404.19Z" style="fill:#263238"></path><path d="M169.38,356.7C163.61,362,145.3,375,144.05,377.53s.58,18.65,2.09,20.4,7.44,3.08,9.06,4.63c1.08,1,2.74,3.06,2.61,4.81-5.15-.78-10.33-1.93-12.11-3.56-8.42-7.71-18-15.27-19.56-15.27-1,0-4,.13-6.73.27-3.32-8.36-6.21-16.8-6.21-19.56,0-6-5.42-59.45,13.55-67.73s53.92-7,60.44,8.79C191.71,321.24,175.15,351.42,169.38,356.7Z" style="opacity:0.1"></path><path d="M290.54,296s-24.18-62.68-34.93-67.88-24.17,63.79-17.73,73.95,32.84,16.24,34.76,15.87S291.31,304.53,290.54,296Z" style="fill:#FFC727"></path><g style="opacity:0.1"><path d="M290.54,296s-24.18-62.68-34.93-67.88-24.17,63.79-17.73,73.95,32.84,16.24,34.76,15.87S291.31,304.53,290.54,296Z"></path></g><path d="M272.64,318c-1.91.36-28.31-5.71-34.76-15.87-2.71-4.28-1.9-19,.75-34.18,7.09-.42,26.42-1.55,27.68-1,.93.43,11.16,9.39,19.15,16.48,3.09,7.46,5.08,12.6,5.08,12.6C291.32,304.53,274.56,317.59,272.64,318Z" style="opacity:0.1"></path><path d="M128.21,254.93c2.29-3.15-2.65-8.59-8.54-8.83s-17.78,10.63-16.41,12.31S123.7,261.15,128.21,254.93Z" style="fill:#FFC727"></path><path d="M271.89,373.18C266.54,372.38,245,406,234,410.07s-74.62-.78-84.25-7.16-30.76-35.2-36.41-43.41S85.76,338,82,326.22s4.44-44.93,10.76-54.06,27.91-23.88,42.14-20.27,60,40,69.91,35.3c9.52-4.52,38.12-22.75,56.45-15.15s38.53,30.83,39.24,44.79-3.35,24-2.22,24.93c1.36,1.15,24.2,9.64,27.52,11.22,2.8,1.32-5.43,14.72-16.36,19.36C300.49,376.16,278.6,374.19,271.89,373.18Z" style="fill:#FFC727"></path><path d="M124.36,252.09a41,41,0,0,0-9.14,2.54,42.54,42.54,0,0,0-4.14,2.13c-1.44.84-2.73,1.87-4.12,2.76-.11.07,0,.24.1.17a39.09,39.09,0,0,1,4.21-2.07q2.19-1,4.43-1.92c2.87-1.17,5.74-2.54,8.71-3.45C124.51,252.22,124.46,252.07,124.36,252.09Z" style="fill:#263238"></path><path d="M82,326.22C85.76,338,107.65,351.3,113.3,359.5s26.77,37,36.4,43.41,73.2,11.22,84.25,7.16,32.59-37.68,37.94-36.89c6.71,1,28.59,3,37.58-.84,10.93-4.65,19.16-18,16.36-19.36-3.33-1.58-26.17-10.07-27.52-11.22-1.13-1,2.93-11,2.22-24.93-.19-3.84-2.18-8.41-4.89-13.66-3.53-1.57-5.67,3.77-5.11,8.63s2.38,8.84,2.59,16.57-2.56,18.31-7.12,21c-9.7,5.79-21-7.18-26.59-5.59S246.93,351.58,246.8,355s2.37,10.36,2.19,10.84-9.23,11.34-13.2,14.18-11.1,5.07-11.1,5.07a36.66,36.66,0,0,0,9.92-1.64c-.84.43-14.71,9.46-20.48,9.67-5.95.22-43.33,2.28-55.2.07S126.4,349.81,109,344.6s-18.87-23.06-18.62-29.84S107.2,293.42,106.35,283c-.6-7.41-7.83-10-14-10.06C86.06,283,78.4,314.75,82,326.22Z" style="fill:#fff"></path><path d="M82,326.22c1.26,3.73,3.76,6.88,6.36,9.77a108.46,108.46,0,0,0,8.49,8.12l8.91,7.65c1.47,1.3,2.93,2.61,4.32,4a27.52,27.52,0,0,1,3.77,4.5q6.77,9.6,14,18.84A231.6,231.6,0,0,0,143.14,397c1.37,1.4,2.77,2.76,4.26,4a26.43,26.43,0,0,0,2.32,1.78,12.87,12.87,0,0,0,2.61,1.27,72.38,72.38,0,0,0,11.37,2.82c7.7,1.38,15.49,2.29,23.28,3s15.62,1.2,23.44,1.41c3.91.1,7.83.13,11.74,0,2-.06,3.9-.16,5.85-.34a27.88,27.88,0,0,0,5.71-1,17.84,17.84,0,0,0,4.92-3A55.54,55.54,0,0,0,243,403c2.76-2.76,5.36-5.69,7.92-8.65s5.05-6,7.58-9,5.06-6,7.84-8.78a27.75,27.75,0,0,1,2.18-2,8.08,8.08,0,0,1,2.59-1.58,2.16,2.16,0,0,1,.85-.08l.72.1,1.46.19,2.91.31c3.89.38,7.79.64,11.7.74a101.41,101.41,0,0,0,11.7-.31c3.87-.38,7.77-1,11.13-3a34.92,34.92,0,0,0,9-7.32A34.09,34.09,0,0,0,324,359a20,20,0,0,0,1.36-2.54,5.63,5.63,0,0,0,.61-2.63c-.07-.42-.21-.48-.74-.71l-1.35-.56-2.72-1.09-5.47-2.14L304.77,345c-1.82-.73-3.64-1.46-5.44-2.28l-.67-.32a2.16,2.16,0,0,1-.76-.55,1.79,1.79,0,0,1-.2-.94c0-.27,0-.52.06-.77.12-1,.32-2,.5-2.93a96.61,96.61,0,0,0,1.7-11.57q.24-2.91.22-5.83c0-1,0-2-.08-2.92a15.87,15.87,0,0,0-.42-2.82,50.23,50.23,0,0,0-4.44-10.73l.22.21a2.31,2.31,0,0,0-1.78-.1,3.24,3.24,0,0,0-1.4,1.26,9.26,9.26,0,0,0-1.28,3.93,14.68,14.68,0,0,0,.16,4.23c.23,1.42.55,2.84.88,4.26a45.78,45.78,0,0,1,1.17,17.56,37.55,37.55,0,0,1-2.25,8.58,20.11,20.11,0,0,1-2.11,4,10.64,10.64,0,0,1-1.51,1.72,8.1,8.1,0,0,1-1.93,1.28,11.12,11.12,0,0,1-4.42,1.09,15.23,15.23,0,0,1-4.47-.56,41.36,41.36,0,0,1-8.12-3.52c-1.29-.68-2.58-1.37-3.88-2a11,11,0,0,0-4-1.18,3,3,0,0,0-1,.11c-.34.09-.68.2-1,.32a17.84,17.84,0,0,0-1.95.87,25.39,25.39,0,0,0-6.84,5.16,11.19,11.19,0,0,0-2.34,3.47,3.49,3.49,0,0,0-.19.94,7.45,7.45,0,0,0,0,1.05,19.7,19.7,0,0,0,.31,2.12c.27,1.41.64,2.82,1,4.23l.58,2.12a7.71,7.71,0,0,1,.24,1.15v.12a1.27,1.27,0,0,1,0,.18l-.1.17a2.89,2.89,0,0,1-.19.27l-.34.44c-.92,1.15-1.87,2.27-2.82,3.38-1.92,2.21-3.88,4.39-5.93,6.49a44,44,0,0,1-3.24,3A20.92,20.92,0,0,1,233,382.1a57.78,57.78,0,0,1-8.17,3.32l-.12-.73a37.66,37.66,0,0,0,5-.47,30.8,30.8,0,0,0,4.85-1.14l3-1-2.7,1.65a133.56,133.56,0,0,1-13.22,7.34c-1.15.53-2.32,1-3.52,1.45a14.41,14.41,0,0,1-3.76.88l-7.55.33c-10.07.42-20.15.76-30.23.72-5,0-10.09-.13-15.12-.67-.63-.09-1.26-.16-1.89-.27a9.08,9.08,0,0,1-1.88-.47,13.92,13.92,0,0,1-3.32-1.93,43.2,43.2,0,0,1-5.54-5.19c-3.42-3.72-6.53-7.7-9.64-11.66s-6.19-7.94-9.41-11.82a110.44,110.44,0,0,0-10.26-11,40.45,40.45,0,0,0-6-4.57,22.31,22.31,0,0,0-3.35-1.68c-1.15-.44-2.4-.75-3.56-1.26a23.88,23.88,0,0,1-11.5-9.56A33.11,33.11,0,0,1,90.46,320c-.13-1.25-.19-2.52-.2-3.78a15.09,15.09,0,0,1,.07-1.9,7.85,7.85,0,0,1,.49-1.86,35.52,35.52,0,0,1,3.8-6.54c2.87-4.15,6-8.14,8.44-12.52A26.71,26.71,0,0,0,106,286.5a9.93,9.93,0,0,0-6.3-12.1A20.27,20.27,0,0,0,92.3,273l.06,0A63.52,63.52,0,0,0,87,285.61c-1.39,4.38-2.55,8.83-3.52,13.32a120.16,120.16,0,0,0-2.13,13.6,66,66,0,0,0-.28,6.88A26.12,26.12,0,0,0,82,326.22Zm0,0a25.71,25.71,0,0,1-.93-6.81,63.2,63.2,0,0,1,.26-6.88,118.21,118.21,0,0,1,2.1-13.62c1-4.49,2.1-9,3.48-13.33a63.14,63.14,0,0,1,5.31-12.71v0h0a20.67,20.67,0,0,1,7.41,1.42,10.82,10.82,0,0,1,5.65,4.86,10.7,10.7,0,0,1,.77,7.42,26.31,26.31,0,0,1-2.88,7c-2.49,4.4-5.57,8.41-8.42,12.56a34.32,34.32,0,0,0-3.76,6.5,7.53,7.53,0,0,0-.48,1.79,16.46,16.46,0,0,0-.06,1.87c0,1.25.08,2.51.21,3.75a32.65,32.65,0,0,0,4.6,14.19,23.52,23.52,0,0,0,11.36,9.4c1.16.5,2.37.79,3.56,1.26a21.21,21.21,0,0,1,3.41,1.69,39.7,39.7,0,0,1,6,4.6A107.91,107.91,0,0,1,130,362.18c3.23,3.87,6.33,7.85,9.44,11.81s6.24,7.91,9.65,11.6a42.65,42.65,0,0,0,5.48,5.11,13.52,13.52,0,0,0,3.2,1.85,17.25,17.25,0,0,0,3.64.7c5,.53,10,.6,15.06.63,10.07,0,20.14-.34,30.2-.79l7.54-.34a13.77,13.77,0,0,0,3.57-.86,36,36,0,0,0,3.46-1.43,136.63,136.63,0,0,0,13.18-7.36l.28.66a31.41,31.41,0,0,1-5,1.19,39,39,0,0,1-5.07.49l-2.45.06,2.33-.79c5.48-1.87,11-4,14.84-8.55,2-2.08,4-4.25,5.88-6.46.95-1.11,1.89-2.22,2.79-3.36l.33-.42.13-.18,0-.06s0,0,0,.05,0,0,0,0a8.08,8.08,0,0,0-.21-1l-.58-2.1c-.39-1.42-.76-2.84-1-4.29-.14-.73-.26-1.46-.33-2.21a8.79,8.79,0,0,1,0-1.15,3.88,3.88,0,0,1,.24-1.19,11.81,11.81,0,0,1,2.5-3.78,26.43,26.43,0,0,1,7.07-5.36,19.68,19.68,0,0,1,2.05-.91c.36-.13.71-.25,1.08-.35a3.86,3.86,0,0,1,1.21-.15,11.58,11.58,0,0,1,4.36,1.25c1.35.62,2.64,1.31,3.94,2a39.9,39.9,0,0,0,7.94,3.42,11.39,11.39,0,0,0,8.21-.49,7.56,7.56,0,0,0,3.08-2.7,19,19,0,0,0,2-3.76,36.92,36.92,0,0,0,2.17-8.35,44.68,44.68,0,0,0-1.11-17.21c-.32-1.42-.65-2.86-.88-4.32a15.33,15.33,0,0,1-.15-4.49,10.18,10.18,0,0,1,1.43-4.33,4.07,4.07,0,0,1,1.84-1.6,3.18,3.18,0,0,1,2.48.12l.15.06.07.14a51.66,51.66,0,0,1,4.49,11,15.63,15.63,0,0,1,.43,3c0,1,.07,2,.08,3q0,3-.24,5.9a99,99,0,0,1-1.74,11.66c-.19,1-.38,1.92-.5,2.86a5.6,5.6,0,0,0-.05.69,1.28,1.28,0,0,0,.06.49,2.67,2.67,0,0,0,.45.27l.64.31c1.77.81,3.59,1.54,5.4,2.27L316,348.62l5.47,2.15,2.73,1.1,1.36.57a3.4,3.4,0,0,1,.75.41,1.48,1.48,0,0,1,.42.87,6.06,6.06,0,0,1-.67,3,20.7,20.7,0,0,1-1.41,2.63,37.35,37.35,0,0,1-12.76,12.17,20.57,20.57,0,0,1-5.55,2.13,41.54,41.54,0,0,1-5.85.89,98.54,98.54,0,0,1-11.78.28q-5.88-.17-11.74-.76l-2.93-.33-1.46-.19-.73-.1a1.59,1.59,0,0,0-.6.06,7.81,7.81,0,0,0-2.39,1.47c-.74.61-1.45,1.28-2.14,2-2.76,2.76-5.29,5.75-7.83,8.73s-5,6-7.61,8.95-5.18,5.89-8,8.66a56.54,56.54,0,0,1-4.37,4,18.21,18.21,0,0,1-5.07,3.08,28.43,28.43,0,0,1-5.82,1c-2,.18-3.92.27-5.88.33-3.92.11-7.84.07-11.76,0-7.83-.23-15.66-.75-23.46-1.47s-15.59-1.67-23.3-3.07a72.46,72.46,0,0,1-11.41-2.87,13.33,13.33,0,0,1-2.66-1.29,29.07,29.07,0,0,1-2.34-1.8c-1.49-1.28-2.89-2.65-4.26-4.05-5.44-5.66-10.37-11.76-15.21-17.92s-9.49-12.47-14-18.89a27.75,27.75,0,0,0-3.75-4.49c-1.39-1.38-2.84-2.7-4.31-4l-8.89-7.68A108.52,108.52,0,0,1,88.37,336C85.77,333.11,83.28,330,82,326.22Z" style="fill:#dbdbdb"></path><path d="M318.88,361.42c4.14.34,9.95-5.39,9-7.4s-17.45-4.24-18.6-2.8S314.38,361.06,318.88,361.42Z" style="fill:#263238"></path><path d="M289.19,338.43c0-.18-.42.09-.47.28-1.37,4.52-3.69,9.47-8.24,9.59-.14,0-.2.24-.05.27C285.61,349.53,288.63,342.93,289.19,338.43Z" style="fill:#263238"></path><path d="M286.77,332.41c-7-3-12.44,11.28-5.94,14S292.65,334.9,286.77,332.41Z" style="fill:#263238"></path><path d="M287.58,311.38s-8.37-4.23-14.88,6.89" style="fill:#263238"></path><path d="M261,285.94s-41.33-53-53.13-54.81-4.62,68.05,4.5,75.91,36.14,6,37.87,5.1S264.24,293.87,261,285.94Z" style="fill:#FFC727"></path><path d="M254.4,300.34c3.21-5.81-38.94-61.09-47.37-61.68s.33,59,4.66,64.45,29.4,9.59,31.72,7.09C250.35,302.7,254.4,300.34,254.4,300.34Z" style="fill:#f7a9a0"></path><path d="M266.57,287a8.94,8.94,0,0,0-3.59-3.62c-1.26-.77-2.59-1.39-3.91-2-1.7-2-3.42-4-5.17-5.94-2.23-2.51-4.49-5-6.81-7.44s-4.72-4.78-7-7.28c-.09-.09-.22.05-.14.15,2.16,2.54,4.16,5.23,6.25,7.82s4.07,5,6.16,7.41,4.3,4.91,6.47,7.35c1.89,2.12,3.83,4.13,5,6.77a.26.26,0,0,0,.49-.15c-.48-2.71-2.21-5-3.92-7.06-.14-.18-.29-.35-.44-.53.77.52,1.54,1,2.34,1.48a10.83,10.83,0,0,1,4,3.2A.13.13,0,0,0,266.57,287Z" style="fill:#263238"></path><path d="M214.91,310.26c-3.47-2.17-5.2-6.48-6.35-10.2-.65-2.14-1.26-4.28-1.85-6.44s-1.3-4.45-1.72-6.71c0-.11-.21-.08-.19,0,.35,2.37.53,4.77.93,7.14a64.22,64.22,0,0,0,1.55,7.13c.19.65.41,1.3.65,1.93a8.63,8.63,0,0,0,.32,3.58,9.69,9.69,0,0,0,2.87,4.1.08.08,0,0,0,.11-.11,11.41,11.41,0,0,1-2.25-4.29,17.58,17.58,0,0,1-.46-1.87,15,15,0,0,0,1.55,2.66,10.63,10.63,0,0,0,4.58,3.51A.26.26,0,0,0,214.91,310.26Z" style="fill:#263238"></path><path d="M228.87,370c3.7,5.31,12.29,35.37,14.79,36.87s12.54,5.52,14.3,7.78,3.51,5.77,1.76,6.77-31.1.25-36.12,0-26.8-14.8-29.34-18.56-33.86-33.11-31.1-40.63S213.82,348.4,228.87,370Z" style="fill:#FFC727"></path><path d="M253.47,417.36a10,10,0,0,0-2.24-1.41,17,17,0,0,0-2.6-.91c-.12,0-.16.13,0,.17a11.43,11.43,0,0,1,4.22,2.85,15.58,15.58,0,0,1,3,3.77c.08.14.3,0,.27-.11A8.1,8.1,0,0,0,253.47,417.36Z" style="fill:#263238"></path><path d="M257.86,415.84a10.37,10.37,0,0,0-2.24-1.42,19.51,19.51,0,0,0-2.6-.91.09.09,0,1,0-.05.17,11.54,11.54,0,0,1,4.21,2.86,15.53,15.53,0,0,1,3,3.76c.08.15.3,0,.27-.1A8.1,8.1,0,0,0,257.86,415.84Z" style="fill:#263238"></path><path d="M180.25,386.46c-5.14-5.2-11-9.64-16.29-14.64a50.41,50.41,0,0,1-8.24-9.32c-.06-.1-.23,0-.16.11a75,75,0,0,0,6.27,8.68,91.52,91.52,0,0,0,7.66,7.85C174.72,384,180.35,388.55,185,394a45.43,45.43,0,0,1,6.74,9.86c.05.11.23,0,.18-.08C189.44,397.11,185.23,391.49,180.25,386.46Z" style="fill:#263238"></path><path d="M239.87,396.15q-1.35-4.38-2.82-8.72c-1.89-5.63-4.15-11.12-5.93-16.78a44.86,44.86,0,0,1-2.11-9.84c0-.13-.22-.13-.21,0a60.4,60.4,0,0,0,3.25,17.09q2.83,8.72,6.22,17.25c1.31,3.29,2.74,6.54,4,9.84.05.12.23.07.19-.05C241.56,402,240.77,399.07,239.87,396.15Z" style="fill:#263238"></path><path d="M231.06,359.19c.1-2,.29-4,.58-5.94a.11.11,0,0,0-.21-.05,23.76,23.76,0,0,0-.56,11.84.14.14,0,0,0,.27,0C231.06,363.06,231,361.14,231.06,359.19Z" style="fill:#263238"></path><path d="M205,411.22c-3.56-1.86-6.08-4.86-8.68-7.83-1.26-1.45-2.48-2.94-3.8-4.34-1.66-1.78-3.38-3.47-4.9-5.37-.08-.1-.24,0-.16.11,2.8,3.5,4.93,7.48,8,10.82a25.84,25.84,0,0,0,9.5,6.77C205,411.43,205.05,411.27,205,411.22Z" style="fill:#263238"></path><path d="M154.6,322.26c4.51,10.94-12,41.12-17.81,46.39S112.72,387,111.46,389.48s.58,18.65,2.09,20.41,7.44,3.07,9.06,4.62c1.41,1.33,3.81,4.4,1.93,6.28s-25.86,1-28.12,0-15.81-33.58-15.81-39.6-5.42-59.45,13.55-67.72S148.08,306.46,154.6,322.26Z" style="fill:#FFC727"></path><path d="M147.87,350.3a79.69,79.69,0,0,1-4,7.33c-.71,1.14-1.44,2.27-2.2,3.39s-1.7,2.22-2.58,3.32a66.26,66.26,0,0,1-6.09,6.11c-1.1,1.05-2.25,2.08-3.33,3.16s-2.29,2.41-3.54,3.47c-.1.08,0,.21.14.13,1.32-1.11,2.83-2.06,4.23-3.08s2.59-1.94,3.87-2.93a36.66,36.66,0,0,0,6.37-5.88c3.52-4.43,5.27-9.79,7.26-15C148.07,350.27,147.92,350.21,147.87,350.3Z" style="fill:#263238"></path><path d="M165.48,320.15c-7.54,9.42-12.85,20.47-16.53,31.91-.52,1.6-1,3.2-1.49,4.82s-.8,3.46-1.39,5.14c0,.12.15.17.19.05.5-1.5,1.22-2.9,1.83-4.34s1.13-2.76,1.7-4.14l3.39-8.31c2.24-5.55,4.58-11.07,7.31-16.4a85.22,85.22,0,0,1,5.16-8.61C165.72,320.17,165.56,320.05,165.48,320.15Z" style="fill:#263238"></path><path d="M118.2,417.67a9.75,9.75,0,0,0-2.24-1.41,16.32,16.32,0,0,0-2.6-.91c-.12,0-.16.13,0,.17a11.39,11.39,0,0,1,4.21,2.85,15.39,15.39,0,0,1,3,3.77c.07.14.3,0,.27-.11A8.06,8.06,0,0,0,118.2,417.67Z" style="fill:#263238"></path><path d="M122.59,416.15a10,10,0,0,0-2.24-1.42,19.51,19.51,0,0,0-2.6-.91c-.12,0-.16.13,0,.17a11.49,11.49,0,0,1,4.22,2.86,15.48,15.48,0,0,1,3,3.76c.08.15.3,0,.27-.1A8.1,8.1,0,0,0,122.59,416.15Z" style="fill:#263238"></path></g><g id="freepik--speech-bubble--inject-9"><path d="M370.16,235.76a34.6,34.6,0,0,1-57.82,21.89L295,260.19l8.66-15a34.61,34.61,0,1,1,66.47-9.46Z" style="fill:#fff"></path><path d="M370.16,235.76a34.73,34.73,0,0,1-7,17.54,37,37,0,0,1-3.13,3.61,38.22,38.22,0,0,1-3.65,3.09,35,35,0,0,1-17.67,6.87,32.17,32.17,0,0,1-4.81.09,29.81,29.81,0,0,1-4.79-.49A34.9,34.9,0,0,1,312,258l.41.13-17.29,2.65-1.26.2.64-1.11,8.61-15,0,.6A35,35,0,0,1,346.46,199a35.4,35.4,0,0,1,13.34,8.19A34.83,34.83,0,0,1,370.16,235.76Zm0,0a34.23,34.23,0,0,0-39.25-37.45A33.91,33.91,0,0,0,316.62,204a35.62,35.62,0,0,0-10.35,11.3,34.16,34.16,0,0,0-4.4,14.64A34.64,34.64,0,0,0,304.31,245l.13.31-.17.29-8.71,14.93-.62-.91,17.33-2.43.24,0,.17.16a34.11,34.11,0,0,0,16.57,8.54,30.81,30.81,0,0,0,4.69.57,33.24,33.24,0,0,0,14-2,32.4,32.4,0,0,0,8.35-4.5,38.14,38.14,0,0,0,3.65-3.06,35.58,35.58,0,0,0,3.15-3.57A34.85,34.85,0,0,0,370.16,235.76Z" style="fill:#263238"></path><path d="M348.65,224.75A17,17,0,0,1,335.94,238l-.8,4.24a3.85,3.85,0,0,1-3.68,3.13,2.54,2.54,0,0,1-2.58-3.13l1.17-6.76c0-.06.06-.06.06-.12v-.12a3.92,3.92,0,0,1,3.68-3.14,9.09,9.09,0,0,0,8.6-7.3,6,6,0,0,0-6-7.25,8.84,8.84,0,0,0-6.94,3.63c-1.17,1.47-3.13,2-4.48,1.1s-1.53-2.76-.43-4.3a16.74,16.74,0,0,1,13-6.75C345,211.18,350,217.26,348.65,224.75Zm-14.8,25.05-.18,1.16a3.93,3.93,0,0,1-3.75,3.2,2.59,2.59,0,0,1-2.58-3.2l.19-1.16a3.92,3.92,0,0,1,3.74-3.19A2.59,2.59,0,0,1,333.85,249.8Z" style="fill:#FFC727"></path></g></svg>