<svg xmlns="http://www.w3.org/2000/svg" xmlns:xlink="http://www.w3.org/1999/xlink" viewBox="0 0 500 500"><defs><clipPath id="freepik--clip-path--inject-3"><path d="M402,358.85s-.35,5.94,2.45,7,6.64,1.05,6.64,5.59-5.25,21.32-7,26.56,1.05,13.29-5.25,17.83-15.72,5.24-18.87,2.1,4.2-7.34,4.89-11.89,6.3-23.76,6.3-26.21-6.3-3.49-14-11.53-8-12.59-8-12.59Z" style="fill:#92E3A9;stroke:#263238;stroke-linecap:round;stroke-linejoin:round"></path></clipPath><clipPath id="freepik--clip-path-2--inject-3"><path d="M446.46,298.93c3.15,9.46,2.8,31.51,2.8,31.51s.7,7-2.1,18.91-2.1,8.4-1.05,12.6,1.05,30.81,1.05,39.56-1.75,18.91-7,20.31-14,2.8-17.51,1.4-3.5-4.55-2.1-7.35,3.85-2.8,6.65-10.15S429,383.31,429,383.31a13.85,13.85,0,0,1-9.8-5.95C415.3,371.75,416,356,416,356l-10.5,4.2c-21,7.7-41.32,3.5-41.32,3.5a58,58,0,0,1-26.25-8.4C325,347.25,319.37,328,319.37,328l-5.6-9.8s-8.75-20.31-8-38.51,3.15-53.22,0-75.63-22.06-48.66-22.06-48.66-1.4,2.1-6.3,3.85-14.71.35-20-2.1A38,38,0,0,0,243.05,154a1.65,1.65,0,0,1-1.75-2.45s-5.61-.7-5.26-4.56,4.21-11.9,11.56-13.3a43.34,43.34,0,0,0,12.25-4.2s11.2-5.6,21.36-3.5,27.31,16.1,38.16,38.86,18.21,43.06,21.36,61.62,7.7,41.31,7.7,41.31l4.9-7a1.3,1.3,0,0,1,1.75-.37l3.5,2.16,2.39-8a2.7,2.7,0,0,1,3.32-1.83l3.75,1,5.27-9.44a2.61,2.61,0,0,1,3.72-.9l4,2.64,5.52-7.27a1.64,1.64,0,0,1,2.46-.16l4.62,4.62,7.42-5.83a2.39,2.39,0,0,1,3.65.89l2.59,5.65,7.06-2.72a2.18,2.18,0,0,1,2.82,1.26l2,5.31,3.82-.51a1.86,1.86,0,0,1,2,1.14l1.9,4.62,3.09.44a2.3,2.3,0,0,1,2,2.08l.55,6.58h1.59a1.88,1.88,0,0,1,1.84,1.53l.77,4.07,2.42.22a2.05,2.05,0,0,1,1.8,1.51l.68,2.47.43.08a2.33,2.33,0,0,1,1.93,1.95l.79,5s2.1,9.8,1.75,14" style="fill:#92E3A9;stroke:#263238;stroke-linecap:round;stroke-linejoin:round"></path></clipPath><clipPath id="freepik--clip-path-3--inject-3"><path d="M258.1,151.19a97,97,0,0,1,0,11.37c-.35,7,3,.88,3,.88s.87,8.4,2.45,6.13.17-11.73.17-11.73,2.1,5.43,2.28,1.75a9.41,9.41,0,0,0-2.28-6.3Z" style="fill:#92E3A9;stroke:#263238;stroke-linecap:round;stroke-linejoin:round"></path></clipPath><clipPath id="freepik--clip-path-4--inject-3"><path d="M292.46,379.81a169.29,169.29,0,0,1-17.5-2.1c-7-1.4-21.36-2.1-27,2.45s-12.61,14.35-24.16,17.51-38.86,0-49.71-2.81-35.37-21.7-42-27.65-16.1-11.56-22.4-9.11S82.4,366.16,64.54,363s-41-14-52.51-30.46,0-2.8,9.45,2.46,28.36,15.05,45.86,10.85,44.82-28.71,64.42-36.41,29.06-9.11,42-5.95,16.1,4.55,16.1,4.55,26.61,1.75,35,7.7,18.91,14.7,18.91,14.7,2.1,9.46,16.45,21,14.36,12.6,21,16.11S292.09,374.77,292.46,379.81Z" style="fill:#8c8c8c;stroke:#263238;stroke-linecap:round;stroke-linejoin:round"></path></clipPath><clipPath id="freepik--clip-path-5--inject-3"><path d="M167.56,341s16.28,26.79,13.39,41.49a32.84,32.84,0,0,1-14.7,21.27s2.17,17,3.41,18.38c4.87,5.44,10.12,5.05,10.9,7.41a14.41,14.41,0,0,0,1.36,3.2s-6.48-.37-11.21-.37-7.09-.78-7.61-2.62-2.63-4.47-4.73-4.73-3.68,3.68-3.94,1.31,1-9.71,1-9.71-2.1-3.94-3.67-7.88-.27-6.83,1.05-12.08-.53-11.81-6.31-16.54-14.7-15.23-16.54-25.73" style="fill:#8c8c8c;stroke:#263238;stroke-linecap:round;stroke-linejoin:round"></path></clipPath></defs><g id="freepik--background-simple--inject-3"><path d="M162.3,74s-75.76,38.6-113.55,98.09-34.81,136,11.12,192.79,133.69,49.34,207.18,85.31,154.57,28.58,189.32-47.66-17.65-104.71-26.66-192.93S341.18-7.77,162.3,74Z" style="fill:#92E3A9"></path><path d="M162.3,74s-75.76,38.6-113.55,98.09-34.81,136,11.12,192.79,133.69,49.34,207.18,85.31,154.57,28.58,189.32-47.66-17.65-104.71-26.66-192.93S341.18-7.77,162.3,74Z" style="fill:#fff;opacity:0.8"></path></g><g id="freepik--Clouds--inject-3"><path d="M413.21,91.37c-6.29-3.43-9.14-.57-11.43-3.43s6.29-10.29-10.86-17.72c0,0-1.14-16-24.58-16.58s-17.15,16-23.44,20-8-2.29-14.29,1.71-3.43,12-8.58,13.15-12-5.14-18.29-1.14-6.29,7.43-9.15,7.43-8.57-2.29-12,0-7.43,5.15-7.43,5.15H417.79S419.5,94.8,413.21,91.37Z" style="fill:none;stroke:#263238;stroke-linecap:round;stroke-linejoin:round"></path><path d="M327.66,89a21,21,0,0,1-2.56,1.21" style="fill:none;stroke:#263238;stroke-linecap:round;stroke-linejoin:round"></path><path d="M358.6,62.32a9.76,9.76,0,0,0-5.59,7c-1,5.23-3.48,8.72-6.28,9.07s-13.25-.7-15,3.14a15.09,15.09,0,0,0-1,3.5" style="fill:none;stroke:#263238;stroke-linecap:round;stroke-linejoin:round"></path><path d="M431.61,124.57c-2.46-1.34-3.58-.23-4.47-1.34s2.46-4-4.24-6.93c0,0-.45-6.25-9.61-6.47s-6.7,6.25-9.16,7.81-3.12-.89-5.58.67-1.34,4.69-3.35,5.14-4.69-2-7.15-.45-2.45,2.91-3.57,2.91-3.35-.9-4.69,0-2.91,2-2.91,2h56.51S434.06,125.91,431.61,124.57Z" style="fill:none;stroke:#263238;stroke-linecap:round;stroke-linejoin:round"></path><path d="M398.18,123.65a8,8,0,0,1-1,.47" style="fill:none;stroke:#263238;stroke-linecap:round;stroke-linejoin:round"></path><path d="M410.27,113.22a3.79,3.79,0,0,0-2.18,2.72c-.41,2-1.37,3.41-2.46,3.55s-5.18-.28-5.86,1.22a6.11,6.11,0,0,0-.38,1.37" style="fill:none;stroke:#263238;stroke-linecap:round;stroke-linejoin:round"></path><path d="M105.71,287.26c-2.46-1.34-3.57-.22-4.47-1.34s2.46-4-4.24-6.92c0,0-.45-6.25-9.6-6.48s-6.7,6.26-9.16,7.82-3.13-.89-5.59.67-1.34,4.69-3.35,5.14-4.69-2-7.14-.45-2.46,2.9-3.58,2.9-3.35-.89-4.69,0-2.9,2-2.9,2H107.5S108.17,288.6,105.71,287.26Z" style="fill:none;stroke:#263238;stroke-linecap:round;stroke-linejoin:round"></path><path d="M72.28,286.35a7.8,7.8,0,0,1-1,.47" style="fill:none;stroke:#263238;stroke-linecap:round;stroke-linejoin:round"></path><path d="M84.37,275.91a3.81,3.81,0,0,0-2.18,2.73c-.41,2-1.36,3.41-2.45,3.54s-5.18-.27-5.86,1.23a6.2,6.2,0,0,0-.39,1.37" style="fill:none;stroke:#263238;stroke-linecap:round;stroke-linejoin:round"></path></g><g id="freepik--Trees--inject-3"><path d="M227.69,295.89s7.7-4.49,12.51-4.81,17.64,2.56,17.64,2.56,1-3.2-1.92-9.62a110.68,110.68,0,0,0-7.06-12.83l2.57-.32S245,262.53,228.65,258s-27.91,7.06-33.36,15.4-3.21,21.5-3.21,21.5,21.81-5.14,28.23,1.6a8.86,8.86,0,0,0,4.17,1.61C226.4,298.14,227.69,295.89,227.69,295.89Z" style="fill:#92E3A9"></path><path d="M227.69,295.89s7.7-4.49,12.51-4.81,17.64,2.56,17.64,2.56,1-3.2-1.92-9.62a110.68,110.68,0,0,0-7.06-12.83l2.57-.32S245,262.53,228.65,258s-27.91,7.06-33.36,15.4-3.21,21.5-3.21,21.5,21.81-5.14,28.23,1.6a8.86,8.86,0,0,0,4.17,1.61C226.4,298.14,227.69,295.89,227.69,295.89Z" style="fill:#fff;opacity:0.4"></path><polygon points="207.48 284.34 219.67 291.4 209.08 290.44 220.95 293.32 222.55 298.14 219.03 408.81 226.72 408.81 224.48 298.14 229.61 289.47 236.67 286.91 230.25 286.27 232.5 282.1 224.16 295.57 225.76 284.34 228.33 279.21 225.12 280.17 224.48 273.43 222.55 292.68 218.06 282.1 218.7 289.15 207.48 284.34" style="fill:#263238"></polygon><path d="M431.55,213.28s13.34-7.77,21.67-8.33,30.55,4.45,30.55,4.45,1.67-5.56-3.33-16.67a192.19,192.19,0,0,0-12.22-22.22l4.44-.55s-11.11-14.44-39.44-22.22S384.89,160,375.45,174.4s-5.55,37.22-5.55,37.22,37.77-8.89,48.88,2.78c0,0,3.89,2.77,7.22,2.77S431.55,213.28,431.55,213.28Z" style="fill:#92E3A9"></path><path d="M431.55,213.28s13.34-7.77,21.67-8.33,30.55,4.45,30.55,4.45,1.67-5.56-3.33-16.67a192.19,192.19,0,0,0-12.22-22.22l4.44-.55s-11.11-14.44-39.44-22.22S384.89,160,375.45,174.4s-5.55,37.22-5.55,37.22,37.77-8.89,48.88,2.78c0,0,3.89,2.77,7.22,2.77S431.55,213.28,431.55,213.28Z" style="fill:#fff;opacity:0.4"></path><polygon points="396.56 193.29 417.67 205.51 399.34 203.84 419.89 208.84 422.67 217.17 416.56 408.81 429.89 408.81 426 217.17 434.89 202.18 447.11 197.73 436 196.62 439.89 189.4 425.44 212.73 428.22 193.29 432.67 184.4 427.11 186.07 426 174.4 422.67 207.73 414.89 189.4 416 201.62 396.56 193.29" style="fill:#263238"></polygon><path d="M121,268.83s9.54-5.57,15.51-6S158.42,266,158.42,266s1.19-4-2.39-11.93a137.47,137.47,0,0,0-8.75-15.9l3.19-.4s-8-10.34-28.24-15.91S87.63,230.65,80.87,241s-4,26.65-4,26.65,27.05-6.37,35,2c0,0,2.78,2,5.17,2S121,268.83,121,268.83Z" style="fill:#92E3A9"></path><path d="M121,268.83s9.54-5.57,15.51-6S158.42,266,158.42,266s1.19-4-2.39-11.93a137.47,137.47,0,0,0-8.75-15.9l3.19-.4s-8-10.34-28.24-15.91S87.63,230.65,80.87,241s-4,26.65-4,26.65,27.05-6.37,35,2c0,0,2.78,2,5.17,2S121,268.83,121,268.83Z" style="fill:#fff;opacity:0.4"></path><polygon points="95.98 254.51 111.09 263.26 97.97 262.07 112.69 265.65 114.67 271.61 110.3 408.81 119.84 408.81 117.06 271.61 123.42 260.87 132.17 257.69 124.22 256.9 127 251.73 116.66 268.43 118.65 254.51 121.83 248.15 117.86 249.34 117.06 240.99 114.67 264.85 109.11 251.73 109.9 260.48 95.98 254.51" style="fill:#263238"></polygon><path d="M173.14,78.53l6.71,1s-7.67-7.67-2.87-5.27A89.14,89.14,0,0,1,186.56,80s-6.71-9.58-1.44-9.58,12.95,13.9,12.95,13.9-2.4-17.26,3.35-13.43,5.28,23,5.28,23,10.54-9.58,16.29-9.58-5.27,13.42-5.27,13.42,17.74.48,17.26,2.87-9.11,3.84-9.11,3.84,18.69,2.4,16.3,4.79a7.43,7.43,0,0,1-4.8,2.4s30.68,21.57,37.87,61.84c0,0-.95,3.83-2.39,0a29.91,29.91,0,0,0-4.8-7.67s3.84,22.53,0,35.47-3.83,11-10.54,6.71-19.18-3.83-19.18-3.83,9.11,3.35,5.28,4.31-23.49-1.44-42.19,4.32a85.92,85.92,0,0,0-31.16,17.73s-3.83-8.15-37.39-18.69-50.81,9.58-50.81,9.58L90.21,208s-10.07,7.67-9.59,3.84,11-15.34,11-15.34S70.08,213.71,67.2,206s-5.27-18.69,1-44.58,24-42.66,24-42.66-8.63,6.71-9.11,4.31S87.33,107.78,99.8,102,124.72,92,124.72,92s-12.94,2.39-9.1-1,27.8-8.63,27.8-8.63S132.87,80,138.15,79s19.65-1,19.65-1-2.88-4.79,1.44-4.79,11,5.27,11,5.27Z" style="fill:#92E3A9"></path><path d="M173.14,78.53l6.71,1s-7.67-7.67-2.87-5.27A89.14,89.14,0,0,1,186.56,80s-6.71-9.58-1.44-9.58,12.95,13.9,12.95,13.9-2.4-17.26,3.35-13.43,5.28,23,5.28,23,10.54-9.58,16.29-9.58-5.27,13.42-5.27,13.42,17.74.48,17.26,2.87-9.11,3.84-9.11,3.84,18.69,2.4,16.3,4.79a7.43,7.43,0,0,1-4.8,2.4s30.68,21.57,37.87,61.84c0,0-.95,3.83-2.39,0a29.91,29.91,0,0,0-4.8-7.67s3.84,22.53,0,35.47-3.83,11-10.54,6.71-19.18-3.83-19.18-3.83,9.11,3.35,5.28,4.31-23.49-1.44-42.19,4.32a85.92,85.92,0,0,0-31.16,17.73s-3.83-8.15-37.39-18.69-50.81,9.58-50.81,9.58L90.21,208s-10.07,7.67-9.59,3.84,11-15.34,11-15.34S70.08,213.71,67.2,206s-5.27-18.69,1-44.58,24-42.66,24-42.66-8.63,6.71-9.11,4.31S87.33,107.78,99.8,102,124.72,92,124.72,92s-12.94,2.39-9.1-1,27.8-8.63,27.8-8.63S132.87,80,138.15,79s19.65-1,19.65-1-2.88-4.79,1.44-4.79,11,5.27,11,5.27Z" style="fill:#fff;opacity:0.4"></path><path d="M183.21,244.87l1.91-21.09,54.17-35-22,10.06,1.44-11L211,203.17l-25.89,13.9s1.34-4.62,3.26-11.33,18.32-25.58,18.32-25.58L186.56,197.9l1.46-13L181.2,206.1l-6.43,1.15-.67-23.74-3.84-10.06-.95,10.06V220.9l-23.25-28.79,3.59-18.66-9.33,15.43L119,175.37s29.34,28.54,37.49,40l-30.12-14.35-7.85-14.68,3.84,12.46-18.7,2.88,19.84,1.14,36.27,20.63c2.3,7.79,2.73,15.64,3.33,22.33,1,10.55-7.45,146.69-7.45,146.69s-1.44,7.67-12,16.29h57s-4.32-8.15-9.11-19.17S183.21,244.87,183.21,244.87Z" style="fill:#263238"></path></g><g id="freepik--Plants--inject-3"><path d="M139.42,408.17a22.64,22.64,0,0,0-1.81-8.86c-2.63-6.9-7.23,6.89-7.23,6.89s0-1.64-4.92-6.89-9.2,3.94-9.2,3.94,2.3-22-3.28-20.36-4.93,20.36-4.93,20.36-3.94-13.8-9.19-13.8-6.57,9.86-6.57,9.86S91,381.9,85.72,381.57,74.56,396,74.56,396s1.64-19.7-3.61-20.69-7.23,7.23-7.23,7.23-4.6-27.26-13.46-24S49,392.08,49,392.08s-8.87-21-16.1-16.09c-6.56,4.48,1.79,27.95,3.37,32.18Z" style="fill:#92E3A9"></path><path d="M33.51,407.83s-3.94-12.48-2-14.45S42.05,400,42.05,400s-6.24-21,3.61-23.65,11.49,20.36,11.49,20.36,7.23-10.5,8.87-6.56a21.85,21.85,0,0,1,1.64,7.55s3.61-28.57,11.82-27.26.66,29.56.66,29.56,4.6-9.85,9.85-8.87,7.23,7.23,7.23,7.23,2.29-5.59,3.94-5.59,3.61,9.85,3.61,9.85,2-15.1,5.58-14.44,11.17,13.46,11.17,13.46-1.32-7.22,2.62-7.55,6.24,11.16,6.24,11.16,5.26-10.83,8.54-8.86,1.64,12.47,1.64,12.47" style="fill:none;stroke:#263238;stroke-linecap:round;stroke-linejoin:round"></path><line x1="51.57" y1="407.83" x2="48.29" y2="393.05" style="fill:none;stroke:#263238;stroke-linecap:round;stroke-linejoin:round"></line><line x1="71.6" y1="407.17" x2="73.24" y2="397.98" style="fill:none;stroke:#263238;stroke-linecap:round;stroke-linejoin:round"></line><line x1="113.96" y1="407.83" x2="111.01" y2="399.62" style="fill:none;stroke:#263238;stroke-linecap:round;stroke-linejoin:round"></line><line x1="87.69" y1="407.5" x2="91.31" y2="400.93" style="fill:none;stroke:#263238;stroke-linecap:round;stroke-linejoin:round"></line><line x1="50.59" y1="401.59" x2="53.21" y2="396.34" style="fill:none;stroke:#263238;stroke-linecap:round;stroke-linejoin:round"></line><line x1="71.6" y1="404.22" x2="69.3" y2="399.62" style="fill:none;stroke:#263238;stroke-linecap:round;stroke-linejoin:round"></line><line x1="89.34" y1="403.89" x2="87.69" y2="400.93" style="fill:none;stroke:#263238;stroke-linecap:round;stroke-linejoin:round"></line><line x1="112.65" y1="403.56" x2="113.63" y2="400.28" style="fill:none;stroke:#263238;stroke-linecap:round;stroke-linejoin:round"></line><path d="M342.85,408.17a22.64,22.64,0,0,0-1.81-8.86c-2.63-6.9-7.23,6.89-7.23,6.89s0-1.64-4.92-6.89-9.2,3.94-9.2,3.94,2.3-22-3.28-20.36-4.93,20.36-4.93,20.36-3.94-13.8-9.19-13.8-6.57,9.86-6.57,9.86-1.31-17.41-6.56-17.74S278,396,278,396s1.64-19.7-3.61-20.69-7.23,7.23-7.23,7.23-4.59-27.26-13.46-24-1.31,33.49-1.31,33.49-8.87-21-16.09-16.09c-6.57,4.48,1.79,27.95,3.36,32.18Z" style="fill:#92E3A9"></path><path d="M236.94,407.83s-3.94-12.48-2-14.45S245.48,400,245.48,400s-6.24-21,3.61-23.65,11.5,20.36,11.5,20.36,7.22-10.5,8.86-6.56a21.85,21.85,0,0,1,1.64,7.55s3.62-28.57,11.83-27.26.65,29.56.65,29.56,4.6-9.85,9.85-8.87,7.23,7.23,7.23,7.23,2.3-5.59,3.94-5.59,3.61,9.85,3.61,9.85,2-15.1,5.58-14.44S325,401.59,325,401.59s-1.32-7.22,2.62-7.55,6.24,11.16,6.24,11.16,5.26-10.83,8.54-8.86S344,408.81,344,408.81" style="fill:none;stroke:#263238;stroke-linecap:round;stroke-linejoin:round"></path><line x1="255" y1="407.83" x2="251.72" y2="393.05" style="fill:none;stroke:#263238;stroke-linecap:round;stroke-linejoin:round"></line><line x1="275.03" y1="407.17" x2="276.68" y2="397.98" style="fill:none;stroke:#263238;stroke-linecap:round;stroke-linejoin:round"></line><line x1="317.4" y1="407.83" x2="314.44" y2="399.62" style="fill:none;stroke:#263238;stroke-linecap:round;stroke-linejoin:round"></line><line x1="291.13" y1="407.5" x2="294.74" y2="400.93" style="fill:none;stroke:#263238;stroke-linecap:round;stroke-linejoin:round"></line><line x1="254.02" y1="401.59" x2="256.65" y2="396.34" style="fill:none;stroke:#263238;stroke-linecap:round;stroke-linejoin:round"></line><line x1="275.03" y1="404.22" x2="272.74" y2="399.62" style="fill:none;stroke:#263238;stroke-linecap:round;stroke-linejoin:round"></line><line x1="292.77" y1="403.89" x2="291.13" y2="400.93" style="fill:none;stroke:#263238;stroke-linecap:round;stroke-linejoin:round"></line><line x1="316.08" y1="403.56" x2="317.07" y2="400.28" style="fill:none;stroke:#263238;stroke-linecap:round;stroke-linejoin:round"></line><path d="M240.18,407.86a22.48,22.48,0,0,0-1.81-8.86c-2.62-6.9-7.22,6.89-7.22,6.89s0-1.64-4.93-6.89-9.19,3.94-9.19,3.94,2.3-22-3.28-20.36-4.93,20.36-4.93,20.36-3.94-13.79-9.19-13.79-6.57,9.85-6.57,9.85-1.32-17.41-6.57-17.73-11.16,14.44-11.16,14.44S177,376,171.71,375s-7.22,7.22-7.22,7.22-4.6-27.25-13.46-24-1.32,33.49-1.32,33.49-8.86-21-16.09-16.09c-6.56,4.48,1.79,27.95,3.37,32.18Z" style="fill:#92E3A9"></path><path d="M134.28,407.52s-3.94-12.48-2-14.45,10.51,6.57,10.51,6.57-6.24-21,3.61-23.64,11.49,20.36,11.49,20.36,7.23-10.51,8.87-6.57a21.85,21.85,0,0,1,1.64,7.55s3.61-28.57,11.82-27.25.66,29.55.66,29.55,4.6-9.85,9.85-8.87S198,398,198,398s2.3-5.58,3.94-5.58,3.62,9.85,3.62,9.85,2-15.11,5.58-14.45,11.16,13.46,11.16,13.46-1.31-7.22,2.63-7.55,6.24,11.16,6.24,11.16,5.25-10.83,8.54-8.86,1.64,12.48,1.64,12.48" style="fill:none;stroke:#263238;stroke-linecap:round;stroke-linejoin:round"></path><line x1="152.34" y1="407.52" x2="149.06" y2="392.74" style="fill:none;stroke:#263238;stroke-linecap:round;stroke-linejoin:round"></line><line x1="172.37" y1="406.86" x2="174.01" y2="397.67" style="fill:none;stroke:#263238;stroke-linecap:round;stroke-linejoin:round"></line><line x1="214.73" y1="407.52" x2="211.78" y2="399.31" style="fill:none;stroke:#263238;stroke-linecap:round;stroke-linejoin:round"></line><line x1="188.46" y1="407.19" x2="192.07" y2="400.62" style="fill:none;stroke:#263238;stroke-linecap:round;stroke-linejoin:round"></line><line x1="151.35" y1="401.28" x2="153.98" y2="396.03" style="fill:none;stroke:#263238;stroke-linecap:round;stroke-linejoin:round"></line><line x1="172.37" y1="403.91" x2="170.07" y2="399.31" style="fill:none;stroke:#263238;stroke-linecap:round;stroke-linejoin:round"></line><line x1="190.1" y1="403.58" x2="188.46" y2="400.62" style="fill:none;stroke:#263238;stroke-linecap:round;stroke-linejoin:round"></line><line x1="213.42" y1="403.25" x2="214.4" y2="399.97" style="fill:none;stroke:#263238;stroke-linecap:round;stroke-linejoin:round"></line><line x1="16.87" y1="408.81" x2="487.63" y2="408.81" style="fill:none;stroke:#263238;stroke-linecap:round;stroke-linejoin:round"></line></g><g id="freepik--Dinosaur-2--inject-3"><ellipse cx="385.33" cy="424" rx="89" ry="9" style="fill:#263238"></ellipse><path d="M443.88,330.19s10.14,3.15,11.54,19.57S441.79,373.88,425,376.33s-50.33-9.09-72-14-53.47-6.64-72-2.8-35.3,15.38-35.3,18.17,10.49-7,30.41-10.48,66.76,1.05,82.83,3.49S410,391,427.11,391s27.61-2.1,40.89-14.33,16.43-25.87,16.08-34.95c-.23-6-.47-9.41-.6-11a3.18,3.18,0,0,0-.94-2l-2.31-2.31-.28-6.19a2.75,2.75,0,0,0-1.37-2.26l-2.89-1.69-.91-3.16a3.3,3.3,0,0,0-2.21-2.26l-2.82-.87-1.45-6.34a2.52,2.52,0,0,0-1.6-1.82l-2.55-.93-1.82-4.16a2.64,2.64,0,0,0-2.17-1.57l-2.3-.21-.76-2.1a3.13,3.13,0,0,0-2.47-2l-2.71-.42s-1.4-3.85-2.44-6.64-3.85-.7-3.85-.7-8.39,0-14,2.1" style="fill:#92E3A9;stroke:#263238;stroke-linecap:round;stroke-linejoin:round"></path><path d="M402,358.85s-.35,5.94,2.45,7,6.64,1.05,6.64,5.59-5.25,21.32-7,26.56,1.05,13.29-5.25,17.83-15.72,5.24-18.87,2.1,4.2-7.34,4.89-11.89,6.3-23.76,6.3-26.21-6.3-3.49-14-11.53-8-12.59-8-12.59Z" style="fill:#92E3A9"></path><g style="clip-path:url(#freepik--clip-path--inject-3)"><path d="M402,358.85s-.35,5.94,2.45,7,6.64,1.05,6.64,5.59-5.25,21.32-7,26.56,1.05,13.29-5.25,17.83-15.72,5.24-18.87,2.1,4.2-7.34,4.89-11.89,6.3-23.76,6.3-26.21-6.3-3.49-14-11.53-8-12.59-8-12.59Z" style="opacity:0.5"></path></g><path d="M402,358.85s-.35,5.94,2.45,7,6.64,1.05,6.64,5.59-5.25,21.32-7,26.56,1.05,13.29-5.25,17.83-15.72,5.24-18.87,2.1,4.2-7.34,4.89-11.89,6.3-23.76,6.3-26.21-6.3-3.49-14-11.53-8-12.59-8-12.59Z" style="fill:none;stroke:#263238;stroke-linecap:round;stroke-linejoin:round"></path><path d="M314.41,316.18s-1.87,18,3.41,28.24,15.21,21.42,15.83,31.66-2.8,28.56-4.35,33.21-7.14,9-6.2,11.79,12.41,3.11,18.31,2.8,10.24-2.8,10.86-9.31,2.17-32.9,3.1-39.42,2.18-15.83-1.55-19.86-23-19.56-25.14-24.21-1.24-2.17-3.41-6.52S318.13,314,316.89,314,314.41,316.18,314.41,316.18Z" style="fill:#92E3A9;stroke:#263238;stroke-linecap:round;stroke-linejoin:round"></path><path d="M446.46,298.93c3.15,9.46,2.8,31.51,2.8,31.51s.7,7-2.1,18.91-2.1,8.4-1.05,12.6,1.05,30.81,1.05,39.56-1.75,18.91-7,20.31-14,2.8-17.51,1.4-3.5-4.55-2.1-7.35,3.85-2.8,6.65-10.15S429,383.31,429,383.31a13.85,13.85,0,0,1-9.8-5.95C415.3,371.75,416,356,416,356l-10.5,4.2c-21,7.7-41.32,3.5-41.32,3.5a58,58,0,0,1-26.25-8.4C325,347.25,319.37,328,319.37,328l-5.6-9.8s-8.75-20.31-8-38.51,3.15-53.22,0-75.63-22.06-48.66-22.06-48.66-1.4,2.1-6.3,3.85-14.71.35-20-2.1A38,38,0,0,0,243.05,154a1.65,1.65,0,0,1-1.75-2.45s-5.61-.7-5.26-4.56,4.21-11.9,11.56-13.3a43.34,43.34,0,0,0,12.25-4.2s11.2-5.6,21.36-3.5,27.31,16.1,38.16,38.86,18.21,43.06,21.36,61.62,7.7,41.31,7.7,41.31l4.9-7a1.3,1.3,0,0,1,1.75-.37l3.5,2.16,2.39-8a2.7,2.7,0,0,1,3.32-1.83l3.75,1,5.27-9.44a2.61,2.61,0,0,1,3.72-.9l4,2.64,5.52-7.27a1.64,1.64,0,0,1,2.46-.16l4.62,4.62,7.42-5.83a2.39,2.39,0,0,1,3.65.89l2.59,5.65,7.06-2.72a2.18,2.18,0,0,1,2.82,1.26l2,5.31,3.82-.51a1.86,1.86,0,0,1,2,1.14l1.9,4.62,3.09.44a2.3,2.3,0,0,1,2,2.08l.55,6.58h1.59a1.88,1.88,0,0,1,1.84,1.53l.77,4.07,2.42.22a2.05,2.05,0,0,1,1.8,1.51l.68,2.47.43.08a2.33,2.33,0,0,1,1.93,1.95l.79,5s2.1,9.8,1.75,14" style="fill:#92E3A9"></path><g style="clip-path:url(#freepik--clip-path-2--inject-3)"><path d="M418.44,344.92c-17.51,6.94-74.34.33-82.6-22.14s-6.28-54.51-6.28-54.51,3.31-2-5.94-50.55S287,152,287,152l-4.63,4.63v.08a6.61,6.61,0,0,0,1.34-1.29s18.9,26.26,22.06,48.66.7,57.42,0,75.63,8,38.51,8,38.51l5.6,9.8s5.6,19.26,18.56,27.31a58,58,0,0,0,26.25,8.4s20.31,4.2,41.32-3.5L416,356c25.64-20.3,23.91-38.5,23.91-38.5S436,338,418.44,344.92Z" style="fill:#fff"></path></g><path d="M446.46,298.93c3.15,9.46,2.8,31.51,2.8,31.51s.7,7-2.1,18.91-2.1,8.4-1.05,12.6,1.05,30.81,1.05,39.56-1.75,18.91-7,20.31-14,2.8-17.51,1.4-3.5-4.55-2.1-7.35,3.85-2.8,6.65-10.15S429,383.31,429,383.31a13.85,13.85,0,0,1-9.8-5.95C415.3,371.75,416,356,416,356l-10.5,4.2c-21,7.7-41.32,3.5-41.32,3.5a58,58,0,0,1-26.25-8.4C325,347.25,319.37,328,319.37,328l-5.6-9.8s-8.75-20.31-8-38.51,3.15-53.22,0-75.63-22.06-48.66-22.06-48.66-1.4,2.1-6.3,3.85-14.71.35-20-2.1A38,38,0,0,0,243.05,154a1.65,1.65,0,0,1-1.75-2.45s-5.61-.7-5.26-4.56,4.21-11.9,11.56-13.3a43.34,43.34,0,0,0,12.25-4.2s11.2-5.6,21.36-3.5,27.31,16.1,38.16,38.86,18.21,43.06,21.36,61.62,7.7,41.31,7.7,41.31l4.9-7a1.3,1.3,0,0,1,1.75-.37l3.5,2.16,2.39-8a2.7,2.7,0,0,1,3.32-1.83l3.75,1,5.27-9.44a2.61,2.61,0,0,1,3.72-.9l4,2.64,5.52-7.27a1.64,1.64,0,0,1,2.46-.16l4.62,4.62,7.42-5.83a2.39,2.39,0,0,1,3.65.89l2.59,5.65,7.06-2.72a2.18,2.18,0,0,1,2.82,1.26l2,5.31,3.82-.51a1.86,1.86,0,0,1,2,1.14l1.9,4.62,3.09.44a2.3,2.3,0,0,1,2,2.08l.55,6.58h1.59a1.88,1.88,0,0,1,1.84,1.53l.77,4.07,2.42.22a2.05,2.05,0,0,1,1.8,1.51l.68,2.47.43.08a2.33,2.33,0,0,1,1.93,1.95l.79,5s2.1,9.8,1.75,14" style="fill:none;stroke:#263238;stroke-linecap:round;stroke-linejoin:round"></path><path d="M422.58,418.07a3,3,0,0,0-3.09,1.62c-1.07,2.45.22,4,2,3.93s3.24-3.5,2.14-4.89A1.8,1.8,0,0,0,422.58,418.07Z" style="fill:#8c8c8c;stroke:#263238;stroke-linecap:round;stroke-linejoin:round"></path><path d="M427.24,418.9a3,3,0,0,0-3.09,1.62c-1.07,2.45.22,4,2,3.93s3.24-3.5,2.15-4.89A1.75,1.75,0,0,0,427.24,418.9Z" style="fill:#8c8c8c;stroke:#263238;stroke-linecap:round;stroke-linejoin:round"></path><path d="M432,419.44a2.93,2.93,0,0,0-3,1.58c-1,2.39.21,3.87,1.93,3.84s3.16-3.42,2.09-4.78A1.74,1.74,0,0,0,432,419.44Z" style="fill:#8c8c8c;stroke:#263238;stroke-linecap:round;stroke-linejoin:round"></path><path d="M324.85,417.05a3.27,3.27,0,0,0-3.37,1.77c-1.16,2.67.24,4.32,2.17,4.29s3.53-3.82,2.34-5.34A1.92,1.92,0,0,0,324.85,417.05Z" style="fill:#8c8c8c;stroke:#263238;stroke-linecap:round;stroke-linejoin:round"></path><path d="M329.94,418a3.29,3.29,0,0,0-3.37,1.77c-1.17,2.68.24,4.33,2.16,4.29s3.54-3.82,2.34-5.34A1.89,1.89,0,0,0,329.94,418Z" style="fill:#8c8c8c;stroke:#263238;stroke-linecap:round;stroke-linejoin:round"></path><path d="M335.14,418.54a3.23,3.23,0,0,0-3.29,1.73c-1.14,2.61.23,4.22,2.11,4.19s3.45-3.73,2.29-5.21A2,2,0,0,0,335.14,418.54Z" style="fill:#8c8c8c;stroke:#263238;stroke-linecap:round;stroke-linejoin:round"></path><path d="M241.3,151.54a23.72,23.72,0,0,1,14.17-.9c8.08,1.88,7.27,2.69,10.5,2.69" style="fill:none;stroke:#263238;stroke-linecap:round;stroke-linejoin:round"></path><path d="M265.44,150.91s-.27,2.69,3.5,4.31" style="fill:none;stroke:#263238;stroke-linecap:round;stroke-linejoin:round"></path><path d="M283.66,155.39s7.1-5.83,2.79-13.91" style="fill:none;stroke:#263238;stroke-linecap:round;stroke-linejoin:round"></path><path d="M241.39,141.78c.33.75,1.59.92,2.82.38s1.95-1.58,1.62-2.33-1.59-.92-2.81-.38S241.06,141,241.39,141.78Z" style="fill:none;stroke:#263238;stroke-linecap:round;stroke-linejoin:round"></path><path d="M270.52,134.5s.92-3.08-3.07-2.46-2.15,3.68-2.15,3.68Z" style="fill:#fff;stroke:#263238;stroke-linecap:round;stroke-linejoin:round"></path><path d="M265.6,137s5.53,2.46,8.3-.61" style="fill:none;stroke:#263238;stroke-linecap:round;stroke-linejoin:round"></path><path d="M267.35,132.06a2.32,2.32,0,0,1,1,1.91,2.4,2.4,0,0,1-.27,1.11l-2.75.64S263.49,132.71,267.35,132.06Z" style="fill:#263238;stroke:#263238;stroke-linecap:round;stroke-linejoin:round"></path><path d="M388.89,330.15s-.93,13,1.24,21.41,6.21,6.83,5.28,20.8-5.59,25.14-5.59,35.69,2.49,17.07,0,21.72-18,5.28-23.89,3.42S362.2,426.36,365,418s5.28-34.45,3.42-41.28-3.11-14.58-4.35-17.07-19.55-16.14-20.17-28.24,4-16.14,4-16.14" style="fill:#92E3A9;stroke:#263238;stroke-linecap:round;stroke-linejoin:round"></path><path d="M366.4,427.16a3.81,3.81,0,0,0-3.91,2c-1.36,3.12.27,5,2.51,5s4.11-4.44,2.72-6.21A2.25,2.25,0,0,0,366.4,427.16Z" style="fill:#8c8c8c;stroke:#263238;stroke-linecap:round;stroke-linejoin:round"></path><path d="M372.31,428.21a3.83,3.83,0,0,0-3.92,2.05c-1.35,3.12.28,5,2.52,5s4.11-4.44,2.72-6.21A2.25,2.25,0,0,0,372.31,428.21Z" style="fill:#8c8c8c;stroke:#263238;stroke-linecap:round;stroke-linejoin:round"></path><path d="M378.35,428.9a3.72,3.72,0,0,0-3.82,2c-1.32,3,.27,4.9,2.45,4.87s4-4.33,2.66-6.06A2.21,2.21,0,0,0,378.35,428.9Z" style="fill:#8c8c8c;stroke:#263238;stroke-linecap:round;stroke-linejoin:round"></path><path d="M348.43,267.77a73.21,73.21,0,0,0,4.59,14" style="fill:none;stroke:#263238;stroke-linecap:round;stroke-linejoin:round"></path><ellipse cx="370.37" cy="273.72" rx="8.09" ry="5.45" style="fill:#fff"></ellipse><path d="M377.47,261.66c0,1.64,2.29,3,5.12,3s5.12-1.33,5.12-3-2.29-3-5.12-3S377.47,260,377.47,261.66Z" style="fill:#fff"></path><path d="M394,270.42c0,1.55,2.59,2.8,5.78,2.8s5.78-1.25,5.78-2.8-2.59-2.81-5.78-2.81S394,268.86,394,270.42Z" style="fill:#fff"></path><path d="M395,257.53c0,1.92,2.66,3.47,5.95,3.47s5.94-1.55,5.94-3.47-2.66-3.47-5.94-3.47S395,255.61,395,257.53Z" style="fill:#fff"></path><ellipse cx="414.14" cy="267.28" rx="2.97" ry="2.31" style="fill:#fff"></ellipse><path d="M423.59,274.64c-.51,1.56.77,3.38,2.85,4.05s4.18,0,4.69-1.6-.77-3.38-2.85-4S424.09,273.08,423.59,274.64Z" style="fill:#fff"></path><path d="M417.78,260.36c-.4,1.24,1,2.81,3.2,3.52s4.26.27,4.66-1-1-2.81-3.2-3.52S418.18,259.12,417.78,260.36Z" style="fill:#fff"></path><path d="M456.64,306.53c-.74,1.07.18,3,2.05,4.29s4,1.48,4.74.41-.18-3-2.05-4.29S457.38,305.46,456.64,306.53Z" style="fill:#fff"></path><path d="M460.41,314.22c-.45.66.11,1.83,1.27,2.63s2.45.91,2.9.25-.11-1.83-1.26-2.63S460.87,313.56,460.41,314.22Z" style="fill:#fff"></path><path d="M470.43,321.22c-.45.66.11,1.83,1.27,2.63s2.45.91,2.9.25-.11-1.83-1.26-2.63S470.89,320.56,470.43,321.22Z" style="fill:#fff"></path><path d="M460.19,321.22c-.45.66.11,1.83,1.26,2.63s2.46.91,2.91.25-.11-1.83-1.26-2.63S460.65,320.56,460.19,321.22Z" style="fill:#fff"></path><path d="M338.39,253.18c-1.26.32-1.85,2.36-1.3,4.58s2,3.76,3.28,3.45,1.85-2.36,1.3-4.58S339.66,252.87,338.39,253.18Z" style="fill:#fff"></path><path d="M342,264.09c-1.27.31-1.85,2.36-1.3,4.57s2,3.76,3.27,3.45,1.85-2.36,1.3-4.58S343.29,263.77,342,264.09Z" style="fill:#fff"></path><path d="M334.43,221.47c-1.27.31-1.85,2.36-1.3,4.57s2,3.76,3.28,3.45,1.84-2.36,1.29-4.58S335.69,221.16,334.43,221.47Z" style="fill:#fff"></path><path d="M336.13,261.45c-.78.19-1.13,1.44-.8,2.8s1.24,2.31,2,2.12,1.14-1.45.8-2.81S336.91,261.25,336.13,261.45Z" style="fill:#fff"></path><path d="M336,237.25c-.78.19-1.13,1.44-.8,2.8s1.24,2.31,2,2.12,1.14-1.45.8-2.81S336.73,237.05,336,237.25Z" style="fill:#fff"></path><path d="M340.77,244.35c-.78.19-1.13,1.45-.8,2.81s1.24,2.3,2,2.11,1.14-1.45.8-2.81S341.54,244.16,340.77,244.35Z" style="fill:#fff"></path><path d="M450.17,298.36c-.45.66.11,1.84,1.26,2.63s2.46.91,2.91.25-.11-1.83-1.26-2.63S450.63,297.7,450.17,298.36Z" style="fill:#fff"></path><path d="M258.1,151.19a97,97,0,0,1,0,11.37c-.35,7,3,.88,3,.88s.87,8.4,2.45,6.13.17-11.73.17-11.73,2.1,5.43,2.28,1.75a9.41,9.41,0,0,0-2.28-6.3Z" style="fill:#92E3A9"></path><g style="clip-path:url(#freepik--clip-path-3--inject-3)"><path d="M258.1,151.19a97,97,0,0,1,0,11.37c-.35,7,3,.88,3,.88s.87,8.4,2.45,6.13.17-11.73.17-11.73,2.1,5.43,2.28,1.75a9.41,9.41,0,0,0-2.28-6.3Z" style="fill:#fff;opacity:0.4"></path></g><path d="M258.1,151.19a97,97,0,0,1,0,11.37c-.35,7,3,.88,3,.88s.87,8.4,2.45,6.13.17-11.73.17-11.73,2.1,5.43,2.28,1.75a9.41,9.41,0,0,0-2.28-6.3Z" style="fill:none;stroke:#263238;stroke-linecap:round;stroke-linejoin:round"></path></g><g id="freepik--Dinosaur-1--inject-3"><ellipse cx="186" cy="432" rx="89" ry="9" style="fill:#263238"></ellipse><path d="M256.1,431.35s-.62-2.72-2.23-3.47a13.64,13.64,0,0,0-4.63-.62c-1.25-.57-2.27-1.68-5.27-5.09C240,417.71,235,406.68,235,406.68l3.42-20.74c-5.25-2.37-20.22,1.57-18.12,6.3s-.26,15.49,2.1,18.9,8.67,11.56,8.67,11.56a22.09,22.09,0,0,0,.52,3.67c.53,2.63,2.63.27,4.73.53s5.51,5.25,7.61,5.78a24.36,24.36,0,0,0,5.78.26s3.91,0,4.44-1.1C255.13,431.62,256.1,431.35,256.1,431.35Z" style="fill:#666;stroke:#263238;stroke-linecap:round;stroke-linejoin:round"></path><path d="M136.31,366.51s4.21,10.76-1.05,18.64-11.81,8.66-10.5,13.13-2.36,22.05-2.36,26,2.36,1.05,2.36,1.05,4.73,3.42,5.78,4.73,16,1.05,16,1.05h1.32a9.09,9.09,0,0,0-1.58-4.2c-1.31-1.58-3.41-1.58-5.25-2.36s-4.46-4.21-4.73-5.78,1.84-11,3.15-13.39,13.66-7.35,17.86-11.29,7.88-13.92,6.56-17.07S142.35,359.15,136.31,366.51Z" style="fill:#666;stroke:#263238;stroke-linecap:round;stroke-linejoin:round"></path><path d="M292.46,379.81a169.29,169.29,0,0,1-17.5-2.1c-7-1.4-21.36-2.1-27,2.45s-12.61,14.35-24.16,17.51-38.86,0-49.71-2.81-35.37-21.7-42-27.65-16.1-11.56-22.4-9.11S82.4,366.16,64.54,363s-41-14-52.51-30.46,0-2.8,9.45,2.46,28.36,15.05,45.86,10.85,44.82-28.71,64.42-36.41,29.06-9.11,42-5.95,16.1,4.55,16.1,4.55,26.61,1.75,35,7.7,18.91,14.7,18.91,14.7,2.1,9.46,16.45,21,14.36,12.6,21,16.11S292.09,374.77,292.46,379.81Z" style="fill:#8c8c8c"></path><g style="clip-path:url(#freepik--clip-path-4--inject-3)"><path d="M186.47,328.69c.26,9.19,1.83,34.4,3.94,34.93s5.51-17.07,6.82-25.21,6.57-16.28,9.46-21.53c1.43-2.61,3.32-4.51,4.31-6a176.11,176.11,0,0,0-21-2.82C189,311.36,186.25,321.17,186.47,328.69Z" style="fill:#92E3A9"></path><path d="M176.75,352.33c1.84-.79,0-12.61.26-21,.21-6.44,4.1-19.64,5.91-25.47-2.29-.64-5.27-1.42-9.14-2.36a55.6,55.6,0,0,0-7.33-1.31c-.48,4.56-.61,20.92,2.16,31.24C171.5,344.19,174.91,353.11,176.75,352.33Z" style="fill:#92E3A9"></path><path d="M151.28,326.33c8.4,6.83,8.14,10,7.62,6-.42-3.13-3.16-22.19-4.27-29.87a88.6,88.6,0,0,0-16.3,4.47C139.42,310.47,143.38,319.91,151.28,326.33Z" style="fill:#92E3A9"></path><path d="M104.33,325.26c-3.47,2.3-7,4.63-10.38,6.87,2.68,3.27,4.84,4.68,10.07,9.17,5.51,4.72,8.4,3.94,8.4,3.94S110.06,338.93,108,334Z" style="fill:#92E3A9"></path><path d="M278.56,370.81c-10.88-3.35-27.63-4.6-35.17,2.51s-23,18.92-44,18.84-41.85-16.46-60.29-26.37-14.65-17.17-20.93-17.17-27.63,9.63-51.5,9.63c-9.29,0-17.16,0-23.59-1.93A93.89,93.89,0,0,0,64.54,363c17.86,3.16,38.86-2.45,45.17-4.9s15.75,3.15,22.4,9.11,31.16,24.85,42,27.65,38.16,6,49.71,2.81,18.56-13,24.16-17.51,19.95-3.85,27-2.45a163.1,163.1,0,0,0,17,2.06C287.73,375.84,282.91,372.15,278.56,370.81Z" style="fill:#fff"></path><path d="M224.89,315.74a23.1,23.1,0,0,0-5.65-2.68c-3,5.58-10.19,20.19-8.72,29,1.84,11,.79,24.42,2.1,25.21s6.3-10.51,7.61-18.38c1.06-6.33,8.54-19.77,12-27.67C229.8,319.32,227.26,317.42,224.89,315.74Z" style="fill:#92E3A9"></path><path d="M84.06,348.65c2.36,1.31,10,5,12.34,5s-1.31-2.63-3.94-6.3c-1.47-2.06-4.42-6.51-6.74-10-2.78,1.68-5.48,3.2-8.08,4.51C79.44,344.17,81.86,347.43,84.06,348.65Z" style="fill:#92E3A9"></path><path d="M130.54,338.93s-1.32-3.93-3.15-10.5c-1.18-4.19-3-10.74-4.15-14.93-4.13,2.25-8.45,4.92-12.84,7.76a63.43,63.43,0,0,0,7,10.06A24.86,24.86,0,0,0,130.54,338.93Z" style="fill:#92E3A9"></path><path d="M44.22,344.8c-1.62-.44-3.21-.94-4.76-1.48a13.72,13.72,0,0,0,2.32,5.33C43,350,43.78,347.31,44.22,344.8Z" style="fill:#92E3A9"></path><path d="M51,346.27c1.13,2.07,4.2,7.11,4.2,7.11a4,4,0,0,0,0-1.84,22.31,22.31,0,0,1,.68-4.75C54.22,346.7,52.59,346.52,51,346.27Z" style="fill:#92E3A9"></path><path d="M66.73,350.75a25.77,25.77,0,0,0-.87-4.58,38.82,38.82,0,0,1-6.86.69l.38.74c.52,1,7.61,8.14,7.61,8.14S66.73,352.85,66.73,350.75Z" style="fill:#92E3A9"></path><path d="M199.07,357.32s-3.41,4.2-1.57,6,3.67-.52,3.67-4.46S199.07,357.32,199.07,357.32Z" style="fill:#92E3A9"></path><path d="M181,338.76s-2.28,4.91,0,6.24,3.44-1.41,2.47-5.23S181,338.76,181,338.76Z" style="fill:#92E3A9"></path><path d="M218,358.51s-1.58,3.42,0,4.34,2.38-1,1.71-3.64S218,358.51,218,358.51Z" style="fill:#92E3A9"></path><path d="M196.6,352.67s-1.58,3.42,0,4.34,2.39-1,1.71-3.63S196.6,352.67,196.6,352.67Z" style="fill:#92E3A9"></path></g><path d="M292.46,379.81a169.29,169.29,0,0,1-17.5-2.1c-7-1.4-21.36-2.1-27,2.45s-12.61,14.35-24.16,17.51-38.86,0-49.71-2.81-35.37-21.7-42-27.65-16.1-11.56-22.4-9.11S82.4,366.16,64.54,363s-41-14-52.51-30.46,0-2.8,9.45,2.46,28.36,15.05,45.86,10.85,44.82-28.71,64.42-36.41,29.06-9.11,42-5.95,16.1,4.55,16.1,4.55,26.61,1.75,35,7.7,18.91,14.7,18.91,14.7,2.1,9.46,16.45,21,14.36,12.6,21,16.11S292.09,374.77,292.46,379.81Z" style="fill:none;stroke:#263238;stroke-linecap:round;stroke-linejoin:round"></path><path d="M278.55,343.54s-4.61,6.77,2.46,9.22,21.51-4.91,24-17.21A35.68,35.68,0,0,1,278.55,343.54Z" style="fill:#fff;stroke:#263238;stroke-linecap:round;stroke-linejoin:round"></path><path d="M251,314.83s-6.39-6.39-6.69-4.75a35,35,0,0,0,.15,6.09l-1.78,1.93s-5.5-4.9-5.8-3,3.42,8.62,3.42,8.62l-1.79,1.79s-9.51-1.19-9.21,1,5.94,5.94,5.94,5.94l-.89,4.31s-6.54,1.34-7,2.83,6.24,4,6.24,4v5.2s-6.54,2.08-5.2,3.87S234.6,355,234.6,355l.74,4.6s-5.79,3-5.5,4.61,6.4,1.64,6.84,1.64-1.78,5.49-.3,6.24,3.87-2.83,3.87-2.83-4-18.58.44-30.91S249.91,319,249.91,319Z" style="fill:#fff;stroke:#263238;stroke-linecap:round;stroke-linejoin:round"></path><path d="M282.69,349.51s.62-6.45-4.3-10.14a24.78,24.78,0,0,0-11.06-4.3s-4-4.61-7.69-8.61-7.06-12.6-10.75-12.6-12.3,3.07-16,22.74,4.91,35,7.07,33.81,4.61-4.92,9.52-6.15,7.07,0,7.07,0l.62,7.07,7.06-3.07s2.16,3.07,11.38,5.53,11.67,2.15,13.82,4.92a25.55,25.55,0,0,1,3.39,6.14s5.53-3.07,6.14-8.6,1.54-7.38-.31-11.07a9.79,9.79,0,0,0-7.06-4.91,16.71,16.71,0,0,1-3.69-1.23S282.69,351.35,282.69,349.51Z" style="fill:#8c8c8c;stroke:#263238;stroke-linecap:round;stroke-linejoin:round"></path><path d="M270.85,336.21s-2.94,4,.17,9.18" style="fill:none;stroke:#263238;stroke-linecap:round;stroke-linejoin:round"></path><path d="M295.12,374.37a1,1,0,1,1-.36-1.25A.92.92,0,0,1,295.12,374.37Z" style="fill:#fff;stroke:#263238;stroke-linecap:round;stroke-linejoin:round"></path><path d="M269.79,353.2s-.93-3.08,3.07-2.46,2.15,3.69,2.15,3.69Z" style="fill:#fff;stroke:#263238;stroke-linecap:round;stroke-linejoin:round"></path><path d="M274.7,355.66s-5.53,2.46-8.29-.62" style="fill:none;stroke:#263238;stroke-linecap:round;stroke-linejoin:round"></path><path d="M273,350.76a2.31,2.31,0,0,0-1,1.92,2.52,2.52,0,0,0,.27,1.1l2.76.65S276.81,351.41,273,350.76Z" style="fill:#263238;stroke:#263238;stroke-linecap:round;stroke-linejoin:round"></path><path d="M274.4,337.83s-4.61,6.76,2.45,9.22,21.52-4.92,24-17.21A35.68,35.68,0,0,1,274.4,337.83Z" style="fill:#fff;stroke:#263238;stroke-linecap:round;stroke-linejoin:round"></path><path d="M303.23,357.06a13.89,13.89,0,0,1-5.39,4.24c-3.26,1.31-3.59,2.45-2.12,4.73s3.59,1.31,5.22-.16S304.05,361.14,303.23,357.06Z" style="fill:#fff;stroke:#263238;stroke-linecap:round;stroke-linejoin:round"></path><path d="M205.57,374.86s-5.5,16.74-9.09,21.28-2.15,6.93-.23,9.32,6.93,10.76,6.93,12.68-3.11,5.73-1.67,6.21,3.34-1.43,3.34-1.43-.72,6.45,1.2,8.13,8.13,2.39,9.56-1.92,0-14.34-.72-17.21-2.87-9.8-2.87-9.8,12.2-1.44,16.5-18.89" style="fill:#8c8c8c;stroke:#263238;stroke-linecap:round;stroke-linejoin:round"></path><path d="M206.84,428.24S205,432,205.38,432.8s2.65-.18,3.19-2.28S208.66,428.15,206.84,428.24Z" style="fill:#fff;stroke:#263238;stroke-linecap:round;stroke-linejoin:round"></path><path d="M210.85,429.79s-.55,4-.18,4.19,2.28-1.18,2.73-3S210.85,429.79,210.85,429.79Z" style="fill:#fff;stroke:#263238;stroke-linecap:round;stroke-linejoin:round"></path><path d="M215,430.52s.73,3.37,1.28,2.55.73-4.37.18-5.1S215,429.06,215,430.52Z" style="fill:#fff;stroke:#263238;stroke-linecap:round;stroke-linejoin:round"></path><path d="M175.15,426.75a30.25,30.25,0,0,1,6.52,3c2.59,1.72,2.34,3,2.34,3l-5.91-.25S176.62,427.37,175.15,426.75Z" style="fill:#fff;stroke:#263238;stroke-linecap:round;stroke-linejoin:round"></path><path d="M167.56,341s16.28,26.79,13.39,41.49a32.84,32.84,0,0,1-14.7,21.27s2.17,17,3.41,18.38c4.87,5.44,10.12,5.05,10.9,7.41a14.41,14.41,0,0,0,1.36,3.2s-6.48-.37-11.21-.37-7.09-.78-7.61-2.62-2.63-4.47-4.73-4.73-3.68,3.68-3.94,1.31,1-9.71,1-9.71-2.1-3.94-3.67-7.88-.27-6.83,1.05-12.08-.53-11.81-6.31-16.54-14.7-15.23-16.54-25.73" style="fill:#8c8c8c"></path><g style="clip-path:url(#freepik--clip-path-5--inject-3)"><path d="M169.92,345.76s-10-2.36-16.8.26-12.34,6.83-8.67,6.83,8.93-3.41,18.65-.26,11.81,2.89,11.81,2.89S170.45,347.34,169.92,345.76Z" style="fill:#92E3A9"></path><path d="M178.59,365.19S175.7,362,167,362s-14.45,6-12.35,6,15-.52,18.65,1.31,6.3,4.47,7.09,3.94S178.33,366.77,178.59,365.19Z" style="fill:#92E3A9"></path><path d="M181,382.52s-3.67-3.67-10.24-2.62-4.72,2.36-2.89,2.36,7.36,2.36,8.67,3.41,1,3.42,2.62,2.1S181,382.52,181,382.52Z" style="fill:#92E3A9"></path><path d="M163.1,374.65s-9.46-.27-5.52,1.05,9.19,1.57,9.46-.27S163.1,374.65,163.1,374.65Z" style="fill:#92E3A9"></path><path d="M148.13,355.21s-8.14,2.89-5.25,3.68,9.19-1.05,9.19-2.63S148.13,355.21,148.13,355.21Z" style="fill:#92E3A9"></path></g><path d="M167.56,341s16.28,26.79,13.39,41.49a32.84,32.84,0,0,1-14.7,21.27s2.17,17,3.41,18.38c4.87,5.44,10.12,5.05,10.9,7.41a14.41,14.41,0,0,0,1.36,3.2s-6.48-.37-11.21-.37-7.09-.78-7.61-2.62-2.63-4.47-4.73-4.73-3.68,3.68-3.94,1.31,1-9.71,1-9.71-2.1-3.94-3.67-7.88-.27-6.83,1.05-12.08-.53-11.81-6.31-16.54-14.7-15.23-16.54-25.73" style="fill:none;stroke:#263238;stroke-linecap:round;stroke-linejoin:round"></path><path d="M172.07,428.72s-2.09,1.11-1.72,2.22,1.72,1.72,3.81,1.84,5.29.13,5.29.13S177.12,427.74,172.07,428.72Z" style="fill:#fff;stroke:#263238;stroke-linecap:round;stroke-linejoin:round"></path></g></svg>