<svg xmlns="http://www.w3.org/2000/svg" viewBox="0 0 500 500"><g id="freepik--background-complete--inject-2"><polygon points="315.56 374.43 292.69 473.7 302.36 473.68 325.27 375.36 315.56 374.43" style="fill:#e0e0e0"></polygon><polygon points="357.27 374.43 380.21 473.7 389.4 473.7 367.2 374.43 357.27 374.43" style="fill:#e0e0e0"></polygon><polygon points="300.12 299.86 313.14 368.21 327.94 368.21 314.03 299.86 300.12 299.86" style="fill:#e0e0e0"></polygon><polygon points="73.36 374.43 54.71 473.7 64.21 473.7 83.69 374.43 73.36 374.43" style="fill:#e0e0e0"></polygon><polygon points="112.58 374.43 133.9 473.16 143.28 473.16 122.69 374.43 112.58 374.43" style="fill:#e0e0e0"></polygon><polygon points="57.93 299.86 70.95 368.21 85.74 368.21 71.84 299.86 57.93 299.86" style="fill:#e0e0e0"></polygon><polygon points="28.64 293.65 31.3 306.07 328.38 306.07 324.91 293.65 28.64 293.65" style="fill:#ebebeb"></polygon><polygon points="34.31 317.78 37.45 330.21 332.52 330.21 329.84 317.78 34.31 317.78" style="fill:#ebebeb"></polygon><polygon points="40.18 342.76 43.1 355.19 337.25 355.19 334.47 342.76 40.18 342.76" style="fill:#ebebeb"></polygon><rect x="62.66" y="368.21" width="317.2" height="12.43" style="fill:#ebebeb"></rect><path d="M399.86,311.76c-20.39-5.32-38.2-18.72-48.11-36.2a69.7,69.7,0,0,1-5.05-57.51c5.26-14.63,15.38-27.5,19.72-42.39,4.93-16.9,2-34.82-1-52.1s-6.15-35.16-1.53-52.13S383,38.52,401.72,37.31C419.07,36.19,435.1,48.2,442.34,63s7.29,31.71,5.6,47.88-5,32.31-4,48.53c2.1,32.82,21.79,63.72,19.47,96.54-1.2,17.09-8.28,28-20.4,40.87-10.45,11.08-27.81,18.37-43.19,15" style="fill:#f5f5f5"></path><path d="M406,474.42c-.18,0-.32-72.72-.32-162.41s.14-162.42.32-162.42.33,72.71.33,162.42S406.18,474.42,406,474.42Z" style="fill:#e0e0e0"></path><path d="M405.05,255a24.15,24.15,0,0,1-3-2.64c-1.79-1.69-4.22-4.08-6.77-6.81s-4.92-5.15-6.62-6.92A24,24,0,0,1,386,235.7a25.37,25.37,0,0,1,3,2.65c1.79,1.69,4.21,4.07,6.77,6.81s4.91,5.14,6.61,6.91A24.91,24.91,0,0,1,405.05,255Z" style="fill:#e0e0e0"></path><path d="M407,187a22.57,22.57,0,0,0,6.64-2.76,18.33,18.33,0,0,0,5.32-5.36,17.8,17.8,0,0,0,2.89-8.49l0-.29.38.32a14.33,14.33,0,0,0-8,4.4,30.38,30.38,0,0,0-4.46,6c-1.06,1.84-1.82,3.38-2.32,4.45a12.71,12.71,0,0,1-.83,1.64,9.18,9.18,0,0,1,.59-1.73,40.9,40.9,0,0,1,2.16-4.56,28.55,28.55,0,0,1,4.42-6.16,14.62,14.62,0,0,1,8.34-4.62l.41-.07,0,.38,0,.3a18.46,18.46,0,0,1-8.61,14.16,16.87,16.87,0,0,1-4.94,2.1,12.38,12.38,0,0,1-1.44.27A1.58,1.58,0,0,1,407,187Z" style="fill:#e0e0e0"></path><path d="M407,187c-.13-.11,1.9-2.64,4.55-5.66s4.92-5.37,5.06-5.26-1.89,2.63-4.55,5.65S407.15,187.08,407,187Z" style="fill:#e0e0e0"></path><path d="M259.57,85c.5-3.57-4.55-6.51-8.34-6.82-1.81-.14-3.69.13-5.4-.47-3.71-1.29-5.2-6.08-8.82-7.61-2.7-1.14-5.82-.13-8.45,1.19s-5.21,3-8.15,3.18c-2.55.16-5.32-.79-7.55.46-1.66.93-2.53,2.84-4.07,4a9.73,9.73,0,0,1-5.31,1.45,15,15,0,0,0-5.48.89c-1.7.78-3.1,2.57-2.75,4.4Z" style="fill:#f5f5f5"></path><path d="M310.84,136c.72-5.22-6.66-9.53-12.2-10-2.65-.22-5.4.19-7.9-.68-5.43-1.9-7.6-8.91-12.89-11.14-4-1.67-8.52-.19-12.36,1.75s-7.63,4.36-11.92,4.63c-3.73.24-7.78-1.14-11,.68-2.43,1.36-3.71,4.16-5.95,5.81s-5.05,2-7.77,2.11-5.54.18-8,1.31-4.53,3.76-4,6.43Z" style="fill:#ebebeb"></path><path d="M123.5,130.55c.62-4.55-5.8-8.29-10.62-8.68-2.3-.19-4.69.17-6.87-.59-4.72-1.65-6.61-7.75-11.21-9.69-3.45-1.45-7.41-.16-10.75,1.52s-6.64,3.79-10.37,4c-3.25.21-6.77-1-9.61.59-2.12,1.18-3.22,3.62-5.17,5.06s-4.4,1.7-6.77,1.83-4.81.16-7,1.14-3.94,3.27-3.49,5.6Z" style="fill:#f5f5f5"></path></g><g id="freepik--Floor--inject-2"><path d="M477.75,473.7c0,.15-102,.26-227.74.26s-227.76-.11-227.76-.26,102-.26,227.76-.26S477.75,473.56,477.75,473.7Z" style="fill:#263238"></path></g><g id="freepik--Plant--inject-2"><path d="M274.39,429.14a9,9,0,0,1,4.63,4.95,14.12,14.12,0,0,1,.75,6.59c-.41,4.26-2.86,8.52-5.53,11.87-3.86-3.23-4.86-8.72-5.18-11.53-.51-4.44,1.39-12.63,5.33-11.88" style="fill:#FF725E"></path><path d="M278.8,459.6a6.61,6.61,0,0,1,2.24-6.66,9.88,9.88,0,0,1,7.23-2,4.42,4.42,0,0,1,3.22,1.43,2.89,2.89,0,0,1,.12,3.06,5.84,5.84,0,0,1-2.33,2.18c-3.23,1.88-6.75,3.12-10.48,2" style="fill:#FF725E"></path><path d="M274.26,472.58a4,4,0,0,1,.11-.87c.11-.61.24-1.41.4-2.36a23.35,23.35,0,0,1,2.4-7.52,14.57,14.57,0,0,1,5.58-5.65,10.56,10.56,0,0,1,2.31-.92,5.47,5.47,0,0,1,.67-.15l.24,0a16.57,16.57,0,0,0-3.09,1.3,14.87,14.87,0,0,0-5.42,5.61A24.89,24.89,0,0,0,275,469.4c-.2,1-.37,1.79-.5,2.34A4,4,0,0,1,274.26,472.58Z" style="fill:#263238"></path><path d="M273.53,435.43a1.83,1.83,0,0,1,.05.39c0,.28.06.65.1,1.1.08,1,.17,2.34.26,4.05.2,3.43.4,8.16.5,13.38s.08,9.95,0,13.36c0,1.71-.07,3.09-.11,4.05,0,.45,0,.81-.06,1.1a1.42,1.42,0,0,1,0,.38,1.73,1.73,0,0,1,0-.39c0-.28,0-.65,0-1.1,0-1,0-2.37,0-4.05,0-3.42,0-8.14-.1-13.36s-.27-9.94-.41-13.37c-.06-1.68-.12-3.05-.16-4.05,0-.45,0-.82,0-1.1A1.49,1.49,0,0,1,273.53,435.43Z" style="fill:#263238"></path><path d="M272.32,462.14a17.69,17.69,0,0,0-9.77-12.3c-1.28-.61-2.94-1-4-.15s-.75,2.48-.21,3.74a15.71,15.71,0,0,0,13.86,9.06" style="fill:#FF725E"></path><path d="M263.26,453.81a5.46,5.46,0,0,1,.81.35,9.31,9.31,0,0,1,.91.48c.35.21.76.42,1.17.71s.89.6,1.35,1,.94.79,1.43,1.24a19.67,19.67,0,0,1,2.75,3.33,18.28,18.28,0,0,1,1.85,3.82,15.06,15.06,0,0,1,.48,1.76,11.25,11.25,0,0,1,.27,1.57,10.38,10.38,0,0,1,.09,1.29,6.23,6.23,0,0,1,0,1,3.86,3.86,0,0,1-.07.82c-.08,0,0-1.18-.24-3.08a14.66,14.66,0,0,0-.3-1.53,15,15,0,0,0-.51-1.73,18.51,18.51,0,0,0-1.84-3.75,20.28,20.28,0,0,0-2.68-3.28c-.47-.45-.93-.89-1.39-1.25s-.9-.69-1.3-1C264.37,454.39,263.22,453.87,263.26,453.81Z" style="fill:#263238"></path></g><g id="freepik--Characters--inject-2"><path d="M393.65,450.35V460s-8.26-.7-8.5,6.75h9.08l7.33-5.59.7-12.56Z" style="fill:#455a64"></path><path d="M368.56,442.52s0,5.33-4.41,13.09L361,460.17l3.76,9.41s5.84.32,6.3,4.12h-9.46l-6.84-10.94a15.19,15.19,0,0,0,1.52-9.44,73.82,73.82,0,0,0-3.2-12.63l6.66-2.18Z" style="fill:#455a64"></path><path d="M363.5,405.27a19.27,19.27,0,0,0-3.84-2.64,12.95,12.95,0,0,0-16.38,19l3.13-2.46a4.91,4.91,0,0,1,.55-4.4,14.51,14.51,0,0,1,3.19-3.31c2.5-2.08,5.59-4.28,8.72-3.39,1.11.32,2.09,1,3.22,1.26s2.57-.15,2.86-1.27S364.34,406,363.5,405.27Z" style="fill:#455a64"></path><path d="M344.19,420.5a9.51,9.51,0,0,1,6.29-3.56,51.13,51.13,0,0,1,7.4-.46c4.95.12,30.58,3.42,30.58,3.42L402,416.47l11.16-8.37s10.79-6.72,15.74-6.21a21.73,21.73,0,0,1,9,3.29l2.66,3.3,11,3.94s-1.14,4.31-2.92,5.58-4.69,1.9-7.74,2.66-9.26.64-12.05,4.7-9.39,10.91-9.39,10.91-4.82,11.29-9.77,13.45-12.56,4.7-18.91,3-28.42-11.55-28.93-11.68-5.2-3.3-8.25,1.4-5.58,9.77-15,13.32c0,0-3.68,1.78-4.19,4.95s-2.41,12.94-2.41,12.94-3.93-1.77-4.18-5.2,1.14-3.55,1.14-3.55l1-12.56a12,12,0,0,0,6.22-4.7,39.06,39.06,0,0,0,4.36-7.38,101.31,101.31,0,0,1-.66-11.43C340.08,426.26,342.3,422.89,344.19,420.5Z" style="fill:#263238"></path><path d="M438,405.18a21.73,21.73,0,0,0-9-3.29c-2.66-.28-7,1.53-10.44,3.27L422,412a11.16,11.16,0,0,0,5.1,6.83,5.76,5.76,0,0,0,1.68.8,4.46,4.46,0,0,0,3.7-1c.73-.59,1.33-1.34,2.08-1.92a10.26,10.26,0,0,1,5.29-1.72,7,7,0,0,0,3.63-1,6.39,6.39,0,0,0,1.83-3.72l0,0-4.71-1.68Z" style="fill:#455a64"></path><path d="M398.71,440.13S403,452.06,407.9,456s14.32,17.66,14.32,17.66h12.23s-2.26-4.24-6.47-5.05c0,0-5.56-2.48-6.42-5.67s-7.76-27.5-7.76-27.5-8.41-7-11.68-2.27S398.71,440.13,398.71,440.13Z" style="fill:#263238"></path><path d="M427.88,402.56a5.52,5.52,0,0,0-6.27-1.35,8.74,8.74,0,0,0-3.3,3,37,37,0,0,1-2.64,3.66,1.65,1.65,0,0,0-.49.79c-.07.47.31.88.66,1.21a7,7,0,0,0,1.42,1.13c1.73.95,3.88.32,5.71-.43a10.67,10.67,0,0,0,2.9-1.6,4.09,4.09,0,0,0,1.55-2.84C427.25,406.32,428,402.74,427.88,402.56Z" style="fill:#455a64"></path><path d="M439.5,408.72c-.06,0-.25-.13-.61-.23a1.37,1.37,0,0,0-1.3.24,5.83,5.83,0,0,0-.95,1.21c-.25.34-.43.53-.49.5s0-.29.17-.68a3.43,3.43,0,0,1,.94-1.43,1.61,1.61,0,0,1,1-.37,1.54,1.54,0,0,1,.81.19C439.45,408.39,439.56,408.69,439.5,408.72Z" style="fill:#263238"></path><path d="M438.4,408.19a1,1,0,0,0-.95.35,1.31,1.31,0,0,0-.39,1,.6.6,0,0,0,.05.35v0h0a1.25,1.25,0,0,0,.34.45.89.89,0,0,0,.37.2.76.76,0,0,0,.78-.39,1.94,1.94,0,0,0,.24-.89C438.87,408.88,438.8,408.34,438.4,408.19Z" style="fill:#263238"></path><path d="M450.13,411.85a1.38,1.38,0,0,0-1.17.36,1.36,1.36,0,0,0-.39,1.15.26.26,0,0,0,.12.22c.13.07.26-.06.38-.14a.59.59,0,0,1,.6,0c.13.06.24.23.17.36s-.14.11-.22.17a.6.6,0,0,0-.13.75,1.72,1.72,0,0,0,.59.58.83.83,0,0,0,.59.21c.28-.05.43-.35.53-.62l.85-2.2a.27.27,0,0,0,0-.12.31.31,0,0,0-.15-.19,3.16,3.16,0,0,0-1.91-.57" style="fill:#455a64"></path><path d="M425.87,409a6.75,6.75,0,0,1-2.8,1.76,11.05,11.05,0,0,1-3.49,1,4.71,4.71,0,0,1-2.18-.36,7,7,0,0,1-1.87-1.41,1.74,1.74,0,0,1-.61-1.17,1.69,1.69,0,0,1,.6-1.11A17.34,17.34,0,0,0,416.8,406a30.76,30.76,0,0,1,2.12-2.89,7.71,7.71,0,0,1,1.86-1.59,1.86,1.86,0,0,1,.83-.34,10.57,10.57,0,0,0-2.41,2.16c-.63.78-1.26,1.8-2,2.93A16,16,0,0,1,415.9,408c-.25.27-.48.53-.46.77a1.24,1.24,0,0,0,.46.8,6.72,6.72,0,0,0,1.71,1.32,4.24,4.24,0,0,0,1.94.34,11.3,11.3,0,0,0,3.38-.84,15.37,15.37,0,0,0,2.17-1A5,5,0,0,1,425.87,409Z" style="fill:#263238"></path><path d="M403.92,415.1c1.23,1.71.76,4.21-.55,5.87a12.69,12.69,0,0,1-5.23,3.44,22,22,0,0,0-5.61,2.87c-3,2.43-4.46,6.68-8,8.11a8.44,8.44,0,0,1-5.61,0,25.4,25.4,0,0,1-5.12-2.53c-2.54-1.51-5.39-3.51-5.5-6.46-2.8,0-5.76-.36-8-2.07s-2.29-5.73-.49-7.88l28.9,3.31L402,416.47Z" style="fill:#455a64"></path><path d="M415.43,426.1c-2.31-2.62-11.38-11.14-11.38-11.14l-2,1.51-13,3.3-2.19-.08,5.82,33.43a6.32,6.32,0,0,0,5.55,0L392,424.53l-1-4.34,11.21-2.63s11.12,9.85,13.17,14.9a52.32,52.32,0,0,1,2.51,7.16l1.61-3.35S417.73,428.71,415.43,426.1Z" style="fill:#FF725E"></path><path d="M406.08,454.12a8.33,8.33,0,0,1-1.44-1.79,42.57,42.57,0,0,1-2.87-4.75,43.6,43.6,0,0,1-2.27-5.06,8.75,8.75,0,0,1-.65-2.21c.15-.05,1.38,3.22,3.38,7S406.2,454,406.08,454.12Z" style="fill:#455a64"></path><path d="M400.12,439.71a5.32,5.32,0,0,1-.78-5.07c.15,0,0,1.18.25,2.56S400.26,439.64,400.12,439.71Z" style="fill:#263238"></path><path d="M401.66,440.92c-.12.07-.62-.6-1-1.55s-.38-1.78-.25-1.8.41.72.74,1.63S401.79,440.85,401.66,440.92Z" style="fill:#455a64"></path><path d="M359.07,435.75c-.16,0,0-1.62-.42-3.51s-1.22-3.28-1.09-3.36a7.58,7.58,0,0,1,1.51,6.87Z" style="fill:#455a64"></path><path d="M357.6,437.77c-.13-.08.27-.87.36-1.92s-.14-1.89,0-1.94.62.8.51,2S357.7,437.86,357.6,437.77Z" style="fill:#455a64"></path><path d="M367.78,408.56c-.09,0,0-.44-.14-1.1a5.84,5.84,0,0,0-.89-2.4,6,6,0,0,0-1.84-1.78c-.57-.34-1-.48-1-.56s.47-.05,1.13.24a5.09,5.09,0,0,1,2.93,4.47A1.85,1.85,0,0,1,367.78,408.56Z" style="fill:#263238"></path><path d="M370.75,406.92a15.43,15.43,0,0,0-1.08-2.86,15,15,0,0,0-2-2.3,4.77,4.77,0,0,1,3.09,5.16Z" style="fill:#263238"></path><path d="M141.48,100.53a9.22,9.22,0,0,1-1-7.47A20.08,20.08,0,0,1,146.08,85c.22-.16-.6.56,0,0a12.66,12.66,0,0,0,.74-1.93c.81-1.63,1.39-2.09,2-2.27a11,11,0,0,1,2.41-.6,7.22,7.22,0,0,1,3.94,1.24,4.34,4.34,0,0,1,3.07-3,5.35,5.35,0,0,1,4.27.77.72.72,0,0,0,.44.16c.18,0,.3-.18.42-.32a3.79,3.79,0,0,1,3.66-1.4,2.86,2.86,0,0,1,2.22,3,3.29,3.29,0,0,1,5.27,3.15,3.5,3.5,0,0,1,2.88.22,4.07,4.07,0,0,1,1.26,3.52,6.39,6.39,0,0,1-1.53,3c-.91.8-1.68.3-2.87.56a10.33,10.33,0,0,1-5.34.21" style="fill:#263238"></path><path d="M180.16,101.72a19.85,19.85,0,0,0-19.76-18.3h-1c-11.09.62-16.75,10.39-15.82,21.45l2,51.12H171l-.23-16.64s10.66-1.63,10.82-12.29C181.62,121.92,180.91,111.31,180.16,101.72Z" style="fill:#b78876"></path><path d="M170.82,139.34a25.88,25.88,0,0,1-13.95-4.12s3.27,7.68,13.9,6.74Z" style="fill:#995037"></path><path d="M177.53,110.89a1.53,1.53,0,0,1-1.47,1.53,1.46,1.46,0,0,1-1.57-1.38,1.52,1.52,0,0,1,1.47-1.53A1.46,1.46,0,0,1,177.53,110.89Z" style="fill:#263238"></path><path d="M177.85,106.92c-.18.2-1.33-.65-3-.65s-2.84.81-3,.61.11-.44.63-.82a4.16,4.16,0,0,1,2.42-.74,4,4,0,0,1,2.37.77C177.78,106.48,178,106.84,177.85,106.92Z" style="fill:#263238"></path><path d="M162.41,111.59a1.52,1.52,0,0,1-1.47,1.53,1.46,1.46,0,0,1-1.57-1.37,1.53,1.53,0,0,1,1.47-1.54A1.47,1.47,0,0,1,162.41,111.59Z" style="fill:#263238"></path><path d="M161.74,107.74c-.19.2-1.34-.66-3-.65s-2.84.81-3,.61.1-.44.63-.82a4.1,4.1,0,0,1,2.41-.74,3.92,3.92,0,0,1,2.37.77C161.66,107.29,161.83,107.65,161.74,107.74Z" style="fill:#263238"></path><path d="M167.68,119.35a10.68,10.68,0,0,1,2.66-.47c.42,0,.81-.13.88-.41a2.1,2.1,0,0,0-.27-1.24L169.72,114c-1.71-4.54-2.95-8.27-2.76-8.33s1.71,3.55,3.42,8.09c.41,1.12.8,2.18,1.18,3.2a2.4,2.4,0,0,1,.21,1.65,1.07,1.07,0,0,1-.69.61,2.71,2.71,0,0,1-.71.09A10.58,10.58,0,0,1,167.68,119.35Z" style="fill:#263238"></path><path d="M162.86,120.47c.26,0,.26,1.77,1.78,3s3.41,1.07,3.43,1.32-.43.35-1.23.37a4.44,4.44,0,0,1-2.86-1,3.85,3.85,0,0,1-1.38-2.53C162.54,120.9,162.73,120.46,162.86,120.47Z" style="fill:#263238"></path><path d="M162.58,104c-.16.45-1.79.26-3.71.51s-3.47.79-3.73.39c-.11-.19.15-.61.78-1.05a6.27,6.27,0,0,1,2.75-1,6.16,6.16,0,0,1,2.91.31C162.29,103.47,162.65,103.82,162.58,104Z" style="fill:#263238"></path><path d="M178.25,102.19c-.31.41-1.72.16-3.38.31s-3,.56-3.38.2c-.16-.17,0-.56.59-1a5.56,5.56,0,0,1,2.69-.89,5.48,5.48,0,0,1,2.77.47C178.16,101.64,178.39,102,178.25,102.19Z" style="fill:#263238"></path><path d="M145.15,112.76c-.18-.08-7.31-2.18-7.1,5.11s7.49,5.56,7.5,5.35S145.15,112.76,145.15,112.76Z" style="fill:#b78876"></path><path d="M143.88,120.53s-.12.09-.34.19a1.21,1.21,0,0,1-.94,0,3.13,3.13,0,0,1-1.54-2.77,4.18,4.18,0,0,1,.3-1.83,1.47,1.47,0,0,1,.92-1,.64.64,0,0,1,.76.32c.11.2.07.35.1.36s.16-.12.09-.42a.78.78,0,0,0-.3-.45,1,1,0,0,0-.71-.17,1.79,1.79,0,0,0-1.29,1.17,4.4,4.4,0,0,0-.38,2c.09,1.46.88,2.81,1.95,3.09a1.34,1.34,0,0,0,1.15-.23C143.87,120.7,143.91,120.54,143.88,120.53Z" style="fill:#995037"></path><path d="M149.93,91.11l3.6-3.11L165,89.75l8-2.07,4.82.74c-.91,1.21-.17-.42-2-1.8a23.65,23.65,0,0,0-13.75-5c-5-.09-15,5.94-18.63,9.36-2.87,2.73-2.85,5.1-2.85,5.1-.46,3.94,1.74,8.41,2.62,12.28.45,2,1.32,8,1.32,8h0c1.67,0,2.29-1.34,2-3l-.32-6.5a9.79,9.79,0,0,0,3-11.45C148.85,94.92,147.92,92.21,149.93,91.11Z" style="fill:#263238"></path><path d="M148.44,92.84a5.23,5.23,0,0,1,5.09-3.34,8.92,8.92,0,0,1,5.8,2.64,6.33,6.33,0,0,0,1.3,1.07,1.68,1.68,0,0,0,1.61.1c.15-.08.31-.2.48-.15a.52.52,0,0,1,.27.24,4.52,4.52,0,0,0,1.68,1.6,1.9,1.9,0,0,0,2.17-.33,2.78,2.78,0,0,0,4.67-2.07,2.61,2.61,0,0,0,2.65-1,5.4,5.4,0,0,0-1.34-8.26,9.87,9.87,0,0,0-3.52-1,44.54,44.54,0,0,0-5.77-.43,7.07,7.07,0,0,0-2.51.3c-1.11.4-2,1.3-3.2,1.45a5.64,5.64,0,0,1-2.21-.36,9.06,9.06,0,0,0-3.21-.47c-2.13.19-3.9,1.72-5.31,3.33A9,9,0,0,0,144.86,90a3.79,3.79,0,0,0,1.42,4,1.86,1.86,0,0,0,1.69.22,1.11,1.11,0,0,0,.61-1.46" style="fill:#263238"></path><path d="M173.11,159.54a66.65,66.65,0,0,1,7.44,6.93c2.95,3.37,29.49,53.07,29.49,53.07l47.59,21.9-4.72,17S204.65,242.93,197.1,237s-19.49-32.19-19.49-32.19Z" style="fill:#FF725E"></path><path d="M136,151s-11,8-13.32,13.07S136,237.31,136,237.31s-5.13,24.05-5.13,37.06A51.51,51.51,0,0,0,136,296.85l17.73-17.33s31.17,16.54,39.45,14.57,11.83-1.6,11.83-1.6l-12.62-88.31-20.44-48-.5-5L144.3,136l-1.18,8.67Z" style="fill:#FF725E"></path><path d="M188.47,200a10.7,10.7,0,0,1-.52-1.6c-.34-1.12-.78-2.61-1.32-4.4-1.14-3.7-2.81-8.79-4.91-14.32s-4.15-10.47-5.7-14l-1.85-4.2a11.58,11.58,0,0,1-.64-1.56,8.65,8.65,0,0,1,.82,1.47c.5,1,1.19,2.38,2,4.14,1.63,3.52,3.77,8.45,5.85,14s3.72,10.66,4.78,14.4c.52,1.87.92,3.39,1.15,4.45A9.42,9.42,0,0,1,188.47,200Z" style="fill:#263238"></path><path d="M171.47,151.23a8,8,0,0,1-.32,1.51l-1,4.06c-.12.44-.23.88-.36,1.35a5.89,5.89,0,0,1-.53,1.46,1.76,1.76,0,0,1-1.47.94A3.31,3.31,0,0,1,166,160c-2-1.29-4.08-2.75-6.32-4.27-4.46-3.05-8.48-5.83-11.37-7.87l-3.42-2.43a9.2,9.2,0,0,1-1.21-.95,8.94,8.94,0,0,1,1.33.78l3.5,2.3c2.95,2,7,4.69,11.46,7.74l6.27,4.29a3,3,0,0,0,1.48.5,1.33,1.33,0,0,0,1.12-.71,6.17,6.17,0,0,0,.52-1.36c.13-.46.26-.9.39-1.33.48-1.63.89-3,1.2-4A9.93,9.93,0,0,1,171.47,151.23Z" style="fill:#263238"></path><g style="opacity:0.30000000000000004"><path d="M171.22,152.5c-1,2.14-1.23,4.67-2.23,6.81a2,2,0,0,1-1.23,1c-.38.06-1.24-.59-1.56-.81-6.6-4.61-13.24-8.78-19.84-13.39l0,.26c6.57,6,12.25,11.36,19.66,17.21,1.16.92,2.85,1.7,4.09.89a3.7,3.7,0,0,0,1.25-2.66A31,31,0,0,0,171.22,152.5Z"></path></g><path d="M156.07,276.55a4.43,4.43,0,0,1-.2-1.09c-.11-.71-.22-1.74-.32-3a86.23,86.23,0,0,1,.76-20c.2-1.26.38-2.28.54-3a4.32,4.32,0,0,1,.29-1.08,5.07,5.07,0,0,1-.09,1.11c-.1.82-.23,1.82-.38,3-.31,2.53-.65,6-.8,9.93s-.07,7.41,0,10c.05,1.18.11,2.19.15,3A4.54,4.54,0,0,1,156.07,276.55Z" style="fill:#263238"></path><path d="M176.14,439.2l.53,34.47,42.89-.44c-.3-4.09-22.57-12.09-22.57-12.09l.57-22.1Z" style="fill:#FF725E"></path><g style="opacity:0.6000000000000001"><path d="M183.71,459.41a1.76,1.76,0,0,0-1.19,2,1.68,1.68,0,0,0,2,1.19,1.83,1.83,0,0,0,1.25-2.13,1.75,1.75,0,0,0-2.2-1" style="fill:#fff"></path></g><g style="opacity:0.6000000000000001"><path d="M176.67,473.67l.08-3.48,41.09.88s1.92.81,1.72,2.16Z" style="fill:#fff"></path></g><path d="M197.69,460.91c0,.21-1.06.32-2.08,1s-1.56,1.57-1.76,1.49.11-1.29,1.36-2.1S197.73,460.72,197.69,460.91Z" style="fill:#263238"></path><path d="M202.2,462.73c.05.2-.85.57-1.55,1.46s-.9,1.83-1.11,1.82-.35-1.19.54-2.28S202.2,462.53,202.2,462.73Z" style="fill:#263238"></path><path d="M204.81,468.09c-.19,0-.49-1,0-2.15s1.5-1.62,1.59-1.45-.51.79-.93,1.75S205,468.06,204.81,468.09Z" style="fill:#263238"></path><path d="M197.26,455.86c-.09.19-1-.09-2.24,0s-2.1.47-2.21.29.77-.93,2.16-1S197.36,455.7,197.26,455.86Z" style="fill:#263238"></path><path d="M196.18,450.78a3.9,3.9,0,0,1-2.15,0,9.53,9.53,0,0,1-2.25-.66,10.44,10.44,0,0,1-1.24-.64,3,3,0,0,1-.65-.5.92.92,0,0,1-.11-1.12,1.14,1.14,0,0,1,.91-.48,2.46,2.46,0,0,1,.81.1,7.52,7.52,0,0,1,1.34.44,7.77,7.77,0,0,1,2,1.28c1,.91,1.35,1.69,1.28,1.73s-.58-.58-1.6-1.33a9.08,9.08,0,0,0-1.93-1.06,8.59,8.59,0,0,0-1.24-.36c-.45-.12-.84-.12-1,.09s0,.1.05.24a2,2,0,0,0,.48.36,13.07,13.07,0,0,0,1.14.64,11.77,11.77,0,0,0,2.08.77A15,15,0,0,1,196.18,450.78Z" style="fill:#263238"></path><path d="M195.91,451.09a3.52,3.52,0,0,1-.58-2.07,6.82,6.82,0,0,1,.26-2.36,7.56,7.56,0,0,1,.54-1.31,1.79,1.79,0,0,1,1.36-1.09,1,1,0,0,1,.9.59,2.53,2.53,0,0,1,.23.78,5.05,5.05,0,0,1,0,1.45,5.1,5.1,0,0,1-.9,2.23c-.83,1.12-1.7,1.37-1.72,1.3s.66-.51,1.29-1.59a5,5,0,0,0,.66-2,4.33,4.33,0,0,0-.05-1.24c-.08-.46-.25-.82-.42-.78s-.57.35-.74.72a6.35,6.35,0,0,0-.52,1.17,7.25,7.25,0,0,0-.4,2.14C195.8,450.27,196,451.05,195.91,451.09Z" style="fill:#263238"></path><path d="M99.15,400.75l-28.77,19,23.44,35.92c3.29-2.45-1.94-25.53-1.94-25.53l18.93-11.41Z" style="fill:#FF725E"></path><g style="opacity:0.6000000000000001"><path d="M86.18,418a1.74,1.74,0,0,0-2.33.08,1.67,1.67,0,0,0,.06,2.31,1.85,1.85,0,0,0,2.47-.09,1.76,1.76,0,0,0-.33-2.41" style="fill:#fff"></path></g><g style="opacity:0.6000000000000001"><path d="M70.38,419.74l3-1.8,21.36,35.11s.35,2.05-.89,2.61Z" style="fill:#fff"></path></g><path d="M92.44,430.59c-.18.11-.83-.71-2-1.21s-2.16-.47-2.2-.68,1.15-.6,2.5,0S92.62,430.53,92.44,430.59Z" style="fill:#263238"></path><path d="M93.34,435.38c-.15.15-.94-.42-2.07-.53s-2,.23-2.13,0,.81-.94,2.21-.77S93.5,435.26,93.34,435.38Z" style="fill:#263238"></path><path d="M90.23,440.46c-.15-.14.57-.95,1.83-1.13s2.17.4,2.07.57-.94,0-2,.15S90.36,440.62,90.23,440.46Z" style="fill:#263238"></path><path d="M96.46,427.51c-.2,0-.49-.93-1.2-1.87s-1.53-1.52-1.44-1.71,1.2.15,2,1.27S96.66,427.51,96.46,427.51Z" style="fill:#263238"></path><path d="M100.17,423.88c-.07.05-.63-.57-1.17-1.81a10.2,10.2,0,0,1-.65-2.26,10,10,0,0,1-.12-1.39,2.45,2.45,0,0,1,.07-.82.9.9,0,0,1,.88-.68,1.16,1.16,0,0,1,.9.5,2.88,2.88,0,0,1,.35.74,7.83,7.83,0,0,1,.34,1.37,7.5,7.5,0,0,1,0,2.37,3.7,3.7,0,0,1-.77,2c-.11-.05.17-.81.25-2.07a8.61,8.61,0,0,0-.14-2.2,8.94,8.94,0,0,0-.35-1.24c-.15-.44-.36-.77-.59-.76s-.12,0-.18.18a2.06,2.06,0,0,0,0,.6,10.8,10.8,0,0,0,.08,1.3,12,12,0,0,0,.47,2.17A17,17,0,0,1,100.17,423.88Z" style="fill:#263238"></path><path d="M99.77,423.81c-.07,0,.33-.8,1.43-1.6a7,7,0,0,1,3.52-1.3,1.77,1.77,0,0,1,1.65.56,1,1,0,0,1,0,1.08,3,3,0,0,1-.54.61,4.58,4.58,0,0,1-1.21.79,5,5,0,0,1-2.36.45c-1.39-.1-2.07-.69-2-.75a14.88,14.88,0,0,0,2,.23,5,5,0,0,0,2.06-.53,4.57,4.57,0,0,0,1-.71c.34-.31.56-.65.43-.77a1.24,1.24,0,0,0-1-.25,8.24,8.24,0,0,0-1.27.19,7.58,7.58,0,0,0-2,.83C100.39,423.28,99.86,423.89,99.77,423.81Z" style="fill:#263238"></path><path d="M136.31,292.42c-1.21,1.52,6.86,66.62,6.86,66.62S118,376.83,98.69,394.62c-1.4,1.3-15.85,13.91-15.85,13.91l15.85,20.61s68.68-43.77,72.95-51.95,23.76-85.55,23.76-85.55L168.32,278a17.05,17.05,0,0,0-19.25,2.69Z" style="fill:#263238"></path><path d="M161,298.9c.35,2.85,7.11,128.1,8.89,138.07a52.47,52.47,0,0,0,5.34,16h25.13s-.93-67.61-.22-77,2.13-8.72,1.78-20.82-2.14-63.69-2.14-65.11S161,298.9,161,298.9Z" style="fill:#263238"></path><path d="M186.41,296.85l0,.34-.12,1c-.13.89-.3,2.17-.53,3.81-.47,3.34-1.16,8.15-2,14.16-1.77,12.06-4.24,28.89-7.05,48.09h0a72.29,72.29,0,0,1-2.35,7.9,27.2,27.2,0,0,1-4.12,7.44c-3.71,4.65-8.64,7.8-13.2,10.86l-13.24,8.82L121.31,414.2l-15.15,10L102,426.93l-1.08.69a2.68,2.68,0,0,1-.38.22l.35-.27c.26-.17.61-.42,1-.73l4.08-2.78L121.1,413.9l22.38-15L156.7,390c4.56-3.06,9.44-6.2,13.08-10.75a26.84,26.84,0,0,0,4-7.31,71.4,71.4,0,0,0,2.35-7.83v0c2.89-19.18,5.42-36,7.23-48.06.92-6,1.66-10.8,2.18-14.14.26-1.63.46-2.91.6-3.8.07-.41.13-.73.17-1A1.3,1.3,0,0,1,186.41,296.85Z" style="fill:#455a64"></path><path d="M154.5,366.65a26.72,26.72,0,0,0-5.4-4.32,26.23,26.23,0,0,0-6.52-2.28,5.58,5.58,0,0,1,2.07.14,15.46,15.46,0,0,1,4.71,1.69,15.61,15.61,0,0,1,3.93,3.09A5.8,5.8,0,0,1,154.5,366.65Z" style="fill:#455a64"></path><path d="M221.21,174.74s-2.87,12.94-4.12,16.29a29.41,29.41,0,0,0-1.44,4.6l-1.12,4.19a9.1,9.1,0,0,1-10.73,6.53h0a9.09,9.09,0,0,1-7-10.8l0-.14c-5.32-1.91-6.69-7.74-5.67-14.15a61.46,61.46,0,0,1,2.28-10.91,13.63,13.63,0,0,1,7.83-9.28,15.72,15.72,0,0,1,15,1.29C220.71,165.2,222.25,169.55,221.21,174.74Z" style="fill:#b78876"></path><path d="M196.68,176.4a1.3,1.3,0,0,0,1,1.55,1.24,1.24,0,0,0,1.56-.87,1.31,1.31,0,0,0-1-1.56A1.26,1.26,0,0,0,196.68,176.4Z" style="fill:#263238"></path><path d="M196.71,173.68c.12.2,1.24-.31,2.62,0s2.24,1.2,2.42,1.06,0-.39-.38-.8a3.59,3.59,0,0,0-1.9-1.06,3.54,3.54,0,0,0-2.13.22C196.85,173.32,196.64,173.59,196.71,173.68Z" style="fill:#263238"></path><path d="M208.72,179.15a1.3,1.3,0,0,0,1,1.55,1.24,1.24,0,0,0,1.56-.88,1.3,1.3,0,0,0-1-1.55A1.26,1.26,0,0,0,208.72,179.15Z" style="fill:#263238"></path><path d="M209,176.66c.12.2,1.25-.31,2.62,0s2.24,1.2,2.43,1.06,0-.39-.38-.81a3.62,3.62,0,0,0-1.9-1,3.46,3.46,0,0,0-2.13.22C209.18,176.3,209,176.57,209,176.66Z" style="fill:#263238"></path><path d="M196.88,195.41s7,1.65,8.94.8c0,0-1.8,3.15-9.18,1.16Z" style="fill:#995037"></path><path d="M204.07,177.34c-.07-.06-.34.16-.73.56q-.3.3-.66.72l-.37.44a2.38,2.38,0,0,0-.4.56,1,1,0,0,0-.06.85,1.14,1.14,0,0,0,.49.58,1.28,1.28,0,0,0,.61.21,2.11,2.11,0,0,0,.52,0c.59-.17.85-.4.83-.48s-.39,0-.89,0a1.11,1.11,0,0,1-.74-.21.66.66,0,0,1-.22-.29.49.49,0,0,1,0-.35,3.06,3.06,0,0,1,.31-.45l.35-.46c.21-.3.4-.57.55-.81C204,177.72,204.15,177.4,204.07,177.34Z" style="fill:#263238"></path><path d="M206.17,182.66a3.82,3.82,0,0,0-4.54.36,3.16,3.16,0,0,0-3.2-1.56,3.57,3.57,0,0,0-2.75,2.35,3.14,3.14,0,0,0,.51,3,5.12,5.12,0,0,0,2.86,1.34,13.05,13.05,0,0,0,5.88.38A4,4,0,0,0,207.4,187,3.33,3.33,0,0,0,206.17,182.66Z" style="fill:#FF725E"></path><path d="M204.82,189.73a3.16,3.16,0,0,1-2,2.2,4.54,4.54,0,0,1-4.59-.28,4.22,4.22,0,0,1-1.44-4.37,6.75,6.75,0,0,1,1.69-2.67h1.28s-1.54,1.76-1.5,3.09.9,3,2.93,2.55c3.19-.68,2.32-5,2.32-5l.89.21A19.32,19.32,0,0,1,204.82,189.73Z" style="fill:#FF725E"></path><path d="M198.52,184.61a4.62,4.62,0,0,1-.48.64,6.47,6.47,0,0,0-1,1.85,4.08,4.08,0,0,0,.24,3,3.64,3.64,0,0,0,2.93,2.1,5.14,5.14,0,0,0,3.58-1,2.88,2.88,0,0,0,.89-1.35,3.92,3.92,0,0,0,.09-1.44c-.06-.9-.16-1.64-.22-2.14a4.64,4.64,0,0,1-.07-.8,3.86,3.86,0,0,1,.19.78,21.53,21.53,0,0,1,.32,2.15,4,4,0,0,1-.06,1.53,3.14,3.14,0,0,1-.95,1.49,5.29,5.29,0,0,1-3.8,1.1,4,4,0,0,1-1.95-.76,4.32,4.32,0,0,1-1.4-4.75,5.8,5.8,0,0,1,1.16-1.86A3.52,3.52,0,0,1,198.52,184.61Z" style="fill:#263238"></path><path d="M203.55,185.28a1.37,1.37,0,0,1,.13.54,6.53,6.53,0,0,1,0,1.53,3.74,3.74,0,0,1-.85,2.13,3.12,3.12,0,0,1-2.61,1,2.24,2.24,0,0,1-1.35-.67,2.93,2.93,0,0,1-.63-1.24,3.29,3.29,0,0,1-.08-1.24,3.49,3.49,0,0,1,.36-1,7.19,7.19,0,0,1,.85-1.28,2.13,2.13,0,0,1,.39-.4s-.5.64-1,1.77a3.55,3.55,0,0,0-.3,1,3,3,0,0,0,.1,1.13,2.72,2.72,0,0,0,.58,1.1,1.86,1.86,0,0,0,1.15.57,2.92,2.92,0,0,0,2.37-.86,3.62,3.62,0,0,0,.84-2A13.94,13.94,0,0,0,203.55,185.28Z" style="fill:#263238"></path><path d="M218.47,163.26a2.18,2.18,0,0,0-2.27-1.47,3.87,3.87,0,0,0-.37-4.08,3.74,3.74,0,0,0-2.86-1.86,2,2,0,0,0-2.08,2.26,2.57,2.57,0,0,0-4.18,1.4,2.35,2.35,0,0,0-3.73.7c-.56-.48-2,.45-1.9,1.15a1.45,1.45,0,0,0,.8,1.78,4.26,4.26,0,0,0,2.13.24,2,2,0,0,0,.09,2.68,3.33,3.33,0,0,0,2.73.87c.5,0,1.11-.29,1.09-.79a2.85,2.85,0,0,0,1.86,1.77c.88.17,1.9-.71,1.56-1.53a2.13,2.13,0,0,0,3.77-.84,2.12,2.12,0,0,0,3.36-2.28Z" style="fill:#263238"></path><path d="M186.77,201.27c.44-.14,7.36-6.7,7.36-6.7s26.46-13.81,28.69-14.24a21.59,21.59,0,0,0,4.39-1.44,8.74,8.74,0,0,1,0,3.45c-.43,1.15-7.05,27.47-7.05,27.47s1.44,24.74.58,31.5S218,254,214.12,256.85L210.24,258s1.72-1.87,0-5.75-8.2-18-16.11-20.14c0,0-3.45-.43-4.89,4.46s-2.45,7.48-2.45,7.48L148,238.87l-1.73-17.41,5,.44-9.07-7.77,4.17-8.63L186.94,231l-.29-14.82s-24.45-48-34.09-54.37-22.22-6.29-22.22-6.29l7.2-5.88c4.39,0,5.26.72,9.31,2,13.64,4.34,30.45,34,30.45,34v.72Z" style="fill:#263238"></path><path d="M212.48,214.89s-19.06-16.87-20.79-18-18-10.26-18-10.26l1.87-3.92,19.81,11.23,17.1,15.27Z" style="fill:#455a64"></path><path d="M166.29,203.19a2.71,2.71,0,0,0,.33,3.14h0l-4.09-1.7s-1.94.13-1.57,1.61,3.18,2.52,3.18,2.52-2.51-.34-2.95.43-.47,1.23,0,1.68a8.89,8.89,0,0,0,1.67,1s-2.4-.62-2.73.46-.43,1.5.36,2a7.81,7.81,0,0,0,2,.76s-1.16.75-1.16,1.49.09,1.32.71,1.61,3.35-.76,3.35-.76l3.21,0,2.56-3.26,2-5.46-.49-2s-3.23-1.31-3.93-1.77S166.29,203.19,166.29,203.19Z" style="fill:#b78876"></path><path d="M212.48,214.89l-21.65-18.73h-1.38c-1.37.74-3.8,9.51-3.8,9.51l-3.94,2.64-10.42-2.58a33.65,33.65,0,0,0-3.43,4.84c-.81,2-.81,6.32-.81,6.32s18.18,5.69,22.3,5.69,11.51-5.92,11.51-5.92,7.08,1.8,10.15,2.75S212.48,214.89,212.48,214.89Z" style="fill:#e0e0e0"></path><polygon points="188.59 207.63 189.47 209.41 191.43 209.7 190.01 211.08 190.35 213.04 188.59 212.12 186.83 213.04 187.17 211.08 185.74 209.7 187.71 209.41 188.59 207.63" style="fill:#fff"></polygon><polygon points="196.19 202.41 197.06 204.19 199.03 204.48 197.61 205.86 197.94 207.82 196.19 206.9 194.43 207.82 194.76 205.86 193.34 204.48 195.31 204.19 196.19 202.41" style="fill:#fff"></polygon><polygon points="177.93 211.21 177.41 212.46 178.14 213.6 176.78 213.49 175.92 214.53 175.61 213.21 174.35 212.72 175.51 212.02 175.59 210.66 176.62 211.55 177.93 211.21" style="fill:#fff"></polygon><polygon points="181.24 214.98 182.26 215.87 183.57 215.54 183.04 216.78 183.77 217.93 182.42 217.81 181.55 218.85 181.25 217.53 179.99 217.03 181.15 216.33 181.24 214.98" style="fill:#fff"></polygon><polygon points="197.84 211.24 198.86 212.13 200.17 211.79 199.64 213.04 200.37 214.19 199.01 214.07 198.15 215.11 197.85 213.79 196.58 213.29 197.75 212.59 197.84 211.24" style="fill:#fff"></polygon><polygon points="190.96 216.11 191.49 216.57 192.18 216.4 191.9 217.05 192.28 217.65 191.57 217.59 191.12 218.13 190.97 217.44 190.31 217.18 190.91 216.82 190.96 216.11" style="fill:#fff"></polygon><polygon points="191.63 201.08 192.17 201.55 192.85 201.37 192.57 202.02 192.95 202.62 192.25 202.56 191.8 203.1 191.64 202.41 190.98 202.15 191.59 201.79 191.63 201.08" style="fill:#fff"></polygon><polygon points="206.25 213.8 206.79 214.26 207.47 214.09 207.2 214.74 207.57 215.34 206.87 215.27 206.42 215.82 206.26 215.13 205.6 214.87 206.21 214.5 206.25 213.8" style="fill:#fff"></polygon><polygon points="171.55 209.21 172.08 209.68 172.77 209.5 172.49 210.16 172.87 210.75 172.16 210.69 171.71 211.24 171.55 210.55 170.89 210.28 171.5 209.92 171.55 209.21" style="fill:#fff"></polygon><path d="M192,232.63c-.55.4-6,16.66-6.14,17.59s-5.78,12.5-2.66,19.85,12.2,21.57,12.2,21.57-5.79,7-4.07,9.54,4.22,4.37,7.66,1.87,10.47-6.25,10.63-8.75-6.41-24.07-6.1-27.36c0,0,6.11-7.65,6.72-8.94s3.48-2.81,0-7.78S197.2,228.79,192,232.63Z" style="fill:#e0e0e0"></path><polygon points="195.76 250.42 196.64 252.2 198.61 252.49 197.19 253.87 197.52 255.83 195.76 254.91 194.01 255.83 194.34 253.87 192.92 252.49 194.88 252.2 195.76 250.42" style="fill:#fff"></polygon><polygon points="190.42 266.12 191.3 267.9 193.27 268.19 191.84 269.57 192.18 271.53 190.42 270.61 188.66 271.53 189 269.57 187.58 268.19 189.54 267.9 190.42 266.12" style="fill:#fff"></polygon><polygon points="201.63 284.23 202.5 286.01 204.47 286.3 203.05 287.69 203.38 289.64 201.63 288.72 199.87 289.64 200.2 287.69 198.78 286.3 200.75 286.01 201.63 284.23" style="fill:#fff"></polygon><polygon points="203.36 245.2 204.24 246.98 206.21 247.27 204.78 248.65 205.12 250.61 203.36 249.69 201.6 250.61 201.94 248.65 200.52 247.27 202.48 246.98 203.36 245.2" style="fill:#fff"></polygon><polygon points="195.86 238.6 195.34 239.85 196.07 240.99 194.72 240.88 193.85 241.93 193.54 240.6 192.28 240.11 193.44 239.41 193.52 238.05 194.55 238.94 195.86 238.6" style="fill:#fff"></polygon><polygon points="188.41 257.77 189.43 258.66 190.75 258.32 190.22 259.57 190.94 260.72 189.59 260.6 188.72 261.64 188.42 260.32 187.16 259.82 188.32 259.12 188.41 257.77" style="fill:#fff"></polygon><polygon points="198.71 273.44 199.73 274.33 201.05 273.99 200.52 275.24 201.24 276.39 199.89 276.27 199.03 277.31 198.72 275.99 197.46 275.49 198.63 274.79 198.71 273.44" style="fill:#fff"></polygon><polygon points="205.01 254.02 206.03 254.92 207.35 254.58 206.81 255.83 207.54 256.98 206.19 256.86 205.32 257.9 205.02 256.58 203.76 256.08 204.92 255.38 205.01 254.02" style="fill:#fff"></polygon><polygon points="196.76 259.71 197.29 260.17 197.98 260 197.7 260.65 198.08 261.25 197.38 261.18 196.92 261.73 196.77 261.04 196.11 260.78 196.72 260.41 196.76 259.71" style="fill:#fff"></polygon><polygon points="197.15 244.84 197.68 245.31 198.37 245.13 198.09 245.78 198.47 246.38 197.76 246.32 197.31 246.87 197.15 246.18 196.49 245.91 197.1 245.55 197.15 244.84" style="fill:#fff"></polygon><polygon points="200.18 267.13 200.72 267.6 201.4 267.42 201.12 268.07 201.5 268.67 200.8 268.61 200.35 269.15 200.19 268.46 199.53 268.2 200.14 267.84 200.18 267.13" style="fill:#fff"></polygon><polygon points="197.47 295.38 198 295.84 198.69 295.67 198.41 296.32 198.79 296.92 198.08 296.85 197.63 297.4 197.47 296.71 196.81 296.44 197.42 296.08 197.47 295.38" style="fill:#fff"></polygon><polygon points="192.22 279.63 192.75 280.1 193.44 279.93 193.16 280.58 193.54 281.18 192.83 281.11 192.38 281.66 192.22 280.97 191.56 280.7 192.17 280.34 192.22 279.63" style="fill:#fff"></polygon><polygon points="206.03 292.45 206.56 292.92 207.25 292.74 206.97 293.39 207.35 293.99 206.65 293.93 206.19 294.47 206.04 293.78 205.38 293.52 205.99 293.16 206.03 292.45" style="fill:#fff"></polygon><polygon points="188.23 250.99 188.76 251.46 189.45 251.28 189.17 251.93 189.55 252.53 188.85 252.47 188.39 253.01 188.24 252.32 187.58 252.06 188.19 251.7 188.23 250.99" style="fill:#fff"></polygon><path d="M212,208.4a6,6,0,0,1,.24,1.24c.13.81.28,2,.43,3.43a100.88,100.88,0,0,1,.48,11.39,102.32,102.32,0,0,1-.81,11.37c-.19,1.44-.37,2.61-.53,3.41a6.08,6.08,0,0,1-.28,1.24,6,6,0,0,1,.08-1.27c.1-.91.22-2.06.36-3.43.29-2.89.59-6.9.66-11.33s-.12-8.45-.33-11.35c-.1-1.37-.19-2.52-.26-3.44A5.49,5.49,0,0,1,212,208.4Z" style="fill:#455a64"></path><path d="M223.07,180.39a6,6,0,0,1-.17,1.2c-.13.76-.37,1.86-.69,3.21a92,92,0,0,1-7.58,20.28c-.64,1.24-1.18,2.22-1.58,2.88a5.7,5.7,0,0,1-.66,1,5.64,5.64,0,0,1,.49-1.11c.38-.8.86-1.78,1.42-3,1.2-2.5,2.75-6,4.23-9.94s2.58-7.61,3.32-10.27l.85-3.17A5.13,5.13,0,0,1,223.07,180.39Z" style="fill:#455a64"></path><path d="M257.2,243l13.45-3.47,7.3,3.87,2.18,8.36a4.6,4.6,0,0,1-4.82-1.88l-1.87-1.29-3.37,2-3.41,10.87-13.48-4Z" style="fill:#b78876"></path><path d="M274.13,249.1a4.57,4.57,0,0,0-4.32-.49,2.94,2.94,0,0,0-1.51,1.26,1.78,1.78,0,0,0,.08,1.9,1.84,1.84,0,0,0-2.74.18,2.61,2.61,0,0,0,.05,3,2.47,2.47,0,0,0-1.73,2.38,4.4,4.4,0,0,0,1.15,2.87,4.33,4.33,0,0,0,3.25,1.76,2.42,2.42,0,0,0,2.45-2.37,2.49,2.49,0,0,0,4-2.64c1.23.5,2.59-.51,3.25-1.66a2.28,2.28,0,0,0-.14-2.92c-.36-.33-.87-.6-1.22-.94-1-1-2-1.33-2.59-2.37" style="fill:#b78876"></path><path d="M274.76,256.8a13,13,0,0,1-3.76-2.42,12.7,12.7,0,0,1-3.11-3.22,38.9,38.9,0,0,1,3.44,2.82A35.52,35.52,0,0,1,274.76,256.8Z" style="fill:#995037"></path><path d="M271.59,259.71c0,.05-.41-.23-1-.63s-1.5-.9-2.46-1.51a9,9,0,0,1-2.26-1.91c-.48-.6-.63-1.06-.58-1.09s.33.34.85.84a13.69,13.69,0,0,0,2.27,1.72,22.5,22.5,0,0,1,2.4,1.65C271.36,259.27,271.64,259.66,271.59,259.71Z" style="fill:#995037"></path><path d="M299.38,257.77a10.41,10.41,0,0,0-4-3.67,166.36,166.36,0,0,0-17.1-9.32l1.13,4.34,3.66,2s2.43,1.19.92,3.08a31.8,31.8,0,0,0-3.89,6.37,14.74,14.74,0,0,1-1.56,2.89,12.39,12.39,0,0,1-4.45,1c-2.22.09-6.83-1-7.72-2.56a2.28,2.28,0,0,1-.29-.82l-2.24-2.49a6.41,6.41,0,0,0,3.22,6.5c2.51,1.4,5.53,1.42,8.4,1.38a3.81,3.81,0,0,1,1.78.27,4.54,4.54,0,0,1,1.42,1.44c3.24,4.12,9.33,5.12,14.32,3.55a10.11,10.11,0,0,0,6-4.34,11.16,11.16,0,0,0,1.16-5.26A9.16,9.16,0,0,0,299.38,257.77Z" style="fill:#263238"></path><path d="M389,419.77c-.12.07-21.24-33.69-47.16-75.41S295,268.75,295.11,268.68s21.24,33.68,47.17,75.41S389.12,419.69,389,419.77Z" style="fill:#263238"></path><path d="M278.73,253.15c-.07.06-1.09-1.1-3.06-2.6a13,13,0,0,0-3.69-2.12,3.87,3.87,0,0,0-2.38,0A2.44,2.44,0,0,0,268,250.2a2.1,2.1,0,0,0,0,.79l.11.45-.44-.15a2.18,2.18,0,0,0-2.43.83,2.2,2.2,0,0,0,0,2.37l.3.45-.53-.1a1.77,1.77,0,0,0-1.85,1.38,2.74,2.74,0,0,0,.51,1.94c.63,1,1.15,1.51,1.11,1.55a1.29,1.29,0,0,1-.4-.31,7,7,0,0,1-.93-1.1,4.73,4.73,0,0,1-.51-.9,2,2,0,0,1-.14-1.26,2.4,2.4,0,0,1,.73-1.25,1.86,1.86,0,0,1,1.56-.49l-.22.35a2.59,2.59,0,0,1,2.95-3.95l-.33.31a2.34,2.34,0,0,1,0-1,3,3,0,0,1,2-2.14,4.4,4.4,0,0,1,2.69,0,12.71,12.71,0,0,1,3.78,2.29,21.91,21.91,0,0,1,2.16,2A4.32,4.32,0,0,1,278.73,253.15Z" style="fill:#995037"></path><path d="M269.9,245c.06-.14,1.76.57,4.07.78l.23,0V246a5.17,5.17,0,0,0,0,.54,6.25,6.25,0,0,0,1.16,3c.49.68.9,1,.85,1.09s-.53-.2-1.14-.86a5.74,5.74,0,0,1-1.39-3.15c0-.2,0-.4,0-.59l.23.26A8.18,8.18,0,0,1,269.9,245Z" style="fill:#995037"></path><path d="M270.36,243.5a3.69,3.69,0,0,1-.41,1.63,11,11,0,0,1-2.21,3.39,10.91,10.91,0,0,1-3.29,2.36,3.76,3.76,0,0,1-1.6.49,14.66,14.66,0,0,0,7.51-7.87Z" style="fill:#995037"></path><path d="M180,229.72s-21.69-15.4-27.89-16.86l1.66-36.67s.43-16.22-13.21-16.63S122.7,164,122.7,164s-5.28,32.73-4.71,45.13,8.73,30.71,14.93,32.12,31.56,11,41.7,8.45l14.93.43v-19Z" style="fill:#FF725E"></path><path d="M138.85,214.89s.05-.06.16-.15a5,5,0,0,1,.54-.4,12.73,12.73,0,0,1,2.28-1.22,14.87,14.87,0,0,1,9.55-.6,28.78,28.78,0,0,1,6.25,2.73c2.18,1.17,4.45,2.54,6.86,4,4.79,3,10,6.42,15.62,10.25l-.1,0,9.58,1.4.22,0v19.52l-.27,0q-6.19-.27-12-.8c-1.92-.18-3.8-.39-5.63-.46s-3.63.1-5.4.05a74.41,74.41,0,0,1-18.3-3.09c-5-1.44-9-2.78-11.81-3.67l-3.17-1-.82-.27a1.67,1.67,0,0,1-.28-.11,1,1,0,0,1,.29.06l.83.23,3.2.95c2.78.83,6.8,2.12,11.85,3.51a75.07,75.07,0,0,0,18.21,3c1.75.05,3.54-.12,5.42-.07s3.74.27,5.66.44c3.83.36,7.83.61,11.95.79l-.27.26v-19l.22.25L179.94,230h-.06l0,0c-5.55-3.84-10.8-7.32-15.57-10.3-2.39-1.49-4.65-2.87-6.8-4.05a29.19,29.19,0,0,0-6.16-2.75,15,15,0,0,0-9.41.45,13.7,13.7,0,0,0-2.29,1.14c-.25.15-.44.28-.56.36A1.06,1.06,0,0,1,138.85,214.89Z" style="fill:#263238"></path><path d="M151.13,169.23a11.3,11.3,0,0,1,.32,1.68c.18,1.09.4,2.66.63,4.62.47,3.9.92,9.32,1,15.33s-.1,11.44-.4,15.36c-.15,2-.3,3.55-.44,4.64a12.38,12.38,0,0,1-.25,1.69,9.65,9.65,0,0,1,.05-1.71c.07-1.18.16-2.75.27-4.64.21-3.92.37-9.34.25-15.33s-.52-11.4-.89-15.31c-.19-1.88-.35-3.44-.47-4.62A10.3,10.3,0,0,1,151.13,169.23Z" style="fill:#263238"></path><path d="M149.7,163.94c-.08.06-.78-1-2.31-2.4a15.57,15.57,0,0,0-14.9-3.39c-2,.57-3.08,1.25-3.13,1.16s.24-.22.75-.51a12.52,12.52,0,0,1,2.27-1,15,15,0,0,1,15.26,3.47,12.83,12.83,0,0,1,1.61,1.88A2.53,2.53,0,0,1,149.7,163.94Z" style="fill:#263238"></path><path d="M181.57,249.67a15.41,15.41,0,0,1-.16-2.84c0-1.92-.1-4.26-.16-6.84s-.17-4.92-.24-6.84a15.83,15.83,0,0,1,0-2.84,14.58,14.58,0,0,1,.38,2.82c.16,1.74.31,4.17.39,6.84s.07,5.11,0,6.86A15.25,15.25,0,0,1,181.57,249.67Z" style="fill:#263238"></path><path d="M185.43,244.9a1.07,1.07,0,0,1,1.36,1.08,1,1,0,1,1-1.52-1" style="fill:#263238"></path><g style="opacity:0.30000000000000004"><path d="M152.27,212.72a10.82,10.82,0,0,0-13.55.33,1.89,1.89,0,0,0-.59.73.69.69,0,0,0,.27.83c.32.15.69-.06,1-.26a15.12,15.12,0,0,1,12.92-1.69"></path></g><g style="opacity:0.30000000000000004"><path d="M167.42,249a87,87,0,0,1-12.76-1.42c-6.73-1.14-13.12-3.62-19.58-5.56l-.34,1.79c4.83,3.65,9.89,5.07,15.5,7.31,4.27,1.7,8.81,3,13.4,2.74,6.81-.34,13.24-4,20-4.11C178.23,249.62,172.81,249.1,167.42,249Z"></path></g><path d="M189.46,231.43l5.94-.7,5.88,1.62s16.44,11.71,16.42,16.1c0,0,.22,4.18-2,3.86a1.85,1.85,0,0,1,.57,1.3,2.64,2.64,0,0,1-3.92,2.15c-.79-.43-1.42-.8-1.15-.72.6.18,3.1,2.74,1.77,4.19s-3-.08-5.65-1.37a30.26,30.26,0,0,1-5.76-4.16s7.18,9.69,6,10.54-1.53,1.66-3,.12-7.93-8.46-7.93-8.46-7.26-5.15-7.09-5.75S189.46,231.43,189.46,231.43Z" style="fill:#b78876"></path><path d="M202.41,246.86c.1-.1,2.12,1.8,4.72,4.06a26.16,26.16,0,0,1,4.37,4.45c-.1.09-2.13-1.8-4.72-4.06A25.69,25.69,0,0,1,202.41,246.86Z" style="fill:#995037"></path><path d="M206.57,243a8,8,0,0,1,1.66,1.17,43.31,43.31,0,0,1,3.68,3.24,27,27,0,0,1,3.18,3.76,6.9,6.9,0,0,1,1,1.76c-.14.09-1.86-2.48-4.57-5.15S206.45,243.16,206.57,243Z" style="fill:#995037"></path></g></svg>