<?xml version="1.0" encoding="UTF-8" standalone="no"?>
<svg
   xmlns:dc="http://purl.org/dc/elements/1.1/"
   xmlns:cc="http://creativecommons.org/ns#"
   xmlns:rdf="http://www.w3.org/1999/02/22-rdf-syntax-ns#"
   xmlns:svg="http://www.w3.org/2000/svg"
   xmlns="http://www.w3.org/2000/svg"
   xmlns:sodipodi="http://sodipodi.sourceforge.net/DTD/sodipodi-0.dtd"
   xmlns:inkscape="http://www.inkscape.org/namespaces/inkscape"
   viewBox="0 0 373.9375 404.405"
   version="1.1"
   id="svg410"
   sodipodi:docname="home-image.svg"
   width="373.9375"
   height="404.405"
   inkscape:version="1.0.2 (e86c870879, 2021-01-15, custom)">
  <metadata
     id="metadata416">
    <rdf:RDF>
      <cc:Work
         rdf:about="">
        <dc:format>image/svg+xml</dc:format>
        <dc:type
           rdf:resource="http://purl.org/dc/dcmitype/StillImage" />
        <dc:title></dc:title>
      </cc:Work>
    </rdf:RDF>
  </metadata>
  <defs
     id="defs414" />
  <sodipodi:namedview
     pagecolor="#ffffff"
     bordercolor="#666666"
     borderopacity="1"
     objecttolerance="10"
     gridtolerance="10"
     guidetolerance="10"
     inkscape:pageopacity="0"
     inkscape:pageshadow="2"
     inkscape:window-width="1920"
     inkscape:window-height="1001"
     id="namedview412"
     showgrid="false"
     fit-margin-top="0"
     fit-margin-left="0"
     fit-margin-right="0"
     fit-margin-bottom="0"
     inkscape:zoom="1.66"
     inkscape:cx="186.97"
     inkscape:cy="195.31"
     inkscape:window-x="-9"
     inkscape:window-y="-9"
     inkscape:window-maximized="1"
     inkscape:current-layer="svg410" />
  <g
     id="freepik--Floor--inject-38"
     transform="translate(-63.03,-54.69)">
    <path
       d="m 117.8,430.49 c 73,38.14 191.39,38.14 264.41,0 73.02,-38.14 73,-100 0,-138.13 -73,-38.13 -191.4,-38.14 -264.42,0 -73.02,38.14 -73.01,99.99 0.01,138.13 z"
       style="fill:#f0f0f0"
       id="path214" />
  </g>
  <g
     id="freepik--Cloud--inject-38"
     transform="translate(-63.03,-54.69)">
    <path
       d="M 329.49,83.82 335.12,86 V 73.58 c 0,-9.83 7.85,-12.19 16.36,-7.27 v 0 C 360,71.22 366.9,83.18 366.9,93 v 1.8 c 1.93,-0.77 4.43,-0.48 7.16,1.1 v 0 c 6.13,3.54 11.1,12.14 11.1,19.22 V 116 l 7.85,4.53 a 16.18,16.18 0 0 1 7.31,12.66 c 0,4.66 -3.28,6.55 -7.31,4.22 L 329.49,100.7 A 16.18,16.18 0 0 1 322.18,88 c 0,-4.62 3.28,-6.51 7.31,-4.18 z"
       style="fill:#f0f0f0"
       id="path217" />
  </g>
  <g
     id="freepik--street-light--inject-38"
     transform="translate(-63.03,-54.69)">
    <rect
       x="95.43"
       y="95.550003"
       width="8.2799997"
       height="220.17"
       style="fill:#e6e6e6"
       id="rect220" />
    <path
       d="m 93,84.74 c -3.63,2.1 -3.63,5.49 0,7.59 a 14.51,14.51 0 0 0 13.15,0 c 3.63,-2.1 3.63,-5.49 0,-7.59 a 14.51,14.51 0 0 0 -13.15,0 z"
       style="fill:#e0e0e0"
       id="path222" />
    <path
       d="m 93.48,88 c -3.36,1.94 -3.36,5.09 0,7 a 13.43,13.43 0 0 0 12.19,0 c 3.36,-1.94 3.36,-5.09 0,-7 a 13.49,13.49 0 0 0 -12.19,0 z"
       style="fill:#e0e0e0"
       id="path224" />
    <polygon
       points="91.08,92.36 108.07,92.36 108.79,89.21 90.36,89.21 "
       style="fill:#e0e0e0"
       id="polygon226" />
    <path
       d="m 112.88,70.54 h -26.6 l 4.08,18.67 v 0 a 5.08,5.08 0 0 0 2.64,3.12 14.51,14.51 0 0 0 13.15,0 5.08,5.08 0 0 0 2.64,-3.12 v 0 c 0,0 3.97,-18.52 4.09,-18.67 z"
       style="fill:#e6e6e6"
       id="path228" />
    <path
       d="m 113.84,68.35 c 0,-0.08 0,-0.17 0,-0.25 l 0.67,-3.76 h -1.64 a 9.68,9.68 0 0 0 -3.19,-2.8 c -5.61,-3.24 -14.7,-3.24 -20.32,0 a 9.74,9.74 0 0 0 -3.18,2.8 h -1.59 l 0.67,3.76 c 0,0.08 0,0.17 0,0.25 v 0.24 0 a 7.9,7.9 0 0 0 4,4.69 c 5.62,3.24 14.71,3.24 20.32,0 a 7.89,7.89 0 0 0 4,-4.69 v 0 z"
       style="fill:#e0e0e0"
       id="path230" />
    <path
       d="m 88.91,57.24 c -5.88,3.4 -5.88,8.91 0,12.31 5.88,3.4 15.44,3.4 21.33,0 5.89,-3.4 5.88,-8.91 0,-12.31 -5.88,-3.4 -15.44,-3.4 -21.33,0 z"
       style="fill:#e6e6e6"
       id="path232" />
    <polygon
       points="103.05,94.18 104.79,73.16 107,73.16 104.19,93.9 "
       style="fill:#e0e0e0"
       id="polygon234" />
    <polygon
       points="96.07,94.18 94.32,73.16 92.11,73.16 94.92,93.9 "
       style="fill:#e0e0e0"
       id="polygon236" />
  </g>
  <g
     id="freepik--Plants--inject-38"
     transform="translate(-63.03,-54.69)">
    <path
       d="m 122.35,337.25 10.53,-6 c 0,0 12.7,-28.42 10.45,-52.53 -2.8,-30 -16.94,-40.49 -25.26,-37.15 -8.32,3.34 -6.59,15.28 2.21,31.29 6.99,12.67 11.42,46.64 2.07,64.39 z"
       style="fill:#00d1b2"
       id="path239" />
    <path
       d="m 122.35,337.25 10.53,-6 c 0,0 12.7,-28.42 10.45,-52.53 -2.8,-30 -16.94,-40.49 -25.26,-37.15 -8.32,3.34 -6.59,15.28 2.21,31.29 6.99,12.67 11.42,46.64 2.07,64.39 z"
       style="opacity:0.2"
       id="path241" />
    <path
       d="m 129.24,333.91 a 0.66,0.66 0 0 1 -0.23,0 0.61,0.61 0 0 1 -0.32,-0.79 c 12.72,-30.72 9.19,-71.3 -7.71,-88.61 a 0.6,0.6 0 0 1 0,-0.85 0.59,0.59 0 0 1 0.84,0 c 17.2,17.62 20.85,58.8 8,89.91 a 0.61,0.61 0 0 1 -0.58,0.34 z"
       style="fill:#ffffff"
       id="path243" />
    <path
       d="m 93.15,354.12 c -1.67,1 -5.09,-1.13 -6.41,-2 a 15.92,15.92 0 0 1 -5.28,-6.06 15,15 0 0 1 -1.32,-8.94 35.63,35.63 0 0 1 1.13,-4.75 c 0.44,-1.53 0.89,-3.07 1.33,-4.61 a 11.78,11.78 0 0 0 0.67,-4.65 c -0.4,-3.15 -3.2,-5.36 -5.75,-7.27 -2.81,-2.11 -5.74,-4.89 -5.72,-8.69 0,-2.92 1.53,-5.65 3.34,-7.94 1.81,-2.29 4,-4.33 5.61,-6.76 a 9.35,9.35 0 0 0 1.91,-5.9 9.79,9.79 0 0 0 -1.28,-3.69 c -1.34,-2.47 -3.11,-4.73 -4,-7.39 -0.89,-2.66 -0.79,-6 1.28,-7.86 1.7,-1.56 4.23,-1.78 6.54,-1.63 a 15.19,15.19 0 0 1 6.07,2.14 c 6,3.35 9.47,10.49 15.87,13.07 2.46,1 5.17,1.22 7.74,1.9 2.57,0.68 5.19,2 6.38,4.37 2.35,4.69 -2,10.47 -0.36,15.44 1.47,4.41 5.75,6.1 8.15,10.07 a 9.39,9.39 0 0 1 1.12,5.76 27.36,27.36 0 0 1 -2.43,9.75 68.13,68.13 0 0 1 -5.35,8.78 C 122.25,337.35 93.4,354 93.15,354.12 Z"
       style="fill:#00d1b2"
       id="path245" />
    <path
       d="m 110.38,344.76 h -0.08 a 0.6,0.6 0 0 1 -0.52,-0.67 c 3.06,-24.26 -8.51,-57 -25.79,-72.92 a 0.6,0.6 0 0 1 0.81,-0.88 c 17.54,16.18 29.27,49.36 26.17,73.95 a 0.59,0.59 0 0 1 -0.59,0.52 z"
       style="fill:#ffffff"
       id="path247" />
    <path
       d="m 107.38,313.28 a 0.6,0.6 0 0 1 -0.36,-0.12 c -9.3,-7 -24.09,-5.71 -24.24,-5.7 a 0.59,0.59 0 0 1 -0.65,-0.54 0.6,0.6 0 0 1 0.54,-0.65 c 0.63,-0.06 15.4,-1.33 25.07,5.93 a 0.6,0.6 0 0 1 0.12,0.84 0.63,0.63 0 0 1 -0.48,0.24 z"
       style="fill:#ffffff"
       id="path249" />
    <path
       d="m 105.92,307.24 v 0 a 0.59,0.59 0 0 1 -0.57,-0.62 c 0.46,-11.87 9.15,-18.8 9.52,-19.09 a 0.62201286,0.62201286 0 0 1 0.74,1 c -0.09,0.06 -8.62,6.89 -9.06,18.19 a 0.6,0.6 0 0 1 -0.63,0.52 z"
       style="fill:#ffffff"
       id="path251" />
  </g>
  <g
     id="freepik--Shadows--inject-38"
     transform="translate(-63.03,-54.69)">
    <ellipse
       cx="244.32001"
       cy="366.62"
       rx="92.190002"
       ry="43.939999"
       style="fill:#e6e6e6"
       id="ellipse254" />
    <path
       d="m 343.42,383.84 c 14.78,7 38.74,7 53.52,0 14.78,-7 14.78,-18.47 0,-25.51 -14.78,-7.04 -38.74,-7.05 -53.52,0 -14.78,7.05 -14.79,18.46 0,25.51 z"
       style="fill:#e6e6e6"
       id="path256" />
  </g>
  <g
     id="freepik--Characters--inject-38"
     transform="translate(-63.03,-54.69)">
    <path
       d="m 167.52,348.16 c -1.61,-0.83 -2.63,1.21 -4.09,2.85 -1,1.15 -2.61,3 -2.85,4.27 -0.35,1.93 1.4,5 3.33,6.66 1.93,1.66 4.17,2.88 4.88,6.57 0.71,3.69 2.13,5.87 5.94,7.51 4.19,1.81 9.79,1.23 11.69,0 2.25,-1.45 0.19,-3 -3,-7.56 -4.12,-5.89 -7.32,-10.1 -7.32,-15.59 z"
       style="fill:#263238"
       id="path259" />
    <path
       d="m 170,343 -2.58,5.3 a 4.75,4.75 0 0 0 1.14,6.6 l 0.1,0.07 a 5.11,5.11 0 0 0 6.47,-1 l 4.53,-6.13 z"
       style="fill:#ffa8a7"
       id="path261" />
    <path
       d="m 199.45,237 a 159.17,159.17 0 0 0 -1.73,26.13 c 0,10.91 -1.64,38.27 -1.64,38.27 a 26.28,26.28 0 0 0 -10,9.57 c -4.24,6.87 -17.48,34.35 -17.48,34.35 0,0 3.58,5 9.44,5.15 0,0 27.46,-34.41 31.86,-40.23 4.4,-5.82 14.61,-48.51 14.61,-48.51 z"
       style="fill:#455a64"
       id="path263" />
    <polygon
       points="238.35,346.29 229.13,347.21 231.21,360.56 239.69,359.72 "
       style="fill:#ffa8a7"
       id="polygon265" />
    <path
       d="m 239.24,355.17 -0.14,-1.32 c 0.92,0.3 4.11,7.48 7.74,10.89 4,3.73 7.54,6.08 9.31,7.76 2.38,2.25 -1.9,5.7 -8.38,5.25 -3.21,-0.23 -8.9,-1.93 -10.48,-3.86 -1.58,-1.93 -2,-4.59 -3.24,-6 -1.24,-1.41 -3.74,-2.66 -4.52,-4.35 -0.42,-0.92 -0.19,-3.5 -0.2,-5.35 0,-2.36 0.34,-3.51 1,-3.52 0,0.2 0.17,1.17 0.17,1.17 a 6.2,6.2 0 0 0 3.95,2.24 c 1.48,0.13 5.22,-0.3 4.79,-2.91 z"
       style="fill:#263238"
       id="path267" />
    <path
       d="m 241.61,237 -2.67,111.9 c 0,0 -2.78,2.83 -9.81,1 0,0 -7.12,-29.69 -7.53,-36.79 a 53.67,53.67 0 0 1 1.67,-14.72 L 220.5,273.22 199.45,237 Z"
       style="fill:#455a64"
       id="path269" />
    <path
       d="m 220.78,275.8 c 0,-0.25 4.79,-17.75 4.79,-17.75 0,0 9.37,-1.58 12.53,-3.8 0,0 -5.34,5 -10.44,5.89 l -5.37,16.2 0.21,15.1 z"
       style="fill:#37474f"
       id="path271" />
    <path
       d="m 237.59,217.68 c -2.81,-14.08 -0.94,-26 -0.66,-33 0,-1.25 2.27,1.54 2.87,2.64 l 4,11 c 0,0 1.9,12.68 3.68,21.09 1.45,6.86 4.59,15.59 6.66,21.12 1.08,2.86 3,5.37 4,8.31 a 35.18,35.18 0 0 1 1.94,9.3 c 0.14,2 -0.22,3.85 -2.49,3.52 a 8,8 0 0 1 -3.5,-1.23 c -3.3,-2.18 -5.19,-6.29 -6.69,-9.79 -1.11,-2.6 -3.9,-7.62 -4.78,-11.1 -2.29,-9.06 -3.93,-16.32 -5.03,-21.86 z"
       style="fill:#ffa8a7"
       id="path273" />
    <path
       d="m 227.66,179.86 c 6.45,0.07 12.79,1.52 15,8.38 2.13,6.7 4.88,26.15 4.88,26.15 0,0 -2.71,3.6 -11.75,3 z"
       style="fill:#00d1b2"
       id="path275" />
    <path
       d="m 227.66,179.86 c 6.45,0.07 12.79,1.52 15,8.38 2.13,6.7 4.88,26.15 4.88,26.15 0,0 -2.71,3.6 -11.75,3 z"
       style="opacity:0.2"
       id="path277" />
    <path
       d="m 183.92,224.2 c 3.43,-18.36 11.32,-31.33 12.55,-35.92 l 3.42,23.41 a 167.91,167.91 0 0 0 -6.15,18.06 C 192,236.56 190,245.13 189.91,251 a 4.35,4.35 0 0 0 1.05,2.85 c 1.83,2.13 2.28,3.87 3.43,6.2 0.9,1.82 1.93,2.53 1.61,2.92 a 2.31,2.31 0 0 1 -3.14,0.11 16.55,16.55 0 0 1 -2.67,-2.76 21.66,21.66 0 0 0 1.52,6.71 c 1.95,4.9 1.34,7.34 -5.1,5.37 -4,-1.23 -6.47,-4.72 -6.71,-14.54 a 77,77 0 0 1 0.31,-10.85 c 1.22,-9.23 2.67,-17.25 3.71,-22.81 z"
       style="fill:#ffa8a7"
       id="path279" />
    <path
       d="m 214.42,180.25 c -7.69,1.85 -17.4,3.12 -21.56,10.95 -4.7,8.84 -9.47,26.59 -9.47,26.59 2.4,2.82 10.43,5.29 14.44,4.07 l 3.76,-10.7 -2.14,25.84 c 6,6.54 29,9.59 42.16,0 v -41.8 c 0,-6.68 -3.71,-14.7 -14,-15.3 z"
       style="fill:#00d1b2"
       id="path281" />
    <polygon
       points="200.9,219.4 201.59,211.16 207.27,202.12 "
       style="fill:#00d1b2"
       id="polygon283" />
    <polygon
       points="200.9,219.4 201.59,211.16 207.27,202.12 "
       style="opacity:0.2"
       id="polygon285" />
    <path
       d="m 207.27,157 2.84,11.22 a 5.42,5.42 0 0 0 5.25,4.09 h 3.33 v -15.64 z"
       style="fill:#263238"
       id="path287" />
    <path
       d="m 242.12,152.9 a 12,12 0 1 1 -12,-12 12,12 0 0 1 12,12 z"
       style="fill:#263238"
       id="path289" />
    <path
       d="m 211.53,146.07 a 4.54,4.54 0 0 0 -3.78,1.33 c -1.62,1.66 -1.29,4.73 0,11.79 l 5,0.58 z"
       style="fill:#263238"
       id="path291" />
    <path
       d="m 213.88,159.77 c -0.74,0.45 -1.8,-1 -2.72,-1.94 -0.92,-0.94 -3.92,-2.28 -5.42,0.87 -1.5,3.15 0.86,7.46 3.15,8.4 a 3.5,3.5 0 0 0 4.63,-1.47 l 0.9,14.62 a 13.09,13.09 0 0 0 9.88,7.5 c 7.21,1 5.73,-5 3.36,-7.89 v -4.47 a 22.37,22.37 0 0 0 5.48,0.29 c 2.64,-0.5 3.93,-2.94 5.17,-6.07 1.85,-4.66 3,-11.27 1.39,-19.64 -2.12,-11.09 -14.4,-11.33 -21.45,-6.9 -7.05,4.43 -4.37,16.7 -4.37,16.7 z"
       style="fill:#ffa8a7"
       id="path293" />
    <path
       d="m 213.88,161 c -0.37,0 -1.8,-2.36 -2.72,-3.2 -1.29,-1.17 0.37,-11.76 0.37,-11.76 0.65,-8.68 13.45,-9.34 17,-9.59 8.11,-0.59 13.63,3.9 11.42,9.55 -1.46,2.57 -4.46,3.28 -7.27,3.62 -4.77,0.58 -12.89,-2 -13.91,-2.12 -1.38,-0.19 -1.67,1.15 -2.42,4.81 -0.66,3.25 -1.21,8.69 -2.47,8.69 z"
       style="fill:#263238"
       id="path295" />
    <path
       d="M 211.54,146.89 207,144.47 a 2.49,2.49 0 0 1 3.41,-1.13 2.69,2.69 0 0 1 1.13,3.55 z"
       style="fill:#263238"
       id="path297" />
    <path
       d="m 227.65,175.39 c 0,0 -6.69,-1.34 -9,-2.58 a 7.7,7.7 0 0 1 -3.23,-3.2 10.64,10.64 0 0 0 1.83,3.77 c 1.71,2.18 10.42,3.79 10.42,3.79 z"
       style="fill:#f28f8f"
       id="path299" />
    <path
       d="m 227.86,159.53 a 1.34,1.34 0 1 1 -2.68,0 1.35,1.35 0 0 1 1.34,-1.38 1.36,1.36 0 0 1 1.34,1.38 z"
       style="fill:#263238"
       id="path301" />
    <path
       d="m 226.44,154.48 -2.87,1.58 a 1.72,1.72 0 0 1 0.67,-2.28 1.59,1.59 0 0 1 2.2,0.7 z"
       style="fill:#263238"
       id="path303" />
    <path
       d="m 227,168.48 3.06,1.15 a 1.61,1.61 0 0 1 -2.08,1 1.72,1.72 0 0 1 -0.98,-2.15 z"
       style="fill:#f28f8f"
       id="path305" />
    <path
       d="m 239.1,155.59 -2.61,-2 a 1.58,1.58 0 0 1 2.27,-0.35 1.74,1.74 0 0 1 0.34,2.35 z"
       style="fill:#263238"
       id="path307" />
    <path
       d="m 238.3,158.76 a 1.35,1.35 0 0 1 -1.34,1.38 1.39,1.39 0 1 1 1.34,-1.38 z"
       style="fill:#263238"
       id="path309" />
    <polygon
       points="235.84,166.43 232.69,158.99 231.43,166.95 "
       style="fill:#f28f8f"
       id="polygon311" />
    <polygon
       points="392.43,318.51 338.26,242.5 338.26,238.38 394.21,316.69 "
       style="fill:#263238"
       id="polygon313" />
    <path
       d="m 301.36,175 c 4.84,0 7.56,4.18 10.67,11.21 3.11,7.03 18.44,44 20.32,45.12 1.88,1.12 4.13,1.19 6.3,3.25 3.41,3.23 5.77,3.49 4,4.53 -1.77,1.04 -4.36,-0.73 -4.36,-0.73 0,0 4.3,5.23 3.93,6.47 -1.51,5 -12.62,2.23 -14.33,0 -2.78,-3.64 -3.22,-9.07 -4.6,-10.71 -1.38,-1.64 -21.2,-40.89 -21.2,-40.89 z"
       style="fill:#b16668"
       id="path315" />
    <path
       d="m 338.26,238.38 c -3.15,-3.43 -7.78,-3.43 -9.95,0 0,0 4.17,-3.45 9.95,0 z"
       style="fill:#9a4a4d"
       id="path317" />
    <path
       d="m 327.32,221.56 c 0.42,0.93 -3.35,13.9 -3.35,13.9 a 4.59,4.59 0 0 1 -1.88,-3.29 l 3.7,-14 a 4.92,4.92 0 0 1 1.53,3.39 z"
       style="fill:#263238"
       id="path319" />
    <path
       d="m 328.31,238.38 -3.67,-5.26 -0.67,2.34 4,5.58 a 6.37,6.37 0 0 1 0.34,-2.66 z"
       style="fill:#263238"
       id="path321" />
    <path
       d="m 303.93,211.46 h -25.27 a 6.79,6.79 0 0 1 -6.79,-6.79 V 150.9 a 19.43,19.43 0 0 1 19.43,-19.43 v 0 a 19.42,19.42 0 0 1 19.42,19.43 v 53.77 a 6.79,6.79 0 0 1 -6.79,6.79 z"
       style="fill:#263238"
       id="path323" />
    <path
       d="m 247,323 c -1.54,-0.78 -2.51,1.16 -3.9,2.72 -1,1.1 -2.5,2.83 -2.72,4.08 -0.33,1.85 1.33,4.76 3.18,6.36 1.85,1.6 4,2.75 4.65,6.27 0.65,3.52 2,5.6 5.68,7.17 4,1.72 9.34,1.17 11.15,0 2.15,-1.39 0.19,-2.91 -2.82,-7.22 -3.93,-5.62 -7,-9.64 -7,-14.88 z"
       style="fill:#263238"
       id="path325" />
    <path
       d="m 250.14,318.42 -3.23,4.73 a 4.54,4.54 0 0 0 1.09,6.3 l 0.1,0.06 a 4.87,4.87 0 0 0 6.18,-1 l 5,-5.49 z"
       style="fill:#f28f8f"
       id="path327" />
    <path
       d="m 308.14,228.66 c 0.2,6 1.27,28 -3.13,39.53 A 108.48,108.48 0 0 1 295.86,287 c -1.31,2.24 -39.06,39 -39.06,39 0,0 -6.41,-0.47 -7.42,-6.68 0,0 15.46,-26.3 18.81,-31.69 C 271.54,282.24 283.4,274 283.4,274 l -1.08,-50.55 z"
       style="fill:#00d1b2"
       id="path329" />
    <path
       d="m 308.14,228.66 c 0.2,6 1.27,28 -3.13,39.53 A 108.48,108.48 0 0 1 295.86,287 c -1.31,2.24 -39.06,39 -39.06,39 0,0 -6.41,-0.47 -7.42,-6.68 0,0 15.46,-26.3 18.81,-31.69 C 271.54,282.24 283.4,274 283.4,274 l -1.08,-50.55 z"
       style="opacity:0.2"
       id="path331" />
    <rect
       x="299.64999"
       y="341.87"
       width="8.1800003"
       height="11.92"
       transform="rotate(167.19,303.73962,347.83102)"
       style="fill:#f28f8f"
       id="rect333" />
    <path
       d="m 294.84,247.06 a 50.38,50.38 0 0 0 7.29,-8.41 c 6.1,-8.42 5.16,-15.91 5.16,-15.91 h -2.49 l -33,0.68 c -3.28,5.36 -4,13.49 -2.88,21.42 2.29,16.44 15.91,44.9 15.91,44.9 -0.19,2.25 -1.14,11.71 1,20.09 3.38,13.22 12.6,35.59 12.6,35.59 0,0 5.78,0.83 8.65,-2.52 0,0 -5.11,-45.42 -6.48,-57.06 -1.49,-12.59 -5.76,-38.78 -5.76,-38.78 z"
       style="fill:#00d1b2"
       id="path335" />
    <path
       d="m 294.84,247.06 a 50.38,50.38 0 0 0 7.29,-8.41 c 6.1,-8.42 5.16,-15.91 5.16,-15.91 h -2.49 l -33,0.68 c -3.28,5.36 -4,13.49 -2.88,21.42 2.29,16.44 15.91,44.9 15.91,44.9 -0.19,2.25 -1.14,11.71 1,20.09 3.38,13.22 12.6,35.59 12.6,35.59 0,0 5.78,0.83 8.65,-2.52 0,0 -5.11,-45.42 -6.48,-57.06 -1.49,-12.59 -5.76,-38.78 -5.76,-38.78 z"
       style="opacity:0.2"
       id="path337" />
    <path
       d="m 273.53,198.65 c 0.34,-0.58 10.58,-14.94 0.05,-22.34 5.59,3 5.88,7.06 5.88,11.05 0,3.7 -1.53,6.81 -5.93,11.29 z"
       style="fill:#f28f8f"
       id="path339" />
    <path
       d="m 308.16,348.79 -0.26,-1.14 c 0.84,0.16 4.42,6.11 8,8.69 3.89,2.83 7.27,4.51 9,5.78 2.32,1.71 -1,5.21 -6.77,5.52 -2.84,0.15 -8,-0.71 -9.61,-2.23 -1.61,-1.52 -2.75,-4 -4,-5.1 -1.25,-1.1 -3.83,-2 -4.69,-3.44 -0.48,-0.76 -0.55,-2.66 -0.5,-4.29 0.05,-1.63 0.1,-3.14 0.61,-3.12 l 0.2,0.87 a 9.86,9.86 0 0 0 4.86,1.07 c 1.32,-0.06 3.83,-0.4 3.16,-2.61 z"
       style="fill:#263238"
       id="path341" />
    <path
       d="m 299.59,278.13 c 0,0 -3.85,-27.33 -4.75,-31.07 0,0 6.78,-2.58 8.86,-4.95 0,0 -1.49,3.31 -6.34,6.25 z"
       style="fill:#00d1b2"
       id="path343" />
    <path
       d="m 299.59,278.13 c 0,0 -3.85,-27.33 -4.75,-31.07 0,0 6.78,-2.58 8.86,-4.95 0,0 -1.49,3.31 -6.34,6.25 z"
       style="opacity:0.4"
       id="path345" />
    <path
       d="m 279.09,277.33 c 0,0 4.09,10.17 5.73,12.41 0,0 -0.41,7.75 -0.35,9.32 l -2.15,1.87 c 0,0 -0.1,-6.51 1,-10.45"
       style="fill:#00d1b2"
       id="path347" />
    <path
       d="m 279.09,277.33 c 0,0 4.09,10.17 5.73,12.41 0,0 -0.41,7.75 -0.35,9.32 l -2.15,1.87 c 0,0 -0.1,-6.51 1,-10.45"
       style="opacity:0.4"
       id="path349" />
    <path
       d="m 306.29,204.2 c 0.52,4.78 1.85,24.46 1.85,24.46 -15.79,8.43 -35.38,2.84 -38.38,-0.63 a 33.56,33.56 0 0 1 8.87,-15.09 l -5.12,-14.28 c 0,0 -0.61,-1.46 -0.59,-1.47 0.34,-0.59 7.48,-8.63 0.7,-21.41 l 9.21,-0.84 13.5,-0.39 c 2.94,0.16 5,0.45 5,0.45 1.89,1.76 4.86,6.6 6.78,11.53 1.27,3.18 2.61,8.25 -1.82,17.67 z"
       style="fill:#455a64"
       id="path351" />
    <path
       d="m 303.79,139.93 c 2,1.22 4.58,6.38 4.33,17.2 -0.21,9.17 -3.18,11.43 -4.67,12.09 -1.49,0.66 -4.37,0.25 -7.17,-0.21 v 5.5 c 0,0 3.87,4.49 3.62,7 -0.25,2.51 -5.58,3.13 -9.2,0.66 -3.62,-2.47 -6.67,-7.27 -6.67,-7.27 l 0.06,-12.66 c 0,0 -1.64,1.6 -4.44,-0.84 -2.3,-2 -3.08,-5.41 -1.28,-7.24 a 4,4 0 0 1 6.39,1.28 c 0,0 4.46,0.16 10.4,-3.1 a 16.72,16.72 0 0 0 8.63,-12.41 z"
       style="fill:#b16668"
       id="path353" />
    <path
       d="m 297.88,154.82 a 1.16,1.16 0 0 1 -1.09,1.25 1.2,1.2 0 0 1 -0.12,-2.39 1.17,1.17 0 0 1 1.21,1.14 z"
       style="fill:#263238"
       id="path355" />
    <path
       d="m 298.19,162.6 2.68,0.85 a 1.37,1.37 0 0 1 -1.74,1 1.47,1.47 0 0 1 -0.94,-1.85 z"
       style="fill:#9a4a4d"
       id="path357" />
    <path
       d="M 307.34,151.28 305,149.66 a 1.36,1.36 0 0 1 1.94,-0.39 1.48,1.48 0 0 1 0.4,2.01 z"
       style="fill:#263238"
       id="path359" />
    <path
       d="m 306.8,154 a 1.1513145,1.1513145 0 1 1 -2.3,0.11 1.1513145,1.1513145 0 1 1 2.3,-0.11 z"
       style="fill:#263238"
       id="path361" />
    <polygon
       points="305.2,159.14 301.36,153.33 301.55,160.27 "
       style="fill:#9a4a4d"
       id="polygon363" />
    <path
       d="m 296.28,169 c -2.95,-0.39 -9,-2.13 -10,-4.53 a 6.21,6.21 0 0 0 2.12,3.06 c 1.81,1.55 7.84,3.3 7.84,3.3 z"
       style="fill:#9a4a4d"
       id="path365" />
    <polygon
       points="278.64,212.94 275.58,204.42 284.46,215.82 "
       style="fill:#37474f"
       id="polygon367" />
    <path
       d="m 275,141.23 -4.5,-2.42 a 2.49,2.49 0 0 1 3.41,-1.13 2.69,2.69 0 0 1 1.09,3.55 z"
       style="fill:#263238"
       id="path369" />
    <path
       d="m 272.92,197.19 c 0,0 -6.22,14.81 -9.39,24.81 -2,6.38 -4.83,14.57 -4.46,20.18 a 4.09,4.09 0 0 0 1.25,2.66 c 1.9,1.87 2.48,3.49 3.76,5.6 1,1.66 2.05,2.25 1.79,2.65 a 2.23,2.23 0 0 1 -3,0.37 15.38,15.38 0 0 1 -2.77,-2.4 20.24,20.24 0 0 0 2,6.24 c 2.26,4.5 -0.91,5.91 -4.4,5.55 -4,-0.43 -6.1,-3.67 -7.14,-13 a 58.54,58.54 0 0 1 0.13,-10.86 193.25,193.25 0 0 1 4,-23.18 230.72,230.72 0 0 1 10.55,-33.81 c 1.84,-4.4 4.51,-5.73 8.38,-6.24 7.26,13.29 -0.7,21.43 -0.7,21.43 z"
       style="fill:#b16668"
       id="path371" />
    <path
       d="m 260.12,251.05 c -1.66,-0.43 -3.3,-1.44 -3.95,0.26 a 7.62,7.62 0 0 0 1.39,6.66 c 1.48,1.55 5.64,2.67 6.63,1.8 0.99,-0.87 -1.1,-7.95 -4.07,-8.72 z"
       style="fill:#ffa8a7"
       id="path373" />
    <path
       d="m 407.87,341.64 c -0.49,3.21 -1.85,12.6 -5.91,16.51 -1.32,1.28 -12.27,5.14 -13.08,5.34 0,0 2.3,3.29 1.37,4.33 -1.52,1.71 -5,1.26 -7.47,-3 -1.34,-2.26 1.32,-4.17 2.48,-4.92 1.46,-0.94 5.6,-3.8 7.83,-5.31 a 3.85,3.85 0 0 0 1.94,-3.51 l -0.21,-5.36 z"
       style="fill:#00d1b2"
       id="path375" />
    <path
       d="m 407.87,341.64 c -0.49,3.21 -1.85,12.6 -5.91,16.51 -1.32,1.28 -12.27,5.14 -13.08,5.34 0,0 2.3,3.29 1.37,4.33 -1.52,1.71 -5,1.26 -7.47,-3 -1.34,-2.26 1.32,-4.17 2.48,-4.92 1.46,-0.94 5.6,-3.8 7.83,-5.31 a 3.85,3.85 0 0 0 1.94,-3.51 l -0.21,-5.36 z"
       style="opacity:0.2"
       id="path377" />
    <path
       d="m 410.21,301.47 a 8.52,8.52 0 0 1 6.92,-0.61 8.87,8.87 0 0 1 4.75,4.48 20.64,20.64 0 0 1 1.45,8.65 c -0.73,3.67 -4.83,3.29 -7.81,1 -2.98,-2.29 -5.31,-13.52 -5.31,-13.52 z"
       style="fill:#00d1b2"
       id="path379" />
    <path
       d="m 410.21,301.47 a 8.52,8.52 0 0 1 6.92,-0.61 8.87,8.87 0 0 1 4.75,4.48 20.64,20.64 0 0 1 1.45,8.65 c -0.73,3.67 -4.83,3.29 -7.81,1 -2.98,-2.29 -5.31,-13.52 -5.31,-13.52 z"
       style="opacity:0.2"
       id="path381" />
    <path
       d="m 369.91,343.8 c -1.31,1.44 -4.79,5.59 -4.56,7.27 a 38.74,38.74 0 0 0 1.63,5.48 c 0,0 3,1.49 3.94,2.13 0.94,0.64 0.54,3.33 -3.19,3.44 -3.73,0.11 -5.57,-1.1 -6.42,-3.05 -0.54,-1.21 -2,-5.08 -3,-7.85 a 10.49,10.49 0 0 1 -0.27,-6.32 21.8,21.8 0 0 1 2.16,-5.64 c 1.63,-2.26 9.71,4.54 9.71,4.54 z"
       style="fill:#00d1b2"
       id="path383" />
    <path
       d="m 369.91,343.8 c -1.31,1.44 -4.79,5.59 -4.56,7.27 a 38.74,38.74 0 0 0 1.63,5.48 c 0,0 3,1.49 3.94,2.13 0.94,0.64 0.54,3.33 -3.19,3.44 -3.73,0.11 -5.57,-1.1 -6.42,-3.05 -0.54,-1.21 -2,-5.08 -3,-7.85 a 10.49,10.49 0 0 1 -0.27,-6.32 21.8,21.8 0 0 1 2.16,-5.64 c 1.63,-2.26 9.71,4.54 9.71,4.54 z"
       style="opacity:0.2"
       id="path385" />
    <path
       d="m 343.74,360.18 a 2.16,2.16 0 0 1 -0.49,-0.22 5.33,5.33 0 0 1 -2.1,-3.36 23.93,23.93 0 0 1 -0.14,-7 c 0.19,-3.21 7.9,-9.82 8.89,-12.87 0.18,-16.41 6.92,-20.56 12.32,-22.5 9.15,-3.28 14,-0.63 18.65,2 5.43,3.06 12.44,5 14.52,-1.39 2,-6.09 4.05,-12 11.69,-13.25 5.22,-0.82 10.31,1.43 12,5 1.69,3.57 1.43,9.68 2.52,12.15 1.09,2.47 3.8,4.33 3,6.25 a 8.29,8.29 0 0 1 -1.21,2 c 0,0 0,0 -0.05,0 a 0.12,0.12 0 0 1 -0.07,0.12 c -0.11,0.14 -0.23,0.25 -0.34,0.37 a 7,7 0 0 1 -1.4,1.16 6.58,6.58 0 0 1 -2.24,0.94 3.36,3.36 0 0 1 -0.61,0.14 l -0.69,0.09 c -3.11,0.25 -8.47,-1.53 -8.47,-1.53 -0.16,0.59 -0.27,1.19 -0.38,1.76 -1.38,6.84 0.09,11.87 -3.18,16.19 a 15.56,15.56 0 0 1 -15.96,6.25 101.49,101.49 0 0 1 2.39,10.67 69.88,69.88 0 0 1 1.24,10.57 c 0,0 6.25,2.37 5.37,5.25 -0.27,0.88 -2.9,1.51 -6.75,0.9 -3.85,-0.61 -4.77,-3.45 -5,-5.5 a 88.24,88.24 0 0 0 -3.18,-11.81 l -0.36,-0.94 c -2.55,-6.41 -5.42,-10.57 -10.88,-14.78 -4.83,-3.73 -7.35,-5.59 -10.46,-6.59 a 22.35,22.35 0 0 0 -2.31,2.34 c -0.62,0.58 -1.26,1.15 -1.93,1.68 a 20.86,20.86 0 0 1 -2.95,1.9 c -0.9,0.48 -1.82,0.92 -2.68,1.47 -1.33,0.85 -2.92,1.34 -4.07,2.47 a 5.57,5.57 0 0 0 -1.67,4.56 c 0,0.67 0,1.33 0,2 a 5.29,5.29 0 0 1 -0.44,2.62 2.09,2.09 0 0 1 -2.58,0.89 z"
       style="fill:#00d1b2"
       id="path387" />
    <path
       d="m 423.33,327 -0.12,0.14 c -0.11,0.14 -0.23,0.25 -0.34,0.37 a 7.09,7.09 0 0 1 -1.4,1.16 6.58,6.58 0 0 1 -2.24,0.94 3.36,3.36 0 0 1 -0.61,0.14 l -0.69,0.09 c -3.11,0.25 -8.47,-1.53 -8.47,-1.53 a 16.84,16.84 0 0 0 -0.38,1.76 c -1.38,6.84 0.09,11.87 -3.18,16.19 a 15.56,15.56 0 0 1 -15.9,6.22 c -1,-8.05 8.28,-10.6 11,-17.22 2.05,-5 2.13,-9.88 3.75,-11.51 1.62,-1.63 5.64,-1.2 8.55,0.86 2.45,1.72 5.28,3.16 7.16,1.95 0.71,-0.46 2.31,0.89 2.79,0.45 0.06,-0.01 0.06,-0.01 0.08,-0.01 z"
       style="fill:#00d1b2"
       id="path389" />
    <path
       d="m 423.33,327 -0.12,0.14 c -0.11,0.14 -0.23,0.25 -0.34,0.37 a 7.09,7.09 0 0 1 -1.4,1.16 6.58,6.58 0 0 1 -2.24,0.94 3.36,3.36 0 0 1 -0.61,0.14 l -0.69,0.09 c -3.11,0.25 -8.47,-1.53 -8.47,-1.53 a 16.84,16.84 0 0 0 -0.38,1.76 c -1.38,6.84 0.09,11.87 -3.18,16.19 a 15.56,15.56 0 0 1 -15.9,6.22 c -1,-8.05 8.28,-10.6 11,-17.22 2.05,-5 2.13,-9.88 3.75,-11.51 1.62,-1.63 5.64,-1.2 8.55,0.86 2.45,1.72 5.28,3.16 7.16,1.95 0.71,-0.46 2.31,0.89 2.79,0.45 0.06,-0.01 0.06,-0.01 0.08,-0.01 z"
       style="opacity:0.5;fill:#ffffff"
       id="path391" />
    <path
       d="m 409.46,328.3 c -3.35,0.18 -14.57,-3.71 -14.37,-12.64 a 5,5 0 0 0 -2.66,2.85 c 0,0 1.45,10.7 16.41,12.86 a 2.65,2.65 0 0 0 0.62,-3.07 z"
       style="fill:#263238"
       id="path393" />
    <path
       d="m 408.3,304.46 a 8.43,8.43 0 0 0 -11,-1.08 c -3.8,2.47 -4.07,6.11 -4.12,8.38 -0.06,2.75 1.36,7.62 4.12,7.81 2.76,0.19 5.1,-5 5.59,-7.55 a 12.78,12.78 0 0 1 5.41,-7.56 z"
       style="fill:#00d1b2"
       id="path395" />
    <path
       d="m 408.3,304.46 a 8.43,8.43 0 0 0 -11,-1.08 c -3.8,2.47 -4.07,6.11 -4.12,8.38 -0.06,2.75 1.36,7.62 4.12,7.81 2.76,0.19 5.1,-5 5.59,-7.55 a 12.78,12.78 0 0 1 5.41,-7.56 z"
       style="opacity:0.2"
       id="path397" />
    <path
       d="m 356.75,317.23 c -1.48,-3.38 -0.47,-10.23 4.5,-13.74 4.97,-3.51 12.36,-3.3 15.76,0 3.05,3 5,8.07 1.75,12.87 -3.25,4.8 -7.87,3.37 -7.59,1.18 0.65,-5 -3.65,-8.64 -7.3,-7.91 -3.65,0.73 -4.31,5.77 -4.31,5.77 a 16.38,16.38 0 0 0 -2.81,1.83 z"
       style="fill:#00d1b2"
       id="path399" />
    <path
       d="m 356.75,317.23 c -1.48,-3.38 -0.47,-10.23 4.5,-13.74 4.97,-3.51 12.36,-3.3 15.76,0 3.05,3 5,8.07 1.75,12.87 -3.25,4.8 -7.87,3.37 -7.59,1.18 0.65,-5 -3.65,-8.64 -7.3,-7.91 -3.65,0.73 -4.31,5.77 -4.31,5.77 a 16.38,16.38 0 0 0 -2.81,1.83 z"
       style="opacity:0.2"
       id="path401" />
    <path
       d="m 422.64,327.43 a 4.67,4.67 0 0 1 -3.64,-1.89 2,2 0 0 1 1,-2.74 7.23,7.23 0 0 1 3.69,-0.4 2.31,2.31 0 0 1 1.3,2.22 c -0.16,0.38 -0.99,2.58 -2.35,2.81 z"
       style="fill:#263238"
       id="path403" />
    <path
       d="m 409.69,315.47 a 1.22,1.22 0 0 1 2.43,0 1.22,1.22 0 1 1 -2.43,0 z"
       style="fill:#263238"
       id="path405" />
    <circle
       cx="420.48999"
       cy="314.41"
       r="1.1"
       style="fill:#263238"
       id="circle407" />
  </g>
</svg>
